<svg xmlns="http://www.w3.org/2000/svg" viewBox="0 0 1500 750"><defs><style>.cls-1{fill:#3a322b;}.cls-2{fill:#3e3b3b;}.cls-3{fill:#fff6e8;}.cls-4{fill:#ce4a45;}.cls-5{fill:#cbc7ca;}.cls-6{fill:#4c3f35;}.cls-7{opacity:0.4;}.cls-10,.cls-8{opacity:0.9;}.cls-9{fill:#cecdce;}.cls-10{fill:#908e8e;}.cls-11{fill:#a2a1a1;}.cls-12{fill:#bab8b9;}.cls-13{fill:#e1e0e0;}.cls-14{fill:none;stroke:#b4b2b3;stroke-width:0;}.cls-15{fill:#f3f3f3;}.cls-16{fill:#cc2027;}.cls-17{fill:#fff;}.cls-18{fill:#3d3a3b;}.cls-19{fill:#777176;}</style></defs><title>Tekengebied 4</title><g id="my_packpack"><path class="cls-1" d="M558.88,470.26c-1-1.82-2.28-4.22-3.93-7.32-7.4-13.93-3.64-29.08,1-43.13q8.07-24.18,14.83-48.78c5.1-18.57,8.16-37.84,3.59-56.9-.85-3.52-3.24-15.17-7.26-17-82.73-38.23-69.14,61.19-55.1,96.8l10.83,39c5.39,24.4,26.34,35.16,34.55,38.5l3,.88Z"/><path class="cls-2" d="M558.35,470.67v.05a.87.87,0,0,1,.19.08A1.3,1.3,0,0,0,558.35,470.67Z"/><path class="cls-2" d="M559,471.43c.07,0,.09.08.17.12s.08-.05.06-.1a5.58,5.58,0,0,0-.67-.56c-.1,0,.11.12.47.43C559.17,471.45,559.16,471.54,559,471.43Z"/><path class="cls-2" d="M558.73,471.33a.68.68,0,0,0-.17-.07l-.13,0-.17,0a2.5,2.5,0,0,0-.44,0,1.43,1.43,0,0,1,.35.05l.39.12C558.7,471.4,558.81,471.43,558.73,471.33Z"/><path class="cls-2" d="M519.15,418l.08.24A1.05,1.05,0,0,0,519.15,418Z"/><path class="cls-2" d="M513.75,400.27l-.16-.16c1.11,3.28,2,7.08,3,10.57l-.1-.23c2.42,8.94,4.92,17.11,7.4,25.95,0-.14-.09-.17-.14-.31.16.41.33.87.48,1.35,0,.12-.11-.12-.15-.27a29.11,29.11,0,0,0,1.24,3.51,16.14,16.14,0,0,0,.77,1.7,9.63,9.63,0,0,1,.52,1.2c.25.49.42.67.35.37.19.41.38.81.58,1.22l.69,1.17,1.39,2.36c1.07,1.49,2.06,3.07,3.29,4.47a54.08,54.08,0,0,0,3.73,4.13c1.36,1.26,2.69,2.54,4.13,3.65.26.24.27.32.16.31a79.84,79.84,0,0,0,16.4,9.69c.25,0-.57-.33,0-.16a51,51,0,0,1-5.08-2.32l.24,0c-1.17-.65-.33.05-1.51-.71-.46-.32.16,0-.06-.14-1.27-.66-2.5-1.45-3.74-2.19s-2.42-1.53-3.53-2.29a11,11,0,0,0-1.49-1.22,16.7,16.7,0,0,1-1.65-1.47c-.61-.43-1.17-.91-1.44-1-7.38-6.74-13.3-15.61-15.59-25.7-1.59-4.59-2.78-10.28-4.42-15.79q0-.06,0,0c-.58-1.79-1.34-4.41-1.9-6.58l-.64-1.79q-1.25-4.89-2.59-9.82-.66-2.46-1.34-4.92c-.13-.43-.2-.8-.37-1.26l-.45-1.19L511,390a151.3,151.3,0,0,1-5.39-19.75,180.44,180.44,0,0,1-3.1-22,145,145,0,0,1-.2-21.89s.06-.1,0,.29a73.59,73.59,0,0,1,2.14-12.2l0,0a39.8,39.8,0,0,1,6.31-14.15,28.54,28.54,0,0,1,11.76-9.47c5.56-2.26,12.1-2.64,18.49-1.84A83.1,83.1,0,0,1,559.7,294l-.05.05,3.52,1.4,3.44,1.52a5.89,5.89,0,0,1,2.72,2.43,18.67,18.67,0,0,1,1.65,3.32,102.74,102.74,0,0,1,3.89,14.47,93.73,93.73,0,0,1,.67,31.71c-1.15,6.38-2.37,14.85-4.29,20.67-3.75,12-6.89,23.71-10.38,35.75-1.82,5.48-3.57,11-5.32,16.45a127.94,127.94,0,0,0-4.18,16.45c-.23,2.64-.56,5.4-.57,8.27a34.55,34.55,0,0,0,1,8.71,1.79,1.79,0,0,1,0-.23,14.46,14.46,0,0,0,1,3.18,12.22,12.22,0,0,1,1,2.56l-.11-.2c.33,1.09,1.48,2.18,1.63,2.87l.16.11c.67,1.19,0,.19.45,1.13.2.34.22.06.56.81-.23.33,1.64,2.89,1.33,3.17-.35-.66.42,1.1-.45-.33.19.44,1.29,2.43,1.34,2.17.25.08.82.79.28-.5l-.25-.18c-.1-.47-.11-.34-.1-.54-.84-1.6-.78-1.9-1.32-3.08,0,0,0,0,0,0a14.27,14.27,0,0,1-1.37-2.45l-.07-.29c-.09-.44-1.18-1.68-.71-1.31a33.35,33.35,0,0,1-3.51-11.24,11.38,11.38,0,0,1-.25-1.63c-.05-.6-.09-1-.16-.56.11-1,.11-4.05.19-5.17a.43.43,0,0,1,0,.27,9.69,9.69,0,0,0,.16-2.36,7.43,7.43,0,0,1,.31-2.24c-.23-.35.61-3.65.58-4.84.11-.23.17-.31.2-.21a101.58,101.58,0,0,1,2.89-10.5c.58-2.61,2.12-6.13,2.54-8.42.66-1.8,1.73-4.71,2.43-7.29l0,.26c.9-2.88,2-6.48,2.43-8.51a16.71,16.71,0,0,0,1.34-3.25c.46-2,1.67-5.85,2.42-8.83.26-.41.65-2.44.88-2.54,2-8.38,5.19-18.53,7.24-27.53v.13c.13-1.19.14-2.59.23-3.81,0-.11.07-.1,0,.16.24-1.67.7-3.19.88-4.86,0,0,0,0,0,.29.12-1.57.59-3.21.62-5.08l.06-.1,0-1.18c.06,0,.15.08.06.71a89.65,89.65,0,0,0-.41-21.94c-.54-3.66-1.38-7.29-2.28-10.87a50.66,50.66,0,0,0-3.61-10.56l.31.47a13.71,13.71,0,0,0-1.64-2.44s.13.09.23.2a5.39,5.39,0,0,0-2.18-1.91l-2.56-1.11c-1.7-.74-3.43-1.36-5.08-2,0,0,.55.1.1-.1a30,30,0,0,1-3.08-1.14,7.36,7.36,0,0,0-2.22-.59c-.11-.05-.17-.16.1-.1-7-2.16-14.53-3.77-22-3.38a38.25,38.25,0,0,0-9.42,2.15,24.09,24.09,0,0,0-8.3,5.19l0-.07a35.62,35.62,0,0,0-7.4,10.26A51.58,51.58,0,0,0,503.17,318a74.86,74.86,0,0,0-1.32,9.45l-.08.09c-.23,6-.78,12.67,0,18.93l-.14-.42c.22,1,.23,3.79.5,3.4v1.11c.81,4.2.69,7.74,1.8,12.87l-.12-.33c.29,1.36.61,3,.75,4a3.68,3.68,0,0,1-.13-.4,104,104,0,0,0,3.1,13.45l-.26-.47c.71,2.11,1.72,6.06,2.72,8.81l-.11-.15.55,1.37-.1.08c.3.9.64,1.77,1,2.64l.52,1.29a13.11,13.11,0,0,1,.4,1.3C512.73,396.74,513.23,398.49,513.75,400.27Z"/><path class="cls-2" d="M524.1,437.17v0C524.05,437,524.07,437.08,524.1,437.17Z"/><path class="cls-2" d="M557.06,465.67c.07.16.13.29.2.42A4.52,4.52,0,0,0,557.06,465.67Z"/><ellipse class="cls-3" cx="533.66" cy="331.58" rx="50.26" ry="26.86" transform="translate(157.07 834.49) rotate(-85.03)"/><polygon class="cls-2" points="561.11 333.6 561.16 333.49 561.08 333.18 561.11 333.6"/><path class="cls-2" d="M561,331.58c0,.06,0,0-.07.09l.21,1.19C561.36,332.35,560.88,331.92,561,331.58Z"/><path class="cls-2" d="M561.07,331.24a1,1,0,0,0-.07-.76C561.1,330.65,560.92,331.33,561.07,331.24Z"/><path class="cls-2" d="M553.28,292.28l.08.11A.27.27,0,0,0,553.28,292.28Z"/><path class="cls-2" d="M546,284.75l-.15,0a19.82,19.82,0,0,1,4.48,4.22l-.12-.08a44.94,44.94,0,0,1,7.15,13.35c0-.08-.08-.09-.11-.17a4.18,4.18,0,0,1,.34.74c0,.08-.07-.06-.11-.14.17,1.09,1,3.06,1,3.77.09.29.2.4.21.22a89.26,89.26,0,0,1,2.17,12.4c0,.2-.06.24-.13.19a50.71,50.71,0,0,1,.26,10.89c.07.15.1-.36.17,0,.15-1.17-.11-2.15,0-3.21l.08.14c.06-.77-.19-.16-.08-1,.07-.31.09.08.1-.06a34.12,34.12,0,0,0-.26-4.9c.15-.39-.11-1.76,0-2.37a3.36,3.36,0,0,0-.24-1,66.5,66.5,0,0,0-3.65-17.07c-1.22-2.48-2.18-5.67-4-8.44,0,0,0,0,0,0-.63-.87-1.51-2.16-2.28-3.18l-.78-.76a18.72,18.72,0,0,0-9.38-6.66,14.9,14.9,0,0,0-5.87-.46,17.92,17.92,0,0,0-5.65,1.69,28.86,28.86,0,0,0-9.69,8.19A44.29,44.29,0,0,0,513.46,302s-.06,0,0-.17c-1,2.28-1.88,4.35-2.58,6.58l0,0c-1.64,5.54-3.25,11.62-3.66,17.19a86.68,86.68,0,0,0-.14,21.55H507c.78,5.66,1.64,11.2,3.77,16.55A34.15,34.15,0,0,0,521,378.29a12.93,12.93,0,0,0,5.35,2.77,21.12,21.12,0,0,0,5.81.54,16.69,16.69,0,0,0,9.65-4,32.42,32.42,0,0,0,6.84-8c3.86-5.3,6.06-11.51,8.23-17.42.66-2.92,1.95-6,2.49-9.32l-.09.1c.45-1.14.13-2.68.58-3.37v.13c.28-.6-.2-1.51,0-1.87l-.07-.11c.07-.76.11-.08.22-.66,0-.22-.15-.1,0-.56.39-.06.12-1.87.53-1.89,0,.42.22-.64.21.31.07-.26.17-1.55,0-1.45-.17-.12-.29-.64-.5.13l.12.17c-.16.25-.08.19-.19.27a11.67,11.67,0,0,1-.47,1.85h0a4.61,4.61,0,0,1-.15,1.57l-.09.15c-.19.21.15,1.19-.07.84a64.92,64.92,0,0,1-1.11,6.65c0,.34-.39,1.72-.09,1.27a15.07,15.07,0,0,0-1,2.79.18.18,0,0,1,0-.16c-.6,1.12-.12,1.49-.79,2.5.19.25-.7,2-.64,2.69-.09.12-.16.15-.18.09-.68,2-1.58,4.08-2.32,5.68-.38,1.47-1.63,3.24-2,4.52-.56.91-1.53,2.34-2.24,3.66l0-.14c-.9,1.42-2.12,3.12-2.73,4.12a6.92,6.92,0,0,0-1.51,1.27,27.49,27.49,0,0,1-3.55,3.61c-.28.06-1.1.87-1.28.76a15.16,15.16,0,0,1-6.93,3.2,13.07,13.07,0,0,1-7.69-1l.07,0c-.32-.08-.67-.13-1-.19a10.74,10.74,0,0,1-1.05-.26s0-.07.1,0a5.55,5.55,0,0,1-1.15-.75c-.37-.26-.71-.56-1.09-.82,0,0,0,0,.17,0-.76-.44-1.31-1.23-2.15-1.83v-.08l-.52-.41c.06,0,.14-.08.38.18a36,36,0,0,1-6.76-10.05,53.26,53.26,0,0,1-3.85-11.8l.12.28c-.16-.51-.3-1-.43-1.56,0,0,.07.08.1.15-.31-2-.76-4.12-1-6.11,0,0,.13.3.13,0-.31-1.46,0-2.39-.41-3.1,0-.07.09-.12.13,0a67.77,67.77,0,0,1-.08-12.5c-.11-3.49.65-7.31,1.05-10.89l.06,0A68.22,68.22,0,0,1,512,306.52c.73-1.87,1.18-3.15,2-5h.09c1.17-3.22,3.51-6.2,5.34-9.22l-.05.26c.17-.56,1.35-1.65,1-1.67l.46-.43a11.29,11.29,0,0,1,2.28-2.62l1.39-1.18c.5-.39,1-.85,1.56-1.33l-.12.17a9.38,9.38,0,0,1,1.87-1.32c-.07.06,0,.06-.17.17,1.09-.56,2.25-1.12,3.44-1.66a14.67,14.67,0,0,1,3.76-1.07l-.27.17a4.67,4.67,0,0,1,1.09-.18,7.25,7.25,0,0,1,1.33,0,9.46,9.46,0,0,1,1.41.11,9.9,9.9,0,0,1,1.3.19l-.11,0,.83.09v.12A17.19,17.19,0,0,1,546,284.75Z"/><path class="cls-2" d="M557.52,302.69v0C557.49,302.61,557.5,302.64,557.52,302.69Z"/><path class="cls-2" d="M559.61,336.25l.06-.26S559.63,336.16,559.61,336.25Z"/><path class="cls-3" d="M553.75,594.18S541.63,619.33,540,625.62s-18.65,56.57-41.64,87.43,23.78-109.38,29.5-117.81S553.75,594.18,553.75,594.18Z"/><polygon class="cls-2" points="553.98 593.55 553.85 593.46 553.47 593.44 553.98 593.55"/><path class="cls-2" d="M551.62,593c.06,0,0,.05.08.09l1.43.14C552.58,592.91,552,593.25,551.62,593Z"/><path class="cls-2" d="M551.23,592.88a1.34,1.34,0,0,0-.89-.13C550.55,592.69,551.3,593.06,551.23,592.88Z"/><path class="cls-2" d="M519,616.3l.05-.16A.64.64,0,0,0,519,616.3Z"/><path class="cls-2" d="M515.39,628.17l.07.16c.55-2.26,1.59-4.66,2.32-7l0,.17c2.09-5.84,3.84-11.3,6-17.08a2,2,0,0,0,0,.24,6,6,0,0,1,.25-.94c.06-.07,0,.11,0,.21.64-1.14,1.3-3.59,1.75-4.29.12-.34.12-.52,0-.36.47-1.11.94-2.24,1.51-3.36a7.76,7.76,0,0,1,2.5-2.9,14.47,14.47,0,0,1,7.23-2.21c.25,0,.29.06.23.13,4.26-.45,8.7.49,12.84,1.65.18,0-.41-.2,0-.17-1.33-.46-2.52-.44-3.73-.83l.18,0c-.9-.23-.22.15-1.14-.13-.36-.14.11-.08-.06-.12a27.17,27.17,0,0,0-5.83-.54,23.67,23.67,0,0,0-2.85-.14,5,5,0,0,0-1.21.26,13.71,13.71,0,0,0-5,1.48,9.13,9.13,0,0,0-2.14,1.68,11.64,11.64,0,0,0-.84,1.09c-.24.39-.43.78-.63,1.18-1.48,3.16-2.67,6.41-3.92,9.66-.86,3.15-2.56,6.67-3.75,10.34,0,0,0,0,0,0-.35,1.21-.92,3-1.46,4.36l-.29,1.24c-3.23,8.44-6,17.26-8.86,26-3.24,9.91-6.14,18.59-8.52,28.47,0,0-.06,0,0-.21-.73,2.84-1.56,5.38-2.21,8.06h0c-1.52,6.67-3.62,13.79-4.57,20.35-.37,2-.72,4-.95,6.13a30.72,30.72,0,0,0-.19,3.2,6.5,6.5,0,0,0,.61,3.2,1.15,1.15,0,0,0,.71.5,1.36,1.36,0,0,0,.85-.12,5,5,0,0,0,1.37-.93,18.64,18.64,0,0,0,2.19-2.43c1.33-1.73,2.5-3.55,3.73-5.28l0,.05c1-1.39,1.89-2.81,2.8-4.23l2.75-4.2c1.72-2.86,3.56-5.66,5.11-8.69,3.56-6,6.35-12.88,9.54-19.15a66.83,66.83,0,0,0,3-6.54,69.29,69.29,0,0,1,2.77-6.42,162.93,162.93,0,0,0,9-23.29c1.38-3.62,2.57-7.31,3.59-11a68.68,68.68,0,0,1,4.29-10.58c1.22-3.35,3.3-6.72,4.9-10.34l-.13.09c.81-1.18,1-3,1.73-3.66l-.05.14c.48-.6.37-1.76.75-2.08l0-.15c.36-.83.13-.05.46-.67.11-.25-.1-.16.18-.64.38,0,.89-2,1.28-1.93-.21.45.48-.64.08.41.17-.27.81-1.66.6-1.61-.11-.19,0-.8-.52,0l0,.23c-.25.22-.16.19-.3.24a15.57,15.57,0,0,1-1.22,1.9s0,0,0,0a6.82,6.82,0,0,1-.77,1.72l-.15.14c-.26.19-.31,1.38-.39.93-1,2.26-2.19,4.82-3.34,7.33-.07.39-.88,1.91-.45,1.45a16.61,16.61,0,0,0-1.69,3.08s0-.08,0-.18c-.87,1.23-.47,1.7-1.35,2.83.14.3-1.08,2.28-1.12,3.11-.11.14-.18.17-.2.1-1,2.3-2.11,4.81-2.82,6.84a13.61,13.61,0,0,1-.36,1.47l-.45,1.49a16.3,16.3,0,0,0-.73,2.76c-.47,1.19-1.23,3.12-1.72,4.84l0-.18c-.64,1.92-1.48,4.29-1.79,5.65a8.27,8.27,0,0,0-1.11,2.09c-.35,1.3-1.36,3.83-2,5.79-.24.25-.58,1.6-.8,1.63a129.15,129.15,0,0,1-7.42,17.52l0-.09c-.24.77-.41,1.7-.62,2.5-.05.06-.08,0,0-.11-.44,1-1.05,1.91-1.49,2.94,0,0,0,0,0-.2-.36,1-1.06,1.91-1.47,3.09l-.08,0-.28.74s-.12-.11.08-.48c-4.22,8.66-8.58,17.63-13.85,26l.14-.34-.94,1.67s0-.11.05-.19c-1.42,2-2.59,4.25-4,6.16,0,0,.14-.36-.08-.11-.87,1.54-1.82,2.18-2,3.11-.06.06-.16.06-.08-.1a35.12,35.12,0,0,1-2.17,3A9.1,9.1,0,0,1,494,717a.78.78,0,0,1-1.16-.37,4.76,4.76,0,0,1-.39-1.69,22.47,22.47,0,0,1,.12-3.66c.07-4.12,1.29-8.6,2-12.82l.06,0c1-5.46,2.7-11.1,4.18-16.65.62-2.31,1-3.86,1.67-6.18l.09,0c.81-4,2.64-8.07,3.53-12.2l0,.31c0-.67.8-2.42.45-2.27l.3-.68c.46-2.85,1.7-4.93,2.51-8.35v.24a21.46,21.46,0,0,1,.78-2.59,1.33,1.33,0,0,1,0,.28c1.14-2.7,1.85-5.88,2.81-8.81l0,.37c.31-1.46,1.3-4,1.85-5.89l0,.13.23-1,.13,0C513.9,632.82,514.63,630.54,515.39,628.17Z"/><path class="cls-2" d="M524,603.93l0,0C523.92,604,523.93,604,524,603.93Z"/><path class="cls-2" d="M551.82,596.91l.16-.28A1.3,1.3,0,0,0,551.82,596.91Z"/><path class="cls-4" d="M505.53,410S493.11,367.73,475,393.91s-28.16,27.1-32.18,43.23-10,57.79,10.06,88.23,39.44,15.81,39.61,13.53S523,454.25,505.53,410Z"/><polygon class="cls-2" points="504.91 410.27 504.93 410.44 505.18 410.83 504.91 410.27"/><path class="cls-2" d="M506.11,413c0-.09,0-.06,0-.15l-.87-1.55C505.38,412.09,506.05,412.47,506.11,413Z"/><path class="cls-2" d="M506.26,413.5a2.46,2.46,0,0,0,.47,1C506.57,414.32,506.35,413.31,506.26,413.5Z"/><path class="cls-2" d="M508.22,473.1l0-.21A1,1,0,0,0,508.22,473.1Z"/><path class="cls-2" d="M506,488.68l.08.19c.39-2.92,1.19-6.14,1.63-9.22v.21A207.59,207.59,0,0,0,510.33,457a2.89,2.89,0,0,0,0,.29,8.19,8.19,0,0,1,0-1.22c0-.11,0,.12,0,.26.33-1.64.18-4.85.35-5.87,0-.47-.07-.68-.14-.42a125.29,125.29,0,0,0-.72-18.84c0-.3,0-.35.11-.28a123.52,123.52,0,0,0-3.2-16c-.13-.18.07.56-.15.07.34,1.7,1.08,3,1.27,4.59l-.12-.18c.19,1.13.24.18.39,1.37,0,.48-.12-.09-.08.12.59,2.37.85,4.91,1.4,7.16-.09.59.27,2.62.21,3.53a8.89,8.89,0,0,0,.32,1.49,172.63,172.63,0,0,1-.2,26.11c-.07,4.13-.95,9-1.59,13.85,0,0,0,0,0,0-.13,1.59-.48,3.89-.82,5.76l-.14,1.62c-2.23,11.23-4.68,22.69-7.85,33.89-1.78,6.36-3.63,12.28-5.49,18.15l-1.39,4.41-.34,1.12a5.9,5.9,0,0,0-.15.63l0,.18,0,0s0,.09-.07.15a6.15,6.15,0,0,1-1.47,1.51A18.44,18.44,0,0,1,482,544s-.1,0,.23-.09A20.53,20.53,0,0,1,472,542.51l0,0a30.49,30.49,0,0,1-10.9-7.34A71.57,71.57,0,0,1,452.82,525l-2-3.34a31.57,31.57,0,0,1-1.92-3.48,71.25,71.25,0,0,1-3.32-7.44c-.49-1.29-1-2.57-1.47-3.87l-1.2-4-.6-2-.46-2c-.31-1.34-.62-2.66-.93-4H441c-1.78-8.47-2.08-16.86-2.05-25.45.31-8.83.75-18.24,2.7-27,.67-2.69,1.29-5.82,2.21-8.84A22.83,22.83,0,0,1,448,425.9a74.6,74.6,0,0,1,5.31-5.9c1.84-1.89,3.68-3.76,5.47-5.7a142.29,142.29,0,0,0,10.1-12.21c1.52-1.93,3-3.87,4.42-5.89.72-1,1.4-2,2.13-3l1.08-1.49c.38-.49.8-.94,1.19-1.41a16.21,16.21,0,0,1,5.8-4.42,8.22,8.22,0,0,1,7.07.31,14,14,0,0,1,5.4,4.51,50.92,50.92,0,0,1,4,6.28v-.2c.67,1.68,2.12,3.44,2.26,4.61l-.09-.16c.23.94,1.27,1.86,1.3,2.49l.14.11c.45,1.06,0,.16.25,1,.14.31.2.06.4.74-.26.26,1.05,2.64.68,2.85-.2-.6.17,1-.37-.33.11.4.71,2.22.81,2,.22.1.59.79.39-.39l-.2-.18c0-.42,0-.31,0-.48-.47-1.47-.37-1.73-.67-2.8,0,0,0,0,0,0a12,12,0,0,1-.9-2.24l0-.25c0-.4-1-1.51-.53-1.18a67.38,67.38,0,0,0-4.81-9.09c-.35-.36-1.55-2.22-1.25-1.48a14.2,14.2,0,0,0-2.76-3.58s.08,0,.19.14c-1.23-1.55-1.86-1.33-3.23-2.58a1.51,1.51,0,0,1-.64-.21l-.52-.26-.64-.22-.68-.24a5.39,5.39,0,0,0-.68-.12,2.7,2.7,0,0,0-1.1,0c-.23-.06-.31-.11-.22-.15a9.28,9.28,0,0,0-1.29,0l-1.28.23a11.54,11.54,0,0,0-2.38,1c-.36.21-.76.37-1.09.61l-1,.71a15.26,15.26,0,0,0-1.67,1.45c-.41.43-.81.94-1.25,1.45s-.92,1-1.32,1.57a20.78,20.78,0,0,0-2,3c-1,1.28-2.6,3.36-3.9,5.22l.1-.2c-1.5,2.07-3.52,4.54-4.48,6a12.87,12.87,0,0,0-2.18,2c-1,1.39-3.34,3.92-5.05,5.89-.37.2-1.45,1.6-1.68,1.56-2.38,2.78-5.28,5.69-7.91,9a33.93,33.93,0,0,0-5.93,10.89l0-.11a32,32,0,0,0-.37,3.25c0,.1-.07.08,0-.13-.3,1.4-.77,2.67-1,4.08,0,0,0,0,0-.25-.19,1.33-.7,2.69-.8,4.28l-.07.08-.1,1c-.06,0-.14-.09,0-.62a144,144,0,0,0-1.24,37.5l-.11-.46.37,2.43s-.06-.13-.09-.24c.06.78.13,1.56.21,2.35l.41,2.33c.3,1.56.53,3.11.84,4.6,0,0-.2-.45-.14,0,.67,2.16.58,3.59,1.18,4.6,0,.11-.06.2-.14,0l.28,1.14.35,1.13c.24.75.47,1.51.71,2.26.48,1.51.89,3.05,1.51,4.52l1.69,4.46c.65,1.45,1.35,2.87,2,4.31,2.65,4.52,5.45,9.74,9.18,13.76l-.07,0a55.4,55.4,0,0,0,7.8,7.48,26.1,26.1,0,0,0,9.8,4.91,19.36,19.36,0,0,0,8.09.32l.09.06a22.47,22.47,0,0,0,7.4-3A9.51,9.51,0,0,0,492,540a2.47,2.47,0,0,0,.61-.91l.13-.5c0-.15.09-.32.14-.48.39-1.3.78-2.6,1.1-3.9v.38c.09-.84,1-3.06.66-2.85l.37-.87c.7-3.59,2.11-6.28,3.11-10.63l0,.31c.28-1.16.61-2.5.91-3.32,0,.13,0,.07,0,.35,1.26-3.5,2-7.56,3-11.36v.46c.33-1.87,1.28-5.2,1.77-7.64l0,.16.2-1.25h.12C504.86,494.78,505.39,491.78,506,488.68Z"/><path class="cls-2" d="M510.4,456.37v0C510.4,456.5,510.4,456.45,510.4,456.37Z"/><path class="cls-2" d="M504.71,405.87l.11.38A1.43,1.43,0,0,0,504.71,405.87Z"/><path class="cls-4" d="M475,393.91l-32.18,43.23s-19.1-14.16,0-24.85S475,393.91,475,393.91Z"/><polygon class="cls-2" points="474.68 393.33 474.61 393.33 474.53 393.49 474.68 393.33"/><path class="cls-2" d="M473.94,394s0,0,.07,0l.35-.55C474.05,393.5,474.14,394,473.94,394Z"/><path class="cls-2" d="M473.78,394.08a.33.33,0,0,0-.27.28C473.53,394.23,473.89,394.18,473.78,394.08Z"/><path class="cls-2" d="M456.67,403.93s0,0,.05,0Z"/><path class="cls-2" d="M452.43,406.9V407a26.68,26.68,0,0,1,2.61-1.6l0,.07c2.27-1.24,4.24-2.58,6.42-3.93,0,0,0,.07-.05.1a1.14,1.14,0,0,1,.29-.29c.05,0,0,.07,0,.1.56-.11,1.32-.89,1.69-.93.12-.1.14-.2,0-.2,1.71-1,3.56-2.13,5.25-3.27.1,0,.14,0,.15.08a26.53,26.53,0,0,1,4.59-2.77c0-.11-.2,0-.09-.14-.55.2-.82.68-1.34.82l0-.1c-.36.15,0,.2-.36.31-.17,0,0-.1-.08-.07a12.47,12.47,0,0,0-2,1.32c-.25,0-.76.42-1.09.44-.15.16-.34.25-.36.38-2.49,1.32-4.9,2.89-7.41,4.31-1,.94-2.61,1.42-3.95,2.3,0,0,0,0,0,0a10.46,10.46,0,0,1-1.62,1l-.39.38c-3.4,1.62-6.63,3.69-10,5.48a43.44,43.44,0,0,0-5.4,3.21,12,12,0,0,0-4,4.81s-.05,0,0-.1a9.52,9.52,0,0,0-1.14,3.39h0a12.42,12.42,0,0,0,2.4,8.31,23.2,23.2,0,0,0,3.28,4.11,24.91,24.91,0,0,0,2,1.84l.53.44.29.22.14.11c.05,0,.1.11.13,0l.81-1.12,0,0c1.58-2.34,3.48-4.34,5.09-6.66,1.84-2.24,3.27-5,5.17-7.23,1.33-1.27,2.22-3.57,3.49-4.75a46.61,46.61,0,0,0,6.1-8.39c2.06-2.48,3.63-5.33,5.77-7.62.7-1.32,2.08-2.33,3-3.69h-.1c.55-.33.52-1.25,1-1.34l0,.06c.33-.14.1-.83.38-.86l0-.09c.21-.32.11,0,.31-.19s-.1-.13.07-.28c.32.17.5-.79.84-.57-.13.16.32-.17.11.25.11-.08.47-.6.3-.65s-.09-.45-.44-.23l.06.15c-.18,0-.11,0-.22,0-.31.4-.51.34-.79.58h0c0,.29-.3.51-.44.65l-.11,0c-.19,0-.09.64-.22.36-.55.86-1.26,1.8-1.94,2.72,0,.19-.53.7-.22.61a3.2,3.2,0,0,0-1.09,1s0,0,0-.08c-.6.32-.22.74-.85,1,.15.22-.69.79-.65,1.22-.08,0-.14,0-.16,0-.62.83-1.37,1.69-1.91,2.39-.27.73-1.16,1.39-1.3,2.09a8,8,0,0,0-1.33,1.67v-.08a10.52,10.52,0,0,0-1.29,2.11c-.38,0-.55.36-.84.59-.23.53-.94,1.42-1.35,2.18-.18,0-.38.59-.56.52a32.1,32.1,0,0,1-4.76,6.33v0c-.11.33-.15.77-.24,1.13,0,0-.06,0,0-.07-.25.4-.66.64-.91,1,0,0,0,0,0-.1-.2.41-.67.64-.86,1.14h-.05l-.14.31c-.05,0-.12-.11,0-.24-2.44,3.18-4.65,6.7-7.15,10l0-.16-.39.71s0-.06,0-.1c-.69.75-1.18,1.7-1.79,2.48,0,0,0-.18-.1-.09a1.49,1.49,0,0,1-.26.43.5.5,0,0,1-.16.14c-.08,0-.08.1-.18.23a.24.24,0,0,1,0-.15,7.43,7.43,0,0,1-1-.74c-.39-.32-.77-.67-1.14-1a21.12,21.12,0,0,1-2-2.29c-1.33-1.11-2.15-2.86-3.07-4.36l.06,0a9.34,9.34,0,0,1-.75-6.87,10.91,10.91,0,0,1,1-2.45l.08,0a4.79,4.79,0,0,1,.63-1.12c.26-.34.59-.65.89-1a22.16,22.16,0,0,0,1.91-1.84l0,.17c.1-.31.85-.62.6-.78l.31-.11c.74-1,1.89-1,3-2l-.05.11a3.78,3.78,0,0,1,1-.59s0,0-.08.11a19,19,0,0,0,3.33-1.93l-.06.19c.46-.44,1.52-.88,2.19-1.35v.08l.31-.28.07.1C450.72,408,451.54,407.43,452.43,406.9Z"/><path class="cls-2" d="M461.63,401.48h0S461.61,401.5,461.63,401.48Z"/><path class="cls-2" d="M473.75,394.67a.76.76,0,0,1,.09-.09S473.77,394.64,473.75,394.67Z"/><path class="cls-4" d="M498.58,392.13s-25.28,19.2-33,45.34c0,0-18.88-17.15-26.85-12.6s4.08,12.27,4.08,12.27-43.34-30.84,36.64-56S498.58,392.13,498.58,392.13Z"/><polygon class="cls-2" points="498.92 392.71 499.05 392.67 499.28 392.42 498.92 392.71"/><path class="cls-2" d="M500.63,391.4c-.07,0-.06,0-.12,0l-.91.91C500.16,392.15,500.26,391.5,500.63,391.4Z"/><path class="cls-2" d="M501,391.23a1.16,1.16,0,0,0,.61-.52C501.49,390.89,500.79,391.16,501,391.23Z"/><path class="cls-2" d="M505.57,373.48l.15,0Z"/><path class="cls-2" d="M494.89,376.66l-.08.14c1.95-.75,4.26-1.15,6.37-1.77l-.14.08c2.71-.65,5.3-1.29,7.92-1.84a43,43,0,0,1,8-1.08c-.08,0-.11,0-.2.05a3.53,3.53,0,0,1,.87-.07c.07,0-.09.05-.19.05a15.17,15.17,0,0,1,2.21.43,1.89,1.89,0,0,1,.94.64,1,1,0,0,1,.19.79c0,.33,0,.5.14.32a7,7,0,0,1-1.68,2.92,29.94,29.94,0,0,1-2.38,2.4c-1.68,1.52-3.45,2.94-5.19,4.3-.19.11-.25.09-.24,0a74.2,74.2,0,0,1-9.54,6.56c-.09.15.37-.14.09.13,1.11-.57,1.82-1.37,2.84-1.87l-.08.15c.72-.41,0-.25.8-.64.32-.13,0,.13.12,0a45.56,45.56,0,0,0,4.22-3c.43-.1,1.53-1.08,2.14-1.34.33-.32.7-.58.77-.77a38.87,38.87,0,0,0,7-6.16A8,8,0,0,0,521,375a2.3,2.3,0,0,0,.08-1.41,1.86,1.86,0,0,0-1-1.1,6,6,0,0,0-2.43-.57,18.89,18.89,0,0,0-2.38,0c-2.92.51-6.41.77-9.79,1.62,0,0,0,0,0,0-1.09.33-2.68.73-4,1l-1.07.4c-7.93,1.75-15.82,4.29-23.68,6.74-8.89,2.85-16.71,5.61-24.59,10.28,0,0-.07,0,.13-.13-2.32,1.25-4.4,2.46-6.47,3.84v0a67.56,67.56,0,0,0-7.32,6,33.81,33.81,0,0,0-3.17,3.52l-1.28,1.94-.31.48-.25.51-.48,1a19.84,19.84,0,0,0-1.82,5.26,18.08,18.08,0,0,0,0,5.78,23.59,23.59,0,0,0,4.92,10.46l-.06,0a42.18,42.18,0,0,0,6.64,6.65l.14-.21a28.76,28.76,0,0,1-3.33-2.71,15.06,15.06,0,0,1-2.7-3.32,5.42,5.42,0,0,1-.63-2.17,3.28,3.28,0,0,1,.63-2.11,5.73,5.73,0,0,1,1.71-1.57,6.09,6.09,0,0,1,1-.55,6.51,6.51,0,0,1,1.15-.31,10.69,10.69,0,0,1,4.76.37,22.8,22.8,0,0,1,4.42,1.81c3.35,2,8,4.34,10.67,6.86l2.43,2.15,2.65,2.37.76-2.18.62-1.88c.37-1.27,1-2.46,1.41-3.69l.73-1.85c.25-.61.55-1.2.83-1.81.58-1.19,1.08-2.44,1.73-3.61,3.58-6,7.4-11.83,12.11-16.68,1.93-2.56,4.74-4.77,7.24-7.27l-.14,0c1.07-.71,1.83-2.19,2.66-2.46l-.09.1c.62-.32.88-1.37,1.34-1.47l0-.14c.6-.56.14,0,.64-.38.17-.16,0-.18.37-.46.31.2,1.49-1.35,1.79-1.07-.35.28.64-.31-.08.38.24-.15,1.29-1,1.09-1.07,0-.21.32-.67-.43-.27l-.05.21c-.31.07-.21.08-.35.06a14.3,14.3,0,0,1-1.75,1.06s0,0,0,0a5.73,5.73,0,0,1-1.26,1.14l-.18.06c-.3.05-.73,1-.66.62-1.6,1.54-3.47,3.26-5.21,5-.17.32-1.34,1.34-.82,1.1a12,12,0,0,0-2.36,2.1s0-.08.08-.15c-1.11.78-.89,1.32-2,2,.06.31-1.55,1.66-1.79,2.38-.14.08-.21.09-.21,0-1.41,1.74-3.07,3.6-4.18,5.15a21.15,21.15,0,0,1-1.57,2.26,12,12,0,0,0-1.32,2.22c-.35.46-.81,1.06-1.28,1.73s-.88,1.44-1.24,2.17l.05-.16c-.45.8-1,1.67-1.41,2.53a22.14,22.14,0,0,0-1,2.27,6.92,6.92,0,0,0-1.26,1.74c-.35,1.18-1.39,3.42-2,5.19-.21.23-.44,1.48-.65,1.5-.23.9-.63,2.24-.62,2.31l-4.94-4c-1.88-1.48-3.78-2.93-5.63-4.24l.07,0c-.66-.3-1.5-.54-2.2-.78-.05-.05,0-.08.1,0-.89-.48-1.63-1.11-2.56-1.52,0,0,0,0,.18,0a20.26,20.26,0,0,0-2.83-1.29l0-.07-.71-.18c0-.05.1-.13.46,0a13.7,13.7,0,0,0-6.22-1.07,6.36,6.36,0,0,0-3.09,1.15,5.32,5.32,0,0,0-2.16,2.55,4.38,4.38,0,0,0,.23,3.34,10.29,10.29,0,0,0,1.79,2.68,25.73,25.73,0,0,0,4.82,4.09l.37-.55c-.45-.34-.91-.7-1.34-1.08l.29.17c-.47-.34-.91-.69-1.36-1,0,0,.1,0,.17.06a44.65,44.65,0,0,1-4.47-4.78s.27.21.13-.05c-1.09-1.15-1.24-2.18-2-2.65,0-.07,0-.16.13,0A18.27,18.27,0,0,1,431.67,415a6.4,6.4,0,0,1,.16-1.37c.09-.46.18-.93.29-1.39s.32-.91.49-1.36a8,8,0,0,1,.58-1.34,20.8,20.8,0,0,1,1.45-2.56c.54-.81,1-1.65,1.64-2.4l0,.06c3-4,7.41-7.07,11.73-9.81.92-.54,1.68-1,2.44-1.5L453,391.9l.08.05a29.18,29.18,0,0,1,5-2.52c1.76-.79,3.57-1.47,5.25-2.35l-.2.2c.48-.38,2.13-.82,1.82-1l.64-.17c2.26-1.27,4.43-1.49,7.31-2.79l-.18.14a15.94,15.94,0,0,1,2.3-.8,2.4,2.4,0,0,1-.22.12c2.57-.56,5.23-1.78,7.88-2.57l-.26.22c1.23-.54,3.62-1.12,5.28-1.68l-.08.09.82-.34.06.11C490.71,378,492.75,377.27,494.89,376.66Z"/><path class="cls-2" d="M517.45,372.22h0Z"/><path class="cls-2" d="M495.93,393.56l.23-.16A1.4,1.4,0,0,0,495.93,393.56Z"/><path class="cls-3" d="M523.15,598.16S530,610.7,529,622s38.94,70.2,51.27,87.12-19-83-39.9-117S523.15,598.16,523.15,598.16Z"/><polygon class="cls-2" points="523.82 598.1 523.85 597.96 523.71 597.61 523.82 598.1"/><path class="cls-2" d="M523.43,595.75c0,.07,0,0-.06.11l.38,1.38C523.87,596.61,523.34,596.17,523.43,595.75Z"/><path class="cls-2" d="M523.44,595.34a1.45,1.45,0,0,0-.15-.89C523.4,594.63,523.3,595.46,523.44,595.34Z"/><path class="cls-2" d="M544.86,601l-.09-.15A.69.69,0,0,0,544.86,601Z"/><path class="cls-2" d="M550.74,612l.15.07c-1.15-2-2.08-4.52-3.25-6.71l.11.14a124.13,124.13,0,0,0-9-15.89c.06.07.11.08.17.16a6,6,0,0,1-.61-.76c0-.08.09.05.16.14-.56-1.21-2.27-3.12-2.66-3.85-.24-.29-.4-.37-.32-.17a27.25,27.25,0,0,0-5.13-5.33,4.56,4.56,0,0,0-3.29-1.06,3.52,3.52,0,0,0-2.24,2.38c-.11.2-.18.22-.21.14a29,29,0,0,0-1,6.26c-.17,2.16-.23,4.34-.19,6.5.08.17.07-.44.16,0,.06-1.38-.23-2.53-.06-3.79l.08.16c.07-.91-.19-.19-.06-1.13.08-.37.09.1.1-.08.06-1.93.32-3.92.54-5.72a13.74,13.74,0,0,1,1-2.5c.14-.46.42-.82.43-1a2.42,2.42,0,0,1,1.81-1,4,4,0,0,1,2.16.67,17.89,17.89,0,0,1,3.77,3.33,64.41,64.41,0,0,1,6.13,8.43c2,2.6,3.62,6.21,5.5,9.62,0,0,0,0,0,0,.65,1.09,1.52,2.72,2.15,4.1l.68,1.1c3.72,8.33,7.55,16.83,10.88,25.48,3.82,9.81,6.8,18.54,10.56,28.09,0,0,0,.08-.12-.17,1,2.78,1.78,5.37,2.73,8h0c2.44,6.48,4.4,13.7,6.51,20,1.1,3.91,2.24,8.08,3.24,12.35.49,2.13,1,4.29,1.29,6.46a17.79,17.79,0,0,1,.24,3.25,3.35,3.35,0,0,1-.13.79c-.06.24-.22.51-.5.52-.51-.05-.91-.51-1.27-.87l.06,0c-2.17-2.65-4-5.5-5.94-8.28s-3.76-5.61-5.74-8.41c-3.86-5.91-8.42-11.83-12.14-17.9-2.14-3.86-5.81-8.38-7.73-12.06-4.08-7.47-8.61-14.35-12.91-21.69-1.79-3.49-3.64-6.94-5.24-10.49a39.35,39.35,0,0,1-2.06-5.45,13.65,13.65,0,0,1-.53-2.85,27,27,0,0,1,.17-2.87,45.84,45.84,0,0,0-1.52-11.44l0,.16c-.16-1.46-1.28-2.95-1.26-3.9l.07.13c-.09-.78-1-1.5-1-2l-.13-.08c-.38-.84.05-.13-.19-.8-.12-.24-.19,0-.36-.57.29-.26-1-2-.67-2.24.22.46-.21-.78.36.21-.09-.32-.82-1.7-.91-1.5-.23,0-.65-.48-.33.41l.2.11c0,.34,0,.24,0,.39a11.17,11.17,0,0,1,.7,2.15h0a6.34,6.34,0,0,1,.79,1.71V603c0,.32.79,1.17.41.93a46.79,46.79,0,0,1,2.46,7.66c.17.36.41,2.07.48,1.45-.07.72.19,2.74.24,3.5a.25.25,0,0,1,0-.18c-.13,1.48.41,1.72.09,3.11.15.1.11.73.05,1.41,0,.35,0,.71,0,1a3.75,3.75,0,0,0,.13.89c0,.19-.1.26-.14.19a19.41,19.41,0,0,0,.83,3.91c.38,1.25.82,2.41,1.22,3.41.45.81.88,1.83,1.31,2.82a15.12,15.12,0,0,0,1.37,2.57,38.64,38.64,0,0,0,2.32,4.68l-.11-.14a48.1,48.1,0,0,0,3.08,5.16,7.78,7.78,0,0,0,.88,2.23c.8,1.12,2.15,3.52,3.32,5.25,0,.35.92,1.45.81,1.64,3.32,4.82,7,11,10.14,16.41l-.06-.07c.53.62,1.23,1.28,1.79,1.9,0,.07,0,.08-.09-.06.64.93,1.06,1.93,1.71,2.86,0,0,0,0-.16-.13.66.85,1.07,1.94,1.89,2.91v.08l.5.63c-.07,0-.16,0-.38-.32,5.31,8.2,11.23,16.37,17,24.6l-.26-.26,1.21,1.52s-.09-.05-.16-.12c.67,1,1.42,2.06,2.17,3.06s1.47,2,2.32,3c0,0-.34-.23-.12.06a3.38,3.38,0,0,0,1.24.81,1,1,0,0,0,1.16-.72,2.36,2.36,0,0,0,.05-1.71c0-.08.09-.14.13,0a52.36,52.36,0,0,0-1.23-7.5c-.54-2.47-1.13-4.93-1.74-7.36-1.38-4-2.39-8.52-3.89-12.59h.07c-1.85-5.29-3.44-11-5.34-16.53-.75-2.29-1.35-3.81-2.15-6.1l.06-.08c-1.63-3.76-2.59-8.19-4.39-12.07l.21.24c-.39-.56-.84-2.44-1-2.1l-.18-.74c-1.38-2.57-1.69-5-3.21-8.2l.15.19a23.83,23.83,0,0,1-1-2.54,2.3,2.3,0,0,1,.15.24,93.12,93.12,0,0,0-3.52-8.66l.26.27c-.72-1.33-1.66-3.93-2.5-5.72l.1.08-.48-.88.11-.08C552.87,616.49,551.79,614.32,550.74,612Z"/><path class="cls-2" d="M538.42,589.19v0C538.49,589.27,538.46,589.24,538.42,589.19Z"/><path class="cls-2" d="M524.08,601.39l-.11-.3A1.12,1.12,0,0,0,524.08,601.39Z"/><ellipse class="cls-3" cx="522.89" cy="466.47" rx="59.13" ry="11.41" transform="translate(-128.08 725.8) rotate(-63.46)"/><polygon class="cls-2" points="513.15 461.95 513.23 461.86 513.28 461.55 513.15 461.95"/><path class="cls-2" d="M513.84,460.07c-.05,0-.06,0-.1.05l-.27,1.17C513.86,460.9,513.58,460.32,513.84,460.07Z"/><path class="cls-2" d="M514,459.77a1,1,0,0,0,.23-.72C514.28,459.24,513.84,459.79,514,459.77Z"/><path class="cls-2" d="M534.71,425.67l-.08.11A.39.39,0,0,0,534.71,425.67Z"/><path class="cls-2" d="M541.19,417.5v-.15c-1.27,1.49-2.89,3-4.16,4.62l.06-.13a107.93,107.93,0,0,0-8.83,12.41c0-.07,0-.11,0-.19a4.11,4.11,0,0,1-.36.73c-.06,0,0-.1,0-.18-.75.82-1.65,2.77-2.13,3.27-.14.27-.15.43,0,.32-2.12,3.46-4.3,7.21-6.19,10.89-.12.16-.18.16-.21.09-1.46,3.22-3.31,6.42-5,9.62,0,.16.25-.29.16.06.62-1,.8-2,1.42-2.84v.15c.4-.65-.1-.22.36-.88.2-.25.05.11.12,0,.73-1.46,1.61-2.92,2.18-4.35.33-.25.85-1.53,1.28-2a3.66,3.66,0,0,0,.36-.95c2.88-4.91,5.77-10,9-14.82,1.27-2.44,3.45-4.91,5.34-7.54,0,0,0,0,0,0a28.07,28.07,0,0,1,2.34-3.06l.59-.9c1.28-1.4,2.59-2.78,4-4.08a21.08,21.08,0,0,1,4.52-3.38,4,4,0,0,1,2.56-.51,2.49,2.49,0,0,1,1.69,1.75,13.77,13.77,0,0,1,.34,5.59,70.28,70.28,0,0,1-2.66,12.21c-1.13,3.91-2.39,7.75-3.68,11.83,0,0-.06,0,0-.18-.8,2.33-1.72,4.38-2.53,6.56l0,0c-1.92,5.43-4.75,11-6.91,16.12-3,6.08-6.46,12.87-10,19.12l0-.05c-2.75,5-5.93,9.58-9.06,14.35-3.44,4.73-6.73,10.08-11.1,14.14a39.55,39.55,0,0,1-4.73,3.73,4.73,4.73,0,0,1-3,.78,2.61,2.61,0,0,1-1.95-1.93,8.45,8.45,0,0,1-.37-2.59,22.76,22.76,0,0,1,.08-2.61c.15-1.73.41-3.45.7-5.16q.9-5.13,2.26-10.25c2.08-6.19,4-12.45,6.76-18.16.95-2.85,2.74-5.68,4.07-8.73l-.12.07c.72-1,.83-2.55,1.46-3.08l0,.12c.44-.5.26-1.51.62-1.77l0-.13c.31-.7.13,0,.42-.55.09-.21-.11-.15.14-.55.37.07.76-1.72,1.15-1.59-.19.38.43-.52.09.37.15-.23.7-1.39.5-1.36-.12-.18,0-.7-.51-.06l.05.2c-.24.17-.15.15-.28.19a11.74,11.74,0,0,1-1.1,1.57h0a4.73,4.73,0,0,1-.66,1.45l-.13.11c-.25.15-.23,1.18-.34.79L507,472.2c0,.34-.73,1.62-.34,1.23a11.68,11.68,0,0,0-1.43,2.6.17.17,0,0,1,0-.15c-.75,1-.34,1.45-1.11,2.39.15.27-.9,1.93-.87,2.65-.11.12-.17.14-.19.08-.81,1.94-1.73,4.07-2.37,5.74-.33,1.49-1.36,3.42-1.51,4.76a27.85,27.85,0,0,0-1.44,4.1v-.15a33.68,33.68,0,0,0-1.23,4.87,5.76,5.76,0,0,0-.82,1.83c-.15,1.14-.75,3.37-.94,5.12-.19.24-.19,1.43-.4,1.49-.1,1.23-.21,2.52-.25,3.87a18.51,18.51,0,0,0,.25,4.17,5.74,5.74,0,0,0,.83,2.07,3,3,0,0,0,2,1.21,4.87,4.87,0,0,0,2.24-.33,12.15,12.15,0,0,0,1.88-.92l-.05.06a17.85,17.85,0,0,0,1.47-1.68c.06,0,.08,0,0,.09.7-.64,1.49-1.1,2.16-1.79,0,0,0,0-.07.16a25.54,25.54,0,0,0,2-2.09H507l.4-.55c0,.06.09.14-.16.39,5.52-6.08,10-13.28,14.38-20.36l-.11.29.76-1.44s0,.1,0,.17c1.16-1.71,2.09-3.64,3.12-5.37,0,0-.08.31.09.09.58-1.39,1.39-2,1.43-2.8,0-.05.14-.06.09.09L532.82,473c1.27-3.25,3.23-6.61,4.51-10l0,0c1.74-4.34,3.94-8.79,5.68-13.31.76-1.86,1.18-3.16,1.88-5.05l.09,0c.88-3.29,2.65-6.66,3.34-10.17l0,.27c0-.58.65-2.05.31-1.93l.26-.58c.25-2.42,1.29-4.2,1.59-7.16l0,.2a21.71,21.71,0,0,1,.33-2.26,1.29,1.29,0,0,1,0,.24,14.52,14.52,0,0,0,.44-3.83,13.23,13.23,0,0,0-.56-3.92c.08.08.14.17.21.25a4.48,4.48,0,0,0-1.39-2.06,2.94,2.94,0,0,0-2.72-.19l.08-.09a4.49,4.49,0,0,0-.76.38l-.07-.1a11.28,11.28,0,0,0-2.66,1.73C542.69,416.05,542,416.78,541.19,417.5Z"/><path class="cls-2" d="M528,434.61h0C528,434.54,528,434.56,528,434.61Z"/><path class="cls-2" d="M510.82,463.89l.13-.22S510.86,463.82,510.82,463.89Z"/><path class="cls-5" d="M516.15,398.1S547.43,385.41,540,512.45c0,0-10.87,47.37,18.89,80.75s17.73,29.07,17.73,29.07-22.31-6.1-46.35.18-54.8,0-54.8,0-12.73-2.34-13.87-11c0,0,22.89-26.44,25.18-47.13S495.7,392.79,516.15,398.1Z"/><path class="cls-2" d="M516.32,397.45l-.32-.09a8,8,0,0,0-.85,0C515.54,397.37,515.92,397.42,516.32,397.45Z"/><path class="cls-2" d="M511.46,399.13c.13-.08.09,0,.22-.09a5.83,5.83,0,0,1,2.59-1.66,3,3,0,0,0-1.72.78C512.1,398.49,511.85,398.91,511.46,399.13Z"/><path class="cls-2" d="M510.83,399.72a3.88,3.88,0,0,0-.8,1,5.92,5.92,0,0,0-.28.54,6.44,6.44,0,0,1,.66-1C510.71,400,511,399.69,510.83,399.72Z"/><path class="cls-2" d="M492,493.74c0-.1,0-.24,0-.34A2.69,2.69,0,0,0,492,493.74Z"/><path class="cls-2" d="M490.29,518.83l.1.27c.16-4.69.8-10,1.14-14.9v.34C492.66,492,493.6,480.43,495,468c0,.2,0,.27,0,.47,0-.6,0-1.27.13-1.94,0-.18,0,.19,0,.41.49-2.6.83-7.71,1.19-9.32.08-.74.05-1.08-.07-.67,1.25-9.7,2.8-20,4.69-29.84.13-.47.2-.54.23-.4a115,115,0,0,1,3-12.68,49.24,49.24,0,0,1,5.14-12.18c.12-.34-.55.72-.15-.07-1.62,2.4-2.26,4.71-3.3,7l0-.34c-.7,1.73,0,.42-.69,2.21-.31.7,0-.21-.15.12a84.87,84.87,0,0,0-3,11.37c-.38.85-1,4.12-1.39,5.51a22.18,22.18,0,0,0-.33,2.41c-2.73,13.5-4.42,27.46-6,41.45-.43,6.58-1.62,14.39-2.24,22.19,0,.05,0,0,0,0-.16,2.54-.46,6.25-.76,9.27l-.09,2.58c-.91,9.11-1.65,18.34-2.32,27.6s-1.27,18.58-2.09,27.83c-.13,1.31-.21,2.62-.43,3.89s-.39,2.54-.7,3.77-.66,2.45-1,3.66-.85,2.37-1.27,3.54a100.83,100.83,0,0,1-6.55,13.26c-2.45,4.24-5.14,8.33-8,12.37-1.43,2-2.9,4-4.43,6-.76,1-1.54,2-2.33,3l-.69.84c-.12.07,0,.22,0,.32l.07.3.12.48a8.3,8.3,0,0,0,.68,1.86s0,.16-.21-.35a10.61,10.61,0,0,0,1.11,2,13.77,13.77,0,0,0,1.49,1.64,16.63,16.63,0,0,0,3.49,2.52,25.55,25.55,0,0,0,7.94,2.78l0,0a200.72,200.72,0,0,0,21.22,2.34,115,115,0,0,0,20.93-.56c8.17-.62,16.43-3.67,25.2-4.45a105.92,105.92,0,0,1,26.23.65l0,.06c1.7.23,3.39.55,5.06.9.84.18,1.67.37,2.5.6a2.46,2.46,0,0,0,1.29-.05,1.2,1.2,0,0,0,.72-1,5.66,5.66,0,0,0-.54-2.5,24.32,24.32,0,0,0-1.13-2.29c-.83-1.48-1.75-2.91-2.72-4.3a178.84,178.84,0,0,0-12.78-16c-1.15-1.35-2.36-2.67-3.5-4l-1.74-2c-.58-.69-1.09-1.43-1.65-2.14-1.13-1.4-2.11-2.93-3.15-4.41-.51-.76-1-1.54-1.45-2.31s-.95-1.55-1.38-2.36a77.42,77.42,0,0,1-7.88-20.17c-.93-4.31-1.91-9.32-2.5-14.33a78.89,78.89,0,0,1-.55-14.14q.33-6.39,1.22-12.63c.15-1,.32-2.07.5-3.11l.3-1.54a7.76,7.76,0,0,0,.14-.8l0-.79.3-6.29c.38-8.39.45-16.79.41-25.3a327,327,0,0,0-2.67-46.49c-.36-1.77-.61-3.6-1-5.45-.18-.92-.35-1.86-.53-2.8s-.41-1.88-.61-2.84c-.38-1.91-.94-3.81-1.46-5.73a53,53,0,0,0-2.09-5.63l0,.29c-.91-2.77-3.11-5.61-3.95-7.2l.19.24c-.72-1.41-2.57-2.47-3.09-3.23l-.23-.11c-1.45-1.12-.11-.21-1.2-1.12-.45-.28-.26,0-1.17-.6,0-.12-.26-.29-.65-.49a7.07,7.07,0,0,0-1.45-.57c-1.07-.32-2.17-.39-2.22-.59,1,.07-1.63-.26.72-.17a7.28,7.28,0,0,0-2.17,0c-.86.11-1.57.44-1.4.47-.19.29-1.22.83.54.34l.33-.22c.64,0,.48,0,.71.07a6,6,0,0,1,2.43.25c.28.1.54.17.82.29l1,.42s0,0,0,0a8.51,8.51,0,0,1,3.13,1.89l.24.28a6,6,0,0,0,1.11,1c.43.31.66.59.34.38A26.66,26.66,0,0,1,531,409a55,55,0,0,1,3.12,7.69c.33.71,1.2,4.08,1,2.86.12.69.37,2.05.66,3.42.16.69.31,1.37.45,2s.22,1.15.3,1.53a.82.82,0,0,1-.11-.35c.31,3,1,3.41,1.07,6.23a14.31,14.31,0,0,1,.55,2.85,27.1,27.1,0,0,0,.6,3.71c0,.35,0,.47-.1.35.35,2.5.51,5.15.76,7.68s.32,5,.46,7.13c.41,3.62.36,8.81.69,11.94,0,1.29,0,3,0,4.82s0,3.79,0,5.6l0-.35c.06,4.09-.06,9.2.1,12a39.25,39.25,0,0,0-.45,4.74c0,2.74-.16,8.25-.29,12.42-.16.63-.12,3.44-.32,3.64,0,.73,0,1.47,0,2.22l0,1.14v.14s0,0,0,.06l-.05.28-.11.58c-.26,1.53-.49,3.09-.68,4.68-.4,3.19-.67,6.48-.84,9.81a126.8,126.8,0,0,0,.52,19.68l0-.18c.16.8.36,1.66.57,2.51s.46,1.71.67,2.51c0,.17,0,.16-.08-.19.44,2.25.69,4.38,1.27,6.59,0,0,0,0-.15-.36.28,1,.53,2.12.83,3.24.14.56.28,1.13.45,1.71s.39,1.16.62,1.76v.15l.56,1.51c-.07,0-.18-.05-.43-.87a77.28,77.28,0,0,0,14.53,26c1.62,1.94,3.33,3.75,5,5.65s3.3,3.78,4.91,5.7a119.28,119.28,0,0,1,9,12l-.45-.58a33.73,33.73,0,0,1,2,3.27s-.14-.16-.23-.31a11.24,11.24,0,0,1,1.21,3.36c0,.58-.09,1-.53,1.13a1.83,1.83,0,0,1-.78,0,5.72,5.72,0,0,1-.88-.2c-2.47-.58-4.94-1-7.33-1.36,0,0,.76,0,.09-.12-3.58-.35-5.71-.94-7.54-.72-.16,0-.27-.12.1-.12a114,114,0,0,0-15.13,0,89.1,89.1,0,0,0-15,2.24c-8,2.49-17.39,3.15-26.05,3.38l.05-.06a130.44,130.44,0,0,1-17.22-.84c-2.91-.3-5.81-.71-8.71-1.17-1.44-.23-2.89-.48-4.32-.77a28.59,28.59,0,0,1-4.17-1.25,21.69,21.69,0,0,1-5.61-3.12,10.07,10.07,0,0,1-3.64-5.19l.05-.14-.19-.73-.09-.33c.05-.09.14-.18.2-.27.33-.4.65-.81,1-1.22l2-2.48q2-2.51,3.95-5.12A96.48,96.48,0,0,0,476,591.6l-.21.57c.53-1.24,2.7-4.42,2.16-4.14l.8-1.29c.63-1.31,1.23-2.55,1.82-3.79s1.25-2.43,1.8-3.72,1.22-2.57,1.71-4a32.6,32.6,0,0,0,1.44-4.73l-.05.47c.21-.92.48-1.91.68-2.85s.3-1.84.45-2.52c0,.22,0,.12-.05.56a29.74,29.74,0,0,0,.67-4.5c.15-1.54.26-3.12.36-4.7.2-3.16.36-6.37.59-9.48l.08.72c.06-3,.59-8.54.81-12.5l0,.24.06-2,.12,0Z"/><path class="cls-2" d="M495.11,467V467C495.09,467.15,495.1,467.08,495.11,467Z"/><path class="cls-2" d="M522.38,399.28l-.53-.28A5.47,5.47,0,0,0,522.38,399.28Z"/><ellipse class="cls-3" cx="510.67" cy="462.94" rx="59.13" ry="11.41" transform="translate(-131.68 712.91) rotate(-63.46)"/><polygon class="cls-2" points="500.92 458.41 501.01 458.33 501.05 458.01 500.92 458.41"/><path class="cls-2" d="M501.61,456.53s-.05,0-.1.05l-.26,1.18C501.64,457.37,501.36,456.79,501.61,456.53Z"/><path class="cls-2" d="M501.8,456.24a1.12,1.12,0,0,0,.23-.72C502.05,455.71,501.62,456.26,501.8,456.24Z"/><path class="cls-2" d="M522.49,422.13a.83.83,0,0,0-.08.12Z"/><path class="cls-2" d="M529,414v-.15c-1.27,1.49-2.9,3-4.16,4.62l.06-.13A108,108,0,0,0,516,430.71a1.06,1.06,0,0,0,.06-.19,4.11,4.11,0,0,1-.36.73c-.06.05,0-.09,0-.17-.75.81-1.65,2.76-2.13,3.27-.15.27-.15.42,0,.31-2.12,3.46-4.3,7.21-6.19,10.89-.12.16-.18.17-.21.09-1.46,3.22-3.31,6.43-5,9.62,0,.16.24-.29.15.06.63-1,.8-2,1.42-2.84v.15c.4-.65-.1-.22.36-.88.2-.25.05.12.12,0,.73-1.46,1.6-2.91,2.18-4.35.32-.25.85-1.52,1.28-2a4.43,4.43,0,0,0,.36-.95c2.88-4.92,5.77-10,9-14.82,1.26-2.45,3.45-4.92,5.33-7.54,0,0,0,0,0,0a29.07,29.07,0,0,1,2.34-3.06l.58-.9c1.29-1.4,2.6-2.78,4-4.07a20.73,20.73,0,0,1,4.53-3.38,3.91,3.91,0,0,1,2.56-.52,2.48,2.48,0,0,1,1.69,1.76,13.75,13.75,0,0,1,.34,5.59,70.89,70.89,0,0,1-2.66,12.2c-1.13,3.91-2.4,7.75-3.68,11.83,0,0-.06,0,0-.17-.8,2.33-1.72,4.38-2.54,6.55l0,0c-1.92,5.44-4.75,11-6.91,16.12-3,6.08-6.47,12.88-10,19.12l0-.05c-2.74,5-5.92,9.58-9.06,14.35-3.43,4.74-6.73,10.08-11.09,14.14a38.9,38.9,0,0,1-4.74,3.73,4.77,4.77,0,0,1-3,.79,2.64,2.64,0,0,1-1.95-1.93,8.89,8.89,0,0,1-.38-2.6,22.51,22.51,0,0,1,.09-2.6c.15-1.74.4-3.45.69-5.16.6-3.43,1.37-6.83,2.27-10.26,2.08-6.19,4-12.45,6.76-18.15.95-2.86,2.73-5.69,4.07-8.74l-.12.08c.71-1,.83-2.56,1.46-3.09l0,.12c.43-.49.26-1.51.62-1.76l0-.13c.31-.71.13,0,.42-.56.08-.21-.11-.15.14-.54.36.06.76-1.72,1.14-1.59-.18.37.43-.52.09.36.16-.22.71-1.38.5-1.36-.11-.18,0-.7-.5-.06l.05.2c-.24.18-.15.15-.28.19a11.12,11.12,0,0,1-1.1,1.57h0a4.86,4.86,0,0,1-.66,1.45l-.13.12c-.25.15-.24,1.17-.34.78l-2.8,6.18c0,.34-.73,1.62-.35,1.24a11.83,11.83,0,0,0-1.43,2.59s0-.06,0-.15c-.76,1-.34,1.46-1.12,2.4.16.26-.89,1.92-.87,2.65-.1.11-.16.14-.19.07-.8,1.94-1.72,4.08-2.36,5.74-.34,1.5-1.37,3.42-1.51,4.76a26.51,26.51,0,0,0-1.44,4.11v-.16a32.41,32.41,0,0,0-1.23,4.87,5.76,5.76,0,0,0-.83,1.83c-.15,1.14-.74,3.38-.93,5.12-.19.24-.19,1.43-.4,1.49-.1,1.23-.22,2.53-.25,3.88a17.86,17.86,0,0,0,.25,4.16,6,6,0,0,0,.82,2.08,2.94,2.94,0,0,0,2.05,1.2,4.83,4.83,0,0,0,2.23-.33,11.8,11.8,0,0,0,1.89-.91l-.06.05a14.7,14.7,0,0,0,1.48-1.68c.06,0,.07,0,0,.09.71-.64,1.5-1.1,2.17-1.79,0,0,0,0-.08.16a23.77,23.77,0,0,0,2-2.08h.08l.4-.55c0,.06.09.14-.17.4,5.53-6.09,10-13.29,14.39-20.37l-.11.3.75-1.44s0,.09,0,.17c1.17-1.71,2.1-3.65,3.12-5.38,0,0-.07.32.1.09.58-1.38,1.38-2,1.43-2.8.05,0,.14,0,.09.09l5.85-11.13c1.28-3.24,3.24-6.61,4.51-10l.06,0c1.74-4.34,3.94-8.78,5.68-13.31.76-1.86,1.18-3.15,1.87-5l.1,0c.88-3.29,2.65-6.66,3.33-10.16l0,.26c0-.57.65-2.05.31-1.92l.26-.58c.25-2.42,1.29-4.21,1.58-7.17l0,.21a21.53,21.53,0,0,1,.32-2.26,1,1,0,0,1,0,.24,15,15,0,0,0,.43-3.84,12.84,12.84,0,0,0-.55-3.91,2.41,2.41,0,0,1,.21.24,4.48,4.48,0,0,0-1.39-2.06,2.94,2.94,0,0,0-2.72-.19l.08-.09a4.15,4.15,0,0,0-.76.38l-.07-.1a11.55,11.55,0,0,0-2.67,1.73C530.46,412.52,529.72,413.24,529,414Z"/><path class="cls-2" d="M515.77,431.08l0,0C515.81,431,515.8,431,515.77,431.08Z"/><path class="cls-2" d="M498.59,460.36l.14-.23S498.64,460.28,498.59,460.36Z"/><path class="cls-6" d="M570.33,291.18s-19.35-24.58-43.86-19-38.7,19-43.86,36.87,5.16,28.84,0,42.35-19.35,16.5-14.19,26.74,3.87-5.41,14.19,21.41,16.77,52.37,16.77,65.29,6.45,27.44,9,18.51,24.51-68.16,20.64-87.15C510.94,322.85,551,333.64,570.33,291.18Z"/><polygon class="cls-2" points="569.72 290.9 569.58 291.11 569.39 291.71 569.72 290.9"/><path class="cls-2" d="M568.1,294.73c.08-.1.08,0,.15-.14l.8-2.32C568.43,293.17,568.52,294.13,568.1,294.73Z"/><path class="cls-2" d="M567.73,295.34a4,4,0,0,0-.65,1.42C567.14,296.42,568,295.23,567.73,295.34Z"/><path class="cls-2" d="M524.09,363.93c0-.09,0-.21,0-.3A1.7,1.7,0,0,0,524.09,363.93Z"/><path class="cls-2" d="M526.82,385.6l.15.2A109.18,109.18,0,0,1,525,373l.07.29a88.27,88.27,0,0,1-.15-15.91,46.36,46.36,0,0,1,4-15.31c-.06.16,0,.22-.11.39a9.05,9.05,0,0,1,.67-1.56c.1-.12,0,.17-.11.34.31-.48.66-1.1,1-1.77s.81-1.35,1.21-2a26,26,0,0,1,2.17-3.07c.39-.51.51-.78.24-.54,5.27-6.74,12.47-12.42,18.51-18.57.31-.27.4-.29.36-.16,5-5.37,10.1-11.24,13.84-17.78.07-.3-.45.62-.16-.06-.61,1-1.17,2-1.72,2.91-.27.47-.54.93-.82,1.39s-.62.87-1,1.3l.1-.28c-1,1.28,0,.38-1.06,1.67-.43.5,0-.19-.17.06-2,2.72-4.32,5.38-6.4,7.82-.65.46-2.53,2.62-3.56,3.37a16.52,16.52,0,0,0-1.4,1.56c-4.35,4.06-8.95,8-13.15,12.42a60.44,60.44,0,0,0-5.77,7.16,45.81,45.81,0,0,0-4.28,8.18,58.86,58.86,0,0,0-3.23,19.13s0,0,0,0c0,1.11.08,2.48.13,3.9s.2,2.88.26,4.2c.1.75.25,1.48.37,2.22l.29,3c.09,1,.27,2,.4,3l.44,3c.16,1,.36,2,.54,3,.37,2,.74,4,1.22,5.92l.67,2.94c.11.49.24,1,.33,1.47l.22,1.47a53,53,0,0,1-.43,12c-.53,4-1.29,8-2.17,11.9-2,8.94-4.38,17.21-6.83,25.38s-5,16.26-7.68,24.8c0,0-.08.1.06-.34-.79,2.45-1.59,4.79-2.37,7.09-.38,1.15-.76,2.29-1.13,3.44a9.37,9.37,0,0,1-1.32,3.19v0a1,1,0,0,1-1.58.13,5.92,5.92,0,0,1-1.42-1.63,21.09,21.09,0,0,1-1.94-4.13,46.69,46.69,0,0,1-2.5-13.62c0-1.52-.05-3.09-.17-4.6a78.16,78.16,0,0,0-1.22-8.88,202.38,202.38,0,0,0-5-21.66c-2.08-7.35-4.48-14.72-7-21.76h.07c-2.08-5.62-4.09-11.15-6.35-16.59a49.31,49.31,0,0,0-4-7.93,10,10,0,0,0-1.49-1.71,2.27,2.27,0,0,0-.48-.33,2.15,2.15,0,0,0-.52-.27,6.93,6.93,0,0,0-1.12-.26,2.73,2.73,0,0,1-1.79-1,4.33,4.33,0,0,1-.67-.85,8.07,8.07,0,0,1-.6-.92,12.59,12.59,0,0,1-1.67-4.22,7.24,7.24,0,0,1,.69-4.43,17.53,17.53,0,0,1,2.7-3.8c1.05-1.18,2.17-2.3,3.26-3.45a44.81,44.81,0,0,0,6-7.36,25.71,25.71,0,0,0,3.46-8.65,21,21,0,0,0,.43-6.11,48.44,48.44,0,0,0-1-6.46c-.89-4.27-1.85-8.52-1.92-12.14a42.34,42.34,0,0,1,.91-10.92l.66-2.65.84-2.59c.26-.87.65-1.7,1-2.54l.5-1.27c.18-.41.39-.82.58-1.23.41-.81.75-1.65,1.21-2.43l1.35-2.38a52.6,52.6,0,0,1,3.12-4.47,47,47,0,0,1,7.71-7.87l1-.79,1.06-.72c.7-.48,1.4-1,2.11-1.45,1.48-.85,2.9-1.82,4.43-2.56l2.27-1.18,2.33-1c1.53-.74,3.15-1.28,4.72-1.9s3.23-1.05,4.83-1.57,3.26-.86,4.9-1.23a31,31,0,0,1,10-.49,30.27,30.27,0,0,1,9.54,2.2,57.56,57.56,0,0,1,9.16,4.72l-.17-.2c2,1.5,4.8,2.87,5.8,4.14l-.21-.16c.93,1,2.63,1.65,3.1,2.34l.22.08c1.2,1.07.07.2,1,1.06.35.32.24,0,.91.72-.08.38,2.83,2.74,2.58,3.12-.59-.64.81,1.12-.58-.27.37.42,2.12,2.43,2.08,2.14.28.07,1.06.8.15-.57l-.31-.17c-.26-.51-.23-.36-.28-.58-1.41-1.61-1.48-1.94-2.5-3.1,0,0,0,0,0,0a33.2,33.2,0,0,1-2.45-2.28l-.2-.29c-.27-.46-2-1.38-1.37-1.15a63.39,63.39,0,0,0-11.86-7.9c-.33-.1-1.17-.51-1.82-.8s-1.13-.45-.68-.15a24.14,24.14,0,0,0-5.78-2.3.68.68,0,0,1,.32.05,13,13,0,0,0-1.57-.5c-.45-.08-.84-.13-1.21-.17a17,17,0,0,1-2.7-.5,15.24,15.24,0,0,1-2.57-.12c-.63,0-1.29,0-1.88,0A8,8,0,0,0,532,271c-.3,0-.41-.08-.3-.13a35.83,35.83,0,0,0-6.74,1.06l-3.17.78-2.87.87-5.08,1.88a32.42,32.42,0,0,0-4.58,2.19,42.91,42.91,0,0,0-7.91,4.58l.23-.21c-.72.54-1.54,1-2.27,1.66L497,285.5c-.69.63-1.33,1.28-1.92,1.85a14.51,14.51,0,0,0-1.46,1.63,15.32,15.32,0,0,0-3,2.93c-.34.5-.83,1.07-1.3,1.79L487.83,296a42.77,42.77,0,0,0-2.77,5.24c-.42.43-1.17,2.79-1.41,2.89a56,56,0,0,0-2.19,7.79,41.76,41.76,0,0,0-.71,8.56c.06,5.84,1.5,11.61,2.18,16.93l0-.15c.14.68.34,1.41.52,2.15l.44,2.19c0,.14,0,.12-.07-.17a22.8,22.8,0,0,1,0,2.87c-.06.47-.12.94-.17,1.41l-.08.72c-.05.23-.09.47-.14.71,0,0,0,0,0-.34a28.24,28.24,0,0,1-1.66,5.66l-.1.09c-.18.42-.34.85-.53,1.26-.05-.06-.09-.14.23-.79a37.42,37.42,0,0,1-7.57,10.07,63.74,63.74,0,0,0-4.43,4.8,13,13,0,0,0-1.76,2.86,7.78,7.78,0,0,0-.67,3.37,9.21,9.21,0,0,0,.77,3.32,14.82,14.82,0,0,0,.75,1.49,15.08,15.08,0,0,0,.85,1.44l.49.69c.18.23.39.43.59.65a3.43,3.43,0,0,0,1.57.9,9,9,0,0,1,1.53.34c.21.13.42.24.62.38l.56.52a23.91,23.91,0,0,1,3.34,5.48c.95,2,1.79,4,2.63,6l-.3-.57c.47,1,.9,2.07,1.36,3.1,0,0-.12-.15-.19-.3,1.5,4,3.19,8.18,4.59,12.14,0,0-.31-.58-.14,0,1.17,2.88,1.43,4.79,2.25,6.15,0,.15,0,.26-.15,0A245.54,245.54,0,0,1,495.36,441a117.19,117.19,0,0,1,3.9,22.51l-.07,0a55.58,55.58,0,0,0,2.15,14.8,33.58,33.58,0,0,0,1.29,3.6,13.09,13.09,0,0,0,1.93,3.31,2.72,2.72,0,0,0,1.63,1.06,1.8,1.8,0,0,0,1.6-1.07,20.16,20.16,0,0,0,1.3-3.6c1.3-4,2.19-6.69,3.5-10.7l.11-.08c2-6.83,4.94-14.11,6.77-21.31l0,.52c.17-1.15,1.35-4.28.94-3.94l.45-1.23c1-4.95,2.71-8.77,4-14.82l0,.41c.35-1.61.76-3.48,1.1-4.65a4.47,4.47,0,0,1-.06.49,115,115,0,0,0,3.06-16c0,.21,0,.42,0,.63.21-2.61.88-7.4.64-10.87l.07.21-.21-1.74.12-.06a48.92,48.92,0,0,0-1.33-6.46C527.67,389.85,527.24,387.75,526.82,385.6Z"/><path class="cls-2" d="M529.35,341.23l0,0C529.27,341.39,529.3,341.34,529.35,341.23Z"/><path class="cls-2" d="M566.8,286.51l.38.41A5.34,5.34,0,0,0,566.8,286.51Z"/><g class="cls-7"><g class="cls-8"><path class="cls-9" d="M1134.55,114.32c-.32-2.27-8.33-14-18.29-24.67-4.92-5.32-10.2-10.41-14.61-14.38-2.22-2-4.17-3.71-5.76-5.06s-2.77-2.37-3.39-2.95a196.13,196.13,0,0,0-28.41-19.91c-6.26-3.69-13.09-7.37-20.16-10.83s-14.41-6.75-21.8-9.57c-3.69-1.41-7.4-2.68-11-3.84s-7.27-2.11-10.77-2.95a133.07,133.07,0,0,0-19.21-3.07c-2.82-.21-5.38-.29-7.63-.4h-5.81a34.89,34.89,0,0,1-5,.05c.14-.17-.15-.39-.79-.66a15.93,15.93,0,0,0-2.91-.84c-1.27-.27-2.81-.55-4.56-.82s-3.66-.4-5.7-.57a91.71,91.71,0,0,0-12.73,0c-2.1.12-4.08.38-5.91.66a39.6,39.6,0,0,0-4.89,1,160.14,160.14,0,0,0-19.82,6.69,189.82,189.82,0,0,0-18.1,8.48c-2.88,1.5-5.63,3.08-8.36,4.64s-5.38,3.2-7.94,4.88c-5.15,3.28-10,6.72-14.43,10.14-8.86,6.74-9.71,8.29-13.91,11-.84.57-2,2.2-4.36,4.84s-5.73,6.41-10.82,11.51c-1.76,1.75-3.7,3.57-5.67,5.49s-4,3.9-6,5.87a109.34,109.34,0,0,0-10.33,11.72c-2.72,3.44-6.89,8.81-11.44,15.41a184.31,184.31,0,0,0-13.49,22.9,147.79,147.79,0,0,0-9.76,25.11,125.53,125.53,0,0,0-4,19.86,140.75,140.75,0,0,0-.71,24.63,171.6,171.6,0,0,0,2.59,20.16c.34,1.56.67,3.1,1,4.63.17.76.31,1.53.5,2.29l.58,2.26c.4,1.5.75,3,1.17,4.51s.89,3,1.33,4.5A178.32,178.32,0,0,0,780,265.72a136.33,136.33,0,0,0,14.79,26.48,207.11,207.11,0,0,0,19.72,23.46,199.38,199.38,0,0,0,23.37,20.47,274.53,274.53,0,0,0,25.84,17.09A265.83,265.83,0,0,0,891.61,368c9.46,4.39,19.15,8.42,29.09,13.31,2.69,1.24,5.34,2.52,7.28,3.34a87.35,87.35,0,0,1,9.25,5.28,81.6,81.6,0,0,1,18.28,17.15A68.7,68.7,0,0,1,966.81,428c.27,1.06.73,2.22,1,3.38l.46,1.71a14.83,14.83,0,0,1,.41,1.58,17,17,0,0,0,.64,2.27c.19.47.33.68.44.28a30.69,30.69,0,0,0,.07-15,52.87,52.87,0,0,0-3.3-9.92,70.92,70.92,0,0,0-5.86-10.33,68.37,68.37,0,0,0-8.16-9.56,84.45,84.45,0,0,0-10.77-8.83c-7.87-5.53-17-10.26-26.18-14.68-6.39-3.05-12.27-5.89-17.56-8.72-2.66-1.41-5.16-2.82-7.52-4.22s-4.57-2.84-6.68-4.21a125,125,0,0,1-19.49-16.07c-1.65-1.74-3.07-3.56-4.62-5.4s-3.12-3.87-5.09-6c-3.86-4.36-9.12-9.38-17.3-16.56-4.78-4.24-9.33-8.48-13.61-12.89A168.42,168.42,0,0,1,811.77,281a126.65,126.65,0,0,1-10-15.29,109.33,109.33,0,0,1-7.51-17.21A131,131,0,0,1,789,224.37a125.7,125.7,0,0,1-.71-24.32c.15-1.2.4-4.21.93-7.33.19-1.57.53-3.14.79-4.53s.48-2.6.68-3.41c.23-1.19.45-2.41.68-3.63s.58-2.43.88-3.65.65-2.45,1-3.68.68-2.46,1.14-3.67a132.37,132.37,0,0,1,5.71-14.23c2.08-4.58,4.44-8.86,6.52-12.88s4.18-7.62,5.83-10.85a151.55,151.55,0,0,1,18.24-21.83c5.8-5.87,11.4-11.13,18.25-17.7,4.35-4.17,8.86-8.25,13.6-12.21s9.74-7.78,15-11.5,10.8-7.26,16.7-10.68a196.45,196.45,0,0,1,18.65-9.58c14.9-6.64,29.37-11,44.42-12.19a72.1,72.1,0,0,1,14.73.76c1.49.19,3,.53,4.39.78s2.78.58,4,.89c2.51.64,4.62,1.28,6,1.73,5,1.57,11.19,3.34,17.56,5.34,3.19,1,6.39,2.06,9.46,3.09s6,2.07,8.63,3c4.16,1.38,8.35,3,12.57,4.69,2.12.86,4.22,1.78,6.35,2.71s4.26,1.92,6.38,3a220.82,220.82,0,0,1,26.36,15.08c6.32,4.48,11.46,9.39,17.82,15,7.64,6.56,14,12.5,19.87,18.43a166.19,166.19,0,0,1,16.54,19.25c4.72,6.84,8.45,12.93,11.45,18.29,1.52,2.67,2.79,5.19,4,7.46l3.17,6.36c1.8,3.9,3.29,7,4.37,9.6.56,1.28,1.06,2.4,1.49,3.39l1.09,2.6c2.54,6,2.23,4.41,2.57,5.75a40.73,40.73,0,0,1,1.72,8.2c.17,1.29.34,2.64.59,4.17s.48,3.28.91,5.34c2.46,11.11,4.76,22.05,6.21,29.39a175,175,0,0,1,3.32,36.42,143.27,143.27,0,0,1-6.54,40.63,20,20,0,0,0,1.8-4,223.07,223.07,0,0,0,9.16-55.66,189.16,189.16,0,0,0-7-58.44l-1-3.15c-.4-1.09-.81-2.23-1.24-3.39l-1.25-3.56c-.45-1.18-.9-2.38-1.32-3.56a195.76,195.76,0,0,0-9.76-23.21c-3-6.32-6.76-15.1-10.23-22.69-.87-1.89-1.7-3.72-2.45-5.44s-1.53-3.25-2.14-4.66A41,41,0,0,1,1134.55,114.32Z"/><path class="cls-10" d="M915.05,368.69c9.23,4.42,18.31,9.11,26.21,14.6a75.71,75.71,0,0,1,19,18.27,70.61,70.61,0,0,1,5.93,10.28c.38.86.73,1.72,1.08,2.55s.65,1.67.92,2.5.56,1.64.79,2.44.4,1.61.59,2.39c1.45,6.25,1.14,11.55.07,15-.19.7-.63-.58-1.07-2.54-.27-1-.62-2.11-.91-3.28s-.75-2.32-1-3.37a70.44,70.44,0,0,0-11.47-20.77,83.1,83.1,0,0,0-18.38-17,91.58,91.58,0,0,0-9.27-5.24c-1.94-.81-4.6-2.09-7.29-3.32-10-4.87-19.66-8.9-29.13-13.3A266.63,266.63,0,0,1,863.26,353a266.49,266.49,0,0,1-25.82-17.16,200,200,0,0,1-23.33-20.52,203.07,203.07,0,0,1-19.65-23.54,136.38,136.38,0,0,1-14.71-26.54c-1.45-3.26-2.6-6.48-3.78-9.56-.56-1.55-1.05-3.1-1.57-4.62-.26-.76-.52-1.52-.77-2.27s-.45-1.52-.67-2.28c-.45-1.51-.89-3-1.33-4.5s-.77-3-1.15-4.52c-.19-.76-.4-1.51-.57-2.27s-.33-1.52-.49-2.29c-.32-1.53-.68-3.07-1-4.63a174.9,174.9,0,0,1-2.53-20.18,142.79,142.79,0,0,1,.83-24.64,129.51,129.51,0,0,1,4.1-19.84,150.82,150.82,0,0,1,9.86-25.08,185.91,185.91,0,0,1,13.57-22.87c4.57-6.59,8.77-11.93,11.48-15.38,1.32-1.85,3-3.73,4.7-5.73s3.68-4,5.67-6,4-4,6-5.85S826,79,827.8,77.29l1.16-.75,3.6-2.24c3.21-2,8.15-5,15-8.89q-8.42,6.75-16.31,14.1t-15,15.37a195.62,195.62,0,0,0-25.06,34.61,159.82,159.82,0,0,0-9.2,19.12,141.18,141.18,0,0,0-6.27,20.1,130.42,130.42,0,0,0-3.05,20.61,124.53,124.53,0,0,0,.47,20.63A141.67,141.67,0,0,0,787,263.83,159.68,159.68,0,0,0,801.26,288a177.29,177.29,0,0,0,18.12,21.47,221.85,221.85,0,0,0,44.48,34.46,277.22,277.22,0,0,0,25,13.2C897.43,361.11,906.26,364.74,915.05,368.69Z"/><path class="cls-11" d="M830,78.52s.88-.83,2.44-2.25l2.82-2.56,3.72-3.2a241.66,241.66,0,0,1,20.64-15.65,166,166,0,0,1,21.12-12.33c5.63-2.63,9-3.51,7.88-1.49l-2.17,1.74-2.57,2-3.41,2.77c-5.05,4.12-12,10-19.67,16.92s-15.94,15-23.88,23.31c-4,4.14-7.84,8.4-11.6,12.52s-7.32,8.24-10.68,12.14l-.86,1-2.29,2.74-1.58,1.91-1.75,2.24-1.93,2.49-2,2.74c-1.4,1.87-2.72,3.92-4.12,6-.7,1-1.33,2.1-2,3.15s-1.35,2.09-1.94,3.17c-1.21,2.13-2.44,4.19-3.45,6.22L791.22,147l-1.28,2.73-.63,1.07c-.42.69-1,1.74-1.67,3.11s-1.58,3-2.43,5l-1.4,3.15c-.44,1.13-.91,2.33-1.39,3.58a104,104,0,0,0-5,18,96.14,96.14,0,0,0-1.36,22.15s0,.49,0,1.4.16,2.25.28,4c.07.85.14,1.79.22,2.82s.28,2.13.42,3.32.3,2.44.51,3.76.5,2.71.76,4.16a138.6,138.6,0,0,0,5.27,19.54,155.22,155.22,0,0,0,9.47,21.48,170.19,170.19,0,0,0,26.64,36.67c2.17,2.41,4.38,4.48,6.29,6.46l5.33,5.1c1.58,1.45,2.9,2.69,3.9,3.68a26.66,26.66,0,0,1,2.12,2.13l1.69,1.45c1.07,1,2.7,2.23,4.65,3.82s4.34,3.37,6.92,5.37,5.49,4,8.53,6c6,4.12,12.61,8.22,18.45,11.63s10.91,6.16,13.81,7.87c0,0,4.18,3,11.27,7s17.05,9.13,27.82,14.7l2.61,1.63c1.63,1.06,3.9,2.57,6.46,4.41a91.44,91.44,0,0,1,15.58,14.17c.55.64,1.1,1.27,1.61,1.89s1,1.26,1.42,1.86c.93,1.17,1.67,2.35,2.35,3.35s1.18,1.95,1.6,2.69a13.62,13.62,0,0,1,.83,1.72c.23.79,0,.71-1-.41-.52-.55-1.21-1.39-2.15-2.5s-2.15-2.48-3.72-4.09l-.64-.65c-.4-.43-1-1-1.82-1.72s-1.69-1.58-2.78-2.48c-.54-.45-1.09-.94-1.69-1.42l-1.87-1.47a124.54,124.54,0,0,0-16.7-10.59l-1.5-.85c-1-.56-2.41-1.36-4.27-2.34-3.72-2-9.14-4.68-15.84-7.73s-14.62-6.5-23.08-10.58a279.34,279.34,0,0,1-25.93-14.26,241.86,241.86,0,0,1-24.44-17.38,200.19,200.19,0,0,1-19.67-18.21c-11-11.67-17.25-21.43-18.33-23.35l-1.05-1.64c-.67-1.08-1.74-2.61-3-4.68A180.52,180.52,0,0,1,784,265.61a158.89,158.89,0,0,1-9.78-27.92,146.07,146.07,0,0,1-3.18-17c-.3-3-.7-6-.8-9.06-.06-1.53-.23-3.08-.21-4.63l0-4.69a137.91,137.91,0,0,1,1.63-19.08,147.51,147.51,0,0,1,4.44-19A149.93,149.93,0,0,1,783,146.07a172.08,172.08,0,0,1,8.76-16.88c3.17-5.36,6.44-10.5,9.85-15.28q1.24-1.81,2.54-3.55l2.54-3.45c1.73-2.22,3.37-4.46,5.07-6.54C818.44,91.93,824.8,84.64,830,78.52Z"/><path class="cls-12" d="M831.1,75.74l1.57-1.6c1-1,2.53-2.49,4.43-4.26a191.18,191.18,0,0,1,15.77-13.2,182.23,182.23,0,0,1,21.63-14,113.58,113.58,0,0,1,22.15-9.49l.85-.33c.55-.22,1.36-.53,2.41-.9,2.07-.75,5-1.83,8.51-2.94a174.92,174.92,0,0,1,25-6.17c2.17-.39,4.33-.62,6.39-.87s4-.37,5.86-.48l2.63-.14,2.4,0c1.51,0,2.83.07,3.91.16,4.38.55,4.94,1.33-.87,2.76l-4,1.1c-2.6.77-6.39,1.9-11.05,3.62A224.08,224.08,0,0,0,902.46,46.5a372.34,372.34,0,0,0-45.09,31.08c-7.62,6.13-15.13,12.7-22.24,19.65-3.59,3.44-7,7-10.4,10.62s-6.61,7.31-9.67,11.08l-1,1.2c-.66.79-1.54,2.05-2.69,3.69a99.28,99.28,0,0,0-8.68,15.31s-.33.54-.87,1.55l-2.28,4.26c-1.81,3.63-4.31,8.63-6.56,14.27A177,177,0,0,0,787,177c-.88,2.94-1.53,5.83-2.25,8.49s-1.27,5.13-1.77,7.27c0,0-.14.77-.38,2.15s-.42,3.39-.74,5.88a114.44,114.44,0,0,0,4.31,43.47,108.5,108.5,0,0,0,7.93,19.63s.43,1.09,1.13,2.92c.35.92.82,2,1.39,3.2s1.19,2.55,1.86,4A82.81,82.81,0,0,0,810,291.19l-.94-1.1-2.53-3.21c-.54-.7-1.17-1.45-1.8-2.31s-1.3-1.81-2-2.81c-1.49-2-3-4.35-4.69-6.9a157.79,157.79,0,0,1-10.07-18.58A138.21,138.21,0,0,1,779.67,233a125,125,0,0,1-3.78-25.12,113.43,113.43,0,0,1,1.37-23.28,111.37,111.37,0,0,1,4.53-17.92,63,63,0,0,1,4.33-9.86l1.16-2.33c.37-.76.82-1.7,1.36-2.8s1.22-2.35,2-3.75a203.76,203.76,0,0,1,13.89-22.44c3.15-4.51,6.79-9.27,10.84-14.21s8.46-10.07,13.3-15.22c9.63-10.34,20.69-20.94,32.42-31.39a11.06,11.06,0,0,0,1.18-2.1c.45-1.11.62-2.33-.53-2.77s-3.67-.12-8.5,2.08S841.13,68.1,831.1,75.74Z"/><path class="cls-13" d="M862.11,45.18a260.8,260.8,0,0,1,23.68-16.12c4.75-2.73,12.39-6.09,18.41-8.68a134.5,134.5,0,0,1,23-7.17,217.31,217.31,0,0,1,23.92-3.54,137.36,137.36,0,0,1,27.47.24A123.51,123.51,0,0,1,1024,24.38c3.47,1.81,6.11,3.15,9.78,4.93,1.09.38,5,2.05,6.08,2.46,11.11,5.42,21.61,11.52,31.43,17.55a178.77,178.77,0,0,1,41.88,35.51,247.56,247.56,0,0,1,20.37,25.53c1.29,2,2.39,3.71,3.34,5.32s1.69,3.1,2.37,4.47,1.26,2.62,1.77,3.84l1.38,3.56,1.36,3.5c.44,1.21.93,2.47,1.5,3.82,1.17,2.67,2.49,5.82,4.48,9.77a356.29,356.29,0,0,1,15.5,37.65c2.18,6.3,4,12.75,5.55,19.35a169,169,0,0,1,3.42,20.53c.73,8.26,1.06,16.1,1,23.75a191.34,191.34,0,0,1-1.68,22.64,246.51,246.51,0,0,1-7.91,34.88,49.7,49.7,0,0,1-2.24,5.51c-.43.94-.84,1.79-1.15,2.38s-.57.92-.61.85a38.24,38.24,0,0,1,1.1-4.86c.29-1.13.63-2.34.92-3.52s.5-2.35.69-3.35c.25-1.38.53-2.66.78-3.87s.48-2.35.74-3.43.51-2.09.78-3.06.49-1.9.73-2.8c.51-1.8,1-3.49,1.47-5.16s.87-3.38,1.25-5.18c.48-2.29.73-4.79,1.06-7.4s.42-5.38.61-8.21.17-5.74.2-8.67l0-4.41v-2.21l-.07-2.2c0-4.78.07-8.48.17-13.08.15-6.36-1.58-15.65-3.68-24.56-2.74-11-4.84-22.85-9.11-34.11a158.23,158.23,0,0,0-9.39-20.2c-1.7-3.05-3.31-6.05-5-9s-3.29-5.8-4.8-8.76c2.52,5.08-3.44-5.56-10.54-15.33l-2.63-3.64c-.89-1.17-1.77-2.3-2.6-3.38s-1.59-2.12-2.34-3l-2-2.47c-2.36-2.91-3.24-4.1-1.2-1.82a18.47,18.47,0,0,1-2.83-4.48c.35,0,.2-.76,1,0s1.56,1.36,2.22,1.89,1.21,1,1.73,1.36a12.66,12.66,0,0,0,2.5,1.48c1.37.6,2.35.6,3.83,1.43-.23-.39-5.4-6.94-12-14.11S1100.41,77.18,1096,72.89c-6.64-6.66-12.68-12.5-22.67-19.36-2.66-1.65-4.35-1.94-7-3.55-1.53-.91-7.36-4.21-15.6-8.17a298.33,298.33,0,0,0-30-12.55c-5.57-1.94-11.27-3.66-16.79-5a137.55,137.55,0,0,0-15.66-2.93,121.81,121.81,0,0,0-12.38-.94l-2.33-.1h-2c-1.18,0-2.1,0-2.72-.05-1.47-.14-3-.18-4.55-.27l-4.16-.28c-2.42-.14-3.93-.39-3.15-.78.36-.49,0-.84-.91-1.12a15.72,15.72,0,0,0-3.76-.57L947.53,17a29.09,29.09,0,0,1-4.07-.3c-.75-.28,1.7-1.22.95-1.49a34.51,34.51,0,0,0-7.15-.22,54.46,54.46,0,0,0-9.91,1.49A152.91,152.91,0,0,0,908.82,22a161.42,161.42,0,0,0-16.64,7.3c-2.6,1.18-5.12,2.46-7.68,3.69s-5,2.53-7.54,3.88C871.93,39.47,867,42.31,862.11,45.18Z"/><path class="cls-14" d="M823.59,294.74s-.43-.41-1.19-1.21l-3.32-3.47a129.92,129.92,0,0,1-10.56-13.35,120.61,120.61,0,0,1-11.48-21,101.29,101.29,0,0,1-7.24-26s-.3-1.88-.76-4.8c-.16-1.46-.34-3.18-.55-5.06s-.25-3.91-.41-6-.06-4.2-.12-6.26.13-4.05.19-5.9.29-3.5.38-4.92.27-2.58.3-3.39l.39-2.39.5-2.36.5-2.36c.17-.79.4-1.56.6-2.34,0,0,.14-.71.4-2s.75-3,1.26-5.2a136.08,136.08,0,0,1,5.44-16,165,165,0,0,1,8.21-17c2.77-5,5.16-9.08,6-11.18l2.15-3.1c.66-.94,1.49-2,2.36-3.19l1.37-1.82,1.5-1.86a103.25,103.25,0,0,1,10.32-11.38l2.4-2.41c.76-.79,1.74-1.71,2.84-2.82s2.35-2.36,3.78-3.72l2.21-2.17,2.44-2.32c1.66-1.63,3.5-3.31,5.41-5.13,3.87-3.57,8.12-7.55,12.73-11.65"/><path class="cls-15" d="M1086.41,58.26a240.37,240.37,0,0,1,23.87,21.44,200.26,200.26,0,0,1,13.29,15c1.94,2.33,3.55,4.61,5,6.53s2.54,3.64,3.38,4.91a213.25,213.25,0,0,1,24.19,50c.73,1.79,1.68,4.27,2.41,5.57a115.92,115.92,0,0,1,7.13,17.34c2,6.12,3.69,12.24,5.22,17.66.67,2.36,1.38,4.59,2,6.92a66.06,66.06,0,0,1,1.62,7.35,196.06,196.06,0,0,1,2.24,20.49c.13,3.37.32,6.7.27,10,0,1.65,0,3.29,0,4.92s-.13,3.25-.19,4.87A186.45,186.45,0,0,1,1171.4,288a181.62,181.62,0,0,1-9.29,26.44c-.78,1.56-2,4.35-2.21,4-.38.33,1.08-3.88,1.69-6.17,1-2.63,1.9-4.75,3.07-8.3,2.17-6.45,3.78-14.82,5.27-20.74,1.4-6.67,2.75-11.94,3.57-19.49.31-2.54.44-4.95.58-7.38s.19-4.87.2-7.5a206,206,0,0,0-6.78-55.53c-2.73-7-5.53-18.06-8.72-26.13-.89-2.49-1.73-4.84-2.82-7.87-3.07-7.33-7.2-14.61-9.25-19.68a157.67,157.67,0,0,0-15.89-31.43c-.75-1.12-1.78-2.73-3.14-4.61s-3-4.09-4.86-6.44c-3.74-4.76-8.41-10.17-13.38-15.37a233.2,233.2,0,0,0-25.94-23.34c-12.68-9.77-26.5-17.2-40-24.46-.61-.3,2.13.33,9.14,3.56,3.49,1.65,8.06,3.93,13.71,7.26A201.63,201.63,0,0,1,1086.41,58.26Z"/></g></g><path class="cls-16" d="M990,390.82c5.8-54.94-20.06,128.83-20.22,131.21-.18,2.79-22.11,20.62-44.91-16.48-15.13-24.63-16.6-53.46-14.81-81.93,0,0,2.05-13.16-10.49-8.67,0,0,1.14-11.84,20.52-1.63S987.29,416.1,990,390.82Z"/><polygon class="cls-2" points="989.3 390.75 989.24 390.94 989.26 391.44 989.3 390.75"/><path class="cls-2" d="M988.88,394c0-.09.06,0,.11-.13,0-.32.09-.64.11-1v-1a2.67,2.67,0,0,0-.1,1.14A2.26,2.26,0,0,1,988.88,394Z"/><path class="cls-2" d="M988.7,394.55a4.49,4.49,0,0,0-.29,1.21C988.44,395.49,988.89,394.44,988.7,394.55Z"/><path class="cls-2" d="M930.2,416.26l.23,0Z"/><path class="cls-2" d="M913.64,410.55l-.21.05a29.62,29.62,0,0,1,4.77,1.93l2.39,1.19,1.21.57c.4.17.82.32,1.23.47l-.23-.05a44.5,44.5,0,0,0,12.58,2.78,73.37,73.37,0,0,0,12.83-.07c-.13,0-.18.05-.32.08a13,13,0,0,1,1.36-.21c.12,0-.13.06-.28.08a22.31,22.31,0,0,0,3.53-.35c1.26-.21,2.42-.44,3-.46s.71-.23.42-.23a59.72,59.72,0,0,0,19.75-7.07c.31-.14.38-.13.33,0a43.29,43.29,0,0,0,7-5.6,23.66,23.66,0,0,0,5.1-7.41c0-.24-.31.53-.16,0-.22.43-.35.87-.56,1.26l-.58,1.17-.28.58-.35.53a10.61,10.61,0,0,1-.76,1l.07-.23c-.76,1,0,.33-.89,1.3-.39.36,0-.16-.15,0a39,39,0,0,1-5.88,5.51c-.61.23-2.44,1.62-3.42,1.94-.58.39-1.2.74-1.4.94a64.79,64.79,0,0,1-13.59,4.92,74.44,74.44,0,0,1-14.52,2.09c-4.59.54-10.14,0-15.49-1,0,0,0,0,0,0a31.6,31.6,0,0,1-6.27-1.6l-1.72-.53c-1.43-.68-2.86-1.43-4.32-2.15l-1.09-.55-1.12-.47c-.76-.29-1.5-.64-2.28-.89-3.06-1.07-6.5-1.75-9.78-.67-.39.16-.77.37-1.15.56a12.57,12.57,0,0,0-1.05.75,7.36,7.36,0,0,0-1.54,2.05,6,6,0,0,0-.51,1.34c-.06.28-.14.57-.18.84l-.06.42c.09,0,.26-.07.39-.09l.82-.24.42-.12.3-.08c.39-.1.78-.21,1.17-.27a7.11,7.11,0,0,1,4.57.39,5.36,5.36,0,0,1,2.59,3.63,14.35,14.35,0,0,1,.2,5.31c-.11,1.81-.22,3.59-.33,5.35s-.15,3.51-.23,5.25-.08,3.48-.11,5.21a144,144,0,0,0,1.21,21s0,.11-.09-.26c.27,2.07.53,4.05.78,6s.58,3.86,1,5.78h0c1,4.77,2.38,9.67,3.94,14.46a84.35,84.35,0,0,0,5.91,13.47,86.26,86.26,0,0,0,9.88,15c4,4.7,8.73,9,14.29,11.49l-.05,0a23,23,0,0,0,14.06,1.72,19.71,19.71,0,0,0,6.64-2.7,13.13,13.13,0,0,0,2.77-2.34,4.36,4.36,0,0,0,.53-.79,1.77,1.77,0,0,0,.17-.49l0-.44.22-1.79c1.47-9.82,2.45-20.28,4-30.18,1.17-6.09,1.67-14.24,2.81-20,2.16-11.78,3.51-23.3,5-35.18,1.77-10.89,3-21.85,4.92-32.35.55-5,1.9-10.49,2.79-16.05l-.11.19c.59-1.93.44-4.54,1.17-5.62l-.06.19.09-.16,0,0s-.11-.1-.09-.08-.15.09-.11.06v0c0,.13,0,.27,0,.4l.09.88a3.26,3.26,0,0,1,0,1.41l.07.18c-.08,1.3-.1.15-.23,1.14,0,.38.15.16,0,.94-.37.13-.23,3.17-.64,3.21.07-.7-.27,1.09-.19-.5-.08.45-.29,2.61-.1,2.43.16.21.22,1.07.5-.23l-.1-.28c.17-.43.1-.33.21-.48.2-1.71.41-1.92.61-3.15,0,0,0,0,0,0a14.76,14.76,0,0,1,.21-2.69l.09-.26c.19-.39-.16-2,.07-1.45,0-.44,0-.88,0-1.38l0-.2c0-.05,0-.08,0-.15a.81.81,0,0,0,0-.14.61.61,0,0,0-.09-.14.5.5,0,0,0-.38-.16.51.51,0,0,0-.25.06l-.08.06a.5.5,0,0,0-.1.11l-.06.1,0,.12-.06.2c-.07.24-.13.47-.18.7-.2.93-.37,1.87-.54,2.83-.32,1.9-.65,3.86-1,5.8,0,.56-.49,3-.17,2.14a35.73,35.73,0,0,0-1,4.88.49.49,0,0,1,0-.26c-.6,2-.12,2.5-.76,4.4.19.34-.63,3.52-.51,4.66-.09.24-.15.31-.18.22-.56,3.49-1.19,7.36-1.66,10.32-.17,2.57-1,6.12-1,8.35-.33,1.79-.88,4.7-1.14,7.24v-.25c-.4,2.84-.9,6.4-1,8.38a15.89,15.89,0,0,0-.79,3.26c-.15,1.91-.74,5.74-1,8.66-.2.43-.29,2.4-.5,2.52-.81,8.18-2.38,18.2-3.88,26.84v-.12c-.05,1.14,0,2.47,0,3.63,0,.11-.06.09,0-.15-.19,1.59-.59,3-.78,4.64,0,0,0,0,0-.28-.13,1.5-.59,3.05-.69,4.82l-.06.09-.09,1.13c-.06,0-.14-.09,0-.69-1,6.8-1.89,13.73-2.78,20.7-.22,1.74-.44,3.49-.67,5.24l-.15,1.31a1.66,1.66,0,0,1,0,.31.52.52,0,0,1-.07.21,2.72,2.72,0,0,1-.31.5,10.19,10.19,0,0,1-1.82,1.77,19,19,0,0,1-9.57,3.75l.5-.12a18.47,18.47,0,0,1-2.67.29s.14,0,.27-.06a27.16,27.16,0,0,1-5.15-.57,22.51,22.51,0,0,1-4.87-1.64s.51.12.1-.09c-2.32-.93-3.38-2.09-4.6-2.5-.08-.08-.1-.19.12-.07a42.88,42.88,0,0,1-7.88-6.9,70.44,70.44,0,0,1-6.41-8.41,65.9,65.9,0,0,1-4.82-7.77c-.71-1.39-1.41-2.8-2.11-4.19s-1.28-2.84-1.94-4.21h.07c-3.26-7.2-5.17-15.42-6.56-23.46-.28-1.67-.51-3.07-.69-4.49s-.44-2.82-.57-4.52l.07-.09c-.91-5.69-.59-12.05-.92-18l.11.42c-.19-.93.06-3.63-.22-3.27l.11-1.06a35.74,35.74,0,0,1,.07-5.86c.12-2,.3-4,.32-6.54l.05.34c0-.67,0-1.39.07-2.06s.1-1.3.13-1.79a2.85,2.85,0,0,1,0,.39,10.59,10.59,0,0,0-.18-3.21,6.8,6.8,0,0,0-1.41-3,5,5,0,0,0-2.9-1.68,9.49,9.49,0,0,0-3.32,0,3.9,3.9,0,0,1,.47-.2c-.52.11-1.16.24-1.84.44-.37.09-.64.19-1,.29l-.23.08c-.07,0-.2.1-.15,0a4,4,0,0,1,.11-.5,6.7,6.7,0,0,1,1-2.05,6.24,6.24,0,0,1,1.53-1.58l-.09.15a5.61,5.61,0,0,1,1.14-.78l.09.1a10.91,10.91,0,0,1,5.12-.67c.86.12,1.72.25,2.57.43Z"/><path class="cls-2" d="M949,417.37h0C948.82,417.39,948.87,417.39,949,417.37Z"/><path class="cls-2" d="M991,386.21c0,.17,0,.3-.06.44A2.57,2.57,0,0,0,991,386.21Z"/><path class="cls-16" d="M952.35,348.93s-27.76-9.49-31.77-22.52c0,0,7.69,18.55-2.92,42.6a26.12,26.12,0,0,0-2.13,10.3c26.73-4.84,55.14,9.1,55.14,9.1s59.39,38.11,1.23-21.92a165.14,165.14,0,0,0-19.55-17.56"/><polygon class="cls-2" points="951.96 349.46 952.03 349.56 952.33 349.66 951.96 349.46"/><path class="cls-2" d="M953.69,350.49c0-.05,0-.06,0-.11l-1.11-.48C952.87,350.35,953.48,350.19,953.69,350.49Z"/><path class="cls-2" d="M953.94,350.72a1.09,1.09,0,0,0,.66.38C954.42,351.08,954,350.55,953.94,350.72Z"/><path class="cls-2" d="M982.78,378.66l-.1-.1A.3.3,0,0,0,982.78,378.66Z"/><path class="cls-2" d="M990,386.3l.16,0c-1.4-1.39-2.67-3.22-4.1-4.72l.12.08c-3.43-4-6.87-7.43-10.52-11.16.06.05.1.05.17.1a4.23,4.23,0,0,1-.63-.52c0-.07.09,0,.16.08-.62-.93-2.32-2.26-2.7-2.85-.23-.21-.38-.26-.3-.09-2.86-2.91-6-6-9.14-8.67-.13-.16-.12-.22,0-.22-2.81-2.2-5.54-4.71-8.35-7-.16,0,.24.3-.09.14.85.8,1.78,1.19,2.5,2l-.15,0c.56.52.24-.05.79.54.2.25-.12,0,0,.12,1.27,1,2.5,2.2,3.77,3.1.18.37,1.3,1.18,1.64,1.71.35.24.65.54.84.57,4.13,4,8.3,8.09,12.34,12.36,2.11,1.79,4.1,4.45,6.35,6.81,0,0,0,0,0,0a37.58,37.58,0,0,1,2.64,2.85l.8.73c2.4,3,4.86,5.95,7.12,9.09a35.54,35.54,0,0,1,3,4.9,6,6,0,0,1,.7,2.62c0,.87-.84,1.18-1.76,1.1a11.27,11.27,0,0,1-3.07-.68c-1-.33-2-.73-2.93-1.14-1.91-.84-3.74-1.77-5.56-2.72-3.62-1.9-7.17-3.91-10.94-6,0,0,0-.07.17,0-.53-.31-1.05-.63-1.56-1a7.17,7.17,0,0,0-.79-.47l-.8-.38c-1.06-.5-2.12-1-3.22-1.37l0,0c-5.47-1.95-11.38-4.15-16.9-5.2a89.53,89.53,0,0,0-21.49-2.76v-.06c-1.44,0-2.87,0-4.29.1l-2.13.1a18.73,18.73,0,0,0-2.12.16l-2.12.25-1.06.13-.44.06a1.59,1.59,0,0,1-.37,0c0-.28,0-.47,0-.84s0-.71.07-1.06c.06-.7.15-1.41.25-2.12a33.32,33.32,0,0,1,1.12-4.31c.49-1.41,1.06-2.83,1.58-4.26.25-.72.54-1.43.78-2.15l.66-2.19c.22-.72.47-1.44.67-2.16s.4-1.45.59-2.17a16.16,16.16,0,0,0,.72-2.86c.16-1,.34-2.07.44-3.11s.17-2.1.27-3.09.14-1.94.27-2.81a40.28,40.28,0,0,0-2.67-19.5l.15-.06c.17.4.34.81.5,1.21a20.7,20.7,0,0,0,6,7.58,89.73,89.73,0,0,0,7.81,5.64c2.69,1.34,5.42,3.32,8.5,4.67l-.07-.12c1,.72,2.58.8,3.13,1.41l-.12,0c.52.42,1.52.2,1.8.53l.13,0c.72.27,0,.13.59.38.21.08.13-.11.55.11,0,.37,1.79.6,1.7,1-.4-.15.57.38-.35.12.24.14,1.47.56,1.42.36.16-.13.69-.12,0-.5l-.19.07c-.2-.22-.17-.13-.22-.26a9,9,0,0,1-1.67-.93s0,0,0,0a4.52,4.52,0,0,1-1.49-.54l-.12-.13c-.17-.23-1.19-.17-.8-.29-2-.74-4.13-1.71-6.22-2.73-.34-.05-1.58-.8-1.22-.4a14.5,14.5,0,0,0-2.49-1.6s.07,0,.15,0c-1-.85-1.42-.49-2.26-1.37-.28.12-1.77-1.14-2.47-1.27-.09-.12-.1-.19,0-.19a50,50,0,0,1-4.92-3.69c-1.31-.79-2.65-2.46-3.69-3.24-.66-.85-1.64-2.24-2.43-3.48l.11.11c-.25-.38-.42-.82-.65-1.24s-.35-.88-.53-1.3l-1,.37c.3.71.57,1.4.81,1.88a6.88,6.88,0,0,0,.2,2,42.25,42.25,0,0,1,1.17,5c-.08.28.22,1.41,0,1.52a36.68,36.68,0,0,1,.55,7.86c-.09,1.37-.17,2.76-.36,4.11s-.37,2.69-.69,3.94v-.07c0,.67.07,1.48.07,2.18,0,.06,0,.05,0-.09-.11.94-.51,1.76-.71,2.69,0,0,0,0,0-.17-.14.88-.59,1.74-.72,2.79l-.06,0-.14.65c-.06,0-.14-.08,0-.41-.65,1.92-1.2,3.89-2,5.79-.37,1-.75,1.93-1.12,2.9a22.86,22.86,0,0,0-1,3,27.79,27.79,0,0,0-.87,6.36v1c0,.05,0,.1.06.08l1.16-.16,1.55-.22c1-.14,2.07-.33,3.11-.4l-.3.08,1.61-.2s-.09,0-.16.07c1,0,2.08-.09,3.12-.18s2.09-.06,3.09,0c0,0-.31.08,0,.12,1.5-.16,2.38.24,3.14,0,.07,0,.11.1,0,.12a60.33,60.33,0,0,1,6.26.47c2.1.21,4.18.61,6.23,1a42.38,42.38,0,0,1,5.36,1c1.81.48,3.64.91,5.4,1.33l0,.05a92.19,92.19,0,0,1,13.7,4.86c.91.42,1.72.72,2.44,1.13l2.32,1.4v.09c3.08,1.52,6.05,3.92,9.37,5.3l-.26,0c.56.12,1.88,1.06,1.83.7l.52.37c2.33.73,3.89,2.12,6.78,2.92h-.21c.77.22,1.65.45,2.21.64a1.1,1.1,0,0,1-.24,0,7.52,7.52,0,0,0,1.87.45,2.65,2.65,0,0,0,2-.46,2,2,0,0,0,.41-2,9.93,9.93,0,0,0-.68-1.87l.24.23a39.08,39.08,0,0,0-2.72-4.5l.1.05-.55-.64.09-.09C992.67,389.47,991.33,387.93,990,386.3Z"/><path class="cls-2" d="M975.35,370.18v0C975.42,370.24,975.39,370.22,975.35,370.18Z"/><path class="cls-2" d="M949.94,347.44l.24.12S950,347.48,949.94,347.44Z"/><path class="cls-1" d="M1046.71,282.22s21.19,25.42,0,86.24-9.78,60.1-9,68-3.74,20-3.74,20-23.64-46.25-38.09-69.28S956.08,240.34,1046.71,282.22Z"/><polygon class="cls-2" points="1046.99 281.62 1046.82 281.5 1046.3 281.38 1046.99 281.62"/><path class="cls-2" d="M1043.74,280.43c.09.06,0,.07.12.13l2,.55C1045.06,280.59,1044.24,280.77,1043.74,280.43Z"/><path class="cls-2" d="M1043.21,280.16a2.63,2.63,0,0,0-1.24-.39C1042.27,279.76,1043.31,280.36,1043.21,280.16Z"/><path class="cls-2" d="M984.78,295.24l.08-.23A1,1,0,0,0,984.78,295.24Z"/><path class="cls-2" d="M981.7,312.94l.09.2a66.55,66.55,0,0,1,1.44-10.56v.24a55.91,55.91,0,0,1,4.12-12.4,35.15,35.15,0,0,1,3.31-5.56,29.58,29.58,0,0,1,4.47-4.84c-.1.09-.11.14-.22.25a10.73,10.73,0,0,1,1-.94c.11-.06-.08.12-.19.23.77-.54,1.91-1.33,3-2l1.58-.9a8.18,8.18,0,0,1,1.19-.49c.47-.23.66-.39.37-.33a31.54,31.54,0,0,1,10.49-2.38,49.81,49.81,0,0,1,10.87.59c.34.08.39.14.29.18,6.09.77,12.19,2.91,17.94,5.31.26,0-.56-.32,0-.16a27.62,27.62,0,0,0-2.64-1,23.75,23.75,0,0,1-2.52-.91h.24c-1.23-.49-.31.09-1.58-.47-.49-.24.16-.05-.08-.13-1.35-.41-2.72-.87-4.09-1.25a40.19,40.19,0,0,0-4-.91c-.61-.29-3-.66-4-.94a12.42,12.42,0,0,0-1.75-.12,46.16,46.16,0,0,0-7.45-.44,33.37,33.37,0,0,0-7.49,1A27.71,27.71,0,0,0,993,281.53a47.5,47.5,0,0,0-4.6,6.18,37,37,0,0,0-3.58,7.54s0,0,0,0c-.51,1.76-1.28,4.31-1.77,6.45-.11.6-.19,1.22-.26,1.83a87.19,87.19,0,0,0-1.82,19.73,164.12,164.12,0,0,0,1.53,19.92,177.47,177.47,0,0,0,4.19,21.29,95.39,95.39,0,0,0,7.42,20.08s0,.11-.18-.22c1,1.91,2.08,3.63,3.1,5.34l3.08,5.09h0c5.28,8.39,10.22,17.91,15,26.18,5.53,10.23,11.71,21.85,17.43,32.76h-.07c.51,1,1,1.95,1.52,2.89.2-.49.39-1.09.58-1.64l.5-1.56c.32-1,.64-2.08.92-3.13.58-2.09,1.08-4.2,1.46-6.34a32.11,32.11,0,0,0,.53-6.5,8.39,8.39,0,0,0-.16-1.65c-.06-.27-.1-.55-.16-.82l-.27-.78c-.36-1.05-.86-2-1.3-3a22.74,22.74,0,0,1-1.77-7.36,33.21,33.21,0,0,1-.15-3.87c-.05-1.29.12-2.59.18-3.89a90.25,90.25,0,0,1,2.66-15.28c1.69-6.07,3.48-14.18,5.55-19.75,2.06-5.74,4.16-11.35,5.87-17.11a165.15,165.15,0,0,0,4.45-17.52c.56-2.75,1.09-5.51,1.6-8.26s.66-5.55,1-8.31.3-5.54.48-8.28v-4.12c0-1.37.08-2.73,0-4.09-.34-2.56-.39-5.27-.81-8a52.21,52.21,0,0,0-1.57-8.37l0,.22a18.37,18.37,0,0,0-1-3.09,12,12,0,0,1-.84-2.51l.09.2a5.48,5.48,0,0,0-.73-1.6,4.06,4.06,0,0,1-.67-1.28l-.15-.12c-.57-1.19,0-.19-.36-1.13-.18-.34-.18-.07-.52-.79.12-.16-.28-.87-.67-1.56s-.84-1.34-.69-1.5c.39.63-.47-1.05.47.3-.18-.44-1.5-2.28-1.54-2-.26,0-.92-.6-.19.53l.26.13c.15.45.14.32.16.51a14.59,14.59,0,0,1,1.4,2.9s0,0,0,0a7.8,7.8,0,0,1,.75,1.21c.2.44.36.87.49,1.19l0,.27c0,.43,1.09,1.68.63,1.31a51.34,51.34,0,0,1,1.92,5.27c.27.94.6,1.88.83,2.85l.66,2.91a13.1,13.1,0,0,1,.4,1.56c.1.58.18,1,.21.53a38.09,38.09,0,0,0,.5,5s-.06-.08-.07-.25c-.09,2.14.47,2.49.29,4.5a7.56,7.56,0,0,1,.25,2.06,13.5,13.5,0,0,0,.15,2.67c0,.25-.1.33-.14.24,0,.9,0,1.82,0,2.74v1.39l-.09,1.37c-.13,1.82-.25,3.56-.35,5.07a26.73,26.73,0,0,1-.39,4.38,30.72,30.72,0,0,0-.38,4.11c-.08.46-.15,1-.27,1.56s-.25,1.18-.39,1.82c-.27,1.27-.53,2.64-.72,3.92l0-.25c-.29,1.43-.51,3.06-.88,4.54s-.65,2.87-.81,3.86a17.43,17.43,0,0,0-1.14,3.2c-.27,1.95-1.59,5.66-2.35,8.54-.27.39-.69,2.35-.92,2.44-1.08,4-2.58,8.47-4.09,13s-3,9.08-4.29,13.37l0-.13c-.21,1.15-.34,2.49-.53,3.66-.05.11-.07.09,0-.15-.39,1.58-.9,3-1.26,4.62,0,0,0,0,0-.28-.26,1.51-.94,3-1.11,4.84l-.07.09-.16,1.15s-.14-.11,0-.7a86.43,86.43,0,0,0-1.62,10.49l-.2,2.68v2.7a24.64,24.64,0,0,0,.17,2.71,19,19,0,0,0,.41,2.69,24,24,0,0,0,.7,2.65c.33.85.65,1.71,1,2.52a13.35,13.35,0,0,1,1.57,5,26.23,26.23,0,0,1-.2,5.31,52.46,52.46,0,0,1-1,5.27l0-.52c-.15.91-.35,1.81-.54,2.72,0,0,0-.16,0-.29-.34,1.15-.67,2.3-1,3.46l-.53,1.73-.15.51c0,.15-.1.33-.16.46l-.47-.88c-.26-.51-.53-1-.78-1.52,0,0,.33.44.13,0-1.32-2.2-1.69-3.76-2.6-4.73,0-.12,0-.22.14,0-3.39-6.26-6.79-12.73-10.13-19.09-3.1-5.11-6-11.12-9.26-16.43h.08c-4.09-6.92-8.07-14.46-12.42-21.57-1.75-3-3.19-4.85-4.69-8l0-.11c-2.77-5.18-4.27-11.51-6.23-17.27l.22.37c-.43-.86-.9-3.57-1.09-3.15l-.18-1.06c-1.38-3.94-1.57-7.38-2.74-12.33l.13.32a36.47,36.47,0,0,1-.69-3.87c0,.16,0,.08.11.4-.41-4.22-1.3-8.85-1.65-13.3l.17.49c-.34-2.13-.46-6.09-.57-8.92l.06.17-.11-1.43.12,0C981.42,320,981.42,316.53,981.7,312.94Z"/><path class="cls-2" d="M995.75,279.56l0,0C995.63,279.65,995.67,279.62,995.75,279.56Z"/><path class="cls-2" d="M1048.73,286.52l-.19-.4A3.2,3.2,0,0,0,1048.73,286.52Z"/><ellipse class="cls-3" cx="1013.31" cy="316.58" rx="50.1" ry="26.77" transform="translate(462.64 1224.21) rotate(-76.1)"/><polygon class="cls-2" points="1040.03 322.82 1040.09 322.71 1040.06 322.39 1040.03 322.82"/><path class="cls-2" d="M1040.25,320.82c0,.05,0,0-.08.07l0,1.21C1040.47,321.63,1040.07,321.13,1040.25,320.82Z"/><path class="cls-2" d="M1040.36,320.49a1,1,0,0,0,0-.76C1040.48,319.91,1040.2,320.55,1040.36,320.49Z"/><path class="cls-2" d="M1038.71,280.91l.06.13A.54.54,0,0,0,1038.71,280.91Z"/><path class="cls-2" d="M1032.75,272.38h-.16a19.31,19.31,0,0,1,3.76,4.85l-.1-.11a44.93,44.93,0,0,1,5,14.26c0-.08-.06-.1-.09-.18a4.44,4.44,0,0,1,.23.78c0,.08-.07-.07-.09-.16,0,1.11.53,3.18.44,3.87,0,.31.13.44.17.26a87.29,87.29,0,0,1,.21,12.54c0,.2-.09.23-.15.17a50.94,50.94,0,0,1-1.43,10.77c0,.15.16-.35.16,0,.34-1.13.24-2.13.55-3.15l0,.15c.17-.75-.16-.19.07-1,.11-.3.08.09.11-.05a35.93,35.93,0,0,0,.5-4.86c.2-.36.16-1.75.37-2.34a3.31,3.31,0,0,0-.09-1,66.45,66.45,0,0,0-1-17.37c-.81-2.63-1.27-5.92-2.62-8.93,0,0,0,0,0,0-.49-1-1.16-2.35-1.76-3.47l-.64-.87a18.65,18.65,0,0,0-8.21-8,14.82,14.82,0,0,0-5.71-1.37,17.85,17.85,0,0,0-5.82.8,28.72,28.72,0,0,0-10.81,6.57A43.84,43.84,0,0,0,998,284.3s-.07,0,0-.17c-1.3,2.1-2.53,4-3.56,6.08l0,0c-2.47,5.21-5,10.94-6.26,16.37a86.37,86.37,0,0,0-3.47,21.19l-.06,0c-.11,5.71-.12,11.29,1.16,16.89a34.12,34.12,0,0,0,7.77,16,12.82,12.82,0,0,0,4.84,3.54,20.73,20.73,0,0,0,5.64,1.44,16.72,16.72,0,0,0,10.12-2.41,32.69,32.69,0,0,0,8-6.78c4.62-4.62,7.75-10.4,10.8-15.89,1.1-2.77,2.84-5.62,3.89-8.79l-.11.09c.62-1.05.55-2.62,1.09-3.23l0,.13c.36-.55,0-1.52.35-1.83l-.06-.13c.19-.74.12-.06.32-.61,0-.22-.13-.13,0-.56.39,0,.41-1.83.81-1.78-.11.41.31-.6.16.34.1-.25.41-1.5.21-1.43-.15-.15-.18-.67-.5,0l.09.18c-.2.22-.12.18-.24.25a11.31,11.31,0,0,1-.74,1.74h0a4.58,4.58,0,0,1-.39,1.53l-.11.13c-.21.18,0,1.19-.2.82-.55,2-1.28,4.23-2.12,6.38,0,.34-.65,1.63-.29,1.24a14.22,14.22,0,0,0-1.38,2.59.16.16,0,0,1,0-.15c-.76,1-.35,1.44-1.17,2.33.16.28-1,1.85-1,2.56-.11.1-.18.12-.19.05-1,1.83-2.19,3.78-3.16,5.24-.61,1.39-2.11,2.94-2.64,4.15-.7.81-1.87,2.07-2.78,3.26l.08-.13c-1.11,1.25-2.58,2.74-3.33,3.63a7.26,7.26,0,0,0-1.68,1,27.62,27.62,0,0,1-4.06,3c-.28,0-1.22.69-1.38.56a15.15,15.15,0,0,1-7.32,2.08,13.15,13.15,0,0,1-7.42-2.18l.07,0c-.3-.12-.64-.23-1-.34s-.68-.28-1-.42c0-.05,0-.07.09,0a5.86,5.86,0,0,1-1-.91c-.32-.32-.61-.66-.94-1,0,0,0,0,.15.07-.68-.55-1.1-1.41-1.83-2.13v-.08l-.45-.48c.06,0,.15-.06.34.23a35.93,35.93,0,0,1-5.09-10.94,52.41,52.41,0,0,1-2-12.22l.08.3c-.07-.54-.13-1.07-.18-1.6,0,0,0,.08.07.16,0-2.05-.11-4.17,0-6.17,0,0,.08.31.12,0-.08-1.49.36-2.35.08-3.12,0-.07.1-.1.12.05a68,68,0,0,1,1.85-12.33c.44-3.44,1.77-7.09,2.72-10.55l.06,0a67.25,67.25,0,0,1,5.87-13.13c1-1.73,1.65-2.92,2.76-4.6h.1c1.65-3,4.41-5.57,6.68-8.25l-.09.25c.25-.53,1.58-1.43,1.24-1.5l.52-.35a11.18,11.18,0,0,1,2.65-2.22l1.54-.95c.56-.31,1.12-.69,1.75-1.07l-.14.14a9.08,9.08,0,0,1,2-1c-.08.05,0,.05-.2.14,1.17-.39,2.39-.76,3.65-1.11a15.36,15.36,0,0,1,3.87-.47l-.29.13a4.43,4.43,0,0,1,1.1,0,8,8,0,0,1,1.32.16,9,9,0,0,1,1.36.33,9.85,9.85,0,0,1,1.26.39l-.11,0,.8.22,0,.12A17,17,0,0,1,1032.75,272.38Z"/><path class="cls-2" d="M1041.28,291.82v0C1041.26,291.74,1041.26,291.77,1041.28,291.82Z"/><path class="cls-2" d="M1038.16,325.2c0-.1.06-.17.09-.25S1038.18,325.12,1038.16,325.2Z"/><path class="cls-3" d="M1000.64,585.27s-4.45,27.48-4.24,34-1.79,59.34-15,95.35-8.27-111.27-5.19-121S1000.64,585.27,1000.64,585.27Z"/><polygon class="cls-2" points="1000.68 584.62 1000.53 584.57 1000.16 584.66 1000.68 584.62"/><path class="cls-2" d="M998.28,584.78c.07,0,0,.05.1.07l1.41-.27C999.16,584.4,998.69,584.89,998.28,584.78Z"/><path class="cls-2" d="M997.87,584.75a1.49,1.49,0,0,0-.9.13C997.16,584.76,998,584.9,997.87,584.75Z"/><path class="cls-2" d="M973.72,616.26v-.17A.45.45,0,0,0,973.72,616.26Z"/><path class="cls-2" d="M973.61,628.63l.11.13c-.11-2.31.2-4.9.23-7.34l0,.17c.35-6.18.48-11.89.88-18a1.85,1.85,0,0,0,0,.23,5.08,5.08,0,0,1,0-1c0-.08,0,.1,0,.2.29-1.27.23-3.8.46-4.59,0-.37,0-.54-.11-.34.12-1.2.26-2.42.48-3.64a7.7,7.7,0,0,1,1.57-3.48,14.37,14.37,0,0,1,6.28-4.16c.24-.06.3,0,.25.06,3.95-1.63,8.46-2,12.74-2.07.17-.08-.44-.07,0-.16-1.39-.06-2.53.29-3.79.26l.15-.09c-.91,0-.16.2-1.12.2-.38,0,.08-.11-.09-.09a26.6,26.6,0,0,0-5.72,1.13,22.74,22.74,0,0,0-2.77.67,5.31,5.31,0,0,0-1.08.59,13.8,13.8,0,0,0-4.41,2.85,8.83,8.83,0,0,0-1.56,2.21,9.26,9.26,0,0,0-.49,1.27,13.28,13.28,0,0,0-.27,1.31c-.52,3.44-.74,6.89-1,10.34.07,3.26-.54,7.11-.65,11,0,0,0,0,0,0,0,1.26-.05,3.08-.16,4.58l.08,1.27c-.69,9-.81,18.18-1.11,27.32-.29,10.39-.6,19.5-.08,29.62,0,0-.05.07-.06-.19.09,2.92,0,5.58.16,8.33h0c.44,6.82.45,14.22,1.4,20.75.2,2,.45,4.05.83,6.12a31.25,31.25,0,0,0,.72,3.12,6.57,6.57,0,0,0,1.49,2.89,1.16,1.16,0,0,0,.82.27,1.43,1.43,0,0,0,.78-.35,5.13,5.13,0,0,0,1.05-1.28,19,19,0,0,0,1.4-3c.78-2,1.39-4.09,2.07-6.1l0,0c.54-1.61,1-3.22,1.48-4.83l1.44-4.8c.83-3.22,1.79-6.42,2.41-9.75,1.7-6.77,2.43-14.11,3.7-21a67.26,67.26,0,0,0,1-7.1,69,69,0,0,1,.83-6.91,163.36,163.36,0,0,0,2-24.8c.29-3.85.38-7.72.3-11.54a70.61,70.61,0,0,1,1.1-11.33c.22-3.55,1.25-7.36,1.76-11.27l-.1.13c.44-1.37.14-3.18.62-4v.15c.29-.71-.15-1.78.13-2.2l-.07-.13c.12-.91.12-.1.26-.78,0-.27-.14-.13,0-.66.37-.07.27-2.21.67-2.21-.08.49.28-.75.18.37.09-.31.31-1.81.13-1.71-.16-.15-.22-.76-.5.13l.09.2c-.17.29-.1.23-.21.32a17.76,17.76,0,0,1-.63,2.17h0a6.32,6.32,0,0,1-.25,1.87l-.1.17c-.19.26.09,1.41-.11,1-.31,2.44-.73,5.22-1.11,7.94,0,.4-.3,2.08,0,1.52a17.17,17.17,0,0,0-.74,3.42.29.29,0,0,1,0-.18c-.47,1.42,0,1.76-.49,3.09.22.24-.38,2.48-.18,3.29-.08.16-.13.21-.17.15-.28,2.47-.65,5.2-.75,7.33a14.44,14.44,0,0,1,.07,1.51v1.56a15,15,0,0,0,.08,2.83c-.12,1.28-.29,3.34-.28,5.12l0-.17c-.08,2-.21,4.51-.12,5.9a8,8,0,0,0-.46,2.31c0,1.35-.22,4.05-.26,6.1-.16.3-.1,1.69-.3,1.78a130.29,130.29,0,0,1-2.12,18.85v-.09c0,.8.09,1.74.1,2.56,0,.07,0,.06,0-.11-.12,1.12-.45,2.13-.58,3.24,0,0,0,0,0-.2-.06,1.06-.47,2.12-.53,3.37l-.06.06-.06.79c-.06,0-.15-.08-.06-.49-1.58,9.48-3.21,19.29-5.87,28.8l0-.37L984.8,703s0-.11,0-.2c-.8,2.3-1.27,4.8-2.1,7,0,0,0-.38-.11-.08-.4,1.72-1.12,2.6-1.06,3.55,0,.07-.14.1-.11-.08a32.14,32.14,0,0,1-1.23,3.45,8.92,8.92,0,0,1-1.87,3,.78.78,0,0,1-1.22,0,5,5,0,0,1-.84-1.5,20.23,20.23,0,0,1-.92-3.54c-1.1-4-1.21-8.59-1.76-12.81h.07c-.6-5.5-.57-11.37-.73-17.1-.06-2.38-.09-4-.15-6.37l.08-.06c-.35-4,.23-8.46-.09-12.66l.11.29c-.17-.65.08-2.54-.21-2.29l.09-.74c-.36-2.86.23-5.19,0-8.69l.06.23a21.64,21.64,0,0,1,0-2.7,1.57,1.57,0,0,1,0,.28c.33-2.91.1-6.15.2-9.22l.11.35c-.11-1.49.11-4.21.11-6.16l0,.12,0-1,.12,0C973.51,633.5,973.56,631.11,973.61,628.63Z"/><path class="cls-2" d="M974.92,603v0Z"/><path class="cls-2" d="M999.57,588.43c0-.11,0-.21.08-.3A1.51,1.51,0,0,0,999.57,588.43Z"/><path class="cls-3" d="M988.37,597.11s.35,14.23-5.7,23.77,2.5,80,5.72,100.61,21-82.23,18-121.93S988.37,597.11,988.37,597.11Z"/><polygon class="cls-2" points="988.98 597.35 989.07 597.24 989.11 596.87 988.98 597.35"/><path class="cls-2" d="M989.71,595.09c-.05.06-.06,0-.11.07l-.29,1.39C989.71,596.05,989.44,595.42,989.71,595.09Z"/><path class="cls-2" d="M989.91,594.73a1.45,1.45,0,0,0,.27-.86C990.19,594.09,989.72,594.78,989.91,594.73Z"/><path class="cls-2" d="M1006.33,609.49v-.17A.67.67,0,0,0,1006.33,609.49Z"/><path class="cls-2" d="M1006.49,622l.1.13c-.08-2.33.22-5,.18-7.43l0,.17a124.11,124.11,0,0,0-.78-18.21c0,.1.06.12.08.22a6.36,6.36,0,0,1-.2-1c0-.09.07.09.09.19,0-1.32-.6-3.8-.6-4.62-.09-.36-.19-.51-.21-.3a27,27,0,0,0-2.12-7.06,4.47,4.47,0,0,0-2.43-2.44,3.49,3.49,0,0,0-3.08,1.09c-.19.12-.26.11-.25,0a29.29,29.29,0,0,0-3.78,5.08c-1.13,1.84-2.18,3.75-3.13,5.68,0,.18.26-.36.15.05.68-1.2,1-2.35,1.68-3.39v.18c.48-.77-.08-.25.46-1,.24-.29,0,.13.13,0,.94-1.69,2.07-3.34,3.08-4.83.39-.24,1.38-1.52,2-1.77.33-.34.74-.53.85-.71a2.42,2.42,0,0,1,2.08-.1,3.93,3.93,0,0,1,1.61,1.58,17.62,17.62,0,0,1,1.83,4.68,64.66,64.66,0,0,1,1.59,10.26c.6,3.23.38,7.16.48,11,0,0,0,0,0,0,.08,1.27.11,3.11,0,4.62l.1,1.28c-.5,9.08-1,18.37-2,27.55-1.09,10.45-2.43,19.54-3.46,29.72,0,0-.06.06,0-.2-.36,2.93-.86,5.57-1.23,8.33l0,0c-.8,6.86-2.35,14.16-3.37,20.73-.8,4-1.69,8.18-2.75,12.42-.54,2.12-1.11,4.24-1.81,6.31a18.17,18.17,0,0,1-1.28,3,3,3,0,0,1-.47.65.59.59,0,0,1-.67.22,2.31,2.31,0,0,1-.74-1.35h.07c-.71-3.34-1.06-6.71-1.49-10s-.78-6.69-1.25-10.08c-.73-7-2.06-14.32-2.59-21.4-.15-4.4-1.33-10.08-1.36-14.22-.21-8.48-1.09-16.64-1.56-25.11,0-3.91-.05-7.82.15-11.69a38.47,38.47,0,0,1,.66-5.77,13.57,13.57,0,0,1,.83-2.77,23.79,23.79,0,0,1,1.46-2.46,45.64,45.64,0,0,0,3.87-10.84l-.11.13c.52-1.37.23-3.2.67-4v.15c.28-.73-.22-1.79,0-2.23l-.08-.13c0-.91.11-.1.2-.8,0-.27-.15-.11-.06-.66.37-.1,0-2.25.42-2.3,0,.51.18-.79.23.35.06-.32,0-1.88-.13-1.74-.18-.13-.35-.72-.47.21l.13.19c-.13.31-.07.24-.16.35a12.49,12.49,0,0,1-.36,2.23s0,0,0,0a6,6,0,0,1-.09,1.88l-.08.18c-.18.27.16,1.41-.07,1a46.69,46.69,0,0,1-1.31,7.92c0,.4-.58,2-.23,1.5a32.14,32.14,0,0,0-1.38,3.22.22.22,0,0,1,0-.18c-.79,1.25-.43,1.71-1.33,2.79.07.16-.24.7-.61,1.28-.17.3-.36.61-.51.9a3.41,3.41,0,0,0-.29.85c-.13.14-.2.18-.21.1a16.41,16.41,0,0,0-.63,1.91c-.13.65-.32,1.3-.42,1.94-.23,1.28-.37,2.51-.47,3.58a30.75,30.75,0,0,1-.13,3.09,15.09,15.09,0,0,0,.05,2.9,38.05,38.05,0,0,0-.07,5.21l0-.18a47.83,47.83,0,0,0,.37,6,8,8,0,0,0-.23,2.37c.19,1.36.29,4.11.54,6.17-.12.33.16,1.71,0,1.83.73,5.78,1.19,12.95,1.51,19.16l0-.08c.19.79.5,1.69.72,2.49,0,.09,0,.08-.06-.09.14,1.12.07,2.2.22,3.32,0,0,0,0-.08-.19.19,1,.06,2.21.34,3.44l0,.07.16.79c-.07,0-.17,0-.19-.46,1,9.69,2.49,19.63,3.81,29.54l-.11-.35.37,1.9s-.06-.09-.08-.18c.11,1.23.31,2.47.52,3.7s.38,2.46.71,3.67c0,0-.2-.35-.13,0a3.44,3.44,0,0,0,.73,1.28,1,1,0,0,0,1.36-.11,2.38,2.38,0,0,0,.81-1.48c0-.07.15-.09.09.09a51.25,51.25,0,0,0,2.34-7.2c.65-2.44,1.24-4.89,1.81-7.32.59-4.13,1.77-8.64,2.29-12.93l.06,0c.79-5.54,2-11.35,2.81-17.09.39-2.37.55-4,.88-6.39l.09,0c.27-4.07,1.43-8.44,1.61-12.7l.08.3c-.09-.67.37-2.54,0-2.33l.17-.73c0-2.91.78-5.2.9-8.74l0,.24a22.19,22.19,0,0,1,.24-2.72,1.35,1.35,0,0,1,0,.28,88.89,88.89,0,0,0,.83-9.28l.1.36c0-1.51.33-4.25.4-6.22l0,.12v-1l.12,0C1006.35,626.91,1006.39,624.49,1006.49,622Z"/><path class="cls-2" d="M1006,596.11v0C1006,596.22,1006,596.18,1006,596.11Z"/><path class="cls-2" d="M987.72,600.39c0-.11,0-.21,0-.31S987.74,600.29,987.72,600.39Z"/><ellipse class="cls-17" cx="1002.83" cy="449.11" rx="58.95" ry="11.38" transform="translate(407.36 1372.57) rotate(-81.31)"/><polygon class="cls-18" points="992.19 447.79 992.24 447.68 992.19 447.37 992.19 447.79"/><path class="cls-18" d="M992.27,445.79c0,.06,0,0-.08.08l.11,1.2C992.54,446.58,992.11,446.12,992.27,445.79Z"/><path class="cls-18" d="M992.35,445.46a1.11,1.11,0,0,0,0-.75C992.43,444.88,992.19,445.53,992.35,445.46Z"/><path class="cls-18" d="M1001.56,406.77l0,.14A.38.38,0,0,0,1001.56,406.77Z"/><path class="cls-18" d="M1005.22,397.05l0-.15c-.76,1.8-1.84,3.72-2.54,5.66l0-.15a108.6,108.6,0,0,0-4.59,14.48c0-.08,0-.11,0-.2a3.78,3.78,0,0,1-.12.8c0,.07,0-.08,0-.17-.47,1-.73,3.12-1,3.75-.06.3,0,.45.08.3-1,3.93-1.88,8.16-2.55,12.22-.06.19-.12.22-.17.15-.4,3.51-1.18,7.11-1.8,10.66,0,.15.14-.35.16,0,.29-1.13.16-2.13.48-3.14l0,.15c.18-.75-.16-.19.07-.95.12-.3.08.09.11-.05.25-1.6.63-3.25.74-4.79.23-.34.35-1.71.61-2.27a3.87,3.87,0,0,0,.06-1c1.23-5.54,2.42-11.22,4-16.82.45-2.7,1.76-5.71,2.75-8.78,0,0,0,0,0,0a30.59,30.59,0,0,1,1.29-3.61l.28-1c.79-1.72,1.62-3.43,2.54-5.08a20.12,20.12,0,0,1,3.27-4.59,3.94,3.94,0,0,1,2.27-1.28,2.49,2.49,0,0,1,2.14,1.15,13.71,13.71,0,0,1,2,5.21,70.13,70.13,0,0,1,1.21,12.39c.12,4.05.1,8.09.12,12.35,0,0-.05.05-.05-.17,0,2.46-.29,4.69-.4,7h0c-.17,5.74-1.15,11.89-1.63,17.4-1,6.68-2.2,14.2-3.62,21.19l-.06,0c-1.07,5.62-2.7,10.9-4.21,16.38-1.81,5.55-3.31,11.63-6.21,16.82a38.81,38.81,0,0,1-3.35,5,4.72,4.72,0,0,1-2.58,1.65,2.6,2.6,0,0,1-2.43-1.23A8.87,8.87,0,0,1,991,503.9a22.17,22.17,0,0,1-.71-2.5c-.39-1.69-.67-3.39-.92-5.11-.48-3.43-.79-6.89-1-10.42.08-6.51,0-13,.86-19.29,0-3,.86-6.24,1.2-9.54l-.09.11c.37-1.16,0-2.68.44-3.37v.12c.25-.6-.21-1.5,0-1.86l-.07-.11c.08-.76.11-.08.23-.66,0-.22-.15-.1,0-.55.37-.05.2-1.87.6-1.86-.06.41.25-.63.19.31.08-.26.25-1.53.07-1.44-.16-.13-.25-.65-.5.1l.11.17c-.17.24-.1.19-.21.27a11.58,11.58,0,0,1-.55,1.82h0a4.87,4.87,0,0,1-.18,1.58l-.09.15c-.19.21.14,1.18-.08.84-.24,2.06-.51,4.42-.77,6.72.07.34-.2,1.76.05,1.28a11.55,11.55,0,0,0-.56,2.9s0-.05,0-.15c-.4,1.21.11,1.49-.33,2.61.23.21-.26,2.11,0,2.79-.06.13-.11.18-.15.12-.17,2.09-.39,4.4-.49,6.17.14,1.52-.25,3.67,0,5a27.12,27.12,0,0,0-.11,4.34l0-.15a32.64,32.64,0,0,0,.32,5,5.72,5.72,0,0,0-.22,2c.2,1.13.32,3.43.67,5.15-.11.28.26,1.41.08,1.53.28,1.2.57,2.46,1,3.75a17.2,17.2,0,0,0,1.51,3.88,5.7,5.7,0,0,0,1.41,1.71,2.9,2.9,0,0,0,2.3.52,4.69,4.69,0,0,0,2-1,11.52,11.52,0,0,0,1.51-1.44l0,.07a14.66,14.66,0,0,0,.89-2c.05-.05.07,0,0,.09.48-.82,1.08-1.5,1.5-2.35,0,0,0,0,0,.17a25.2,25.2,0,0,0,1.29-2.6l.07,0,.21-.64s.13.1,0,.42c3.38-7.46,5.39-15.65,7.42-23.72V475l.27-1.6s0,.09,0,.17c.58-2,.87-4.1,1.32-6.06,0,0,0,.33.11.06.13-1.49.71-2.29.5-3.09,0-.06.12-.1.12.06.71-4.07,1.44-8.25,2.15-12.35.22-3.47,1-7.27,1.23-10.87l.06,0c.33-4.65,1-9.54,1.32-14.36.16-2,.16-3.36.24-5.37l.08,0c-.16-3.39.48-7.12.06-10.66l.11.24c-.18-.55,0-2.14-.28-1.92l.06-.63c-.49-2.38-.06-4.39-.68-7.28l.09.18a22.5,22.5,0,0,1-.38-2.25,1.33,1.33,0,0,1,.09.23,15,15,0,0,0-.76-3.77,13,13,0,0,0-1.73-3.55,2.61,2.61,0,0,1,.28.17,4.55,4.55,0,0,0-2-1.53,3,3,0,0,0-2.64.65l.05-.11a4.78,4.78,0,0,0-.6.59l-.1-.07a11.36,11.36,0,0,0-2,2.46C1006.2,395.22,1005.72,396.13,1005.22,397.05Z"/><path class="cls-18" d="M997.93,417.32v0C997.94,417.23,997.94,417.26,997.93,417.32Z"/><path class="cls-18" d="M990.58,450.35c0-.1,0-.18.07-.26S990.6,450.27,990.58,450.35Z"/><path class="cls-19" d="M1018.72,535.47c.55-20.56,1.38-41.11,1.89-61.66.44-18,.28-36.29-2.34-54.18-1.59-10.8-4.26-31.31-16.41-36.29-1.79-.73-4.13-1.2-6-.44-20.39-5.29-27,145.12-29.29,165.75,0,0-2.89,58.3-4.9,64s14.07-8.31,29.55-7,12.26,3.24,22.09,7,9.09,6.4,7.46-13c-1.34-15.91-2.71-31.81-2.43-47.79Q1018.49,543.69,1018.72,535.47Z"/><polygon class="cls-2" points="1018.06 535.45 1018.02 535.71 1018.11 536.38 1018.06 535.45"/><path class="cls-2" d="M1018.19,539.84c0-.13,0-.07.07-.2l-.23-2.58C1017.84,538.21,1018.32,539.08,1018.19,539.84Z"/><path class="cls-2" d="M1018.14,540.6a4.79,4.79,0,0,0,.08,1.64C1018.12,541.89,1018.29,540.38,1018.14,540.6Z"/><path class="cls-2" d="M1009.1,610.41l.28.12A1.24,1.24,0,0,0,1009.1,610.41Z"/><path class="cls-2" d="M986.94,605.78l-.23.13a20.77,20.77,0,0,1,3.28-.17c1.12,0,2.25.17,3.4.28,2.29.26,4.61.57,6.82,1l-.31,0a21.08,21.08,0,0,1,4,1.26c1.29.56,2.48,1.29,3.71,2s2.48,1.26,3.76,1.8l3.85,1.51c1.28.5,2.53,1.08,3.84,1.53a5.74,5.74,0,0,0,1,.25,1.35,1.35,0,0,0,1-.2,2.72,2.72,0,0,0,.6-1.93,82.92,82.92,0,0,0-.58-8.4c0,.18.06.24.09.42-.08-.55-.21-1.15-.25-1.76,0-.16.06.17.09.36,0-2.41-.72-7-.7-8.54-.08-.67-.18-1-.21-.59-.79-8.88-1.56-18.39-2-27.48,0-.43,0-.51.12-.4-.29-3.87-.41-7.86-.39-11.86s.2-8,.3-12c-.07-.3-.1.81-.16,0-.16,2.55.08,4.68-.11,7l-.07-.3c-.09,1.69.18.35,0,2.1-.07.69-.09-.18-.1.14,0,3.59-.07,7.34.19,10.71-.15.84.1,3.86,0,5.19a19,19,0,0,0,.24,2.2c.51,12.55,1.83,25.3,2.92,38.09a33.46,33.46,0,0,1,.37,4.67,7.72,7.72,0,0,1-.1,1.18,1.45,1.45,0,0,1-.42.94,1.24,1.24,0,0,1-1,.09,6.92,6.92,0,0,1-1.17-.38c-1.57-.64-3.17-1.41-4.83-2.06s-3.28-1.31-4.87-2.1c0,0,0,0,0,0-1-.49-2.27-1.19-3.6-1.89a19.86,19.86,0,0,0-4.16-1.64c-.79-.15-1.56-.29-2.35-.38-2-.41-4.14-.69-6.23-.91a28,28,0,0,0-6.35-.15,43.91,43.91,0,0,0-12.32,3.21c-2,.79-3.91,1.67-5.83,2.58l-2.88,1.35a16.36,16.36,0,0,1-2.9,1.1c-.27.05-.37.06-.5,0a.32.32,0,0,1-.12-.37c.07-.37.25-1,.36-1.49a12.7,12.7,0,0,0,.3-1.59l.24-1.58c.26-2.12.51-4.23.71-6.34,1.78-19.21,2.78-36.09,3.49-54.83,0,0,.06-.12,0,.36.45-5.4.88-10.32,1.19-15.41l0,0c.64-12.65,1.92-26.28,2.66-38.47,1.26-14.8,2.81-31.53,4.69-47.14l.05,0c1.45-12.5,3.52-24.49,6.07-36.77,1.47-6.27,3-12.76,5.49-18.91a28.9,28.9,0,0,1,2.27-4.43,10,10,0,0,1,3.44-3.52,6.08,6.08,0,0,1,1.17-.43,4,4,0,0,1,1.24,0c.2,0,.41.07.6.07a5.62,5.62,0,0,1,.58-.19,6.52,6.52,0,0,1,1.23-.18,10.06,10.06,0,0,1,4.73,1.13,17.79,17.79,0,0,1,5.07,3.86,27,27,0,0,1,3.93,5.57,44.15,44.15,0,0,1,4.3,12.16,318.83,318.83,0,0,1,5.11,45.82c.07,7.18.08,14.34,0,21.45s-.36,14.16-.74,21.09c0,6.59-.69,13.84-.86,21.16l.09-.26c-.31,2.62.15,5.86-.25,7.49v-.28c-.22,1.39.32,3.25.08,4.09l.08.22c0,1.69-.1.2-.18,1.5,0,.49.16.19.08,1.21-.37.21-.05,4.12-.46,4.23,0-.92-.19,1.44-.22-.63,0,.59-.12,3.41.06,3.16.17.25.29,1.35.48-.36l-.12-.35c.15-.57.08-.44.19-.64.08-2.24.28-2.53.41-4.14,0,0,0,0,0,0a23.21,23.21,0,0,1,.07-3.49l.08-.35c.17-.52-.22-2.56,0-1.87.08-4.56.24-9.78.39-14.87-.07-.72.13-3.9-.09-2.79a61.17,61.17,0,0,0,.46-6.46.7.7,0,0,1,0,.33c.36-2.72-.17-3.24.26-5.79-.23-.41.22-4.64,0-6.1.07-.31.12-.42.16-.3.18-4.6.37-9.69.52-13.59-.12-3.33.27-8.06,0-10.93.08-2.38.22-6.22.05-9.54l0,.32c-.06-3.74-.22-8.42-.52-11a26.24,26.24,0,0,0,.09-4.36c-.27-2.49-.61-7.53-1.14-11.31.08-.6-.41-3.12-.25-3.34-.87-5.28-1.71-11.18-2.93-17.14s-3-12-5.94-17l.1.14a22.07,22.07,0,0,0-3.26-3.5c-.09-.12-.06-.13.16.1a16.32,16.32,0,0,0-4.88-3.8s0,0,.36.1a18.66,18.66,0,0,0-2.92-1.13,6.88,6.88,0,0,0-3.45-.15l-.15,0a4.22,4.22,0,0,0-.76.25.22.22,0,0,1-.11,0l-.4,0s0-.06.19-.07h.25l.19-.06c-.2.06-.19.07-.22.06h0l-.12,0-.23,0-.47-.07-.48,0a4.53,4.53,0,0,0-1.81.5,8.63,8.63,0,0,0-2.72,2.32,26.65,26.65,0,0,0-3.39,6,61.16,61.16,0,0,0-2.32,6.45c-.68,2.19-1.26,4.4-1.81,6.62-2.16,8.91-3.68,18-5.08,27.06l0-.68-.42,3.54a1,1,0,0,1,0-.37c-.76,4.47-1.21,9.16-1.78,13.54,0,0,0-.7-.12-.09-.23,3.27-.85,5.19-.69,6.86,0,.15-.12.24-.11-.09-.91,9.05-1.84,18.34-2.76,27.45-.37,7.63-1.37,16.1-1.73,24l-.06,0c-.57,10.24-1.57,21.08-2.29,31.69-.35,4.4-.48,7.38-.91,11.8l-.09.11c-.07,7.47-1.1,15.66-1.24,23.45l-.07-.54c.09,1.22-.35,4.7,0,4.26l-.17,1.36c0,5.31-.79,9.61-1,16.09l0-.43c-.08,1.73-.2,3.73-.37,5,0-.2,0-.11,0-.52-.35,2.68-.6,5.52-.87,8.4l-.21,2.16-.28,2.16a19.34,19.34,0,0,1-.41,2.12,4.61,4.61,0,0,0-.21,1.07.56.56,0,0,0,.26.48.93.93,0,0,0,.55.08.89.89,0,0,1-.73-.06,1.4,1.4,0,0,0,1.23.06,11.72,11.72,0,0,0,1.25-.44c.85-.35,1.76-.78,2.69-1.21l5.48-2.54-.17.15,1.65-.79.09.09A45,45,0,0,1,986.94,605.78Z"/><path class="cls-2" d="M1021.06,603.81v.05C1021.08,604,1021.08,603.93,1021.06,603.81Z"/><path class="cls-2" d="M1019.46,529.39c0,.22,0,.4,0,.58A3.59,3.59,0,0,0,1019.46,529.39Z"/><ellipse class="cls-3" cx="998.52" cy="444.47" rx="58.95" ry="11.38" transform="translate(408.28 1364.37) rotate(-81.31)"/><polygon class="cls-2" points="987.88 443.16 987.93 443.05 987.88 442.74 987.88 443.16"/><path class="cls-2" d="M988,441.16c0,.06-.05,0-.08.08l.11,1.2C988.23,442,987.8,441.49,988,441.16Z"/><path class="cls-2" d="M988,440.83a1.06,1.06,0,0,0,0-.76C988.12,440.25,987.88,440.9,988,440.83Z"/><path class="cls-2" d="M997.25,402.14l0,.14A.38.38,0,0,0,997.25,402.14Z"/><path class="cls-2" d="M1000.91,392.41l0-.14c-.76,1.8-1.84,3.71-2.54,5.66l0-.15a108.64,108.64,0,0,0-4.6,14.48c0-.08,0-.12,0-.2a4.56,4.56,0,0,1-.12.8c0,.07,0-.09,0-.18-.47,1-.73,3.13-1,3.76-.06.3,0,.45.08.3-1,3.93-1.88,8.16-2.55,12.22-.06.19-.12.22-.17.15-.4,3.51-1.18,7.11-1.8,10.66.05.15.14-.35.16,0,.29-1.12.16-2.12.48-3.13l.05.15c.18-.75-.16-.19.07-.95.12-.3.08.09.11-.05.25-1.61.63-3.25.74-4.79.23-.34.34-1.71.61-2.27a3.76,3.76,0,0,0,0-1c1.23-5.54,2.43-11.23,4-16.82.45-2.7,1.76-5.71,2.75-8.78,0,0,0,0,0,0a29,29,0,0,1,1.29-3.62l.28-1c.79-1.72,1.61-3.43,2.54-5.09a20.85,20.85,0,0,1,3.26-4.59,4,4,0,0,1,2.28-1.27,2.49,2.49,0,0,1,2.14,1.15,13.67,13.67,0,0,1,2,5.2,71.19,71.19,0,0,1,1.21,12.4c.12,4,.1,8.09.12,12.35,0,0,0,.05,0-.17-.05,2.46-.29,4.68-.4,7h0c-.16,5.75-1.14,11.89-1.63,17.41-.94,6.68-2.2,14.2-3.61,21.19l-.06,0c-1.07,5.61-2.7,10.9-4.21,16.38-1.81,5.55-3.31,11.63-6.21,16.81a40,40,0,0,1-3.35,5,4.72,4.72,0,0,1-2.58,1.65,2.61,2.61,0,0,1-2.44-1.24,8.94,8.94,0,0,1-1.15-2.34,22.17,22.17,0,0,1-.71-2.5c-.39-1.69-.68-3.4-.92-5.11-.48-3.43-.79-6.9-1-10.42.08-6.51,0-13,.86-19.3,0-3,.86-6.23,1.19-9.53l-.09.11c.37-1.16,0-2.68.45-3.37v.12c.25-.6-.22-1.51,0-1.86l-.07-.11c.08-.76.11-.08.22-.66,0-.22-.14-.1,0-.56.37-.05.2-1.86.6-1.86-.06.42.25-.62.19.32.08-.26.25-1.53.06-1.44-.16-.13-.24-.65-.49.1l.11.17c-.17.24-.1.19-.21.27a10.51,10.51,0,0,1-.56,1.82h0a4.87,4.87,0,0,1-.18,1.58l-.09.14c-.19.22.13,1.19-.08.85-.24,2.06-.51,4.42-.77,6.72.06.33-.2,1.76,0,1.28a11.55,11.55,0,0,0-.56,2.9.19.19,0,0,1,0-.15c-.4,1.21.12,1.48-.32,2.61.23.2-.26,2.1,0,2.78-.06.14-.12.19-.15.13-.18,2.09-.4,4.4-.49,6.17.13,1.52-.25,3.67,0,5a29.54,29.54,0,0,0-.11,4.33l0-.14a32.64,32.64,0,0,0,.32,5,5.72,5.72,0,0,0-.22,2c.2,1.13.32,3.43.67,5.14-.11.29.26,1.42.08,1.54.28,1.2.57,2.46.94,3.75a17.73,17.73,0,0,0,1.52,3.88,5.83,5.83,0,0,0,1.41,1.71,2.9,2.9,0,0,0,2.3.52,4.69,4.69,0,0,0,2-1,12.21,12.21,0,0,0,1.51-1.44l0,.07a14.66,14.66,0,0,0,.89-2c0-.05.07,0,0,.09.47-.82,1.08-1.5,1.5-2.36,0,0,0,0,0,.18a25.2,25.2,0,0,0,1.29-2.6l.07,0,.21-.64c.05,0,.13.1,0,.42,3.38-7.46,5.4-15.65,7.43-23.72v.31l.27-1.59s0,.09,0,.17c.59-2,.88-4.1,1.32-6.06,0,0,0,.33.12.06.13-1.49.71-2.29.5-3.09,0-.07.12-.1.12.06.71-4.07,1.43-8.25,2.15-12.35.22-3.47,1.05-7.27,1.22-10.87l.07,0c.32-4.65,1-9.54,1.32-14.36.16-2,.16-3.36.24-5.37l.08,0c-.17-3.39.47-7.13.06-10.66l.11.24c-.18-.55,0-2.15-.29-1.93l.07-.62c-.5-2.38-.06-4.39-.69-7.29l.1.19a20,20,0,0,1-.38-2.25c0,.09,0,0,.09.23a15,15,0,0,0-.77-3.77,12.69,12.69,0,0,0-1.72-3.55,1.78,1.78,0,0,1,.27.17,4.46,4.46,0,0,0-1.94-1.53,2.92,2.92,0,0,0-2.64.65l0-.11a4.85,4.85,0,0,0-.61.59l-.09-.07a11.36,11.36,0,0,0-2,2.46C1001.89,390.58,1001.41,391.49,1000.91,392.41Z"/><path class="cls-2" d="M993.62,412.68v0C993.63,412.6,993.63,412.63,993.62,412.68Z"/><path class="cls-2" d="M986.27,445.72a1.58,1.58,0,0,0,.06-.26A1.71,1.71,0,0,0,986.27,445.72Z"/><path class="cls-6" d="M988.14,467.89c-2.64,8.89,24.43-67.94,20.57-86.88-18.05-73.13,21.87-62.37,41.15-104.7,0,0-19.28-24.5-43.72-18.93-15.41,3.51-31.75,12.42-40,26.39-7.68,13.06-4.18,29.48-4.29,43.8,0,7.2-1.77,14.21-1.28,21.4.59,8.6,4,16.7,6.31,24.91,3.2,11.36,5.57,27.27,11.79,37.22C978.71,411.1,996.57,439.48,988.14,467.89Z"/><polygon class="cls-2" points="988.77 468.08 988.86 467.85 988.91 467.22 988.77 468.08"/><path class="cls-2" d="M989.51,464.05c0,.11-.06.05-.11.17l-.28,2.39C989.53,465.61,989.24,464.71,989.51,464.05Z"/><path class="cls-2" d="M989.7,463.37a3,3,0,0,0,.17-1.52,3.48,3.48,0,0,1-.11,1C989.67,463.16,989.61,463.46,989.7,463.37Z"/><path class="cls-2" d="M970.33,386l.07.28A1.21,1.21,0,0,0,970.33,386Z"/><path class="cls-2" d="M964.32,365.71l-.17-.18c1.39,3.7,2.57,8,3.64,12l-.11-.26c1.28,5.13,2.39,10.1,3.73,15a91,91,0,0,0,5.08,14.51c-.08-.15-.13-.19-.21-.33.23.45.54.92.8,1.43,0,.14-.12-.12-.21-.28a16.28,16.28,0,0,0,.85,1.78c.37.64.77,1.31,1.18,2a23.77,23.77,0,0,1,1.76,3.18c.3.55.5.76.39.42a93.86,93.86,0,0,1,5,11.61c.75,2,1.34,4.08,2,6.12.28,1,.52,2.07.79,3.1l.39,1.54.3,1.55c.05.41,0,.49-.07.39a57.5,57.5,0,0,1,.56,22c0,.29.18-.73.16,0,.21-1.17.32-2.26.42-3.31s0-2.09.19-3.16l.07.28c.12-1.57-.18-.33,0-1.95.09-.64.08.17.1-.13a23.57,23.57,0,0,0,0-2.52l-.09-2.52a20.22,20.22,0,0,0-.24-2.48c-.1-.81-.22-1.61-.35-2.38.14-.8-.57-3.52-.61-4.76a10.12,10.12,0,0,0-.57-2,84.76,84.76,0,0,0-5.49-16.67,80.71,80.71,0,0,0-4-7.93,48.48,48.48,0,0,1-4-7.84c-2.37-5-3.69-11.55-5.3-17.9,0-.05,0-.05,0,0-.58-2.06-1.32-5.09-1.9-7.59l-.66-2.07c-1.75-7.52-4.77-14.76-6.18-22.41a46.57,46.57,0,0,1-.68-5.77,49.2,49.2,0,0,1,.11-5.82c.28-3.89.87-7.76,1.14-11.69a124.62,124.62,0,0,0-.12-13c-.19-4.23-.39-8.37-.33-12.48a57.77,57.77,0,0,1,1.35-12.22A35.06,35.06,0,0,1,968,281.43s.1-.07-.13.31a48.62,48.62,0,0,1,9.57-10.35v0c1.08-1,2.27-1.83,3.45-2.72s2.43-1.71,3.72-2.45a65.65,65.65,0,0,1,8-4.14A79.54,79.54,0,0,1,1001,259a59.24,59.24,0,0,1,8.36-2.06,36.89,36.89,0,0,1,20.82,3.82,62.31,62.31,0,0,1,17.61,13.16l-.07,0c.5.52,1,1.05,1.46,1.6a8.63,8.63,0,0,1,.66.79l-.46.94c-.65,1.29-1.21,2.61-1.95,3.84s-1.37,2.5-2.17,3.68-1.53,2.4-2.39,3.54a96,96,0,0,1-11.3,12.86c-4.31,4.09-9,8.08-13.19,12.53a57.89,57.89,0,0,0-5.88,7,44.08,44.08,0,0,0-4.51,7.87,38,38,0,0,0-3.2,11.78,118.41,118.41,0,0,0-.53,11.88,102.68,102.68,0,0,0,2.57,21.11c.34,1.73.8,3.44,1.21,5.15l.63,2.58a18.83,18.83,0,0,1,.35,2.61,59.59,59.59,0,0,1-.46,10.66c-1,6.54-2.33,13-3.81,19.39s-3.16,12.67-5.09,18.77c-1.46,5.89-3.87,12.16-5.86,18.61l.14-.21c-.95,2.24-1.34,5.24-2.14,6.56l.06-.24c-.57,1.16-.55,3-1,3.63v.22c-.47,1.48-.15.14-.57,1.27-.14.43.1.21-.26,1.08-.39.08-1.18,3.62-1.6,3.58.29-.79-.6,1.19,0-.62-.11.25-.38,1-.61,1.62l-.09.22,0,.08h0l.17.11c.06,0,.09,0,.13.06s0,.09,0,0a1.53,1.53,0,0,0,.34,0c.09,0,0,0,0,0s0-.26.06-.35,0-.34,0-.3c-.11-.26,0-1.28-.55.2l0,.35a.14.14,0,0,0,0,.06s0,0,0,.1.1,0,.14,0l.08-.09.08-.11.08-.11a.36.36,0,0,1,.12-.14c.76-1.93,1-2.13,1.58-3.51,0,0,0,0,0,0a20,20,0,0,1,1-3.06l.18-.28c.3-.41.46-2.32.51-1.64l4.15-13.08c.1-.66,1.07-3.43.58-2.51a47.37,47.37,0,0,0,2-5.64.61.61,0,0,1,0,.31c1-2.34.59-2.94,1.58-5.11-.13-.42,1.26-4.1,1.33-5.46.13-.27.21-.35.22-.24,1.14-4.09,2.42-8.61,3.29-12.1.54-3,1.82-7.23,2.07-9.88a79.4,79.4,0,0,0,1.69-8.64v.3a59.63,59.63,0,0,0,.93-10.12,14.86,14.86,0,0,0,.31-4.05c-.08-.59-.16-1.33-.32-2.16s-.4-1.68-.62-2.62c-.43-1.83-1-3.8-1.34-5.51,0-.55-.6-2.82-.45-3-.61-2.38-1-4.95-1.45-7.59s-.71-5.39-.82-8.17a61.54,61.54,0,0,1,1.06-16.28l0,.15c.08-.67.12-1.4.18-2.13l.32-2.14c.05-.13.08-.11,0,.17.12-.46.23-.91.38-1.36s.34-.86.5-1.29c.35-.85.66-1.72,1.05-2.58,0,0,0,0-.07.32a23.26,23.26,0,0,1,1.16-2.51c.49-.82,1-1.71,1.43-2.65l.1-.07.65-1.17c0,.07.09.16-.3.75,4.28-6.95,10.62-12.51,16.77-18.24,3.08-2.87,6.13-5.81,9-9a84.07,84.07,0,0,0,7.79-10.05l-.28.56,1.66-2.85s0,.18-.12.32c.6-.87,1.08-1.81,1.61-2.73l.77-1.4.68-1.44.68-1.44.37-.78c0-.16.27-.35,0-.49l-.34-.41c-.69-.8-1.39-1.57-2.09-2.32,0,0,.51.41.14,0-2.21-2.07-3.32-3.59-4.69-4.32-.1-.11-.12-.23.13-.05-6.39-5.43-14-10.09-22.34-12a39.54,39.54,0,0,0-11-.46l-1.41.17-1.39.26c-.94.16-1.85.41-2.76.64s-1.8.49-2.69.77-1.77.56-2.62.9l0-.07a85.46,85.46,0,0,0-13.23,5.94,59.36,59.36,0,0,0-11.9,8.73,42.66,42.66,0,0,0-3.7,4,23.88,23.88,0,0,0-1.59,2.06l-.82,1.12c-.26.39-.52.81-.79,1.24l-.13.05a41,41,0,0,0-4.27,9.81A39.19,39.19,0,0,0,961.19,303l-.1-.5a21.6,21.6,0,0,1,0,2.54c0,.9,0,1.6.16,1.39l-.08,1.26c.44,4.87.2,8.88.67,14.84l-.08-.39a42.12,42.12,0,0,1,.13,4.62c0-.18,0-.1,0-.47-.14,5-.76,10.47-1.17,15.71l-.08-.61c0,1.28-.15,3.07-.15,5a36,36,0,0,0,.41,5.56l-.08-.2c.09.56.23,1.11.34,1.66l-.11.07A89.52,89.52,0,0,0,964.32,365.71Z"/><path class="cls-2" d="M976.87,407.6l0,0C976.78,407.45,976.81,407.5,976.87,407.6Z"/><path class="cls-2" d="M990.18,464.22l-.2.49A3,3,0,0,0,990.18,464.22Z"/></g></svg>