<svg xmlns="http://www.w3.org/2000/svg" viewBox="0 0 1500 750"><defs><style>.cls-1{fill:#f2d661;}.cls-2{fill:#3e3e4d;}.cls-3{fill:#c4d2db;}.cls-4{fill:#1d1d1b;}</style></defs><title>Tekengebied 2</title><g id="limbicare"><path class="cls-1" d="M289.69,85.63c15.7-6.35,23.43-23.89,17.26-39.17a29.55,29.55,0,0,0-20.28-17.54c3.14,21-8.07,44.37-28.53,51.74A30.8,30.8,0,0,0,289.69,85.63Z"/><path class="cls-2" d="M298.84,15.27a47.38,47.38,0,0,0-23.5-6.78,56.19,56.19,0,0,0-6.09.3,23.52,23.52,0,0,0-3,.46,30.07,30.07,0,0,0-3,.61,48.86,48.86,0,0,0-11.22,4.41,45.68,45.68,0,0,0-16.94,16.61,44.6,44.6,0,0,0,0,45.49A45.61,45.61,0,0,0,252.06,93a45.12,45.12,0,0,0,5.46,2.54,45.94,45.94,0,0,0,5.75,1.87c1,.31,2,.39,3,.61a25.43,25.43,0,0,0,3,.46,56.19,56.19,0,0,0,6.09.3A47.47,47.47,0,0,0,298.84,92a44.87,44.87,0,0,1-23.39,8.89,54.65,54.65,0,0,1-6.4.05,24.57,24.57,0,0,1-3.2-.3c-1.06-.17-2.15-.2-3.19-.47l-3.14-.73a30.59,30.59,0,0,1-3.08-1,50.14,50.14,0,0,1-6-2.49,47.75,47.75,0,0,1-18.86-17.47,46.87,46.87,0,0,1-3.05-5.78c-.44-1-.78-2-1.17-3l-.56-1.54c-.17-.52-.29-1.05-.43-1.58l-.83-3.16-.51-3.23-.24-1.62-.09-1.63-.18-3.27.18-3.27.09-1.63.25-1.62.51-3.23.82-3.17c.14-.53.27-1.06.43-1.58l.56-1.53c.39-1,.74-2.06,1.17-3.06a48.2,48.2,0,0,1,21.91-23.23,48.59,48.59,0,0,1,6-2.5,30.59,30.59,0,0,1,3.08-1l3.14-.72a31.06,31.06,0,0,1,3.19-.48,28.62,28.62,0,0,1,3.2-.3,54.65,54.65,0,0,1,6.4,0A44.87,44.87,0,0,1,298.84,15.27Z"/><path class="cls-3" d="M178.19,7.37c.41,7.86.71,15.72,1,23.58s.47,15.71.61,23.57.31,15.72.38,23.58L180.2,84l0,1.48v.73l0,.59a7.55,7.55,0,0,0,.54,2.25,7.78,7.78,0,0,0,7.24,4.9l2.11,0v2.2L188.05,94c9.74-.07,19.49,0,29.23,0a45.89,45.89,0,0,1,7.61.53,26.82,26.82,0,0,1,3.87.94,20.48,20.48,0,0,1,3.67,1.7,50.41,50.41,0,0,1,6.12,4.5,55.34,55.34,0,0,0,5.68,4.23,51.46,51.46,0,0,0,26.94,7.72,56.08,56.08,0,0,0,27.69-7.16,52.82,52.82,0,0,1-56.51,2.5c-4.46-2.55-8-6.2-11.88-8.35a16.47,16.47,0,0,0-6.23-2,43,43,0,0,0-7-.42c-9.74,0-19.49.09-29.23,0h-2.13V96.06l2.12,2.11a12.86,12.86,0,0,1-3.53-.54,12.66,12.66,0,0,1-3.2-1.56A12,12,0,0,1,177,90.56a11.18,11.18,0,0,1-.76-3.47l0-.88v-.74l0-1.48.07-5.89c.06-7.86.21-15.72.37-23.58S177,38.8,177.23,31,177.78,15.23,178.19,7.37Z"/><path class="cls-2" d="M148,138.93v29.88h10.24v4.94H142.72V138.93Z"/><path class="cls-2" d="M166,142.65a3.15,3.15,0,0,1,1-2.3,3.18,3.18,0,0,1,2.32-1,3.23,3.23,0,0,1,2.35,1,3.15,3.15,0,0,1,1,2.33,3.21,3.21,0,0,1-1,2.34,3.12,3.12,0,0,1-2.33,1,3.31,3.31,0,0,1-3.31-3.34Zm5.84,9.14v22H166.8v-22Z"/><path class="cls-2" d="M182.87,151.79h5.07v2a10.34,10.34,0,0,1,2.51-2.08,6.12,6.12,0,0,1,2.77-.56,6.74,6.74,0,0,1,5.89,3.25,7.6,7.6,0,0,1,6.47-3.25q7.42,0,7.42,9v13.57h-5.1v-12.2a9.28,9.28,0,0,0-.77-4.46,2.76,2.76,0,0,0-2.59-1.33,3.28,3.28,0,0,0-3,1.58,10.13,10.13,0,0,0-1,5.07v11.34h-5.1V161.62q0-5.87-3.38-5.86a3.4,3.4,0,0,0-3.13,1.6,10,10,0,0,0-1,5v11.34h-5.07Z"/><path class="cls-2" d="M229.09,135.66v18.68a9.38,9.38,0,0,1,6.91-3.16,9.48,9.48,0,0,1,7.39,3.31,11.86,11.86,0,0,1,3,8.21,12.07,12.07,0,0,1-3,8.39,9.76,9.76,0,0,1-14.28.36v2.3H224V135.66Zm12.07,27.27a7.58,7.58,0,0,0-1.71-5.14,5.48,5.48,0,0,0-4.36-2,5.82,5.82,0,0,0-4.55,2,7.26,7.26,0,0,0-1.74,5.05,7.38,7.38,0,0,0,1.72,5.12,5.68,5.68,0,0,0,4.51,2,5.58,5.58,0,0,0,4.37-2A7.22,7.22,0,0,0,241.16,162.93Z"/><path class="cls-2" d="M255.52,142.65a3.15,3.15,0,0,1,1-2.3,3.2,3.2,0,0,1,2.32-1,3.23,3.23,0,0,1,2.35,1,3.12,3.12,0,0,1,1,2.33,3.17,3.17,0,0,1-1,2.34,3.11,3.11,0,0,1-2.32,1,3.31,3.31,0,0,1-3.32-3.34Zm5.84,9.14v22h-5.07v-22Z"/><path class="cls-2" d="M289.46,152.73v6.75a12.13,12.13,0,0,0-3.12-2.91,6.06,6.06,0,0,0-3.18-.81,6.27,6.27,0,0,0-4.76,2,7.06,7.06,0,0,0-1.89,5,7.22,7.22,0,0,0,1.83,5.08,6.15,6.15,0,0,0,4.71,2,6.44,6.44,0,0,0,3.23-.79,12.74,12.74,0,0,0,3.18-3v6.7a13.33,13.33,0,0,1-6.18,1.6,11.82,11.82,0,0,1-8.53-3.29,11,11,0,0,1-3.43-8.23,11.13,11.13,0,0,1,3.48-8.3,11.75,11.75,0,0,1,8.52-3.38A12.84,12.84,0,0,1,289.46,152.73Z"/><path class="cls-2" d="M315.13,151.79h5.1v22h-5.1v-2.3a9.74,9.74,0,0,1-14.27-.36,12.25,12.25,0,0,1-2.95-8.39,11.87,11.87,0,0,1,2.95-8.23,9.53,9.53,0,0,1,7.4-3.29,9.3,9.3,0,0,1,6.87,3.16Zm-12,10.91a7.67,7.67,0,0,0,1.69,5.14,5.55,5.55,0,0,0,4.38,2,5.85,5.85,0,0,0,4.56-1.94,8.37,8.37,0,0,0,0-10.19,5.76,5.76,0,0,0-4.52-2,5.61,5.61,0,0,0-4.37,2A7.31,7.31,0,0,0,303.09,162.7Z"/><path class="cls-2" d="M331.26,151.79h5.07v2a9.62,9.62,0,0,1,2.48-2,5.78,5.78,0,0,1,2.62-.56,8.11,8.11,0,0,1,4.19,1.31l-2.32,4.64a4.85,4.85,0,0,0-2.82-1q-4.16,0-4.15,6.27v11.39h-5.07Z"/><path class="cls-2" d="M369.92,164H354.18a6.61,6.61,0,0,0,1.76,4.31,5.38,5.38,0,0,0,4,1.58,5.18,5.18,0,0,0,3.13-.9,12.78,12.78,0,0,0,2.78-3.34l4.28,2.39a17.06,17.06,0,0,1-2.09,2.9,10.85,10.85,0,0,1-2.37,2,9.52,9.52,0,0,1-2.73,1.14,13.35,13.35,0,0,1-3.18.36,10.33,10.33,0,0,1-7.89-3.15,11.82,11.82,0,0,1-3-8.44,12.14,12.14,0,0,1,2.89-8.43,11,11,0,0,1,15.38-.09c1.86,2,2.79,4.88,2.79,8.5Zm-5.21-4.14a4.86,4.86,0,0,0-5.12-4.06,5.25,5.25,0,0,0-1.74.28,5,5,0,0,0-1.47.81,5,5,0,0,0-1.14,1.27,5.66,5.66,0,0,0-.72,1.7Z"/><path class="cls-4" d="M791.28,130a91.16,91.16,0,0,0-6.07-8.31,26,26,0,0,0-7.72-6.41,45.58,45.58,0,0,0-9.62-3.16q-2.5-.63-5-1.35t-5-1.56a76.3,76.3,0,0,1-18.79-9.07,53.09,53.09,0,0,1-8.06-6.76,45.47,45.47,0,0,1-3.48-4,44.81,44.81,0,0,1-3-4.38l1.87-1a68.82,68.82,0,0,0,4.89,9.46,70.87,70.87,0,0,0,6.32,8.62,71.39,71.39,0,0,0,16.27,14,60.24,60.24,0,0,1-9.21-5.74,64.37,64.37,0,0,1-8.11-7.29,66.2,66.2,0,0,1-6.81-8.57,63.8,63.8,0,0,1-5.28-9.63l1.86-1a45.09,45.09,0,0,0,6.24,7.87,53.28,53.28,0,0,0,7.76,6.44,79.79,79.79,0,0,0,18.17,9c3.21,1.15,6.47,2.18,9.76,3.14a43.41,43.41,0,0,1,9.8,3.67,26.06,26.06,0,0,1,7.7,7.11A74,74,0,0,1,791.28,130Z"/><path class="cls-4" d="M745.74,116.73c-3.08-.82-6.06-1.86-9-3s-5.88-2.28-8.76-3.61a58.47,58.47,0,0,1-8.36-4.65,41.41,41.41,0,0,1-3.8-2.94,29.25,29.25,0,0,1-3.3-3.47c1.34.88,2.64,1.76,4,2.56s2.69,1.57,4.06,2.31,2.76,1.42,4.16,2.1,2.81,1.34,4.23,2c2.83,1.32,5.7,2.62,8.51,4.06S743,115,745.74,116.73Z"/><path class="cls-4" d="M711.35,105.22c2.53.76,5,1.68,7.38,2.59s4.82,1.87,7.21,2.84,4.78,1.95,7.16,3,4.76,2.06,7.11,3.27a47.66,47.66,0,0,1-7.71-1.56,72.09,72.09,0,0,1-7.42-2.54,72.72,72.72,0,0,1-7.1-3.33A49.22,49.22,0,0,1,711.35,105.22Z"/><path class="cls-4" d="M717.71,111.37c4.78,2.93,9.64,5.65,14.63,8.06,1.27.57,2.53,1.14,3.77,1.74l3.82,1.63c1.3.49,2.58,1,3.86,1.52l3.92,1.38,3.94,1.28,4,1.15,4,1c1.35.29,2.7.6,4.05.91,5.43,1.13,10.94,1.94,16.51,2.53a80.29,80.29,0,0,1-16.82-.76c-1.39-.22-2.78-.45-4.17-.71l-4.14-.89-4.08-1.1-4-1.26-4-1.46c-1.3-.54-2.61-1.07-3.91-1.62L735.26,123c-1.26-.64-2.5-1.31-3.74-2A79.82,79.82,0,0,1,717.71,111.37Z"/><path class="cls-4" d="M771.3,105.64a13.15,13.15,0,0,0,8.09-1.5,12.41,12.41,0,0,0,5.48-5.69,12.15,12.15,0,0,0,.67-7.71,11.91,11.91,0,0,0-4-6.55L778.8,82l3.56.19A9.39,9.39,0,0,1,787,83.74a11.74,11.74,0,0,1,3.32,3.38,17.3,17.3,0,0,1,1.93,4.17,22.93,22.93,0,0,1,.95,4.39,17.32,17.32,0,0,1-1.07,8.87,12.22,12.22,0,0,1-5.89,6.38,12.83,12.83,0,0,0,4.82-6.78,14.81,14.81,0,0,0,.67-4.07,19.07,19.07,0,0,0-.31-4.13,20.23,20.23,0,0,0-2.91-7.61,9.68,9.68,0,0,0-2.74-2.71,7.2,7.2,0,0,0-3.49-1.18l.78-2a13.83,13.83,0,0,1,4.63,7.87,13.52,13.52,0,0,1-1.19,9,13.22,13.22,0,0,1-6.6,5.93A12.56,12.56,0,0,1,771.3,105.64Z"/><path class="cls-4" d="M760.18,101.93a37.89,37.89,0,0,1-4.35-13.24,31.77,31.77,0,0,1-.16-7.1,28.55,28.55,0,0,1,1.58-7,31,31,0,0,1,3.34-6.32A48.91,48.91,0,0,1,765,62.81c3.16-3.43,6.56-6.5,9.79-9.81a132.28,132.28,0,0,1-8.42,11,63.22,63.22,0,0,0-4,5.5,30.3,30.3,0,0,0-3,5.93,27,27,0,0,0-1.58,6.42,35.55,35.55,0,0,0-.22,6.69A58.07,58.07,0,0,0,760.18,101.93Z"/><path class="cls-4" d="M763.9,101.79a24.89,24.89,0,0,1-.77-11A56.59,56.59,0,0,1,765.73,80a60.81,60.81,0,0,1,4.53-10.12c.89-1.61,1.88-3.17,2.93-4.69s2.16-2.95,3.22-4.45a49.38,49.38,0,0,1-2.25,5c-.8,1.63-1.56,3.27-2.3,4.92q-2.21,4.95-4,10a105.3,105.3,0,0,0-3,10.35A37.73,37.73,0,0,0,763.9,101.79Z"/><path class="cls-4" d="M771.28,93.11a8.12,8.12,0,0,0-2.7-2.85,20.47,20.47,0,0,0-3.43-1.88,21.31,21.31,0,0,0-7.45-1.77,20.55,20.55,0,0,0-7.56,1.09,24.43,24.43,0,0,0-7,3.78,15.46,15.46,0,0,1,6.3-5.45,17,17,0,0,1,8.36-1.71A17.73,17.73,0,0,1,766,86.77a16.68,16.68,0,0,1,3.33,2.64A6.82,6.82,0,0,1,771.28,93.11Z"/><path class="cls-4" d="M741.7,102.44a54.08,54.08,0,0,1-5.54-4.38,37.07,37.07,0,0,1-4.81-5.27,27.23,27.23,0,0,1-3.53-6.33A23,23,0,0,1,726.75,83a21.4,21.4,0,0,1-.45-3.67l-.3-9.2L728.52,79c.69,2.44,2.61,4.55,4.47,6.76l2.79,3.3q1.41,1.62,2.88,3.18A50.53,50.53,0,0,0,745,97.93a51.58,51.58,0,0,0,7.3,4.59,35.5,35.5,0,0,1-8-3.59,39.1,39.1,0,0,1-3.64-2.5c-1.16-.91-2.28-1.88-3.35-2.88-2.12-2-4.12-4.18-6-6.37-.94-1.1-1.93-2.18-2.84-3.41a12.7,12.7,0,0,1-2.12-4.22l2.22-.33a19.36,19.36,0,0,0,.35,3.3,23,23,0,0,0,.86,3.23,29.79,29.79,0,0,0,3,6.09,47.54,47.54,0,0,0,4.16,5.5C738.42,99.09,740.05,100.77,741.7,102.44Z"/><path class="cls-4" d="M790.8,105.86a1.48,1.48,0,0,1-.19-1.08,2.87,2.87,0,0,1,.48-1,5.86,5.86,0,0,1,1.7-1.49,13.23,13.23,0,0,1,4.09-1.7,24.34,24.34,0,0,1,8.71-.25c2.86.37,5.57,1,8.3,1.44a31,31,0,0,0,8.29.41,18.13,18.13,0,0,1-8.47,1.39c-2.87-.12-5.68-.6-8.41-1a34.46,34.46,0,0,0-8.1-.26,15.09,15.09,0,0,0-3.9.93,9.79,9.79,0,0,0-.92.38,5.46,5.46,0,0,0-.82.53A1.8,1.8,0,0,0,790.8,105.86Z"/><path class="cls-4" d="M820.39,101.08a9,9,0,0,0-2,5.13c-.23,1.81-.12,3.71-.34,5.75a13.67,13.67,0,0,1-.68,3.07,8.27,8.27,0,0,1-1.67,2.79,12.92,12.92,0,0,1-5.15,3.23,33.55,33.55,0,0,0,3.72-4.33,11.33,11.33,0,0,0,1.49-5l.28-2.87a17.94,17.94,0,0,1,.58-3A9.57,9.57,0,0,1,818,103a6.88,6.88,0,0,1,1.07-1.15A4.75,4.75,0,0,1,820.39,101.08Z"/><path class="cls-4" d="M819.94,112.23a10,10,0,0,0-1.3,5.83,20,20,0,0,0,1.3,5.84c.7,1.91,1.49,3.82,2.18,5.84a19.82,19.82,0,0,1,1.12,6.45,22.35,22.35,0,0,1-1.17,6.43,38.57,38.57,0,0,1-2.59,5.82c-2,3.7-4.27,7.1-6,10.89.86-4.11,2.78-7.93,4.42-11.68A47.83,47.83,0,0,0,820,142a21.13,21.13,0,0,0,1-5.8c.13-3.86-1.61-7.63-2.71-11.72a18.39,18.39,0,0,1-.72-6.4A9.22,9.22,0,0,1,819.94,112.23Z"/><path class="cls-4" d="M820.52,123.5l-.82.11v-.1a16.86,16.86,0,0,1,3.18,1.23,14.8,14.8,0,0,1,2.88,1.9,12.94,12.94,0,0,1,2.34,2.61,12,12,0,0,1,1.48,3.23,19.6,19.6,0,0,1,.56,7,44.15,44.15,0,0,1-1.06,6.8,119,119,0,0,1-3.94,13.05c-.76,2.14-1.61,4.24-2.49,6.33s-1.8,4.17-2.81,6.2l-2.6,5.26.55-5.8c.25-2.63.45-5.25.55-7.86a60,60,0,0,0-.14-7.82,39.28,39.28,0,0,0-1.43-7.67,29,29,0,0,0-3.21-7.18,25.47,25.47,0,0,1,4,6.89,35.31,35.31,0,0,1,2.07,7.78,55.41,55.41,0,0,1,.58,8c0,2.68-.15,5.35-.31,8l-2.05-.54c.91-2,1.83-4.08,2.68-6.15s1.64-4.15,2.43-6.24,1.51-4.21,2.18-6.34,1.36-4.26,1.92-6.41a50.29,50.29,0,0,0,1.28-6.49,19.69,19.69,0,0,0-.12-6.46,11.38,11.38,0,0,0-3.07-5.56,17.14,17.14,0,0,0-5.52-3.65l-.24-.1h1.08Z"/><path class="cls-4" d="M796.87,127.68a27,27,0,0,0,6,5.34c2.2,1.52,4.55,2.92,6.77,4.66.55.44,1.09.89,1.62,1.37s1,1,1.52,1.53a15,15,0,0,1,2.41,3.62,13.71,13.71,0,0,1,.75,2.06,13,13,0,0,1,.35,2.15,10.28,10.28,0,0,1-.14,2.15,7.47,7.47,0,0,1-.7,2,11.29,11.29,0,0,0-1.85-7.49,22.2,22.2,0,0,0-5.38-5.57c-2.09-1.64-4.37-3.18-6.47-5.05a22.19,22.19,0,0,1-2.89-3.08A13,13,0,0,1,796.87,127.68Z"/><path class="cls-4" d="M800.56,139.34a58.53,58.53,0,0,1,7.17,10.55,64.51,64.51,0,0,1,4.88,11.85c.29,1,.58,2.06.81,3.11s.49,2.09.68,3.14a54.61,54.61,0,0,1,.8,6.37,41.82,41.82,0,0,1,0,6.43,23.4,23.4,0,0,1-1.34,6.26,44.24,44.24,0,0,0-.45-12.49c-.07-.52-.15-1-.25-1.55l-.26-1.53c-.21-1-.39-2-.63-3.06-.45-2-1-4-1.57-6-.28-1-.61-2-.92-3s-.67-2-1-2.93c-.68-2-1.53-3.88-2.32-5.81C804.45,146.84,802.54,143.1,800.56,139.34Z"/><path class="cls-4" d="M815.26,183.64c.22-1.89.55-3.68.84-5.48s.57-3.56.82-5.34.48-3.56.69-5.36a24.91,24.91,0,0,0,.25-2.65,5,5,0,0,0-.52-2.57,4.11,4.11,0,0,1,1.64,2.4,13.24,13.24,0,0,1,.44,2.86,27.27,27.27,0,0,1-.22,5.64,27.8,27.8,0,0,1-1.36,5.48A20.75,20.75,0,0,1,815.26,183.64Z"/><path class="cls-4" d="M734,97.28a2.21,2.21,0,0,0-1.78.39c-.54.32-1,.73-1.57,1.1-1,.77-2.07,1.53-3.08,2.32-2.05,1.54-4.07,3.13-6.1,4.71s-4.07,3.15-6.13,4.71-4.19,3-6.33,4.49-4.34,2.82-6.55,4.16S698,121.8,695.77,123c-4.53,2.49-9.13,4.82-13.84,6.94,4.24-3,8.59-5.72,12.92-8.49,2.16-1.4,4.34-2.74,6.48-4.16s4.31-2.78,6.43-4.22,4.24-2.87,6.34-4.34,4.2-3,6.35-4.4,4.3-2.86,6.52-4.2c1.11-.65,2.23-1.31,3.38-1.91a18.87,18.87,0,0,1,1.74-.88A2.39,2.39,0,0,1,734,97.28Z"/><path class="cls-4" d="M676.69,128.84a6,6,0,0,0,4.3,2.64,10.13,10.13,0,0,0,5-.7c1.61-.61,3.22-1.41,4.83-2.21s3.19-1.62,4.77-2.47q4.71-2.56,9.28-5.44c1.51-1,3-1.94,4.53-3l4.52-3a55.16,55.16,0,0,1-8,7.48,68.26,68.26,0,0,1-9.22,6c-1.62.86-3.26,1.69-4.94,2.42a39,39,0,0,1-5.22,2,10.31,10.31,0,0,1-5.75.08,7.1,7.1,0,0,1-2.52-1.4,5.64,5.64,0,0,1-.94-1.07A5.12,5.12,0,0,1,676.69,128.84Z"/><path class="cls-4" d="M714.91,111a24.78,24.78,0,0,0-4.49,5.62c-.32.5-.56,1-.83,1.56a16.12,16.12,0,0,0-.63,1.63c-.2.55-.34,1.11-.49,1.67-.07.28-.11.56-.16.84a6.21,6.21,0,0,0-.12.85,15,15,0,0,0,0,3.41l.12.84c.06.27.14.55.2.82l.44,1.82a20.4,20.4,0,0,1,0,7.67,27.93,27.93,0,0,1-2.55,7.13,43.35,43.35,0,0,1-4,6.3,26,26,0,0,1-5.32,5.26,19.88,19.88,0,0,1-3.21,1.89,25.62,25.62,0,0,1-3.47,1.24c1.07-.6,2.17-1.12,3.16-1.8a22.41,22.41,0,0,0,2.81-2.21,28.45,28.45,0,0,0,4.56-5.42,53.63,53.63,0,0,0,3.49-6.22c.5-1.07.95-2.15,1.34-3.25a25.28,25.28,0,0,0,.9-3.36,18.47,18.47,0,0,0,.14-6.83l-.34-1.75c-.06-.32-.13-.64-.18-1l-.1-1a14,14,0,0,1,.2-3.87,15.1,15.1,0,0,1,1.14-3.66,17.8,17.8,0,0,1,.87-1.68,16.5,16.5,0,0,1,1.05-1.57A20.18,20.18,0,0,1,714.91,111Z"/><path class="cls-4" d="M713.05,122.49a30.21,30.21,0,0,0-3.81,8.91,32.53,32.53,0,0,0-.87,9.47,40.79,40.79,0,0,0,1.68,9.43,75.47,75.47,0,0,0,3.5,9.18,31.9,31.9,0,0,1-5.2-8.58,30.16,30.16,0,0,1-2.28-9.91,25.73,25.73,0,0,1,1.45-10.11A20.12,20.12,0,0,1,713.05,122.49Z"/><path class="cls-4" d="M712.14,126.28c-2.25,2.53-4.4,5.05-6.4,7.68a89.37,89.37,0,0,0-5.5,8.19,88.43,88.43,0,0,0-4.51,8.77c-.35.75-.65,1.52-1,2.28s-.62,1.54-.92,2.31c-.61,1.56-1.13,3.15-1.8,4.71.17-1.68.41-3.35.71-5a41.91,41.91,0,0,1,1.3-4.92,47,47,0,0,1,10.33-17.47A39,39,0,0,1,712.14,126.28Z"/><path class="cls-4" d="M719,132.21a38.75,38.75,0,0,0-9,12,58,58,0,0,0-3,6.84,44.87,44.87,0,0,0-2.06,7.15,38.48,38.48,0,0,0-.77,7.33,59.93,59.93,0,0,0,.49,7.43c.3,2.48.64,5,1,7.48a57.41,57.41,0,0,0,1.48,7.27l-2.23.35a67.27,67.27,0,0,1,1-13.44,64.68,64.68,0,0,1,1.57-6.57,38.72,38.72,0,0,1,2.46-6.31,105.08,105.08,0,0,1,6.91-11.45,64.64,64.64,0,0,0,6.37-11.59,54.47,54.47,0,0,1-5.46,12.14,130.67,130.67,0,0,0-6.25,11.62,39,39,0,0,0-2.14,6.13A60.53,60.53,0,0,0,708,175a71.84,71.84,0,0,0-.86,13l.26,8.73-2.49-8.38a51.45,51.45,0,0,1-1.54-7.58c-.34-2.53-.66-5-.94-7.56a58.13,58.13,0,0,1-.36-7.71,36.86,36.86,0,0,1,1-7.7,46.61,46.61,0,0,1,2.42-7.33,60.86,60.86,0,0,1,3.48-6.83,46.1,46.1,0,0,1,4.39-6.27A28.2,28.2,0,0,1,719,132.21Z"/><path class="cls-4" d="M710.66,155.9c.14,2.41,0,4.79,0,7.15s-.17,4.69-.2,7,0,4.63.23,6.93a59.4,59.4,0,0,0,1,7,19.88,19.88,0,0,1-2.81-6.69,30.5,30.5,0,0,1-.75-7.24,44.13,44.13,0,0,1,.71-7.19A45.26,45.26,0,0,1,710.66,155.9Z"/><path class="cls-4" d="M711.05,179.61a37.67,37.67,0,0,1-.06-6.88,51.54,51.54,0,0,1,1-6.78,50.11,50.11,0,0,1,1.86-6.6,36.77,36.77,0,0,1,2.86-6.26c-.26,2.3-.69,4.52-1.11,6.74s-.89,4.4-1.36,6.6-1,4.38-1.46,6.58S711.74,177.4,711.05,179.61Z"/><path class="cls-4" d="M708.09,162.07a6.11,6.11,0,0,0,1.37,3c.65.87,1.44,1.72,2.16,2.61a38.89,38.89,0,0,1,4,5.72,18.39,18.39,0,0,1,2.31,6.77,13.55,13.55,0,0,1-.06,3.6,9.59,9.59,0,0,1-1.19,3.34,16.66,16.66,0,0,0-.53-6.6,27,27,0,0,0-2.54-6c-1.07-1.93-2.29-3.82-3.46-5.79a30.16,30.16,0,0,1-1.66-3.09A5.25,5.25,0,0,1,708.09,162.07Z"/><path class="cls-4" d="M717.58,131.68c2.57.12,5.06.23,7.54.16a62.08,62.08,0,0,0,7.36-.62c1.21-.17,2.42-.4,3.62-.65s2.41-.54,3.56-.89a14.6,14.6,0,0,0,3.29-1.42,7.65,7.65,0,0,0,2.63-2.53,6.32,6.32,0,0,1-1.93,3.42,12.74,12.74,0,0,1-3.33,2.22,24.67,24.67,0,0,1-3.69,1.32c-.63.18-1.26.31-1.9.47s-1.27.25-1.92.33a30.17,30.17,0,0,1-7.77.15A25.53,25.53,0,0,1,717.58,131.68Z"/><path class="cls-4" d="M779.89,132.38a13.08,13.08,0,0,1,4.71,0,23.36,23.36,0,0,1,4.44,1.34c1.39.54,2.71,1.09,4.07,1.47a13.06,13.06,0,0,0,4.35.56,6.92,6.92,0,0,1-4.63,1.23,15.32,15.32,0,0,1-4.63-1.11c-1.43-.56-2.75-1.19-4.11-1.76S781.34,133,779.89,132.38Z"/><path class="cls-4" d="M719.48,131a27.24,27.24,0,0,1,5-4.55,29,29,0,0,1,6-3.28,24.77,24.77,0,0,1,6.67-1.69,17.35,17.35,0,0,1,6.81.58,47.46,47.46,0,0,0-6.49,1.21,50.57,50.57,0,0,0-6.13,2c-2,.81-4,1.72-5.93,2.7S721.53,130,719.48,131Z"/><path class="cls-4" d="M807.85,109.09a13.53,13.53,0,0,0,6.66-1.54,15,15,0,0,0,5.1-4.29,16.42,16.42,0,0,0,1.69-2.86,17.33,17.33,0,0,0,1.12-3.12,21,21,0,0,0,.6-6.61l2.24-.31a41.23,41.23,0,0,1,1,8.23,28.41,28.41,0,0,1-1.09,8.29,23,23,0,0,1-1.57,3.9,21.2,21.2,0,0,1-2.29,3.49,16.22,16.22,0,0,1-6.53,4.92,18.54,18.54,0,0,0,5.57-5.62,20.13,20.13,0,0,0,1.82-3.47,21.26,21.26,0,0,0,1.19-3.7,29.68,29.68,0,0,0,.68-7.76,48.2,48.2,0,0,0-1-7.81l2.24-.31a20.9,20.9,0,0,1-.83,7.33,19.29,19.29,0,0,1-1.4,3.43,17,17,0,0,1-2.11,3.06,15,15,0,0,1-6,4.18A12.41,12.41,0,0,1,807.85,109.09Z"/><path class="cls-4" d="M820.24,116.39l8.7-.51,8.7-.42q8.72-.39,17.42-.7c5.8-.18,11.61-.31,17.42-.42s11.65-.17,17.49.3,11.58,1.69,17.28,2.18a39.18,39.18,0,0,0,8.46-.11c.69-.13,1.39-.2,2.06-.38l1-.24,1.06-.28a12,12,0,0,1,4.75-.45,5.22,5.22,0,0,1,1.33.41,4.16,4.16,0,0,1,1.17.83,4.44,4.44,0,0,1,1.28,2.5,11.14,11.14,0,0,1-.56,4.78c-.8,2.79-1.6,5.59-2.44,8.38a145.2,145.2,0,0,1-5.92,16.52c-2.38,5.37-5.16,10.48-7.59,15.7-1.21,2.61-2.33,5.25-3.29,8s-1.77,5.46-2.53,8.24-1.45,5.6-2.14,8.42-1.38,5.62-1.84,8.43a31.32,31.32,0,0,0-.37,8.41,36.31,36.31,0,0,0,2.1,8.21c.47,1.36,1,2.73,1.44,4.12s.88,2.8,1.27,4.22.75,2.83,1,4.27l.44,2.15c.15.71.29,1.43.4,2.16a114.66,114.66,0,0,1,1.5,17.43c.06,5.83-.22,11.65-.67,17.45-.23,2.9-.5,5.79-.79,8.68l-1,8.66.63-8.69c.2-2.9.39-5.79.53-8.69.28-5.8.39-11.6.15-17.38a115.31,115.31,0,0,0-1.8-17.21c-.12-.71-.27-1.41-.43-2.11l-.47-2.11c-.32-1.41-.74-2.78-1.1-4.17s-.88-2.74-1.32-4.11-1-2.7-1.51-4.07a37.69,37.69,0,0,1-2.34-8.59,32.65,32.65,0,0,1,.29-9c.45-2.92,1.14-5.77,1.79-8.6s1.32-5.67,2.07-8.49,1.58-5.64,2.55-8.42,2.11-5.5,3.34-8.15c2.45-5.32,5.21-10.43,7.52-15.69a140.88,140.88,0,0,0,5.88-16.24c.84-2.77,1.65-5.55,2.45-8.34a9.3,9.3,0,0,0,.53-3.79,2.36,2.36,0,0,0-.65-1.32,2.31,2.31,0,0,0-1.34-.66,10,10,0,0,0-3.85.39l-1,.26-1.1.24c-.74.19-1.49.26-2.23.39a40.33,40.33,0,0,1-8.92,0c-5.88-.54-11.54-1.89-17.25-2.43s-11.53-.6-17.33-.6-11.61,0-17.41.09-11.61.09-17.42.19Z"/><path class="cls-4" d="M853.94,137a141.35,141.35,0,0,1,18.15-1.9c6.09-.2,12.35.12,18.32,2.08a30.54,30.54,0,0,1,8.38,4.26,5.75,5.75,0,0,1,1.85,2,4.11,4.11,0,0,1,.24,2.93,14.24,14.24,0,0,1-2.39,4.21,18.66,18.66,0,0,0-2.85,8.17,72.94,72.94,0,0,0-.42,9,48.7,48.7,0,0,1-.71-9.13,23,23,0,0,1,.65-4.63,16.12,16.12,0,0,1,1.82-4.41c.4-.67.82-1.29,1.16-1.92a6.52,6.52,0,0,0,.78-1.81,2,2,0,0,0-.15-1.49,3.88,3.88,0,0,0-1.26-1.22,29.63,29.63,0,0,0-7.82-3.84,42.49,42.49,0,0,0-8.64-1.87,88.47,88.47,0,0,0-8.95-.6C866.08,136.79,860,136.91,853.94,137Z"/><path class="cls-4" d="M828.82,234.49a31.49,31.49,0,0,0,13.82,7.35l1,.22,1,.16c.64.13,1.29.19,1.93.28a27.62,27.62,0,0,0,3.86.12,50.74,50.74,0,0,0,7.8-1,50.31,50.31,0,0,1,8.14-1,33.57,33.57,0,0,1,8.2,1,69.27,69.27,0,0,1,15.09,5.9c-5.16-1.53-10.25-3.26-15.44-4.14-.65-.11-1.3-.21-2-.28s-1.3-.14-1.95-.2a29.74,29.74,0,0,0-3.89-.06,51.9,51.9,0,0,0-7.8,1.05,49.46,49.46,0,0,1-8.16.93,27.08,27.08,0,0,1-8.21-1.22A26.59,26.59,0,0,1,828.82,234.49Z"/><path class="cls-4" d="M643.68,191.55a65.49,65.49,0,0,0,10.5,11.34A58.41,58.41,0,0,0,667,211.18c1.14.56,2.31,1,3.49,1.54s2.37.88,3.62,1.3a21.56,21.56,0,0,1,3.76,1.64,9.87,9.87,0,0,1,3.14,2.89c1.64,2.34,2.27,5,3,7.45a20,20,0,0,0,3.05,7.05,11.91,11.91,0,0,1-2.44-3.1,30.64,30.64,0,0,1-1.68-3.58c-.49-1.22-1-2.43-1.49-3.57a15.51,15.51,0,0,0-1.88-3.17,9.15,9.15,0,0,0-1.25-1.24,7.64,7.64,0,0,0-1.45-1,19.93,19.93,0,0,0-3.45-1.33c-1.23-.36-2.5-.83-3.75-1.27s-2.47-1-3.67-1.57a53.69,53.69,0,0,1-6.9-4,52.15,52.15,0,0,1-6.14-5.05c-1-.92-1.86-1.88-2.75-2.86s-1.7-2-2.47-3.09A43.16,43.16,0,0,1,643.68,191.55Z"/><path class="cls-4" d="M674.46,227.55a82.7,82.7,0,0,1,5.94,6.21q2.8,3.23,5.41,6.6a13.28,13.28,0,0,0,2.65,2.84,10.07,10.07,0,0,0,3.58,1.3c1.35.28,2.79.49,4.22.92a8.76,8.76,0,0,1,2,.92,5.24,5.24,0,0,1,1.55,1.56,7,7,0,0,0-3.83-1.37c-1.36-.16-2.78-.11-4.25-.23a10.39,10.39,0,0,1-4.5-1.27,13,13,0,0,1-3.28-3.25c-1.74-2.26-3.42-4.56-5-6.92A83.84,83.84,0,0,1,674.46,227.55Z"/><path class="cls-4" d="M719.23,110.76a35.28,35.28,0,0,0-13.49-2.64c-4.61-.11-9.21.32-13.82.67s-9.25.59-13.88.69-9.27,0-13.9-.12c-2.32-.08-4.64-.2-6.94-.33l-6.93-.27a52.25,52.25,0,0,1-7-.73,24,24,0,0,1-3.48-.89,30,30,0,0,1-3.29-1.39c-2.12-1-4.13-2.17-6.18-3.11a33.78,33.78,0,0,0-6.36-2.15c-1.1-.24-2.2-.43-3.3-.56a26.4,26.4,0,0,0-3.32-.13,21.15,21.15,0,0,0-3.27.39,17.69,17.69,0,0,0-3.1,1l.64-.83a16.08,16.08,0,0,0,2.54,11,14.82,14.82,0,0,0,1.79,2.23c.68.7,1.43,1.36,2.2,2a28.18,28.18,0,0,1,2.28,2.24,12.1,12.1,0,0,1,1,1.33l.45.72c.15.24.26.5.39.74a13.77,13.77,0,0,1,.65,1.55c.15.54.34,1.07.44,1.61a18.22,18.22,0,0,1,.38,3.26,31,31,0,0,1-.58,6.35c-.37,2.06-.9,4.09-1.3,6a56.73,56.73,0,0,0-.82,6c-.68,8,.75,16.09,2.11,24.16.65,4,1.61,8,2.43,12,.41,2,.78,4.07,1.06,6.13s.46,4.14.58,6.2c.23,4.14.19,8.27.11,12.38s-.27,8.22-.53,12.33-.6,8.2-1,12.29-.9,8.17-1.55,12.24a66.87,66.87,0,0,1-3,12c-1.39,3.89-3.1,7.63-4.71,11.39a75.69,75.69,0,0,0-4.1,11.53,29.09,29.09,0,0,0-.54,12.11l-.09-.08a8.22,8.22,0,0,0,5.19-1.67,8.38,8.38,0,0,1-5.2,1.87h-.08v-.08a28.9,28.9,0,0,1,.17-12.28,76.35,76.35,0,0,1,3.84-11.74c1.52-3.81,3.09-7.59,4.4-11.44a64.18,64.18,0,0,0,2.74-11.86c.58-4,1-8.11,1.34-12.18s.63-8.16.83-12.24.29-8.18.35-12.26,0-8.17-.22-12.22c-.13-2-.32-4-.61-6s-.66-4-1.09-6c-.84-4-1.82-8-2.49-12.08s-1.4-8.1-1.88-12.22a66,66,0,0,1-.33-12.5,54.39,54.39,0,0,1,.86-6.22c.44-2.08,1-4,1.31-6a28.77,28.77,0,0,0,.56-5.88,15.63,15.63,0,0,0-.32-2.84c-.08-.47-.24-.91-.36-1.36a12.12,12.12,0,0,0-.54-1.29c-.11-.2-.2-.41-.32-.61l-.37-.59a8.08,8.08,0,0,0-.85-1.1,24.07,24.07,0,0,0-2.09-2.07c-.76-.68-1.55-1.37-2.3-2.15a19.33,19.33,0,0,1-2.05-2.56A18.2,18.2,0,0,1,609.5,100l.08-.6.55-.23a20.67,20.67,0,0,1,3.52-1.06,23.31,23.31,0,0,1,3.62-.4,28.74,28.74,0,0,1,3.6.17,34.75,34.75,0,0,1,3.53.63,35.83,35.83,0,0,1,6.74,2.33c2.14,1,4.13,2.21,6.16,3.23a28.71,28.71,0,0,0,3.07,1.36,23.14,23.14,0,0,0,3.22.87,52,52,0,0,0,6.77.82l6.93.38c2.31.16,4.6.32,6.91.44,4.6.23,9.21.35,13.83.33s9.23-.1,13.84-.33,9.25-.54,13.89-.31A34.68,34.68,0,0,1,719.23,110.76Z"/><path class="cls-4" d="M713.45,177.46a61.6,61.6,0,0,0,5.45,19.46c2.81,6.14,7.17,11.33,11.57,16.5s8.9,10.21,14.18,14.3a44.73,44.73,0,0,0,8.42,5.26,34,34,0,0,0,4.61,1.78c.78.27,1.58.45,2.38.66s1.6.35,2.42.45,1.62.2,2.43.29,1.63.09,2.45.05,1.62-.09,2.43-.15,1.61-.21,2.4-.42,1.56-.41,2.34-.64,1.53-.55,2.25-.91,1.46-.73,2.18-1.11,1.4-.85,2.06-1.33a33.56,33.56,0,0,0,3.84-3.12,47.17,47.17,0,0,0,3.46-3.6c1.1-1.25,2.15-2.56,3.17-3.9s2-2.7,3-4.08c3.91-5.53,7.63-11.21,11.11-17q2.64-4.35,5.09-8.82c.82-1.49,1.61-3,2.41-4.49s1.58-3,2.35-4.53c-.67,1.56-1.35,3.13-2,4.68s-1.44,3.09-2.18,4.62q-2.22,4.59-4.65,9.1c-3.26,6-6.8,11.83-10.61,17.49a88.81,88.81,0,0,1-6.12,8.28,47.1,47.1,0,0,1-3.55,3.8,35.24,35.24,0,0,1-4,3.38c-.7.53-1.46,1-2.21,1.45s-1.54.87-2.35,1.23-1.64.69-2.47,1-1.7.54-2.57.72-1.74.33-2.62.47-1.77.18-2.65.18-1.77,0-2.66-.05-1.76-.14-2.62-.29a40.28,40.28,0,0,1-18.82-8.72,94.69,94.69,0,0,1-14.22-14.87c-2.13-2.65-4.29-5.31-6.22-8.15a51,51,0,0,1-5-9,58.22,58.22,0,0,1-3.08-9.79c-.37-1.67-.68-3.35-.9-5S713.53,179.16,713.45,177.46Z"/><path class="cls-4" d="M727.72,256.89a.65.65,0,0,0-.55.47.52.52,0,0,0,.13.57l-.32,0a50.76,50.76,0,0,0,9.64-14.38,47.35,47.35,0,0,0,2.74-8.18c.34-1.42.62-2.82.85-4.3a9.93,9.93,0,0,1,1.49-4.26,13,13,0,0,0-.41,4.34c0,.74,0,1.5,0,2.26s-.1,1.51-.17,2.27a31.24,31.24,0,0,1-2.38,8.78,31.9,31.9,0,0,1-4.72,7.79,29.44,29.44,0,0,1-6.72,6l-.2.13-.12-.15a.78.78,0,0,1-.17-.53.94.94,0,0,1,.16-.47A.74.74,0,0,1,727.72,256.89Z"/><path class="cls-4" d="M802.86,267a12.8,12.8,0,0,1-4.45-3.33,26.67,26.67,0,0,1-3.21-4.59,63.56,63.56,0,0,1-4.62-10.06,62,62,0,0,1-2.78-10.71,51.34,51.34,0,0,1-.75-11c.8,3.59,1.56,7.13,2.5,10.62s2,6.93,3.2,10.32,2.55,6.73,4,10S800,264.74,802.86,267Z"/><path class="cls-4" d="M651,278.83c2.9-2.31,5.86-4.53,8.82-6.76s5.93-4.43,9-6.54a92.44,92.44,0,0,1,9.52-5.92,47.46,47.46,0,0,1,10.57-4.09,58,58,0,0,1,11.22-1.29c3.73-.07,7.42-.11,11.13,0,7.42.12,14.83.5,22.2,1.29-7.41.17-14.8.29-22.18.51-3.69.13-7.39.21-11.06.41a57.48,57.48,0,0,0-10.78,1.35,46.79,46.79,0,0,0-10.11,3.79c-3.27,1.61-6.39,3.53-9.52,5.47l-9.34,6C657.36,275,654.23,276.94,651,278.83Z"/><path class="cls-4" d="M715,271.89c-.8-.29-1.58-.62-2.36-.94l-1.28-.53,1.47-.17c2.59-.29,5.18-.45,7.77-.51s5.18,0,7.77.06,5.17.29,7.75.58a70.17,70.17,0,0,1,7.7,1.26c-2.6.3-5.19.39-7.78.47s-5.17,0-7.75,0-5.15-.18-7.73-.35-5.16-.4-7.74-.74l.19-.7C713.72,270.82,714.39,271.34,715,271.89Z"/><path class="cls-4" d="M750.61,275.4a15.83,15.83,0,0,0,6.56,3.29,29.33,29.33,0,0,0,7.22.9,34.14,34.14,0,0,0,3.64-.19c1.21-.13,2.42-.34,3.62-.59s2.4-.6,3.59-1,2.35-.87,3.56-1.35a17.85,17.85,0,0,1-3.09,2.37,21.84,21.84,0,0,1-3.55,1.7,22.32,22.32,0,0,1-7.78,1.35,21.23,21.23,0,0,1-7.79-1.49,14.51,14.51,0,0,1-3.45-2A9.67,9.67,0,0,1,750.61,275.4Z"/><path class="cls-4" d="M786.47,274.84a30.54,30.54,0,0,1,4.1-.29c1.34,0,2.66,0,4,0s2.63.11,4,.22a31.48,31.48,0,0,1,4.08.57,14.48,14.48,0,0,1-4,1.24,20.3,20.3,0,0,1-4.12.27,21.05,21.05,0,0,1-4.1-.55A14.63,14.63,0,0,1,786.47,274.84Z"/><path class="cls-4" d="M797.08,261.06c3.59.84,7.19,1.6,10.81,2.21s7.26,1.1,10.9,1.59l11,1.36q5.49.69,11,1.58c3.65.62,7.29,1.37,10.89,2.27l2.7.72c.89.26,1.78.52,2.67.81s1.76.57,2.64.86,1.75.62,2.62,1a136.4,136.4,0,0,1,20,9.51c-6.83-2.81-13.64-5.57-20.61-7.81-3.49-1.1-7-2.14-10.55-2.92s-7.14-1.55-10.76-2.12-7.25-1.16-10.89-1.7-7.29-1.09-10.92-1.74-7.27-1.38-10.86-2.26A96.79,96.79,0,0,1,797.08,261.06Z"/><path class="cls-4" d="M873.86,288.69a138,138,0,0,1,23-5.05c2-.23,3.92-.47,5.88-.67l5.9-.46,5.92-.22h5.92l5.92.22,5.9.43,5.88.66q2.92.42,5.85.89a137.79,137.79,0,0,1,22.85,5.86c-7.67-1.7-15.37-3.11-23.11-4.09-1.95-.2-3.88-.42-5.82-.65l-5.83-.5-5.84-.35-5.84-.17-5.85,0-5.85.14-5.84.29c-1.94.17-3.89.31-5.83.45C889.33,286.13,881.58,287.26,873.86,288.69Z"/><path class="cls-4" d="M964.77,287.3c10.32-10.34,21.08-20.24,32.13-29.8,1.37-1.21,2.78-2.38,4.17-3.56l4.2-3.53c2.84-2.29,5.65-4.62,8.52-6.89s5.73-4.55,8.65-6.75l4.35-3.32,4.41-3.27c5.86-4.37,11.84-8.57,17.86-12.74,3-2,6-4.11,9.11-6.1s6.12-4,9.24-5.92l4.65-2.91,4.69-2.84c3.12-1.9,6.25-3.79,9.46-5.58q2.4-1.35,4.87-2.61c1.64-.84,3.33-1.57,5-2.34.84-.4,1.7-.72,2.55-1.07s1.71-.69,2.58-1l2.6-.93,1.31-.46,1.32-.41a147,147,0,0,1,21.48-5c7.25-1.17,14.55-1.9,21.84-2.49,3.65-.3,7.29-.55,10.93-.81a18.58,18.58,0,0,1,2.9,0,7.14,7.14,0,0,1,3.09.88A4.42,4.42,0,0,1,1168,179a1.33,1.33,0,0,1,.14.2,1.29,1.29,0,0,1,.17.33,1.89,1.89,0,0,1,.14.78,2.27,2.27,0,0,1-.41,1.2,5.28,5.28,0,0,1-1.25,1.22,10.89,10.89,0,0,1-1.29.79,14.26,14.26,0,0,1-2.73,1.13c-.89.25-1.78.5-2.67.73-1.79.46-3.58.88-5.39,1.24a101,101,0,0,1-11,1.61c-3.66.33-7.31.51-10.9.87a51.52,51.52,0,0,0-10.54,2,27.46,27.46,0,0,0-9.29,4.91c-.33.28-.66.56-1,.87s-.62.61-.91.94l-.93,1c-.31.35-.64.68-1,1-1.3,1.33-2.66,2.55-4,3.81-.65.63-1.28,1.27-1.87,1.92a3,3,0,0,0-.59.85,1,1,0,0,0,0,.69,2.85,2.85,0,0,0,1.63,1.2,6.46,6.46,0,0,0,1.15.29c.44,0,.88.11,1.32.14a80.63,80.63,0,0,0,10.83-.31,29.72,29.72,0,0,1,11.1,1.08,14.29,14.29,0,0,1,5,2.85,7.54,7.54,0,0,1,1.73,2.42,4.49,4.49,0,0,1,.21,3.11l-.1.32-.31.08a13.92,13.92,0,0,1-3.79.47,23.93,23.93,0,0,1-3.71-.41c-2.43-.45-4.77-1.09-7.14-1.43a18.31,18.31,0,0,0-3.54-.17,12.41,12.41,0,0,0-3.45.72,43.15,43.15,0,0,0-6.49,3.16,33.43,33.43,0,0,1-6.68,3.07,26.47,26.47,0,0,1-14.52-.19,30,30,0,0,1-3.43-1.27,11.45,11.45,0,0,0-3.48-1,11.69,11.69,0,0,1,3.52.94,30.29,30.29,0,0,0,3.44,1.17,26.83,26.83,0,0,0,7.18.91,25.64,25.64,0,0,0,7.14-1,33.22,33.22,0,0,0,6.49-3.15,44.4,44.4,0,0,1,6.55-3.36,13.73,13.73,0,0,1,3.66-.84,19.47,19.47,0,0,1,3.74.11c2.46.3,4.83.9,7.2,1.29a23.54,23.54,0,0,0,3.54.33,13.13,13.13,0,0,0,3.43-.45l-.42.4a3.24,3.24,0,0,0-.2-2.24,6.47,6.47,0,0,0-1.46-2,6.38,6.38,0,0,0-1-.78,11.36,11.36,0,0,0-1.11-.68,13.77,13.77,0,0,0-2.4-1,28.18,28.18,0,0,0-10.58-.89,78.94,78.94,0,0,1-11,.45c-.47,0-.93-.08-1.41-.13a7.8,7.8,0,0,1-1.5-.36,6.28,6.28,0,0,1-1.42-.71,3.41,3.41,0,0,1-1.18-1.35,2.64,2.64,0,0,1-.1-2,4.3,4.3,0,0,1,.91-1.43c.62-.71,1.27-1.38,1.92-2,1.31-1.31,2.65-2.54,3.89-3.83.31-.32.62-.65.91-1l.91-1a13.85,13.85,0,0,1,1-1c.33-.34.69-.65,1-1a23.57,23.57,0,0,1,4.71-3.17,32.28,32.28,0,0,1,5.2-2.17,53.82,53.82,0,0,1,10.94-2.12c3.67-.39,7.32-.57,10.92-.92a101.32,101.32,0,0,0,10.71-1.61q2.65-.56,5.28-1.24c.87-.23,1.74-.48,2.61-.73a11.56,11.56,0,0,0,2.31-1,8.73,8.73,0,0,0,1-.64,3.19,3.19,0,0,0,.72-.67c.06-.09.06-.14,0-.07a.21.21,0,0,0,0,.11s0,0,0,0l-.06-.07a2.23,2.23,0,0,0-.7-.63,5.12,5.12,0,0,0-2.15-.57,16,16,0,0,0-2.57.06c-3.64.27-7.27.54-10.9.85-7.26.61-14.5,1.39-21.68,2.5a143.85,143.85,0,0,0-21.17,4.8l-1.3.4-1.28.44-2.56.9c-.85.31-1.68.66-2.52,1s-1.69.64-2.51,1c-1.64.74-3.3,1.45-4.91,2.27s-3.22,1.66-4.8,2.54c-3.17,1.76-6.31,3.63-9.43,5.51l-4.68,2.82-4.65,2.88c-3.11,1.9-6.16,3.9-9.23,5.86l-9.15,6c-6,4.07-12.06,8.2-18,12.48A655.67,655.67,0,0,0,964.77,287.3Z"/><path class="cls-4" d="M995.68,325a30.89,30.89,0,0,0,6.86-4.61,82.66,82.66,0,0,0,5.93-5.77c3.87-3.95,7.53-8.1,11.09-12.32,1.79-2.11,3.51-4.27,5.25-6.41s3.42-4.35,5.07-6.57,3.31-4.43,4.95-6.65,3.23-4.49,4.81-6.76c3.2-4.52,6.33-9.08,9.45-13.67s6.23-9.17,9.4-13.72a159.18,159.18,0,0,1,10-13.4,51.21,51.21,0,0,1,12.53-11,57.06,57.06,0,0,0-11.65,11.68c-3.38,4.36-6.33,9-9.35,13.68s-6,9.31-9.08,14-6.19,9.22-9.38,13.77a286.15,286.15,0,0,1-20.61,26.24c-.92,1-1.85,2.08-2.81,3.09s-1.89,2-2.87,3l-3,2.95c-1,1-2,1.92-3,2.88a76.86,76.86,0,0,1-6.33,5.47A28.91,28.91,0,0,1,995.68,325Z"/><path class="cls-4" d="M727.79,163.06c2.53-1.1,5.08-2,7.64-2.91s5.13-1.73,7.7-2.55,5.16-1.6,7.76-2.35,5.22-1.47,7.92-2A55.81,55.81,0,0,1,751.5,157c-2.51,1.08-5.07,2-7.67,2.85s-5.25,1.52-7.92,2.09A58,58,0,0,1,727.79,163.06Z"/><path class="cls-4" d="M769.56,152.87a10.65,10.65,0,0,1,3.86-.48,20.68,20.68,0,0,1,3.86.59c2.52.62,4.86,1.48,7.22,2.05s4.83,1.05,7.3,1.58a64.69,64.69,0,0,1,7.37,2,64.59,64.59,0,0,1-7.63-.18,46.26,46.26,0,0,1-7.59-1.14,56.2,56.2,0,0,1-7.21-2.56A23,23,0,0,0,769.56,152.87Z"/><path class="cls-4" d="M735.8,169.75c1.4-.26,2.74-.37,4.07-.49s2.64-.19,4-.26,2.61-.15,3.94-.2a40.36,40.36,0,0,1,4.11,0,12.83,12.83,0,0,1-3.81,1.77,18.53,18.53,0,0,1-4.11.71,19.43,19.43,0,0,1-4.17-.23A13.32,13.32,0,0,1,735.8,169.75Z"/><path class="cls-4" d="M773,169c1.5-.05,2.92,0,4.32.06l4.15.16,4.16.13c1.4,0,2.81.09,4.31.25a13.12,13.12,0,0,1-4.15,1.55,18.54,18.54,0,0,1-8.76-.31A13.6,13.6,0,0,1,773,169Z"/><path class="cls-4" d="M753.72,209.66a6.23,6.23,0,0,1,1.3-3.19,6.54,6.54,0,0,1,3.09-2.17,7.73,7.73,0,0,1,3.9-.09,20.73,20.73,0,0,1,3.17,1,17.39,17.39,0,0,0,5.17,1.4,8.35,8.35,0,0,0,5.34-1.58,5.68,5.68,0,0,1-1.71,3,7.19,7.19,0,0,1-3.27,1.73,11.76,11.76,0,0,1-7-.8c-2-.79-3.55-1.58-5-1.58a5.93,5.93,0,0,0-2.44.58A12.25,12.25,0,0,0,753.72,209.66Z"/><path class="cls-4" d="M758.44,192.75a2.4,2.4,0,0,1,1.31-.83,2.84,2.84,0,0,1,1.36,0,2.72,2.72,0,0,1,1.19.67A2.41,2.41,0,0,1,763,194a5.08,5.08,0,0,1-1.43.29,3.45,3.45,0,0,1-1.08-.11,3.76,3.76,0,0,1-1-.45A4.92,4.92,0,0,1,758.44,192.75Z"/><path class="cls-4" d="M769.4,194.24a2,2,0,0,1-.19-1.51,2.39,2.39,0,0,1,.75-1.16,2.33,2.33,0,0,1,1.26-.55,1.88,1.88,0,0,1,1.46.42,9.28,9.28,0,0,1-.63,1.19,3,3,0,0,1-.6.69,3.24,3.24,0,0,1-.78.48A8.93,8.93,0,0,1,769.4,194.24Z"/><path class="cls-4" d="M743.09,172.82a8,8,0,0,1,1.47-2.93,1.74,1.74,0,0,1,2.94,0,8,8,0,0,1,1.47,2.94,8,8,0,0,1-1.47,2.94,2,2,0,0,1-1.47.8,2,2,0,0,1-1.47-.81A8,8,0,0,1,743.09,172.82Z"/><path class="cls-4" d="M778.93,172.82a5.82,5.82,0,0,1,1.49-2.26,2.25,2.25,0,0,1,1.49-.63,2.18,2.18,0,0,1,1.48.62,5.87,5.87,0,0,1,1.49,2.27,5.79,5.79,0,0,1-1.49,2.27,2.18,2.18,0,0,1-1.48.62,2.25,2.25,0,0,1-1.49-.63A5.74,5.74,0,0,1,778.93,172.82Z"/><path class="cls-4" d="M658.09,270.09a135.29,135.29,0,0,0-24.31,7.78c-3.91,1.67-7.76,3.46-11.53,5.43s-7.49,4-11.12,6.22-7.25,4.46-10.79,6.82-7.05,4.79-10.54,7.24c-7,4.92-13.85,10-20.86,14.92,6.42-5.66,13-11.15,19.79-16.37,3.39-2.63,6.87-5.14,10.39-7.6s7.14-4.76,10.82-7,7.47-4.28,11.33-6.18,7.8-3.65,11.84-5.15A99.65,99.65,0,0,1,658.09,270.09Z"/><path class="cls-4" d="M513.39,352l-4.17,3.23-4.19,3.2-8.37,6.41q-8.37,6.39-16.7,12.84c-5.52,4.34-11,8.67-16.45,13.13s-10.81,8.93-16.05,13.59c-2.63,2.32-5.25,4.64-7.81,7s-5.12,4.78-7.62,7.22a121.22,121.22,0,0,0-13.7,15.75,67,67,0,0,0-9.45,18.48A48.68,48.68,0,0,0,406.74,463l-.12,1.31-.06,1.3a12.39,12.39,0,0,0,.07,2.59,2.87,2.87,0,0,0,1.25,2.1,2.32,2.32,0,0,0,1.23.33,1.51,1.51,0,0,0,1.14-.52,1.57,1.57,0,0,1-1.14.61,2.49,2.49,0,0,1-1.31-.26,3.14,3.14,0,0,1-1.51-2.19,11.94,11.94,0,0,1-.21-2.66v-1.33l.05-1.32a49.67,49.67,0,0,1,1.67-10.48,65.24,65.24,0,0,1,9.05-19.2,114.76,114.76,0,0,1,13.64-16.26q3.74-3.76,7.63-7.34c2.57-2.41,5.19-4.76,7.82-7.1,5.29-4.65,10.71-9.16,16.2-13.55s11.08-8.69,16.74-12.86,11.37-8.28,17.12-12.33l8.67-6,4.35-3Z"/><path class="cls-4" d="M510,360.88a62.33,62.33,0,0,1,17.59-20.32A116.65,116.65,0,0,1,551,327c4.12-1.84,8.31-3.54,12.53-5.15s8.46-3.14,12.77-4.52a110.26,110.26,0,0,1,26.56-5.42c18.19-1.16,36.08,3.38,54,2.13,8.94-.56,17.63-3,26.21-5.67s17.23-5.55,26.27-6.9a87.58,87.58,0,0,1,13.63-.88,126,126,0,0,1,13.59,1c9,1.1,17.87,2.93,26.72,4.57A200.83,200.83,0,0,0,790,309.69a246.93,246.93,0,0,0,26.93-.24c18-1,36-3.11,54.11-2.79a140.2,140.2,0,0,1,27.07,2.87c1.11.26,2.23.47,3.33.77l3.31.86,3.27,1c1.08.31,2.11.59,3.17.88a55.65,55.65,0,0,0,13.17,1.18c8.91-.1,17.91-1.47,27.1-1l1.72.11c.57,0,1.15.12,1.72.19s1.15.13,1.71.21l1.68.25c2.24.35,4.48.72,6.71,1.17a92.84,92.84,0,0,1,13.19,3.59c8.6,3,16.77,6.85,25.21,9.83,4.21,1.5,8.56,2.77,12.81,4.48a50.45,50.45,0,0,1,12,6.76,50.12,50.12,0,0,1,13.52,15.51c.58,1,1.09,2,1.62,3l1.62,3a196.11,196.11,0,0,0,14.31,22.77,111.05,111.05,0,0,0,8.6,10.29c3.06,3.27,6.26,6.44,9.43,9.66,6.31,6.43,12.61,13.09,17.43,20.89.61,1,1.14,2,1.72,3s1,2,1.54,3.07a67.21,67.21,0,0,1,2.49,6.4L1101,439l.26.81.21.83.82,3.33c.25,1.11.42,2.24.63,3.36l.3,1.68.21,1.69c1.18,9,.95,18.13.65,27.15s-.81,18-.31,27,2.1,17.83,3.75,26.69,3.35,17.76,3.93,26.81a87.82,87.82,0,0,1-.07,13.57,66.49,66.49,0,0,1-.9,6.74c-.23,1.11-.43,2.23-.73,3.32-.14.55-.27,1.1-.42,1.65l-.49,1.63a38.53,38.53,0,0,1-6,12.15,22.9,22.9,0,0,1-4.89,4.74,15.81,15.81,0,0,1-13,2.65,14.38,14.38,0,0,1-3.19-1.18c-.25-.13-.49-.29-.74-.43a4.85,4.85,0,0,1-.71-.47l-.68-.51-.62-.59a11.51,11.51,0,0,1-3.14-5.92,34.55,34.55,0,0,1-.63-6.73,35.06,35.06,0,0,0,.71,6.71,11.49,11.49,0,0,0,3.18,5.82l.62.56.68.5a4.19,4.19,0,0,0,.7.45c.24.14.48.29.73.42a14,14,0,0,0,3.15,1.11,15.53,15.53,0,0,0,12.68-2.73,22.76,22.76,0,0,0,4.75-4.7,37.73,37.73,0,0,0,5.79-12l.47-1.62c.15-.54.27-1.09.41-1.63.28-1.09.46-2.19.69-3.29.37-2.21.68-4.44.83-6.68a88.81,88.81,0,0,0-.06-13.45c-.67-9-2.44-17.81-4.18-26.66-.87-4.42-1.72-8.86-2.42-13.33a129.64,129.64,0,0,1-1.52-13.5c-.55-9.05-.12-18.1.15-27.1s.42-18-.79-26.89l-.21-1.66-.31-1.64c-.21-1.1-.38-2.2-.63-3.29l-.83-3.24-.2-.8-.26-.8-.53-1.58a62.2,62.2,0,0,0-2.45-6.19c-.49-1-1-2-1.51-3s-1.09-1.93-1.69-2.87c-4.73-7.56-11-14.09-17.3-20.46-3.17-3.19-6.38-6.38-9.49-9.68a113.6,113.6,0,0,1-8.76-10.44,198.53,198.53,0,0,1-14.5-23l-1.63-3c-.54-1-1.07-2-1.61-3a48.19,48.19,0,0,0-3.63-5.52,49.52,49.52,0,0,0-9.37-9.32,48.59,48.59,0,0,0-11.51-6.46c-4.12-1.66-8.45-2.91-12.74-4.42-8.58-3-16.76-6.87-25.21-9.78a90.38,90.38,0,0,0-12.9-3.49c-2.19-.43-4.4-.8-6.62-1.14l-1.67-.25-1.64-.19c-.55-.06-1.1-.14-1.65-.18l-1.66-.1c-8.86-.49-17.82.9-26.94,1a57.84,57.84,0,0,1-13.72-1.27c-1.11-.3-2.25-.61-3.34-.93l-3.2-1-3.23-.86c-1.08-.29-2.18-.5-3.26-.75A138.3,138.3,0,0,0,871,308.85c-18-.35-35.9,1.73-54,2.69a248.32,248.32,0,0,1-27.15.18A202,202,0,0,1,763,308.1c-8.88-1.66-17.7-3.48-26.6-4.61a122.39,122.39,0,0,0-13.38-1,85.08,85.08,0,0,0-13.35.78c-8.84,1.27-17.42,4.07-26,6.69-4.32,1.31-8.67,2.59-13.1,3.59a85,85,0,0,1-13.48,2c-18.23,1.13-36.06-3.49-54-2.46a109.24,109.24,0,0,0-26.37,5.13c-4.3,1.32-8.55,2.82-12.77,4.38s-8.42,3.22-12.55,5a116.55,116.55,0,0,0-23.45,13.26A62.1,62.1,0,0,0,510,360.88Z"/><path class="cls-4" d="M406.57,468.86l-5.63,12.55-2.78,6.29L395.44,494c-3.59,8.44-7,17-10,25.61A235.61,235.61,0,0,0,377.9,546a163.27,163.27,0,0,0-3.71,27.09,46.24,46.24,0,0,0,.7,13.43,19.32,19.32,0,0,0,2.5,6,14.88,14.88,0,0,0,4.52,4.52,11.64,11.64,0,0,0,2.87,1.32,9.79,9.79,0,0,0,3.09.39,10.5,10.5,0,0,0,3.08-.54,13.77,13.77,0,0,0,2.87-1.38,24.34,24.34,0,0,0,4.95-4.32,62.25,62.25,0,0,0,4.17-5.32l31.95-44.81c5.4-7.42,11.13-14.8,18.27-20.84a68.16,68.16,0,0,1,11.55-7.82,107.9,107.9,0,0,1,12.61-5.8c4.3-1.69,8.66-3.17,13-4.63s8.74-2.86,13.17-4.12,8.92-2.37,13.47-3.19a111.86,111.86,0,0,1,13.77-1.59,191.07,191.07,0,0,1,27.6.77c9.15.83,18.25,2,27.36,3a241.43,241.43,0,0,0,27.39,1.79,113,113,0,0,0,27.23-3.14,99.69,99.69,0,0,1-13.48,2.74,126.23,126.23,0,0,1-13.74,1,245.24,245.24,0,0,1-27.51-1.27c-9.14-.86-18.25-1.95-27.38-2.67a189.4,189.4,0,0,0-27.36-.45,123.57,123.57,0,0,0-26.8,4.92c-4.39,1.27-8.73,2.69-13.07,4.15s-8.66,3-12.89,4.64c-8.45,3.35-16.65,7.48-23.51,13.35s-12.48,13.11-17.83,20.51l-32.11,44.67a64.4,64.4,0,0,1-4.33,5.49,26.4,26.4,0,0,1-5.41,4.67,15.58,15.58,0,0,1-3.32,1.58,12.6,12.6,0,0,1-3.66.62,11.65,11.65,0,0,1-3.71-.48,14.05,14.05,0,0,1-3.36-1.55,17,17,0,0,1-5.11-5.14,20.84,20.84,0,0,1-2.72-6.64,35.55,35.55,0,0,1-.81-7c0-2.34,0-4.66.22-6.95a164.22,164.22,0,0,1,4.06-27.31,230,230,0,0,1,7.94-26.41c3.15-8.63,6.71-17.1,10.45-25.48l2.85-6.26,2.9-6.24Z"/><path class="cls-4" d="M782,499c-13.83-2.28-27.7-4.48-41.75-5.22-4.53-.22-9.08-.34-13.63-.21-2.27,0-4.54.17-6.81.28-1.13.07-2.26.18-3.39.27l-1.7.15-1.69.2a117.39,117.39,0,0,0-13.43,2.31l-3.3.83c-1.1.28-2.17.64-3.26,1l-1.63.49c-.54.16-1.07.37-1.61.56l-3.2,1.13a113,113,0,0,1,26.49-5.67l1.69-.17,1.69-.12c1.13-.07,2.26-.16,3.38-.21,2.26-.06,4.52-.18,6.78-.15,4.53,0,9,.17,13.56.47,13.86.91,27.56,3.23,41.25,5.64A2.86,2.86,0,0,1,782,499Z"/><path class="cls-4" d="M1071.89,594.09a63.22,63.22,0,0,1-8.54-10.47c-2.54-3.75-4.84-7.65-7.23-11.51s-4.89-7.66-7.49-11.38-5.3-7.38-8.06-11-5.56-7.15-8.51-10.66a26,26,0,0,0-5.16-4.7,18.49,18.49,0,0,0-6.54-2.63c-2.28-.49-4.55-.72-6.79-1l-3.36-.43c-1.12-.14-2.22-.37-3.33-.54A136.87,136.87,0,0,1,981,522.26c-8.45-3.21-16.74-6.89-25.2-10.21a157.26,157.26,0,0,0-26.13-8.11,136.67,136.67,0,0,0-27.29-2.21c-18.25.31-36.24,3.11-54.29,3.75-4.51.2-9,.18-13.52,0-2-.07-4-.18-6-.31a2.19,2.19,0,0,1-1.36,1.52c-.27.13-.55.23-.83.34,2.7.21,5.41.38,8.12.49,4.55.15,9.12.18,13.67,0,18.21-.59,36.2-3.31,54.24-3.54a133.91,133.91,0,0,1,26.84,2.07A154.89,154.89,0,0,1,955,514c8.43,3.27,16.74,6.91,25.26,10.12l3.2,1.19,3.23,1.12c2.14.77,4.34,1.41,6.51,2.08a109,109,0,0,0,13.37,3c2.26.38,4.53.66,6.78.9s4.5.46,6.66.9a16.6,16.6,0,0,1,6,2.34A25.06,25.06,0,0,1,1031,540c5.84,6.86,11.45,14,16.74,21.34q4,5.49,7.68,11.19c2.45,3.81,4.83,7.68,7.45,11.39a63,63,0,0,0,8.82,10.39,31.63,31.63,0,0,0,11.59,7A31.54,31.54,0,0,1,1071.89,594.09Z"/><path class="cls-4" d="M432.47,548.91a.63.63,0,0,1,.16-.71,1.27,1.27,0,0,1,.7-.33,1,1,0,0,1,.76.17,1.75,1.75,0,0,1,.5.61,4.42,4.42,0,0,1,.34,1.52l.12,1.55.46,6.19.93,12.38,1.8,24.77L440,619.84l.87,12.38a60.13,60.13,0,0,0,1.64,12.06,19.8,19.8,0,0,0,2.34,5.39,20.55,20.55,0,0,0,1.69,2.38c.31.38.67.71,1,1.07l.51.53c.17.18.37.32.55.48l1.12,1,1.2.85.6.43.64.37,1.29.75,1.34.66.67.32.69.28,1.39.57,1.42.48a59.2,59.2,0,0,0,11.87,2.48c1,.13,2,.2,3,.31s2,.16,3.06.21c2.06.12,4.12.23,6.17.31q12.34.48,24.7,0,6.17-.26,12.32-.77l12.39-.94,12.4-.93c4.13-.31,8.26-.66,12.4-.85l24.83-1.32,3.1-.16,3.11-.1,6.21-.21L607,657.4l6.21-.21c2.07-.08,4.14-.15,6.21-.17l12.43-.2c16.57-.4,33.15-.23,49.72-.22l24.85.38,6.22.1,6.21.17,12.42.34q49.68,1.51,99.29,4.51c8.27.47,16.53,1,24.79,1.54s16.53,1.05,24.79,1.63l24.78,1.7,24.77,1.8,99.07,7.27c1,.07,2.07.16,3.08.22l1.46,0a14.13,14.13,0,0,0,1.45-.1,19.87,19.87,0,0,0,5.68-1.49,29.16,29.16,0,0,0,5.22-2.93,40.89,40.89,0,0,0,4.67-3.86,55.6,55.6,0,0,0,7.75-9.41q1.67-2.57,3.07-5.3t2.56-5.59c3.14-7.6,5.22-15.64,7.63-23.56s5.25-15.82,9.75-22.81l.1-.15,0,.18-.38,3,.29-3,.08,0c-4.3,7.09-6.87,15-9.08,23s-4.11,16.06-7.12,23.85c-.76,1.94-1.58,3.86-2.49,5.75a61.36,61.36,0,0,1-3,5.5,57.56,57.56,0,0,1-7.82,9.86,44.35,44.35,0,0,1-4.81,4.15,31.46,31.46,0,0,1-5.54,3.23,21.89,21.89,0,0,1-6.24,1.77c-.55,0-1.09.15-1.64.15h-1.65c-1,0-2.07-.11-3.11-.17q-24.79-1.4-49.59-2.88l-49.57-3.08-49.57-3.07c-8.26-.53-16.52-1-24.78-1.47s-16.52-1-24.79-1.37l-24.79-1.32L780.72,664c-4.13-.21-8.26-.35-12.4-.51L755.93,663l-12.4-.47-12.41-.34-12.4-.37-6.2-.19-6.2-.1-24.81-.43c-16.53-.07-33.07-.21-49.61.06l-12.4.12c-2.07,0-4.14.07-6.2.13l-6.2.16-12.4.34-6.2.17-3.1.09-3.09.13-24.78,1.14c-4.13.15-8.26.45-12.38.71l-12.38.8-12.38.81q-6.23.45-12.47.64-12.48.39-25-.3c-2.07-.11-4.15-.25-6.22-.4-1-.07-2.09-.18-3.13-.27s-2.09-.21-3.13-.36a62.53,62.53,0,0,1-12.36-2.78l-1.51-.54-1.48-.62-.73-.32-.72-.36-1.44-.73-1.39-.84-.69-.42-.66-.48-1.31-1L447,655.94a7.82,7.82,0,0,1-.6-.55l-.56-.6c-.37-.4-.76-.79-1.1-1.21a23.53,23.53,0,0,1-1.86-2.7,21.53,21.53,0,0,1-2.49-6,61.37,61.37,0,0,1-1.48-12.53l-.64-12.41L437,595.14l-1.22-24.8-.58-12.41-.3-6.2-.07-1.55a4.26,4.26,0,0,0-.29-1.5,1.55,1.55,0,0,0-.46-.59,1,1,0,0,0-.71-.18,1.27,1.27,0,0,0-.69.3A.64.64,0,0,0,432.47,548.91Z"/><path class="cls-4" d="M455.5,662c1.16,11.17,1.79,22.4,2,33.64.13,5.62.1,11.24,0,16.86,0,2.8-.14,5.66-.22,8.4a3.68,3.68,0,0,0,.24,1.55,1.24,1.24,0,0,0,.35.44,3.19,3.19,0,0,0,.65.38c.53.23,1.25.48,1.87.69s1.29.43,1.93.59a12,12,0,0,0,3.79.47,6.06,6.06,0,0,0,1.72-.37,5.19,5.19,0,0,0,1.47-.87,5.73,5.73,0,0,0,1.11-1.33,8.45,8.45,0,0,0,.73-1.68,17.38,17.38,0,0,0,.62-3.88c.07-1.34.06-2.74.07-4.15l0-4.21c0-2.81.05-5.61.1-8.42.14-11.22.36-22.45.81-33.67.51,11.22.79,22.44,1,33.67.06,2.8.11,5.61.13,8.41l.05,4.21c0,1.4.06,2.8,0,4.27a17.62,17.62,0,0,1-.67,4.42,10,10,0,0,1-.93,2.17,8,8,0,0,1-1.56,1.9,7.89,7.89,0,0,1-2.12,1.28,8.61,8.61,0,0,1-2.37.52,14.4,14.4,0,0,1-4.54-.51c-.72-.19-1.41-.42-2.09-.65s-1.32-.46-2.07-.79a4.93,4.93,0,0,1-1.15-.7,3.46,3.46,0,0,1-.94-1.2,5.49,5.49,0,0,1-.45-2.56l.29-8.43c.19-5.6.27-11.2.35-16.8C455.84,684.48,455.71,673.27,455.5,662Z"/><path class="cls-4" d="M974.51,674.16c.5,11.31.78,22.61,1,33.92l.14,8.47a41.08,41.08,0,0,0,.75,8.22,18.58,18.58,0,0,0,1.24,3.8,13.39,13.39,0,0,0,2.14,3.24,11.63,11.63,0,0,0,3,2.37,8.33,8.33,0,0,0,3.55,1,6.45,6.45,0,0,0,1.77-.18,4.59,4.59,0,0,0,1.54-.69,2.86,2.86,0,0,0,1-1.15,5.44,5.44,0,0,0,.36-1.69l.62-8.44c.45-5.63.86-11.27,1.35-16.9s1-11.27,1.5-16.9l.83-8.45.43-4.22.12-1a3.41,3.41,0,0,1,.22-1.07,1.12,1.12,0,0,1,.33-.45.5.5,0,0,1,.56-.06.61.61,0,0,1,.2.5.41.41,0,0,1-.09.26.21.21,0,0,1-.25,0,.2.2,0,0,0,.24,0,.38.38,0,0,0,.06-.24.54.54,0,0,0-.21-.43.4.4,0,0,0-.43.1.86.86,0,0,0-.25.41,3.4,3.4,0,0,0-.12,1l0,1.06-.15,4.24-.33,8.47c-.26,5.65-.52,11.3-.84,17s-.64,11.29-1,16.93l-.55,8.48a7.33,7.33,0,0,1-.54,2.43,5.21,5.21,0,0,1-1.72,2.07,7.69,7.69,0,0,1-4.72,1.32,10.65,10.65,0,0,1-4.55-1.27,13.8,13.8,0,0,1-3.6-2.88,15.61,15.61,0,0,1-2.49-3.82,20,20,0,0,1-1.35-4.27,43.79,43.79,0,0,1-.64-8.65c0-2.84,0-5.66.09-8.49C973.84,696.78,974.06,685.47,974.51,674.16Z"/><path class="cls-4" d="M649.07,505.2a3.07,3.07,0,0,1-1.18-.37c-.37-.19-.72-.4-1.07-.62-.7-.45-1.36-.95-2.06-1.37l-4.22-2.6a93.91,93.91,0,0,1-8-5.89c-1.28-1.05-2.54-2.13-3.76-3.25-.62-.56-1.22-1.13-1.82-1.7l-.89-.87c-.28-.29-.6-.59-.88-.93-.55-.68-1-1.42-1.42-2.08s-1-1.3-1.46-2l-3-3.93c-1-1.3-2-2.59-3.11-3.78s-2.3-2.31-3.49-3.46a55.52,55.52,0,0,1-6.62-7.5c-2-2.67-3.82-5.43-5.64-8.2a57.25,57.25,0,0,1-4.86-8.79,24.59,24.59,0,0,1-2.07-10,32.51,32.51,0,0,1,.55-5.06c.29-1.65.62-3.27,1-4.89,1.38-6.48,3.13-13,6.34-19a38,38,0,0,1,2.7-4.32l.19-.26c.08-.1.15-.2.23-.29s.3-.35.45-.5c.29-.32.57-.61.81-.89a3.87,3.87,0,0,0,.55-.77,1.39,1.39,0,0,0,.1-.31,2.48,2.48,0,0,0,0-.41c0-.64-.18-1.42-.28-2.35a6,6,0,0,1,0-.74c0-.22,0-.45,0-.67a11.94,11.94,0,0,1,.15-1.34,10.46,10.46,0,0,1,2.19-5,8.7,8.7,0,0,1,4.79-2.86,11.76,11.76,0,0,1,5.44.11,15.55,15.55,0,0,1,4.83,2.23,29.49,29.49,0,0,1,4,3.28c2.39,2.37,4.65,4.79,6.79,7.38a60.31,60.31,0,0,1,5.78,8.27,68.73,68.73,0,0,1,4.22,9.15c1.14,3.14,2.16,6.32,3.07,9.5,1.83,6.37,3.42,12.77,5.81,18.83a52.61,52.61,0,0,0,4.3,8.71c.21.34.4.7.63,1l.7,1c.48.65.91,1.33,1.42,2,1,1.26,2.09,2.47,3.21,3.67,2.25,2.38,4.62,4.73,6.73,7.34a63.73,63.73,0,0,1,10.08,17.23,29.72,29.72,0,0,1,1.43,4.85,17,17,0,0,1,.31,5.09,12.68,12.68,0,0,1-1.49,4.91,13.12,13.12,0,0,1-3.28,3.9,17.76,17.76,0,0,1-9.23,3.8,24.4,24.4,0,0,1-9.87-1.15A50,50,0,0,1,649.07,505.2Zm0,0a49.23,49.23,0,0,0,9.14,3.72,24,24,0,0,0,9.69.89,17.22,17.22,0,0,0,8.75-3.86,11.81,11.81,0,0,0,4.21-8.25,21.45,21.45,0,0,0-1.83-9.37,61.51,61.51,0,0,0-4.4-8.73,62.85,62.85,0,0,0-5.71-7.94c-2.09-2.5-4.45-4.76-6.77-7.15-1.15-1.2-2.3-2.42-3.37-3.73-.54-.65-1-1.35-1.52-2l-.75-1c-.24-.35-.45-.72-.68-1.07a53.32,53.32,0,0,1-4.53-9c-2.51-6.22-4.16-12.66-6-19-.93-3.16-1.92-6.28-3-9.34a67.79,67.79,0,0,0-4.09-8.81,73.35,73.35,0,0,0-12.22-15.11,27.94,27.94,0,0,0-3.64-3,13.18,13.18,0,0,0-4.11-1.93,9.42,9.42,0,0,0-4.38-.11,6.43,6.43,0,0,0-3.57,2.1,8.36,8.36,0,0,0-1.71,3.95,10.36,10.36,0,0,0-.12,1.12c0,.18,0,.37,0,.56s0,.31,0,.5a23.46,23.46,0,0,1,.29,2.57,4.83,4.83,0,0,1-.08.82,3.48,3.48,0,0,1-.29.86,6.34,6.34,0,0,1-.86,1.25c-.3.35-.6.65-.87.94l-.37.42-.16.19-.18.24a37.07,37.07,0,0,0-2.57,4.06c-3.1,5.66-4.87,12-6.28,18.4a58,58,0,0,0-1.56,9.59,22.5,22.5,0,0,0,1.79,9.28,53.7,53.7,0,0,0,4.57,8.59c1.76,2.78,3.54,5.56,5.46,8.21a53.67,53.67,0,0,0,6.35,7.44c1.17,1.16,2.37,2.31,3.49,3.57A48.15,48.15,0,0,1,620.2,479l2.92,4c.47.67,1,1.31,1.44,2s.84,1.43,1.32,2.05a10.62,10.62,0,0,0,.8.88l.85.89,1.76,1.73c1.19,1.14,2.4,2.25,3.65,3.33a97.23,97.23,0,0,0,7.79,6.06l4.12,2.74c.7.46,1.34,1,2,1.44a11.38,11.38,0,0,0,1,.66A3,3,0,0,0,649.07,505.2Z"/><path class="cls-4" d="M637.44,431.66c1.53,2.85,3,5.67,4.6,8.41s3.27,5.41,5.06,8c.89,1.3,1.82,2.57,2.77,3.84s1.93,2.58,2.78,4a17.18,17.18,0,0,1,2.06,4.55,16.56,16.56,0,0,1,.39,2.43,3.71,3.71,0,0,0,.28,1.1,1.24,1.24,0,0,0,.8.76,1.39,1.39,0,0,1-1.1-.58,4.18,4.18,0,0,1-.6-1.12,17.84,17.84,0,0,0-.84-2.21,14.79,14.79,0,0,0-1.12-2c-.42-.64-.86-1.28-1.34-1.89-1-1.22-2-2.42-3-3.66s-2-2.55-2.94-3.89a52.11,52.11,0,0,1-4.77-8.5A43,43,0,0,1,637.44,431.66Z"/><path class="cls-4" d="M810.64,517.71a2.87,2.87,0,0,0,1.16-.4,11.38,11.38,0,0,0,1-.66c.68-.46,1.32-1,2-1.44l4.12-2.74a95.11,95.11,0,0,0,7.79-6.07c1.25-1.07,2.46-2.18,3.65-3.32l1.76-1.73.85-.89a10.62,10.62,0,0,0,.8-.88c.48-.62.86-1.33,1.32-2.05s1-1.37,1.44-2l2.92-4a49.79,49.79,0,0,1,3.11-3.91c1.12-1.26,2.32-2.41,3.49-3.57a54.86,54.86,0,0,0,6.35-7.44c1.92-2.65,3.7-5.43,5.46-8.21a54.56,54.56,0,0,0,4.57-8.59,22.5,22.5,0,0,0,1.79-9.28,57.86,57.86,0,0,0-1.56-9.59c-1.41-6.4-3.18-12.74-6.28-18.4a37.07,37.07,0,0,0-2.57-4.06l-.18-.24-.16-.19c-.11-.14-.24-.28-.37-.42-.27-.29-.57-.6-.87-.94a6.65,6.65,0,0,1-.86-1.25,3.63,3.63,0,0,1-.29-.86,4.83,4.83,0,0,1-.08-.82,23.46,23.46,0,0,1,.29-2.57c0-.19,0-.32,0-.5s0-.38,0-.56a10.36,10.36,0,0,0-.12-1.12,8.36,8.36,0,0,0-1.71-3.95,6.43,6.43,0,0,0-3.57-2.1,9.42,9.42,0,0,0-4.38.11,13.18,13.18,0,0,0-4.11,1.93,27.16,27.16,0,0,0-3.64,3,73.09,73.09,0,0,0-12.22,15.11,65.85,65.85,0,0,0-4.08,8.81c-1.14,3.06-2.13,6.18-3.06,9.33-1.88,6.31-3.53,12.75-6,19a53.32,53.32,0,0,1-4.53,9c-.23.35-.44.72-.68,1.06l-.75,1c-.51.67-1,1.37-1.52,2-1.07,1.31-2.22,2.53-3.37,3.73-2.32,2.38-4.68,4.65-6.77,7.15a63.87,63.87,0,0,0-5.71,7.94,61,61,0,0,0-4.4,8.73,21.42,21.42,0,0,0-1.83,9.37,11.81,11.81,0,0,0,4.21,8.25,17.22,17.22,0,0,0,8.75,3.86,24,24,0,0,0,9.69-.89A48.59,48.59,0,0,0,810.64,517.71Zm0,0a49.31,49.31,0,0,1-9,4.07,24.4,24.4,0,0,1-9.87,1.15,17.84,17.84,0,0,1-9.23-3.8,13.12,13.12,0,0,1-3.28-3.9,12.68,12.68,0,0,1-1.49-4.91,17,17,0,0,1,.31-5.09,29.72,29.72,0,0,1,1.43-4.85,63.73,63.73,0,0,1,10.08-17.23c2.11-2.61,4.48-5,6.73-7.34,1.12-1.2,2.21-2.41,3.21-3.67.51-.63.94-1.31,1.42-2l.7-1c.23-.33.42-.69.63-1a53,53,0,0,0,4.3-8.71c2.39-6.07,4-12.46,5.81-18.83q1.36-4.78,3.07-9.5a68.73,68.73,0,0,1,4.22-9.15,60.31,60.31,0,0,1,5.78-8.27,98.75,98.75,0,0,1,6.79-7.38,30.13,30.13,0,0,1,4-3.28A15.8,15.8,0,0,1,841,400.8a11.76,11.76,0,0,1,5.44-.1,8.68,8.68,0,0,1,4.79,2.85,10.5,10.5,0,0,1,2.19,5,12.38,12.38,0,0,1,.15,1.35c0,.22,0,.45,0,.67a6,6,0,0,1,0,.74c-.1.93-.28,1.71-.28,2.35a2.25,2.25,0,0,0,0,.4,1.31,1.31,0,0,0,.1.32,3.87,3.87,0,0,0,.55.77c.24.28.52.57.81.88s.3.33.45.51.15.19.23.29l.19.26a38,38,0,0,1,2.7,4.32c3.21,6,5,12.53,6.34,19,.34,1.62.67,3.24,1,4.89a32.51,32.51,0,0,1,.55,5.06,24.51,24.51,0,0,1-2.07,10,56.89,56.89,0,0,1-4.86,8.8c-1.82,2.77-3.65,5.52-5.64,8.2a55.52,55.52,0,0,1-6.62,7.5c-1.19,1.15-2.39,2.27-3.49,3.46s-2.11,2.48-3.11,3.78l-3,3.93c-.49.65-1,1.3-1.46,1.95s-.87,1.41-1.42,2.09c-.28.34-.6.64-.88.93l-.89.87c-.6.57-1.2,1.14-1.82,1.7-1.22,1.11-2.48,2.2-3.76,3.25a93.91,93.91,0,0,1-8,5.89l-4.22,2.6c-.7.42-1.36.92-2.06,1.37-.35.22-.7.43-1.07.62A2.9,2.9,0,0,1,810.64,517.71Z"/><path class="cls-4" d="M822.27,444.17a42.93,42.93,0,0,1-3,9.23,52.11,52.11,0,0,1-4.77,8.5c-.91,1.34-1.91,2.64-2.94,3.89s-2.06,2.44-3,3.66c-.49.61-.93,1.25-1.35,1.89a13.69,13.69,0,0,0-1.12,2,17.84,17.84,0,0,0-.84,2.21,4.34,4.34,0,0,1-.6,1.12,1.37,1.37,0,0,1-1.1.57,1.22,1.22,0,0,0,.8-.75,3.71,3.71,0,0,0,.28-1.1A16.56,16.56,0,0,1,805,473a17.18,17.18,0,0,1,2.06-4.55c.85-1.42,1.84-2.71,2.78-4s1.88-2.54,2.77-3.84q2.68-3.9,5.06-8C819.27,449.85,820.74,447,822.27,444.17Z"/><path class="cls-4" d="M1281.34,329.37c-18,1.29-36.15.61-54.18-.51s-36-2.91-54-3.84q-13.51-.72-27-1c-9-.23-18-.31-27-.18a511.54,511.54,0,0,0-53.94,3.46l-1.21.14,0-1.21a110.25,110.25,0,0,1,.33-14.08,107.12,107.12,0,0,1,2.16-13.92l.19-.87.89,0q27.43-.68,54.88-.29l13.72.23,13.71.33,13.71.46,13.71.56q27.41,1.23,54.78,3c18.24,1.23,36.48,2.51,54.7,4-18.25-1-36.5-2-54.76-2.9s-36.52-1.76-54.79-2.36l-13.7-.41-13.7-.35-13.7-.28-13.7-.17q-27.4-.25-54.81.48l1.08-.88a109.94,109.94,0,0,0-2.09,13.63,107.56,107.56,0,0,0-.36,13.79l-1.26-1.07a511.18,511.18,0,0,1,54.18-3.28q13.58-.13,27.14.28c9,.28,18.07.75,27.09,1.31,18,1.15,36,3,54,4.47S1263.29,330.17,1281.34,329.37Z"/><path class="cls-4" d="M1139.26,244.15a25.66,25.66,0,0,1,15.92,8.37,20.59,20.59,0,0,1,4.53,8.18,19.54,19.54,0,0,1,.75,4.68,18.71,18.71,0,0,1-.06,2.37l-.11,1.18-.2,1.16a23.58,23.58,0,0,1-3.56,8.61c-.2.33-.45.63-.68.94s-.46.63-.71.92a19.62,19.62,0,0,1-1.58,1.7,23.3,23.3,0,0,1-3.58,2.92,23.9,23.9,0,0,1-8.53,3.3,30,30,0,0,1-18.06-2.54,23.45,23.45,0,0,1-4-2.47l-.94-.73-.46-.36c-.15-.13-.28-.28-.43-.41l-.85-.83a11,11,0,0,1-.82-.85,21.75,21.75,0,0,1-4.67-8.25,20.45,20.45,0,0,1-.51-9.52,21.55,21.55,0,0,1,3.78-8.7L1116,252c.55-.57,1.13-1.1,1.7-1.65a22.28,22.28,0,0,1,3.8-2.75,28,28,0,0,1,8.67-3.1,30.31,30.31,0,0,1,4.54-.5A28.81,28.81,0,0,1,1139.26,244.15Zm0,.23a24.8,24.8,0,0,0-16.91,4.48,25.17,25.17,0,0,0-6,6.23,20.37,20.37,0,0,0-3.18,7.87,19.21,19.21,0,0,0,4.4,15.9,7.76,7.76,0,0,0,.72.8l.76.77c.12.13.24.26.38.39l.41.34.84.7a23.47,23.47,0,0,0,3.6,2.44,30,30,0,0,0,8.23,3.07,26.24,26.24,0,0,0,8.84.33,20.2,20.2,0,0,0,8.25-3.14,20,20,0,0,0,5.87-6.54,22.57,22.57,0,0,0,2.76-8.24,22.13,22.13,0,0,0-4.15-16.36l-.31-.45-.35-.42-.7-.86-.76-.8a9.69,9.69,0,0,0-.79-.78l-.82-.75c-.27-.25-.58-.47-.86-.7a21,21,0,0,0-10.23-4.28Z"/><path class="cls-4" d="M1110.76,279.67l-.66-1.21-.33-.61-.28-.63-.56-1.26-.46-1.31-.23-.65c-.07-.22-.13-.44-.19-.66l-.36-1.34c-.1-.45-.18-.91-.27-1.36a10.59,10.59,0,0,1-.23-1.37l-.18-1.38c0-.46,0-.92-.08-1.39-.08-.92,0-1.85,0-2.79,0-.46.07-.93.1-1.39s.07-.94.16-1.4c.16-.92.28-1.85.53-2.76a26.46,26.46,0,0,1,13.4-17.49,30.37,30.37,0,0,1,5.2-2.2,31.61,31.61,0,0,1,5.51-1.17,28,28,0,0,1,11.08.86c.23.06.45.11.67.18l.66.24,1.31.48,1.26.6.63.29.61.35,1.21.69c.39.25.76.53,1.15.79.78.51,1.47,1.13,2.2,1.71a32.8,32.8,0,0,1,7,8.66,34.42,34.42,0,0,1,3.76,10.56,32.28,32.28,0,0,1,.41,5.65A29.09,29.09,0,0,1,1163,274a27.56,27.56,0,0,1-4.72,10.36,26.64,26.64,0,0,1-8.62,7.49,27.39,27.39,0,0,1-10.93,3.2,26.94,26.94,0,0,1-5.68-.16,25.28,25.28,0,0,1-5.51-1.31,31.42,31.42,0,0,1-5.1-2.35,36.2,36.2,0,0,1-4.55-3.21,32.1,32.1,0,0,1-3.93-3.89A30.77,30.77,0,0,1,1110.76,279.67Zm.2-.12a28.35,28.35,0,0,0,17,12.59,29.53,29.53,0,0,0,10.54.71,26.12,26.12,0,0,0,10-3.15,25.44,25.44,0,0,0,12.41-16.19,27.73,27.73,0,0,0,.76-5.22,33.69,33.69,0,0,0-.2-5.31,34.76,34.76,0,0,0-3-10.25l-.63-1.19-.32-.6-.35-.57-.71-1.15c-.25-.38-.52-.73-.78-1.1-.5-.75-1.11-1.42-1.68-2.12-.28-.36-.63-.65-.94-1s-.62-.66-1-1a21.49,21.49,0,0,0-2.11-1.7c-.37-.26-.73-.53-1.1-.78l-1.17-.68-.59-.34-.61-.29-1.23-.56-1.28-.45-.63-.22c-.22-.07-.44-.11-.66-.17l-1.31-.32c-.44-.09-.89-.14-1.34-.21a24,24,0,0,0-2.69-.23c-.44,0-.9,0-1.35,0s-.89,0-1.34.07c-.89.11-1.79.17-2.67.36a30.55,30.55,0,0,0-5.16,1.42,32.16,32.16,0,0,0-4.79,2.34,32.79,32.79,0,0,0-4.32,3.07,30.65,30.65,0,0,0-3.65,3.82c-.26.35-.56.67-.8,1l-.74,1.1a10.11,10.11,0,0,0-.7,1.13l-.67,1.14a32.2,32.2,0,0,0-2.07,4.92,28,28,0,0,0-1.32,10.66A24,24,0,0,0,1111,279.55Z"/><path class="cls-4" d="M1107.31,273.17a9.19,9.19,0,0,1-2.79,2.47,8.2,8.2,0,0,1-2.79,1,8,8,0,0,1-3-.12,9,9,0,0,1-3.37-1.58,7.18,7.18,0,0,1,2.5-2.87,7.26,7.26,0,0,1,3-1.13,7.41,7.41,0,0,1,3.19.24A7.25,7.25,0,0,1,1107.31,273.17Z"/><path class="cls-4" d="M1129.67,294.09a9.3,9.3,0,0,1,.94,3.7,7.42,7.42,0,0,1-.45,2.91,7.58,7.58,0,0,1-1.54,2.51,9.31,9.31,0,0,1-3.15,2.19,7.08,7.08,0,0,1-1.51-3.63,7,7,0,0,1,2.2-5.92A7.09,7.09,0,0,1,1129.67,294.09Z"/><path class="cls-4" d="M1166,275.84a1.1,1.1,0,0,0,.42,1,2.09,2.09,0,0,0,1.11.18,8.59,8.59,0,0,0,2.26-.35,13.59,13.59,0,0,0,4-2.1,16.79,16.79,0,0,0,5.4-7.09,19.17,19.17,0,0,0,1.42-8.62,6.08,6.08,0,0,0-1.23-3.63,10.11,10.11,0,0,0-3.43-2.14,24.24,24.24,0,0,0-4.13-1.41c-.71-.17-1.43-.32-2.15-.43a14.89,14.89,0,0,0-2.13-.21,2.32,2.32,0,0,0-1.51.38,1.47,1.47,0,0,0-.38.59,4.8,4.8,0,0,0-.2.95,24.6,24.6,0,0,0,.08,4.44c.06.77.12,1.55.11,2.34v2.3c0,1.53,0,3.07,0,4.6C1165.75,269.71,1165.83,272.78,1166,275.84Zm0,0c-.15-3.06-.37-6.12-.61-9.17-.13-1.53-.28-3.06-.42-4.59l-.22-2.28c-.07-.75-.2-1.49-.34-2.24a24.5,24.5,0,0,1-.54-4.71,6.46,6.46,0,0,1,.17-1.32,3,3,0,0,1,2.09-2.22,5.45,5.45,0,0,1,1.37-.25,17.87,17.87,0,0,1,2.46.1,21.36,21.36,0,0,1,2.38.36,23.64,23.64,0,0,1,4.57,1.47,21.29,21.29,0,0,1,2.17,1.12,7.6,7.6,0,0,1,2,1.72,6.49,6.49,0,0,1,1.19,2.45,10.53,10.53,0,0,1,.31,2.52,19.56,19.56,0,0,1-2.36,9.19,18.93,18.93,0,0,1-6.26,6.85,14.3,14.3,0,0,1-4.19,1.91,9.21,9.21,0,0,1-2.28.31,2.26,2.26,0,0,1-1.12-.2A1.14,1.14,0,0,1,1166,275.84Z"/><path class="cls-4" d="M1123,222.06a11.18,11.18,0,0,1,4.24-1.81,23.24,23.24,0,0,1,4.63-.47c.78,0,1.55,0,2.33,0s1.55,0,2.35.09a7.76,7.76,0,0,1,2.37.58,8.58,8.58,0,0,1,2.07,1.32,16.09,16.09,0,0,1,1.72,1.68c.53.59,1,1.18,1.54,1.81a15.83,15.83,0,0,1,2.47,4.23,9.66,9.66,0,0,1,.54,2.53,5.08,5.08,0,0,1-.07,1.47,2.35,2.35,0,0,1-.45,1,2.21,2.21,0,0,1-.9.66,4.5,4.5,0,0,1-1.52.27l-1.16,0-2.32.09a162.85,162.85,0,0,1-18.61-.51c-.76-.06-1.56-.12-2.35-.26a5.57,5.57,0,0,1-2.33-.87,2.5,2.5,0,0,1-.81-1,2.76,2.76,0,0,1-.16-1.26,7.64,7.64,0,0,1,.66-2.3,18.65,18.65,0,0,1,2.47-3.94A18.46,18.46,0,0,1,1123,222.06Zm0,0a16.29,16.29,0,0,0-3.22,3.31,17.06,17.06,0,0,0-2.24,4,6.26,6.26,0,0,0-.46,2.18,2.4,2.4,0,0,0,.2,1,2,2,0,0,0,.66.71,4.94,4.94,0,0,0,2,.53c.74.05,1.5,0,2.28,0,6.17-.15,12.33-.46,18.5-.63l2.31-.07,1.16,0a3.17,3.17,0,0,0,.77-.08h0s0,0,0-.08a1.31,1.31,0,0,0,.06-.35c0-.15,0-.33,0-.49a7.46,7.46,0,0,0-.32-2,14.82,14.82,0,0,0-1.89-3.91,25.6,25.6,0,0,0-2.73-3.58,7.84,7.84,0,0,0-1.71-1.34,6.46,6.46,0,0,0-2.06-.72c-.74-.14-1.51-.2-2.28-.27s-1.53-.15-2.3-.17a20.92,20.92,0,0,0-4.61.23,12.29,12.29,0,0,0-2.23.62A11.44,11.44,0,0,0,1123,222.06Z"/><path class="cls-4" d="M1149.66,241.14a1.42,1.42,0,0,1,.29-1.22,4.52,4.52,0,0,1,.89-.91,8.92,8.92,0,0,1,2.14-1.24,9.59,9.59,0,0,1,2.44-.61l.63,0a5.49,5.49,0,0,1,.77,0,2.29,2.29,0,0,1,1,.44,3.24,3.24,0,0,1,.63.71,6.11,6.11,0,0,1,.53,5.29,5.33,5.33,0,0,1-3.52,3.46l-.53.13.34-.32c.12-.12.23-.23.36-.34l-.12.48-.19-.2a6.4,6.4,0,0,0,1.84-3.69,5.47,5.47,0,0,0-.64-3.57,1.22,1.22,0,0,0-.12-.15s.06,0,0,0a1.34,1.34,0,0,0-.37,0h-.51a14.38,14.38,0,0,0-4.18.66,4.86,4.86,0,0,0-1,.39A1.43,1.43,0,0,0,1149.66,241.14Z"/><path class="cls-4" d="M1146.68,254.73c-.88,1.43-1.73,2.74-2.62,4.07a37.28,37.28,0,0,1-2.93,3.85,22,22,0,0,1-8.2,5.78l1.08-1.9a41.86,41.86,0,0,1-.17,5.61c-.08.93-.21,1.86-.35,2.79s-.32,1.86-.55,2.81a21.47,21.47,0,0,1-1-2.7c-.27-.91-.51-1.82-.71-2.73-.42-1.82-.72-3.64-1-5.41l-.18-1.21,1.27-.69c1.29-.71,2.55-1.48,3.77-2.29s2.4-1.69,3.58-2.64,2.4-2,3.71-2.91A18.51,18.51,0,0,1,1146.68,254.73Z"/><path class="cls-4" d="M1179.77,236.45a34.29,34.29,0,0,1,5.17-5.61,40,40,0,0,1,6.27-4.5,43.07,43.07,0,0,1,7-3.29,42.41,42.41,0,0,1,7.56-2l5.25-.85-3.41,4.12q-1.37,1.65-2.76,3.27l-.7.81-.31.37c-.06.07,0,.07,0-.08a1.15,1.15,0,0,0,.06-.33,1,1,0,0,0,0-.41,1,1,0,0,0-.33-.52c-.16-.1,0,0,.14,0l.15,0,.25,0,.51.09c.34.06.67.13,1,.18.68.1,1.36.21,2,.28,1.36.19,2.74.29,4.12.38a68.6,68.6,0,0,0,8.36,0c2.8-.16,5.61-.54,8.47-1a33.52,33.52,0,0,1-4,1.74c-.68.27-1.37.47-2.06.7s-1.4.42-2.11.58a45.61,45.61,0,0,1-13.12,1.24c-.74,0-1.47-.11-2.21-.18-.37,0-.74-.08-1.1-.12l-.55-.07-.28,0a3.1,3.1,0,0,1-.38-.07,4.08,4.08,0,0,1-1.79-.82,2.81,2.81,0,0,1-.94-1.38,2.78,2.78,0,0,1-.11-.94,3.11,3.11,0,0,1,.18-.86,3.79,3.79,0,0,1,.58-1l.37-.45.69-.82q1.37-1.65,2.76-3.27l1.84,3.27a54.75,54.75,0,0,0-7,1.54,58.56,58.56,0,0,0-6.83,2.45,63.81,63.81,0,0,0-6.55,3.31C1183.9,233.59,1181.82,235,1179.77,236.45Z"/><path class="cls-4" d="M1186.66,276.06a47.65,47.65,0,0,1,1.32,8.53c0,.71.1,1.42.13,2.12l.05,1a2.76,2.76,0,0,0,.1.7c0,.15.09.19.1.18s0,0,.14.05a5.89,5.89,0,0,0,1.44.34,70.91,70.91,0,0,0,8,.86l2.09.09a8.18,8.18,0,0,1,2.44.42,4.34,4.34,0,0,1,1.19.68,3,3,0,0,1,.79,1.08,2.69,2.69,0,0,1,.26,1.24,1.69,1.69,0,0,1-.48,1.07,1.7,1.7,0,0,0-.69-1.67,2,2,0,0,0-.73-.38,3,3,0,0,0-.77-.09,9,9,0,0,0-1.79.29c-.65.16-1.41.32-2.13.43a27.28,27.28,0,0,1-8.88,0,8.61,8.61,0,0,1-2.62-.79,4.29,4.29,0,0,1-1.47-1.31,4.2,4.2,0,0,1-.68-1.77,7.68,7.68,0,0,1,0-1.41c0-.41.07-.73.11-1.09.07-.71.16-1.41.26-2.12A47.79,47.79,0,0,1,1186.66,276.06Z"/><path class="cls-4" d="M1155.37,300a79,79,0,0,0-3.91,9.39c-1,3.11-2,6.47-1.2,8.62a9.93,9.93,0,0,0,2.48,3.37c.57.6,1.21,1.21,1.82,1.91a13.42,13.42,0,0,1,1.7,2.36,11.58,11.58,0,0,1,1.46,5.51,9.93,9.93,0,0,1-1.38,5.23,13,13,0,0,0-2.73-9,28,28,0,0,0-3.49-3.23,18.08,18.08,0,0,1-2-2,9.89,9.89,0,0,1-1.63-2.78,9.05,9.05,0,0,1-.49-3.25,13.27,13.27,0,0,1,.48-3,23.51,23.51,0,0,1,.94-2.61q.52-1.24,1.17-2.43A25,25,0,0,1,1155.37,300Z"/><path class="cls-4" d="M1153,230a7.48,7.48,0,0,1-2.11-2.72,13.08,13.08,0,0,1-1-3.34,29,29,0,0,1-.41-3.42c-.1-1.12-.16-2.23-.24-3.35s-.13-2.23-.18-3.34l-.08-1.67a6,6,0,0,1,.22-2.24,3.83,3.83,0,0,1,.78-1.33,6.47,6.47,0,0,1,.87-.79l1.34-1c.9-.68,1.79-1.35,2.7-2a195,195,0,0,1,22.69-14.32l-.46,1.8c-.89-1.91-1.85-3.81-2.85-5.7s-2.06-3.76-3.14-5.65a49.23,49.23,0,0,1,4.49,4.75,56,56,0,0,1,3.87,5.29l.65,1-1.12.81c-3.6,2.62-7.24,5.17-10.89,7.71s-7.32,5-11,7.5l-2.77,1.86-1.37.91a4.47,4.47,0,0,0-.41.29c-.07.07-.06,0-.09.09a3,3,0,0,0-.16,1.06l-.09,1.67c-.06,1.12-.15,2.23-.22,3.35s-.17,2.23-.27,3.34-.18,2.18-.19,3.26A10.38,10.38,0,0,0,1153,230Z"/><path class="cls-4" d="M1098.48,256.23a83,83,0,0,1-11.24,1.14c-1.87.08-3.74.11-5.6.1-.93,0-1.86,0-2.8,0s-1.89-.07-2.61,0a5.13,5.13,0,0,0-1,.14,2.86,2.86,0,0,0-.78.32,14.76,14.76,0,0,0-1.93,1.48,39.2,39.2,0,0,1-4.69,3.39,21.72,21.72,0,0,1-5.39,2.39c-.47.14-1,.22-1.44.33a14.67,14.67,0,0,1-1.47.16,11.67,11.67,0,0,1-2.9-.16,24,24,0,0,0,9.36-5.3c1.36-1.16,2.68-2.39,4-3.66a14.72,14.72,0,0,1,2.42-2,6.82,6.82,0,0,1,1.78-.78,9.24,9.24,0,0,1,1.79-.29c.56,0,1.08,0,1.57,0l1.41.07,2.79.19q2.81.22,5.59.55A82.45,82.45,0,0,1,1098.48,256.23Z"/><path class="cls-4" d="M1209,258.83c2.63-.93,5-2,7.69-2.78a17.81,17.81,0,0,1,4.29-.72,8.84,8.84,0,0,1,1.15,0l.58,0,.59.08a9.77,9.77,0,0,1,1.17.25,8.38,8.38,0,0,1,1.14.35,20.15,20.15,0,0,1,3.82,2.09l1.61,1.07,1.63,1c2.21,1.32,4.54,2.47,7.06,3.71a18.5,18.5,0,0,1-8.34-.81,25.15,25.15,0,0,1-3.9-1.67,30.16,30.16,0,0,0-3.31-1.62,11.74,11.74,0,0,0-3.25-.69,30.9,30.9,0,0,0-3.72,0C1214.65,259.28,1211.76,259.57,1209,258.83Z"/></g></svg>