<svg xmlns="http://www.w3.org/2000/svg" viewBox="0 0 1500 750"><defs><style>.cls-1{fill:#a6a8ab;}.cls-2{fill:#d1d3d2;}.cls-3{fill:#a9d8b6;}.cls-4{fill:#111516;}.cls-5{fill:#fff;}.cls-6{fill:#bccad0;}.cls-7{fill:#ced5d8;}.cls-8{fill:#7f8088;}.cls-9{fill:#b9b8c6;}.cls-10{fill:#179bd7;opacity:0.6;}.cls-11,.cls-12{fill:#1d1d1b;}.cls-11{stroke:#1d1d1b;stroke-miterlimit:10;stroke-width:1.42px;}.cls-13,.cls-15{fill:#bbd7bb;}.cls-13{opacity:0.75;}.cls-14{opacity:0.7;}</style></defs><title>Tekengebied 1</title><g id="paratingle"><polyline class="cls-1" points="745.9 425.56 818.62 425.56 818.62 296.76 818.62 296.32 813.81 296.32 813.81 195.76 825.39 195.76 825.39 154.75 865.27 74.55 903.76 154.75 903.76 195.76 914.37 195.76 914.37 296.32 909.56 296.32 909.56 627.41 745.9 627.41 574.82 627.41"/><polyline class="cls-1" points="585.75 323.38 583.58 299.22 578.92 299.22 576.75 323.38 576.75 323.5 574.82 323.5 574.82 355.92 574.82 627.53 651.83 627.53 685.51 627.53 688.68 627.53 688.68 352.99 682.88 331.89 647.05 331.89 645.37 323.5 595.21 323.5 588.76 355.92 588.76 323.5 585.75 323.5"/><circle class="cls-2" cx="863.35" cy="247.17" r="33.04"/><polygon class="cls-1" points="455.26 337.48 452.43 337.48 452.43 359.68 445.62 359.68 445.62 627.41 454.8 627.53 526.94 627.53 560.62 627.53 563.79 627.53 563.79 352.99 555.2 337.02 544.18 337.02 516.4 320.95 487.02 336.11 474.85 336.11 463.87 355.92 463.87 341.08 463.87 337.64 461.84 337.64 461.46 320.95 457.25 320.95 456.18 320.95 455.26 337.48"/><path class="cls-3" d="M747.82,391.54h0C748.71,391.05,747.82,391.54,747.82,391.54Z"/><path class="cls-3" d="M855.79,434.39s-18.17-20.41-36.16-27-66-16.08-66-16.08c6.91,2.15,16.43,7.09,24.23,13.14-10.8-7.84-24.72-12.92-24.72-12.92h-5.24c-1,.6-4.64,2.65-15.65,8.86-7.74,4.37-15.34,15.6-21.76,27.72,6.44-12.53,14-24,21.42-27.63L748,391.27s-61.88,5.27-85.9,28-40.48,41.47-40.48,41.47,22.3-7.53,71.44,8.13l0,.1.25,0,.08,0,0,0c83.12-8.79,119.78,0,119.78,0S796,428.27,788.08,414.83c-.22-.38-.51-.75-.76-1.12.07.1.17.2.24.3C795,424.12,813.16,469,813.16,469c32.36-11.52,69.22-6.92,69.22-6.92Z"/><path class="cls-4" d="M747.82,391.54V368.79a4.31,4.31,0,0,1,5.28,0l.49,22.53Z"/><path class="cls-5" d="M778.72,515.7a3.81,3.81,0,0,1,1.47-1.44,30.78,30.78,0,0,1,9.66-4.08c6-1.5,9,4,11,8,2.74,5.64,3.34,11.26.76,17.12-4.29,9.79-13.09,19-6.74,22.22s10.25,2.83,10.25,2.83c-4,1.77-10.72,4.93-15.08,3.25-8.06-3.11-10.73-12.82-9.24-19.71,1-4.52,3.31-13,1.63-17.5-1.1-2.75-1.88-5.68-3.16-8.37C778.73,516.93,778.47,516.3,778.72,515.7Z"/><path class="cls-6" d="M789.86,526.61s-28.24-61.73-45.11-43.6c0,0-17.1,11.36,1.32,59.84S789.86,526.61,789.86,526.61Z"/><path class="cls-7" d="M738.64,547.2c19.5,55,46.35-18.44,46.35-18.44s-29.89-70-47.75-49.46"/><rect class="cls-5" x="757.01" y="552.46" width="5.24" height="15.5"/><path class="cls-5" d="M745.68,568.38s-10.56,3.9-14.46,42.16-3.53,30.83-3.53,30.83-3.11,8.2-3.11,12.88,0,9.76,3.11,7.41,4.7-16.39,4.7-18.73,9.05-51.39,9.05-51.39Z"/><path class="cls-5" d="M771.83,568.38s11.52,3.9,15.78,42.16,3.84,30.83,3.84,30.83,3.39,8.2,3.39,12.88,0,9.76-3.39,7.41-5.12-16.39-5.12-18.73-9.88-51.39-9.88-51.39Z"/><path class="cls-5" d="M739.08,663.6s-.92,31.23,0,45.67.92,29.66-6.88,31.62-9.76,5.85-9.76,5.85,14.44.39,21.46,0,4.3-9,4.3-13.66,2.34-41.38,4.68-49.57a34.69,34.69,0,0,1,6.75-13V657.74Z"/><path class="cls-5" d="M780.27,663.6s.92,31.23,0,45.67-.92,29.66,6.92,31.62,9.8,5.85,9.8,5.85-14.51.39-21.56,0-4.31-9-4.31-13.66-2.35-41.38-4.71-49.57a34.64,34.64,0,0,0-6.78-13V657.74Z"/><path class="cls-5" d="M747.08,536.69a4,4,0,0,1-1.4-3,4.83,4.83,0,0,1,9.59,0,4,4,0,0,1-1.24,2.86"/><path class="cls-5" d="M754.53,537.88c0,1.63-1.73,3-3.86,3s-3.86-1.32-3.86-3,1.73-2.94,3.86-2.94S754.53,536.26,754.53,537.88Z"/><path class="cls-5" d="M752,533.06a1.53,1.53,0,1,1-1.53-1.39A1.46,1.46,0,0,1,752,533.06Z"/><path class="cls-5" d="M780.18,622.78v20.61h-41.1V622.78c6.85-9.34,1-23.89,1-23.89l5.59-30.51,14-.41,12.2.41,6.48,28.82S773.34,614.41,780.18,622.78Z"/><path class="cls-5" d="M739.08,643s-6.14,16.17-4.73,91.35c0,0,4-3.49,9.1,0s8.77,1.92,13.51,0,7,2.23,12.12,2.07,6-4.95,9.23-3.35,4.55,3.83,6.47,3.36c0,0-1.5-86.34-4.6-93.43"/><path class="cls-5" d="M727.12,583.48a12,12,0,1,0,12-11.57A11.77,11.77,0,0,0,727.12,583.48Z"/><path class="cls-5" d="M766.66,583.48a12,12,0,1,0,12-11.57A11.77,11.77,0,0,0,766.66,583.48Z"/><path class="cls-8" d="M773.4,517.27s-28.76-56.72-45.94-40.06c0,0-17.41,10.45,1.35,55S773.4,517.27,773.4,517.27Z"/><path class="cls-5" d="M782.51,529.43c0,12.85-10.78,23.27-24.08,23.27s-24.08-10.42-24.08-23.27,10.78-23.28,24.08-23.28S782.51,516.57,782.51,529.43Z"/><path class="cls-5" d="M739.39,523.06s4.23-11.5,19.3-12.06,19.61,13.17,19.61,13.17,1.81,5.61,0,17.18-8.84,16.08-9.39,16.43-6,3.55-10.22,3.29-16.2-6.4-19.3-19.19S739.39,523.06,739.39,523.06Z"/><path class="cls-5" d="M765.67,510.08s-28.29,22-30.54,25.05h0c-1,1.31-1.59,5.43-.26,6.59-1-.86-2.38-.09-3.33-1.44-1.39-2-.46-5.44-.39-7.65a46.57,46.57,0,0,1,.89-8.56c1.17-5.34,3.61-10.63,8.22-14.28a18.78,18.78,0,0,1,10.2-3.61C774.26,504.41,764.44,508.76,765.67,510.08Z"/><path class="cls-9" d="M1109.93,351.35s-8-11.68-32.2-10.55a20.68,20.68,0,0,0,1.77-8.88c-.3-11.89-10.64-21.28-23.11-21-.64,0-1.28.08-1.91.14a37.88,37.88,0,0,0,.36-5.86c-.66-26.22-28.16-46.79-61.42-46C966,260,943.29,275,936.49,294.92a56.77,56.77,0,0,0-18.73,14.9A53.18,53.18,0,0,0,907,309c-24.59.62-44.11,17.53-43.6,37.77.43,16.8,14.52,30.58,33.35,34.44h0l.22,0a53.46,53.46,0,0,0,11.91,1.06c.7,0,1.39-.1,2.08-.14,38,2.38,141.17,8,174.7.79C1085.58,382.91,1118.41,378.28,1109.93,351.35Z"/><path class="cls-10" d="M1009.2,378.81s-8.33,33.34-23.59,24.82S999.88,379.43,1009.2,378.81Z"/><path class="cls-10" d="M989.75,344.43s-9,33.18-24.06,24.37S980.42,344.88,989.75,344.43Z"/><path class="cls-10" d="M819,397.94s-8.33,33.34-23.6,24.82S809.72,398.57,819,397.94Z"/><path class="cls-10" d="M874,399.13s-8,33.43-23.3,25.09S864.65,399.86,874,399.13Z"/><path class="cls-10" d="M873.73,343.3s-7.15,33.61-22.7,25.63S864.44,344.25,873.73,343.3Z"/><path class="cls-10" d="M925.85,391.91s-6.7,33.71-22.36,25.94S916.57,393,925.85,391.91Z"/><path class="cls-11" d="M247.76,36.07V19.14a3.2,3.2,0,0,1,3.93,0l.37,16.77Z"/><path class="cls-12" d="M185.92,159.87a5.19,5.19,0,0,1,1.63,4.2,5,5,0,0,1-1.66,4.15,8.21,8.21,0,0,1-5.1,1.31H178v4.58h-2.64v-15.6h5.36C183.11,158.51,184.83,159,185.92,159.87Zm-1.87,6.44a3.45,3.45,0,0,0,.8-2.46,2.52,2.52,0,0,0-1-2.28,5.75,5.75,0,0,0-3.14-.67H178v6.25h3.06A4,4,0,0,0,184.05,166.31Z"/><path class="cls-12" d="M194.24,170.56l-1.56,3.55h-2.81l6.87-15.6h2.82l6.87,15.6h-2.81l-1.56-3.55Zm6.74-2.43-2.83-6.43-2.84,6.43Z"/><path class="cls-12" d="M223.28,163.57q0,3.87-3.37,4.87l4.08,5.67h-3.34l-3.73-5.25h-3.46v5.25h-2.63v-15.6h5.8q3.57,0,5.11,1.2A4.6,4.6,0,0,1,223.28,163.57Zm-3.5,2.21a2.8,2.8,0,0,0,.8-2.22,2.38,2.38,0,0,0-.83-2.1,5.58,5.58,0,0,0-2.94-.56h-3.35v5.58h3.28A4.78,4.78,0,0,0,219.78,165.78Z"/><path class="cls-12" d="M231.52,170.56,230,174.11h-2.81l6.88-15.6h2.81l6.87,15.6h-2.81l-1.56-3.55Zm6.74-2.43-2.84-6.43-2.83,6.43Z"/><path class="cls-12" d="M252.76,160.92v13.19h-2.63V160.92H245.4v-2.41h12.09v2.41Z"/><path class="cls-12" d="M262.58,158.51h2.64v15.6h-2.64Z"/><path class="cls-12" d="M283.47,158.51h2.64v15.6h-2.86l-8.84-11.38v11.38h-2.63v-15.6h2.63l9.06,11.65Z"/><path class="cls-12" d="M303.47,166.52h2.63v5.33a8.05,8.05,0,0,1-6.31,2.44A7.94,7.94,0,0,1,294,172a7.7,7.7,0,0,1-2.34-5.76,7.8,7.8,0,0,1,2.38-5.8,7.92,7.92,0,0,1,5.75-2.32,8.18,8.18,0,0,1,5.6,2l-1.41,2a5.44,5.44,0,0,0-1.84-1.08,6.93,6.93,0,0,0-2.15-.3,5.53,5.53,0,0,0-4,1.53,5.24,5.24,0,0,0-1.61,4,5.25,5.25,0,0,0,5.35,5.51,6.73,6.73,0,0,0,3.71-1Z"/><path class="cls-12" d="M311.8,174.11v-15.6h2.63v13.1h7.12v2.5Z"/><path class="cls-12" d="M337.62,158.51V161h-8.33v4.12h7.48v2.35h-7.48v4.17h8.6v2.48H326.66v-15.6Z"/><path class="cls-13" d="M315.81,57.83c-8.92-8.54-52.67-19.39-65.9-21.84S191.53,52.7,191.53,52.7L155.84,88.14v92.49"/><g class="cls-14"><path class="cls-15" d="M249.91,36.45s-47.57,5.35-61.73,18.91-32.34,32.78-32.34,32.78V183"/><path class="cls-15" d="M346.62,183V88.17S327.83,69,313.2,55.39s-63.77-18.91-63.77-18.91"/></g></g></svg>