<svg xmlns="http://www.w3.org/2000/svg" viewBox="0 0 2000 2000"><defs><style>.cls-1{fill:#c7c9d4;}.cls-2{fill:#3e3d4d;}</style></defs><title>Artboard 2</title><g id="logo_small"><rect class="cls-1" x="1138.3" y="647.6" width="15.82" height="311.98"/><rect class="cls-1" x="1366.19" y="559.29" width="15.82" height="399.56"/><polygon class="cls-1" points="1250.29 879.3 1234.47 879.3 1235.1 662.96 1250.92 662.96 1250.29 879.3"/><path class="cls-2" d="M634.7,898.22h96.2a130.33,130.33,0,0,1,26.17,2.83,128.93,128.93,0,0,1,27.41,9,127.22,127.22,0,0,1,26.17,16.09A107.08,107.08,0,0,1,832.76,950,118.87,118.87,0,0,1,848,982.22q5.67,18.22,5.68,41.21T848,1064.64a118.87,118.87,0,0,1-15.2,32.18,107.08,107.08,0,0,1-22.11,23.88,126.78,126.78,0,0,1-26.17,16.09,128.37,128.37,0,0,1-27.41,9,130.33,130.33,0,0,1-26.17,2.83H634.7Zm29.7,222.83H721a135.13,135.13,0,0,0,40-5.66,85.18,85.18,0,0,0,31.83-17.51Q806.23,1086,814,1067.64t7.78-44.21q0-25.81-7.78-44.21T792.79,949A85.44,85.44,0,0,0,761,931.47a135.46,135.46,0,0,0-40-5.66H664.4Z"/><path class="cls-2" d="M1138.3,1146.2v-35.87h105.33v-5.13L1138.3,967.66V916l111.18,149.47L1382,908.74v52.52L1258.08,1105.2v5.13H1382v35.87Z"/><path class="cls-2" d="M1073.35,961.28a69.15,69.15,0,0,0-26.44-22.59,79.59,79.59,0,0,0-33.28-8.06A83.46,83.46,0,0,0,976.49,938a92.82,92.82,0,0,0-29.65,21.36A101.3,101.3,0,0,0,927,991a108.16,108.16,0,0,0-7.64,37.86,112.18,112.18,0,0,0,5.94,39.53,99.29,99.29,0,0,0,18.24,32.12,89.16,89.16,0,0,0,28.5,22,87.73,87.73,0,0,0,37.17,8.67q22.2.48,39.77-7.84a89.73,89.73,0,0,0,30.9-24.38l21.06,18.52q-16.82,21.48-40.09,31.2t-52.22,9.09a122.75,122.75,0,0,1-48.17-10.6A119.28,119.28,0,0,1,922,1119.85a121.24,121.24,0,0,1-25-40.65q-8.85-23.39-8.26-51a135.64,135.64,0,0,1,10.13-49.58,118.8,118.8,0,0,1,65.74-65.76c15.13-6.26,31.71-9.21,49.64-8.82a128.55,128.55,0,0,1,47,9.91,87,87,0,0,1,37.38,29.8Z"/></g></svg>