<svg id="Layer_1" data-name="Layer 1" xmlns="http://www.w3.org/2000/svg" viewBox="0 0 1400 380"><defs><style>.cls-1{fill:#3e3e4d;}.cls-2{fill:#414141;}.cls-3{fill:#c5c7d2;}</style></defs><title>Artboard 1</title><path class="cls-1" d="M16.93,278.8H51.85a47.12,47.12,0,0,1,9.51,1,46.42,46.42,0,0,1,19.44,9.11,39,39,0,0,1,8,8.67,43.47,43.47,0,0,1,5.52,11.68,55.35,55.35,0,0,1,0,29.92,43.33,43.33,0,0,1-5.52,11.68,38.53,38.53,0,0,1-8,8.67,45.38,45.38,0,0,1-9.5,5.84,46.85,46.85,0,0,1-9.94,3.28,47.8,47.8,0,0,1-9.51,1H16.93Zm10.78,80.89H48.26a49.16,49.16,0,0,0,14.51-2.06,30.8,30.8,0,0,0,11.55-6.35,29.91,29.91,0,0,0,7.7-11,46.93,46.93,0,0,0,0-32.1,29.91,29.91,0,0,0-7.7-11,31.08,31.08,0,0,0-11.55-6.35,49.17,49.17,0,0,0-14.51-2.05H27.71Z"/><path class="cls-1" d="M121.12,278.8h57.14v10H131.91v28.5h43.27v10H131.91v32.36h48.66v10H121.12Z"/><path class="cls-1" d="M1083,277.45H1094v39.87h1.57l42-39.87h15.76l-45.6,42.09,47.82,50.16h-16l-43.91-46.91H1094V369.7H1083Z"/><path class="cls-1" d="M1212.8,369.7a46.74,46.74,0,0,1-18.11-3.41,43.54,43.54,0,0,1-14.26-9.45,42.26,42.26,0,0,1-9.4-14.39,50.63,50.63,0,0,1,0-36.22,42.26,42.26,0,0,1,9.4-14.39,43.22,43.22,0,0,1,14.26-9.45,49.66,49.66,0,0,1,36.22,0,43.27,43.27,0,0,1,14.27,9.45,42.53,42.53,0,0,1,9.39,14.39,50.49,50.49,0,0,1,0,36.22,42.53,42.53,0,0,1-9.39,14.39,43.58,43.58,0,0,1-14.27,9.45A46.74,46.74,0,0,1,1212.8,369.7Zm0-9.51a33.56,33.56,0,0,0,13.84-2.8,32.67,32.67,0,0,0,10.79-7.68,35.25,35.25,0,0,0,7-11.41,40.23,40.23,0,0,0,0-27.92,35.14,35.14,0,0,0-7-11.41,32.67,32.67,0,0,0-10.79-7.68,35.49,35.49,0,0,0-27.68,0,32.71,32.71,0,0,0-10.8,7.68,34.92,34.92,0,0,0-7,11.41,40.08,40.08,0,0,0,0,27.92,35,35,0,0,0,7,11.41,32.71,32.71,0,0,0,10.8,7.68A33.53,33.53,0,0,0,1212.8,360.19Z"/><path class="cls-2" d="M332.86,298.22a25,25,0,0,0-9.73-8A28.9,28.9,0,0,0,311,287.62a30.19,30.19,0,0,0-13.36,3,33.34,33.34,0,0,0-10.54,7.95,36.58,36.58,0,0,0-6.91,11.59,38.94,38.94,0,0,0-2.46,13.74,40.37,40.37,0,0,0,2.46,14.23,35.72,35.72,0,0,0,6.84,11.46,32.29,32.29,0,0,0,10.47,7.71,33.88,33.88,0,0,0,27.8-.31,32.4,32.4,0,0,0,11-9.06l7.76,6.53A35.85,35.85,0,0,1,329.83,366,45.66,45.66,0,0,1,311,369.7a44.48,44.48,0,0,1-17.49-3.44,43.2,43.2,0,0,1-14.11-9.55,44,44,0,0,1-9.38-14.49,51.44,51.44,0,0,1-.12-36.36,43.23,43.23,0,0,1,9.19-14.54A43.44,43.44,0,0,1,311,278a46.24,46.24,0,0,1,17.07,3.21,31.41,31.41,0,0,1,13.74,10.47Z"/><path class="cls-2" d="M371.92,280.23h22.3a106.77,106.77,0,0,1,12.52.74,33.57,33.57,0,0,1,11.14,3.2,20,20,0,0,1,8,7.22q3.09,4.74,3.09,12.87,0,9.62-5.79,15.53t-16,7.51L432,367.49H419.24l-23.66-39.2H382.27v39.2H371.92Zm10.35,38.45h9.24c2.89,0,5.86-.08,8.94-.25a30.4,30.4,0,0,0,8.51-1.6,14.79,14.79,0,0,0,6.41-4.25c1.67-1.93,2.51-4.71,2.51-8.32a13.53,13.53,0,0,0-1.84-7.52,12.55,12.55,0,0,0-4.86-4.37,20.48,20.48,0,0,0-6.78-2,58.13,58.13,0,0,0-7.58-.5H382.27Z"/><path class="cls-2" d="M460.66,280.23h54.85v9.61H471V317.2h41.54v9.61H471v31.06h46.72v9.62H460.66Z"/><path class="cls-2" d="M575.52,280.23h9.75l37.09,87.26H610.28l-8.87-21.44H557.77l-9,21.44H537.07Zm4.69,13.3H580l-18.1,42.9h35.61Z"/><path class="cls-2" d="M694.59,289.84H665.74v77.65H655.38V289.84H626.55v-9.61h68Z"/><path class="cls-2" d="M720.21,280.23h10.35v87.26H720.21Z"/><path class="cls-2" d="M765.69,280.23h54.84v9.61H776V317.2h41.54v9.61H776v31.06h46.71v9.62H765.69Z"/><path class="cls-2" d="M840.24,280.23H852L878.82,352h.24l27.74-71.73h11l-34.13,87.26h-10Z"/><path class="cls-2" d="M940.94,280.23h54.85v9.61H951.3V317.2h41.54v9.61H951.3v31.06H998v9.62H940.94Z"/><rect class="cls-3" x="1287.5" y="12.54" width="6.12" height="292.2"/><rect class="cls-3" x="1376.9" y="12.54" width="6.12" height="288.43"/><rect class="cls-3" x="1322.99" y="12.54" width="6.12" height="256.31"/><path class="cls-1" d="M1287.37,369.7V358.35h41.38v-1.63l-41.38-43.54V296.82l43.68,47.33,52.06-49.63v16.63l-48.68,45.57v1.63h48.68V369.7Z"/></svg>