<svg id="Laag_1" data-name="Laag 1" xmlns="http://www.w3.org/2000/svg" viewBox="0 0 858.33 633.15"><defs><style>.cls-1,.cls-2{fill:#1d1d1b;}.cls-1{stroke:#1d1d1b;stroke-miterlimit:10;stroke-width:2.71px;}.cls-3,.cls-5{fill:#bcd8bc;}.cls-3{opacity:0.75;}.cls-4{opacity:0.7;}</style></defs><title>Tekengebied 1</title><path class="cls-1" d="M420.68,97.15V64.34a6.25,6.25,0,0,1,7.62,0L429,96.83Z"/><path class="cls-2" d="M300.9,337q3.15,2.64,3.15,8.13t-3.22,8q-3.22,2.55-9.88,2.55h-5.36v8.87h-5.1V334.32h10.38Q297.74,334.32,300.9,337Zm-3.61,12.48a6.69,6.69,0,0,0,1.53-4.76q0-3.14-1.94-4.43c-1.3-.86-3.33-1.3-6.1-1.3h-5.19v12.11h5.93Q295.75,351.05,297.29,349.43Z"/><path class="cls-2" d="M317,357.66l-3,6.88h-5.45l13.32-30.22h5.44l13.32,30.22h-5.45l-3-6.88ZM330.08,353l-5.49-12.45L319.1,353Z"/><path class="cls-2" d="M373.27,344.13q0,7.49-6.53,9.43l7.91,11h-6.48L361,354.38h-6.7v10.16h-5.11V334.32h11.25q6.92,0,9.9,2.33C372.27,338.21,373.27,340.7,373.27,344.13Zm-6.79,4.28a5.38,5.38,0,0,0,1.56-4.3c0-2-.54-3.33-1.6-4.06s-3-1.11-5.71-1.11h-6.48v10.81h6.35C363.48,349.75,365.44,349.31,366.48,348.41Z"/><path class="cls-2" d="M389.22,357.66l-3,6.88h-5.45l13.31-30.22h5.45l13.32,30.22h-5.45l-3-6.88ZM402.28,353l-5.49-12.45L391.3,353Z"/><path class="cls-2" d="M430.38,339v25.55h-5.1V339h-9.17v-4.67h23.43V339Z"/><path class="cls-2" d="M449.4,334.32h5.1v30.22h-5.1Z"/><path class="cls-2" d="M489.87,334.32H495v30.22h-5.54l-17.12-22.05v22.05h-5.1V334.32h5.1l17.56,22.57Z"/><path class="cls-2" d="M528.6,349.84h5.11v10.33q-4.29,4.71-12.24,4.71a15.42,15.42,0,0,1-11.22-4.41,16,16,0,0,1,.09-22.39,15.34,15.34,0,0,1,11.13-4.5,15.81,15.81,0,0,1,10.85,3.81l-2.72,3.89a10.57,10.57,0,0,0-3.57-2.1,13.51,13.51,0,0,0-4.17-.58,10.72,10.72,0,0,0-7.7,3A10.64,10.64,0,0,0,521.41,360a13.05,13.05,0,0,0,7.19-1.86Z"/><path class="cls-2" d="M544.73,364.54V334.32h5.1V359.7h13.79v4.84Z"/><path class="cls-2" d="M594.75,334.32v4.8H578.62v8h14.49v4.54H578.62v8.09h16.65v4.8H573.52V334.32Z"/><path class="cls-3" d="M552.51,139.3c-17.28-16.54-102-37.56-127.66-42.31s-113.09,32.37-113.09,32.37L242.63,198V377.16"/><g class="cls-4"><path class="cls-5" d="M424.85,97.87s-92.14,10.38-119.57,36.64S242.63,198,242.63,198V381.7"/><path class="cls-5" d="M612.18,381.76V198.06s-36.39-37.22-64.73-63.49S423.92,97.93,423.92,97.93"/></g><path class="cls-2" d="M132.29,500.85v21.28H128V500.85h-7.63V497h19.51v3.88Z"/><path class="cls-2" d="M149.6,511.76v10.37h-4V495.45h4v11a6.4,6.4,0,0,1,2.61-2.77,7.44,7.44,0,0,1,3.76-1,7.12,7.12,0,0,1,5.24,2,7.72,7.72,0,0,1,2,5.72v11.74h-4V511.62c0-3.53-1.47-5.29-4.39-5.29a5.28,5.28,0,0,0-3.64,1.38A5.18,5.18,0,0,0,149.6,511.76Z"/><path class="cls-2" d="M188.45,514.32h-15a4.38,4.38,0,0,0,1.91,3.36,7.42,7.42,0,0,0,9.51-1l2.3,2.52a10.69,10.69,0,0,1-8.06,3.21,9.62,9.62,0,0,1-6.86-2.68,9.44,9.44,0,0,1-2.83-7.2,9.32,9.32,0,0,1,2.88-7.19,9.69,9.69,0,0,1,6.79-2.66,9.83,9.83,0,0,1,6.64,2.36,8.14,8.14,0,0,1,2.74,6.5Zm-15-3.17h11a4.62,4.62,0,0,0-1.51-3.71,5.54,5.54,0,0,0-3.72-1.29,6.36,6.36,0,0,0-4,1.35A4.34,4.34,0,0,0,173.43,511.15Z"/><path class="cls-2" d="M215.3,522.13h-4.61L204.07,503h4.18L213,517.45,217.75,503h4.18l4.75,14.47L231.43,503h4.18L229,522.13h-4.61L219.84,509Z"/><path class="cls-2" d="M245,511.76v10.37h-4V495.45h4v11a6.4,6.4,0,0,1,2.61-2.77,7.44,7.44,0,0,1,3.76-1,7.12,7.12,0,0,1,5.24,2,7.72,7.72,0,0,1,2,5.72v11.74h-4V511.62c0-3.53-1.47-5.29-4.39-5.29a5.28,5.28,0,0,0-3.64,1.38A5.18,5.18,0,0,0,245,511.76Z"/><path class="cls-2" d="M282,519.56a10.48,10.48,0,0,1-14.39,0,10,10,0,0,1,0-14,10.48,10.48,0,0,1,14.39,0,9.93,9.93,0,0,1,0,14Zm-11.53-2.49a6.24,6.24,0,0,0,8.67,0,6.82,6.82,0,0,0,0-9,6.24,6.24,0,0,0-8.67,0,6.82,6.82,0,0,0,0,9Z"/><path class="cls-2" d="M295.33,522.13h-4V495.42h4Z"/><path class="cls-2" d="M320.78,514.32h-15a4.33,4.33,0,0,0,1.91,3.36,7.41,7.41,0,0,0,9.5-1l2.31,2.52a10.73,10.73,0,0,1-8.07,3.21,9.64,9.64,0,0,1-6.86-2.68,9.47,9.47,0,0,1-2.82-7.2,9.32,9.32,0,0,1,2.88-7.19,9.68,9.68,0,0,1,6.78-2.66,9.81,9.81,0,0,1,6.64,2.36,8.11,8.11,0,0,1,2.74,6.5Zm-15-3.17h11a4.65,4.65,0,0,0-1.51-3.71,5.55,5.55,0,0,0-3.73-1.29,6.38,6.38,0,0,0-4,1.35A4.36,4.36,0,0,0,305.77,511.15Z"/><path class="cls-2" d="M347.64,522.13H343L336.4,503h4.18l4.75,14.47L350.08,503h4.18L359,517.45,363.76,503h4.18l-6.62,19.15h-4.61L352.17,509Z"/><path class="cls-2" d="M389.07,519.56a10.49,10.49,0,0,1-14.4,0,10,10,0,0,1,0-14,10.49,10.49,0,0,1,14.4,0,10,10,0,0,1,0,14Zm-11.54-2.49a6.26,6.26,0,0,0,8.68,0,6.82,6.82,0,0,0,0-9,6.26,6.26,0,0,0-8.68,0,6.82,6.82,0,0,0,0,9Z"/><path class="cls-2" d="M408.37,506.76a5.34,5.34,0,0,0-4.5,1.94,8.29,8.29,0,0,0-1.52,5.22v8.21h-4V503h4v3.85a8.35,8.35,0,0,1,2.65-2.95,6.35,6.35,0,0,1,3.55-1.19l0,4.07Z"/><path class="cls-2" d="M418.45,522.13h-4V495.42h4Z"/><path class="cls-2" d="M427.55,519.68a9.79,9.79,0,0,1-2.7-7.2,9.44,9.44,0,0,1,2.78-7.13,9.21,9.21,0,0,1,6.6-2.66,7.27,7.27,0,0,1,6.18,3.24V495.42h4v26.71h-4v-2.88a7.48,7.48,0,0,1-6.52,3.17A8.62,8.62,0,0,1,427.55,519.68Zm1.34-7a6,6,0,0,0,1.76,4.49,5.74,5.74,0,0,0,4.14,1.72,5.35,5.35,0,0,0,4-1.74,6.24,6.24,0,0,0,1.66-4.48,6.57,6.57,0,0,0-1.66-4.58,5.27,5.27,0,0,0-4.07-1.83,5.52,5.52,0,0,0-4.14,1.83A6.46,6.46,0,0,0,428.89,512.64Z"/><path class="cls-2" d="M472.23,522.42a9.68,9.68,0,0,1-6.88-2.72,10.1,10.1,0,0,1,.13-14.26,10.45,10.45,0,0,1,7.32-2.75,10,10,0,0,1,7.31,3l-2.37,2.91a7.67,7.67,0,0,0-5-2.16,6.28,6.28,0,0,0-4.37,1.68,5.53,5.53,0,0,0-1.86,4.32,6.28,6.28,0,0,0,6.36,6.32,7,7,0,0,0,5.06-2.45l2.37,2.59A11,11,0,0,1,472.23,522.42Z"/><path class="cls-2" d="M501.89,519.56a10.49,10.49,0,0,1-14.4,0,10,10,0,0,1,0-14,10.49,10.49,0,0,1,14.4,0,10,10,0,0,1,0,14Zm-11.54-2.49a6.26,6.26,0,0,0,8.68,0,6.82,6.82,0,0,0,0-9,6.26,6.26,0,0,0-8.68,0,6.82,6.82,0,0,0,0,9Z"/><path class="cls-2" d="M524.54,513.35V503h4v19.15h-4v-3.49a7.3,7.3,0,0,1-6.38,3.78,7.1,7.1,0,0,1-5.23-2,7.69,7.69,0,0,1-2-5.73V503h4v10.51q0,5.29,4.39,5.29A5.3,5.3,0,0,0,523,517.4,5.18,5.18,0,0,0,524.54,513.35Z"/><path class="cls-2" d="M540.23,522.13h-4V495.42h4Z"/><path class="cls-2" d="M549.34,519.68a9.79,9.79,0,0,1-2.7-7.2,9.44,9.44,0,0,1,2.77-7.13,9.23,9.23,0,0,1,6.61-2.66,7.27,7.27,0,0,1,6.17,3.24V495.42h4v26.71h-4v-2.88a7.48,7.48,0,0,1-6.52,3.17A8.59,8.59,0,0,1,549.34,519.68Zm1.33-7a6,6,0,0,0,1.77,4.49,5.7,5.7,0,0,0,4.13,1.72,5.37,5.37,0,0,0,4-1.74,6.27,6.27,0,0,0,1.65-4.48,6.61,6.61,0,0,0-1.65-4.58,5.28,5.28,0,0,0-4.07-1.83,5.49,5.49,0,0,0-4.14,1.83A6.47,6.47,0,0,0,550.67,512.64Z"/><path class="cls-2" d="M595.78,502.69a9.14,9.14,0,0,1,6.59,2.66,9.47,9.47,0,0,1,2.73,7.1,9.82,9.82,0,0,1-2.72,7.2,8.42,8.42,0,0,1-12.83-.4v2.88h-4V495.42h4v10.91A7.16,7.16,0,0,1,595.78,502.69Zm-6.3,9.9a6.26,6.26,0,0,0,1.65,4.48,5.35,5.35,0,0,0,4,1.75,5.75,5.75,0,0,0,4.14-1.73,6,6,0,0,0,1.76-4.48,6.37,6.37,0,0,0-1.73-4.57,5.48,5.48,0,0,0-4.14-1.82,5.27,5.27,0,0,0-4.07,1.82A6.51,6.51,0,0,0,589.48,512.59Z"/><path class="cls-2" d="M629.33,514.32h-15a4.33,4.33,0,0,0,1.91,3.36,7.41,7.41,0,0,0,9.5-1l2.3,2.52a10.69,10.69,0,0,1-8.06,3.21,9.62,9.62,0,0,1-6.86-2.68,9.47,9.47,0,0,1-2.82-7.2,9.29,9.29,0,0,1,2.88-7.19,9.68,9.68,0,0,1,6.78-2.66,9.81,9.81,0,0,1,6.64,2.36,8.11,8.11,0,0,1,2.74,6.5Zm-15-3.17h11a4.65,4.65,0,0,0-1.51-3.71,5.55,5.55,0,0,0-3.73-1.29,6.38,6.38,0,0,0-4,1.35A4.36,4.36,0,0,0,614.32,511.15Z"/><path class="cls-2" d="M664.93,503v16.7q0,5.07-2.75,7.62a10.05,10.05,0,0,1-7.08,2.53,12.45,12.45,0,0,1-7.81-2.7l1.91-3.06a9.33,9.33,0,0,0,5.67,2.13,6.6,6.6,0,0,0,4.54-1.48q1.67-1.47,1.67-4.71v-2.45a6.87,6.87,0,0,1-2.57,2.7,7.19,7.19,0,0,1-3.77,1,8.11,8.11,0,0,1-6.26-2.67,10.18,10.18,0,0,1,0-13.25,8.12,8.12,0,0,1,6.25-2.66,7.39,7.39,0,0,1,6.17,3.13V503ZM650,511.81a6.07,6.07,0,0,0,1.46,4.07,4.89,4.89,0,0,0,3.92,1.71,5.2,5.2,0,0,0,4-1.65,5.86,5.86,0,0,0,1.53-4.13,6,6,0,0,0-1.55-4.17,5.13,5.13,0,0,0-4-1.71,4.82,4.82,0,0,0-3.91,1.76A6.29,6.29,0,0,0,650,511.81Z"/><path class="cls-2" d="M688.58,519.56a10.49,10.49,0,0,1-14.4,0,10,10,0,0,1,0-14,10.49,10.49,0,0,1,14.4,0,10,10,0,0,1,0,14Zm-11.53-2.49a6.24,6.24,0,0,0,8.67,0,6.82,6.82,0,0,0,0-9,6.24,6.24,0,0,0-8.67,0,6.82,6.82,0,0,0,0,9Z"/><path class="cls-2" d="M701.87,511.76v10.37h-4V503h4v3.49a7.52,7.52,0,0,1,11.61-1.8,7.72,7.72,0,0,1,2,5.72v11.74h-4V511.62q0-5.3-4.39-5.29a5.27,5.27,0,0,0-3.63,1.38A5.15,5.15,0,0,0,701.87,511.76Z"/><path class="cls-2" d="M740.71,514.32h-15a4.36,4.36,0,0,0,1.91,3.36,7.41,7.41,0,0,0,9.5-1l2.31,2.52a10.73,10.73,0,0,1-8.07,3.21,9.64,9.64,0,0,1-6.86-2.68,9.47,9.47,0,0,1-2.82-7.2,9.32,9.32,0,0,1,2.88-7.19,9.68,9.68,0,0,1,6.78-2.66,9.86,9.86,0,0,1,6.65,2.36,8.14,8.14,0,0,1,2.73,6.5Zm-15-3.17h11a4.62,4.62,0,0,0-1.51-3.71,5.55,5.55,0,0,0-3.73-1.29,6.4,6.4,0,0,0-4,1.35A4.36,4.36,0,0,0,725.7,511.15Z"/><path class="cls-2" d="M133.8,567.13h-11V542h9.79a14.13,14.13,0,0,1,4.42.61,6.13,6.13,0,0,1,2.75,1.65,6.46,6.46,0,0,1,1.73,4.4,5.2,5.2,0,0,1-1.88,4.39,9.5,9.5,0,0,1-.93.63l-.9.41a6.64,6.64,0,0,1,3.73,2.11,5.88,5.88,0,0,1,1.38,4,6.75,6.75,0,0,1-1.8,4.64Q138.94,567.13,133.8,567.13ZM127,552.41h5.4q4.6,0,4.61-3.14a2.94,2.94,0,0,0-1.12-2.59,6,6,0,0,0-3.45-.79H127Zm0,10.8h6.66a7.08,7.08,0,0,0,3.58-.74,3,3,0,0,0,1.24-2.79c0-2.23-1.78-3.35-5.36-3.35H127Z"/><path class="cls-2" d="M162.81,558.35V548h4v19.15h-4v-3.49a7.52,7.52,0,0,1-11.61,1.8,7.72,7.72,0,0,1-2-5.73V548h4v10.51q0,5.29,4.39,5.29a5.32,5.32,0,0,0,3.64-1.38A5.17,5.17,0,0,0,162.81,558.35Z"/><path class="cls-2" d="M179.45,551.22v9.72a3.17,3.17,0,0,0,.72,2.18,2.55,2.55,0,0,0,2,.81,3.45,3.45,0,0,0,2.49-1.26l1.65,2.84a6.87,6.87,0,0,1-4.7,1.91,6.08,6.08,0,0,1-4.39-1.78,6.44,6.44,0,0,1-1.82-4.81v-9.61H173V548h2.41v-6h4v6h5v3.24Z"/><path class="cls-2" d="M218.51,567.13h-3.68v-2.56a7.85,7.85,0,0,1-6.37,2.85,7.36,7.36,0,0,1-5-1.69,5.67,5.67,0,0,1-2-4.52,4.75,4.75,0,0,1,2.09-4.23,10,10,0,0,1,5.65-1.41h5.22v-.72q0-3.81-4.25-3.81a10,10,0,0,0-5.54,1.94l-1.8-2.52a12.39,12.39,0,0,1,7.92-2.77,8.56,8.56,0,0,1,5.52,1.71q2.14,1.71,2.15,5.38Zm-4-7.13v-1.62h-4.53q-4.37,0-4.36,2.74a2.43,2.43,0,0,0,1.08,2.14,5.29,5.29,0,0,0,3,.74,5.45,5.45,0,0,0,3.36-1.08A3.46,3.46,0,0,0,214.47,560Z"/><path class="cls-2" d="M230.67,551.22v9.72a3.17,3.17,0,0,0,.72,2.18,2.57,2.57,0,0,0,2,.81,3.43,3.43,0,0,0,2.48-1.26l1.66,2.84a6.89,6.89,0,0,1-4.7,1.91,6.08,6.08,0,0,1-4.39-1.78,6.44,6.44,0,0,1-1.82-4.81v-9.61h-2.41V548h2.41v-6h4v6h5v3.24Z"/><path class="cls-2" d="M246.59,567.13h-4V540.42h4Z"/><path class="cls-2" d="M272,559.32H257a4.38,4.38,0,0,0,1.91,3.36,7.42,7.42,0,0,0,9.51-1l2.3,2.52a10.69,10.69,0,0,1-8.06,3.21,9.62,9.62,0,0,1-6.86-2.68,9.44,9.44,0,0,1-2.83-7.2,9.32,9.32,0,0,1,2.88-7.19,9.69,9.69,0,0,1,6.79-2.66,9.83,9.83,0,0,1,6.64,2.36,8.14,8.14,0,0,1,2.74,6.5Zm-15-3.17h11a4.62,4.62,0,0,0-1.51-3.71,5.54,5.54,0,0,0-3.72-1.29,6.36,6.36,0,0,0-4,1.35A4.34,4.34,0,0,0,257,556.15Z"/><path class="cls-2" d="M293.78,567.13h-3.67v-2.56a7.87,7.87,0,0,1-6.37,2.85,7.34,7.34,0,0,1-4.95-1.69,5.68,5.68,0,0,1-2-4.52,4.75,4.75,0,0,1,2.09-4.23,10,10,0,0,1,5.66-1.41h5.21v-.72q0-3.81-4.24-3.81A10,10,0,0,0,280,553l-1.8-2.52a12.39,12.39,0,0,1,7.92-2.77,8.59,8.59,0,0,1,5.53,1.71q2.14,1.71,2.14,5.38Zm-4-7.13v-1.62h-4.54q-4.35,0-4.35,2.74a2.43,2.43,0,0,0,1.08,2.14,5.28,5.28,0,0,0,3,.74,5.45,5.45,0,0,0,3.37-1.08A3.46,3.46,0,0,0,289.75,560Z"/><path class="cls-2" d="M314.84,561.41a5.38,5.38,0,0,1-2,4.37,7.71,7.71,0,0,1-5.08,1.64,13.41,13.41,0,0,1-4.33-.76,13,13,0,0,1-4-2.12l1.94-3.13a10.9,10.9,0,0,0,6.48,2.52,3.37,3.37,0,0,0,2.16-.63,2,2,0,0,0,.8-1.61c0-1-1.28-1.82-3.82-2.59l-.43-.14q-6-1.62-6-5.4a5.13,5.13,0,0,1,2.07-4.27,8.54,8.54,0,0,1,5.38-1.6,11.26,11.26,0,0,1,6.27,1.94l-1.52,3a9,9,0,0,0-5.07-1.55,4.61,4.61,0,0,0-2.34.53,1.69,1.69,0,0,0-.9,1.56,1.42,1.42,0,0,0,.94,1.37,8.56,8.56,0,0,0,1.81.61c.78.19,1.47.39,2.07.58s1.18.41,1.75.65a11.65,11.65,0,0,1,1.82,1A4.53,4.53,0,0,1,314.84,561.41Z"/><path class="cls-2" d="M326.18,551.22v9.72a3.17,3.17,0,0,0,.72,2.18,2.56,2.56,0,0,0,2,.81,3.43,3.43,0,0,0,2.48-1.26l1.66,2.84a6.91,6.91,0,0,1-4.7,1.91,6.06,6.06,0,0,1-4.39-1.78,6.4,6.4,0,0,1-1.82-4.81v-9.61h-2.41V548h2.41v-6h4v6h5v3.24Z"/><path class="cls-2" d="M350.3,542h4.25v25.16H350.3Z"/><path class="cls-2" d="M362.47,546a1.85,1.85,0,0,1-1-1.71,2.35,2.35,0,0,1,.64-1.76,2.26,2.26,0,0,1,1.62-.63,2.32,2.32,0,0,1,1.64.61,2.06,2.06,0,0,1,.67,1.6,3.36,3.36,0,0,1-.65,1.93l-2.12,3.06h-2.2Z"/><path class="cls-2" d="M376.4,567.13h-4V540.42h4Z"/><path class="cls-2" d="M388.06,567.13h-4V540.42h4Z"/><path class="cls-2" d="M425.07,548v16.7q0,5.07-2.76,7.62a10,10,0,0,1-7.07,2.53,12.45,12.45,0,0,1-7.81-2.7l1.91-3.06A9.33,9.33,0,0,0,415,571.2a6.57,6.57,0,0,0,4.53-1.48q1.68-1.47,1.68-4.71v-2.45a6.83,6.83,0,0,1-2.58,2.7,7.15,7.15,0,0,1-3.76,1,8.11,8.11,0,0,1-6.26-2.67,10.18,10.18,0,0,1,0-13.25,8.11,8.11,0,0,1,6.24-2.66,7.42,7.42,0,0,1,6.18,3.13V548Zm-14.94,8.83a6,6,0,0,0,1.46,4.07,4.89,4.89,0,0,0,3.92,1.71,5.21,5.21,0,0,0,4-1.65,5.86,5.86,0,0,0,1.53-4.13,6,6,0,0,0-1.55-4.17,5.15,5.15,0,0,0-4-1.71,4.81,4.81,0,0,0-3.9,1.76A6.24,6.24,0,0,0,410.13,556.81Z"/><path class="cls-2" d="M450.52,559.32h-15a4.33,4.33,0,0,0,1.91,3.36,7.41,7.41,0,0,0,9.5-1l2.31,2.52a10.73,10.73,0,0,1-8.07,3.21,9.64,9.64,0,0,1-6.86-2.68,9.47,9.47,0,0,1-2.82-7.2,9.32,9.32,0,0,1,2.88-7.19,9.68,9.68,0,0,1,6.78-2.66,9.81,9.81,0,0,1,6.64,2.36,8.11,8.11,0,0,1,2.74,6.5Zm-15-3.17h11a4.62,4.62,0,0,0-1.51-3.71,5.55,5.55,0,0,0-3.73-1.29,6.4,6.4,0,0,0-4,1.35A4.36,4.36,0,0,0,435.51,556.15Z"/><path class="cls-2" d="M461.57,551.22v9.72a3.17,3.17,0,0,0,.72,2.18,2.57,2.57,0,0,0,2,.81,3.43,3.43,0,0,0,2.48-1.26l1.66,2.84a6.89,6.89,0,0,1-4.7,1.91,6.06,6.06,0,0,1-4.39-1.78,6.44,6.44,0,0,1-1.82-4.81v-9.61h-2.41V548h2.41v-6h4v6h5v3.24Z"/><path class="cls-2" d="M489.15,556.76v10.37h-4V548h4v3.49a6.29,6.29,0,0,1,2.61-2.77,7.41,7.41,0,0,1,3.76-1c3,0,5.08,1.25,6.16,3.74a8.6,8.6,0,0,1,7.09-3.74,7.14,7.14,0,0,1,5.24,2,7.71,7.71,0,0,1,2,5.72v11.74h-4V556.62q0-5.29-4.39-5.29a5.29,5.29,0,0,0-3.58,1.31,5,5,0,0,0-1.6,3.83v10.66h-4V556.62a6.66,6.66,0,0,0-1-4,3.6,3.6,0,0,0-3.06-1.27,5.27,5.27,0,0,0-3.63,1.38A5.15,5.15,0,0,0,489.15,556.76Z"/><path class="cls-2" d="M525.83,574.76a6.91,6.91,0,0,1-4.75-1.91l1.84-3.27a3.81,3.81,0,0,0,2.61,1.19,2.76,2.76,0,0,0,2.19-1,3.16,3.16,0,0,0,.85-2.12q0-.51-7.74-19.69h4.32l5.72,14.11L536.6,548h4.32l-9.29,22.75a7,7,0,0,1-2.38,2.95A5.84,5.84,0,0,1,525.83,574.76Z"/><path class="cls-2" d="M571.19,561.41a5.38,5.38,0,0,1-2,4.37,7.7,7.7,0,0,1-5.07,1.64,13.42,13.42,0,0,1-4.34-.76,13,13,0,0,1-4-2.12l1.94-3.13a10.9,10.9,0,0,0,6.48,2.52,3.35,3.35,0,0,0,2.16-.63,2,2,0,0,0,.8-1.61c0-1-1.28-1.82-3.82-2.59L563,559q-6-1.62-6-5.4a5.13,5.13,0,0,1,2.07-4.27,8.54,8.54,0,0,1,5.38-1.6,11.26,11.26,0,0,1,6.27,1.94l-1.51,3a9.06,9.06,0,0,0-5.08-1.55,4.61,4.61,0,0,0-2.34.53,1.69,1.69,0,0,0-.9,1.56,1.42,1.42,0,0,0,.94,1.37,8.56,8.56,0,0,0,1.81.61c.78.19,1.47.39,2.07.58s1.19.41,1.75.65a11.65,11.65,0,0,1,1.82,1A4.53,4.53,0,0,1,571.19,561.41Z"/><path class="cls-2" d="M581.6,556.76v10.37h-4V540.45h4v11a6.32,6.32,0,0,1,2.6-2.77,7.45,7.45,0,0,1,3.77-1,7.1,7.1,0,0,1,5.23,2,7.68,7.68,0,0,1,2,5.72v11.74h-4V556.62q0-5.29-4.39-5.29a5.3,5.3,0,0,0-3.64,1.38A5.17,5.17,0,0,0,581.6,556.76Z"/><path class="cls-2" d="M611.83,551.65l-3.42-2.3.29,4.1h-2.45l.29-4.14-3.42,2.3-1.22-2.08,3.67-1.84-3.67-1.8,1.22-2.12,3.39,2.26-.26-4.06h2.45l-.25,4.06,3.38-2.23,1.23,2.09-3.71,1.8,3.71,1.84Z"/><path class="cls-2" d="M624.94,551.22v9.72a3.17,3.17,0,0,0,.72,2.18,2.55,2.55,0,0,0,2,.81,3.43,3.43,0,0,0,2.49-1.26l1.65,2.84a6.87,6.87,0,0,1-4.69,1.91,6.1,6.1,0,0,1-4.4-1.78,6.43,6.43,0,0,1-1.81-4.81v-9.61h-2.42V548h2.42v-6h4v6h5v3.24Z"/><path class="cls-2" d="M650,564.68a9.79,9.79,0,0,1-2.7-7.2,9.44,9.44,0,0,1,2.77-7.13,9.23,9.23,0,0,1,6.61-2.66,7.27,7.27,0,0,1,6.17,3.24V540.42h4v26.71h-4v-2.88a7.48,7.48,0,0,1-6.52,3.17A8.59,8.59,0,0,1,650,564.68Zm1.33-7a6,6,0,0,0,1.76,4.49,5.74,5.74,0,0,0,4.14,1.72,5.37,5.37,0,0,0,4-1.74,6.27,6.27,0,0,0,1.65-4.48,6.61,6.61,0,0,0-1.65-4.58,5.28,5.28,0,0,0-4.07-1.83,5.49,5.49,0,0,0-4.14,1.83A6.47,6.47,0,0,0,651.29,557.64Z"/><path class="cls-2" d="M690.49,564.56a10.49,10.49,0,0,1-14.4,0,10,10,0,0,1,0-14,10.49,10.49,0,0,1,14.4,0,10,10,0,0,1,0,14ZM679,562.07a6.24,6.24,0,0,0,8.67,0,6.82,6.82,0,0,0,0-9,6.24,6.24,0,0,0-8.67,0,6.82,6.82,0,0,0,0,9Z"/><path class="cls-2" d="M703.78,556.76v10.37h-4V548h4v3.49a7.07,7.07,0,0,1,2.68-2.77,7.64,7.64,0,0,1,8.93,1,7.71,7.71,0,0,1,2,5.72v11.74h-4V556.62q0-5.29-4.39-5.29a5.32,5.32,0,0,0-3.64,1.38A5.17,5.17,0,0,0,703.78,556.76Z"/><path class="cls-2" d="M742.62,559.32h-15a4.33,4.33,0,0,0,1.91,3.36,7.41,7.41,0,0,0,9.5-1l2.3,2.52a10.69,10.69,0,0,1-8.06,3.21,9.64,9.64,0,0,1-6.86-2.68,9.47,9.47,0,0,1-2.82-7.2,9.32,9.32,0,0,1,2.88-7.19,9.68,9.68,0,0,1,6.78-2.66,9.81,9.81,0,0,1,6.64,2.36,8.11,8.11,0,0,1,2.74,6.5Zm-15-3.17h11a4.65,4.65,0,0,0-1.51-3.71,5.55,5.55,0,0,0-3.73-1.29,6.38,6.38,0,0,0-4,1.35A4.36,4.36,0,0,0,727.61,556.15Z"/><path class="cls-2" d="M751.28,567.42a2.62,2.62,0,0,1-1.89-.79,2.58,2.58,0,0,1-.79-1.89,2.55,2.55,0,0,1,.79-1.89,2.63,2.63,0,0,1,3.78,0,2.55,2.55,0,0,1,.79,1.89,2.58,2.58,0,0,1-.79,1.89A2.62,2.62,0,0,1,751.28,567.42Zm-2.54-26.07h5V546l-1.08,13h-2.88l-1.08-13Z"/></svg>