<?xml version="1.0" encoding="utf-8"?>
<!-- Generator: Adobe Illustrator 22.1.0, SVG Export Plug-In . SVG Version: 6.00 Build 0)  -->
<svg version="1.1" id="Laag_1" xmlns="http://www.w3.org/2000/svg" xmlns:xlink="http://www.w3.org/1999/xlink" x="0px" y="0px"
	 viewBox="0 0 850.4 283.5" style="enable-background:new 0 0 850.4 283.5;" xml:space="preserve">
<style type="text/css">
	.st0{fill:#DADADA;}
	.st1{fill:#B2B2B2;}
	.st2{fill:#D22F60;}
	.st3{fill:#1D1E1B;}
	.st4{fill:#FFFFFF;}
	.st5{fill:#F6D269;}
	.st6{fill:#D0AF69;}
	.st7{opacity:0.7;fill:#FFFFFF;enable-background:new    ;}
	.st8{fill:#4D99D2;}
	.st9{fill:#BED9BC;}
	.st10{fill:#CAD2D8;}
	.st11{fill:#D9DDE0;}
	.st12{fill:#88878E;}
	.st13{fill:#C5C3CE;}
	.st14{opacity:0.6;fill:#4D99D2;enable-background:new    ;}
	.st15{opacity:0.5;fill:#ECDEC2;enable-background:new    ;}
	.st16{fill:#FBE9A6;}
	.st17{fill:#BABEB2;}
	.st18{fill:#E3E3DE;}
	.st19{fill:#B5B5B4;}
	.st20{fill:#575756;}
	.st21{fill:#878787;}
	.st22{fill:#282727;}
	.st23{fill:#7AB045;}
	.st24{fill:#D02E2C;}
	.st25{fill:#2B337B;}
	.st26{fill:#C6C6C6;}
	.st27{fill:#CF2A7B;}
	.st28{fill:#C42D55;}
</style>
<title>Tekengebied 1</title>
<g id="achtergrond">
	<rect y="174.7" class="st0" width="850.4" height="108.8"/>
</g>
<g id="artwork">
	<polyline class="st1" points="633.5,175.1 602.9,175.1 602.9,52.2 633.5,52.2 	"/>
	<polygon class="st1" points="25.5,175.1 89.3,80.7 153.2,175.1 	"/>
	<polygon class="st1" points="130.6,126.2 176.3,58.7 221.9,126.2 	"/>
	<polyline class="st1" points="421,120.4 440.8,120.4 440.8,85.4 440.8,85.3 439.5,85.3 439.5,57.9 442.7,57.9 442.7,46.7 
		453.5,24.9 464,46.7 464,57.9 466.9,57.9 466.9,85.3 465.6,85.3 465.6,175.4 421,175.4 374.5,175.4 	"/>
	<polyline class="st1" points="377.4,92.6 376.8,86.1 375.6,86.1 375,92.6 375,92.7 374.5,92.7 374.5,101.5 374.5,175.4 
		395.4,175.4 404.6,175.4 405.5,175.4 405.5,100.7 403.9,94.9 394.1,94.9 393.7,92.7 380,92.7 378.2,101.5 378.2,92.7 377.4,92.7 	
		"/>
	<circle class="st0" cx="453" cy="71.9" r="9"/>
	<polygon class="st1" points="341.9,96.5 341.1,96.5 341.1,102.5 339.3,102.5 339.3,175.4 341.8,175.4 361.4,175.4 370.6,175.4 
		371.5,175.4 371.5,100.7 369.1,96.3 366.1,96.3 358.5,92 350.5,96.1 347.2,96.1 344.2,101.5 344.2,97.4 344.2,96.5 343.7,96.5 
		343.6,92 342.5,92 342.2,92 	"/>
	<rect x="635.6" y="38" class="st1" width="36.2" height="141.1"/>
	<rect x="674.8" y="53" class="st1" width="21.5" height="122.9"/>
	<rect x="693.4" y="48.3" class="st1" width="20.3" height="127.6"/>
	<polygon class="st1" points="751.8,67.5 751.8,175.9 715.6,175.9 715.6,34.9 734.2,34.9 	"/>
	<rect x="755.2" y="48" class="st1" width="13.2" height="127.1"/>
</g>
<g id="illustraties">
	<path class="st2" d="M739.2,175.3H737v-0.1l-2-3.4h-6.7l-3.3,3.4v0.1h-0.2l-5.5,1.4c0,0-0.2,0.2-0.2,1.3v1.6c0,0.7,0.6,1.3,1.3,1.3
		l0,0h1.2c-0.1,1.1,0.8,2.1,1.9,2.2c1.1,0.1,2.1-0.8,2.2-1.9c0-0.1,0-0.2,0-0.3h9.3c-0.1,1.1,0.8,2.1,1.9,2.2
		c1.1,0.1,2.1-0.8,2.2-1.9c0-0.1,0-0.2,0-0.3h0.1c0.7,0,1.3-0.6,1.3-1.3c0,0,0,0,0,0v-2.9C740.6,175.9,740,175.3,739.2,175.3z"/>
	<path class="st3" d="M120.1,197.8c0.4,0.3,0.6,0.8,0.5,1.4c0,0.5-0.2,1-0.5,1.3c-0.5,0.3-1.1,0.5-1.6,0.4h-0.9v1.5h-0.8v-5h1.7
		C119,197.3,119.6,197.5,120.1,197.8z M119.5,199.9c0.2-0.2,0.3-0.5,0.2-0.8c0-0.3-0.1-0.6-0.3-0.7c-0.3-0.2-0.7-0.2-1-0.2h-0.9v2h1
		C118.9,200.2,119.3,200.1,119.5,199.9z"/>
	<path class="st3" d="M122.4,201.2l-0.5,1.1H121l2.2-5h0.9l2.2,5h-0.9l-0.5-1.1H122.4z M124.5,200.5l-0.9-2.1l-0.9,2.1H124.5z"/>
	<path class="st3" d="M131,199c0.1,0.7-0.4,1.4-1.1,1.6l1.3,1.8h-1.1l-1.2-1.7h-1.1v1.7H127v-5h1.9c0.6-0.1,1.1,0.1,1.6,0.4
		C130.9,198.1,131,198.5,131,199z M129.9,199.7c0.2-0.2,0.3-0.5,0.3-0.7c0-0.3-0.1-0.5-0.3-0.7c-0.3-0.2-0.6-0.2-0.9-0.2h-1.1v1.8h1
		C129.2,200,129.6,199.9,129.9,199.7L129.9,199.7z"/>
	<path class="st3" d="M132.9,201.2l-0.5,1.1h-0.9l2.2-5h0.9l2.2,5h-0.9l-0.5-1.1H132.9z M135.1,200.5l-0.9-2.1l-0.9,2.1H135.1z"/>
	<path class="st3" d="M139.1,198c-0.2,0-0.4,0-0.6,0.1c-0.2,0.1-0.2,0.3-0.2,0.4c0,0.2,0.1,0.4,0.2,0.5c0.3,0.2,0.7,0.3,1,0.4
		c0.4,0.1,0.8,0.3,1.2,0.5c0.3,0.3,0.4,0.6,0.4,1c0,0.4-0.2,0.8-0.5,1.1c-0.4,0.3-0.8,0.4-1.3,0.4c-0.8,0-1.5-0.3-2.1-0.8l0.5-0.6
		c0.4,0.4,1,0.6,1.6,0.7c0.2,0,0.5,0,0.6-0.2c0.2-0.1,0.2-0.3,0.2-0.5c0-0.2-0.1-0.3-0.2-0.4c-0.2-0.1-0.5-0.2-0.8-0.3
		c-0.3-0.1-0.6-0.1-0.8-0.2c-0.2-0.1-0.4-0.2-0.5-0.3c-0.3-0.2-0.5-0.6-0.4-1c0-0.4,0.2-0.8,0.5-1.1c0.4-0.3,0.8-0.4,1.3-0.4
		c0.3,0,0.6,0.1,0.9,0.2c0.3,0.1,0.6,0.2,0.8,0.4l-0.4,0.6c-0.2-0.2-0.4-0.3-0.6-0.3C139.6,198.1,139.3,198,139.1,198z"/>
	<path class="st3" d="M146.3,201.7c-1.1,1-2.7,1-3.8,0c-1-1-1-2.7,0-3.7c1.1-1,2.7-1,3.8,0C147.3,199,147.3,200.7,146.3,201.7z
		 M145.6,198.6c-0.7-0.7-1.8-0.7-2.5,0c0,0,0,0,0,0c-0.3,0.3-0.5,0.8-0.5,1.3c0,0.5,0.2,0.9,0.5,1.3c0.7,0.7,1.8,0.7,2.5,0
		c0,0,0,0,0,0c0.3-0.3,0.5-0.8,0.5-1.3C146.2,199.4,146,198.9,145.6,198.6z"/>
	<path class="st3" d="M147.9,202.4v-5h0.9v4.2h2.3v0.8L147.9,202.4z"/>
	<path class="st3" d="M118.7,210.4c0.1-0.2,0.2-0.4,0.2-0.6c0-0.2-0.1-0.4-0.2-0.5c-0.2-0.1-0.4-0.2-0.6-0.2c-0.4,0-0.8,0.3-1,0.6
		l-0.7-0.4c0.2-0.3,0.4-0.6,0.7-0.8c0.3-0.2,0.6-0.3,1-0.2c0.4,0,0.8,0.1,1.1,0.4c0.3,0.3,0.5,0.7,0.5,1.1c0,0.3-0.1,0.5-0.2,0.7
		c-0.2,0.3-0.5,0.6-0.7,0.9l-1.2,1.2h2.3v0.8h-3.4v-0.7l1.5-1.5C118.2,211,118.5,210.7,118.7,210.4z"/>
	<path class="st3" d="M123.8,208.5v0.8h-2.1v1.2c0.2-0.1,0.5-0.2,0.7-0.2c0.4,0,0.9,0.1,1.2,0.4c0.3,0.3,0.5,0.7,0.5,1.1
		c0,0.5-0.2,0.9-0.5,1.2c-0.4,0.3-0.8,0.5-1.3,0.5c-0.6,0-1.2-0.2-1.6-0.7l0.4-0.6l0.2,0.1c0.1,0.1,0.3,0.2,0.4,0.2
		c0.2,0.1,0.4,0.1,0.7,0.1c0.2,0,0.5-0.1,0.7-0.2c0.2-0.1,0.3-0.4,0.3-0.6c0-0.3-0.1-0.5-0.3-0.6c-0.2-0.2-0.5-0.2-0.8-0.2
		c-0.3,0-0.6,0.1-0.9,0.2l-0.4-0.4v-2.4H123.8z"/>
	<path class="st3" d="M125.4,212.8c-0.4-0.6-0.5-1.2-0.5-1.9c0-0.7,0.1-1.3,0.5-1.9c0.7-0.9,2-1,2.8-0.3c0.1,0.1,0.2,0.2,0.3,0.3
		c0.4,0.6,0.6,1.3,0.6,1.9c0,0.7-0.1,1.3-0.5,1.9c-0.7,0.9-2,1-2.8,0.3C125.6,213.1,125.5,213,125.4,212.8L125.4,212.8z M126,209.6
		c-0.2,0.4-0.3,0.9-0.3,1.4c0,0.5,0.1,0.9,0.3,1.4c0.2,0.3,0.5,0.5,0.9,0.5c0.4,0,0.7-0.2,0.9-0.5c0.4-0.9,0.4-1.9,0-2.7
		c-0.2-0.3-0.5-0.5-0.9-0.5C126.5,209.1,126.2,209.3,126,209.6L126,209.6z"/>
	<path class="st3" d="M130.3,212.8c-0.4-0.6-0.5-1.2-0.5-1.9c0-0.7,0.1-1.3,0.5-1.9c0.7-0.9,2-1,2.8-0.3c0.1,0.1,0.2,0.2,0.3,0.3
		c0.4,0.6,0.5,1.2,0.5,1.9c0,0.7-0.1,1.3-0.5,1.9c-0.7,0.9-2,1-2.8,0.3C130.5,213,130.4,212.9,130.3,212.8z M130.9,209.6
		c-0.2,0.4-0.3,0.9-0.3,1.4c0,0.5,0.1,0.9,0.3,1.4c0.2,0.3,0.5,0.5,0.9,0.5c0.4,0,0.7-0.2,0.9-0.5c0.4-0.9,0.4-1.9,0-2.7
		c-0.2-0.3-0.5-0.5-0.9-0.5C131.5,209.1,131.1,209.3,130.9,209.6z"/>
	<path class="st3" d="M139.2,213.5H137v-5h2c0.3,0,0.6,0,0.9,0.1c0.2,0.1,0.4,0.2,0.6,0.3c0.2,0.2,0.3,0.6,0.3,0.9
		c0,0.3-0.1,0.7-0.4,0.9l-0.2,0.1l-0.2,0.1c0.3,0.1,0.6,0.2,0.8,0.4c0.2,0.2,0.3,0.5,0.3,0.8c0,0.3-0.1,0.7-0.4,0.9
		C140.3,213.4,139.7,213.6,139.2,213.5z M137.8,210.6h1.1c0.6,0,0.9-0.2,0.9-0.6c0-0.2-0.1-0.4-0.2-0.5c-0.2-0.1-0.4-0.2-0.7-0.2
		h-1.1V210.6z M137.8,212.7h1.3c0.2,0,0.5,0,0.7-0.1c0.2-0.1,0.3-0.3,0.2-0.6c0-0.4-0.4-0.7-1.1-0.7h-1.2V212.7z"/>
	<path class="st3" d="M142,213.4c-0.2-0.2-0.2-0.5,0-0.7c0,0,0,0,0,0c0.1-0.1,0.2-0.2,0.4-0.1c0.1,0,0.3,0.1,0.4,0.1
		c0.2,0.2,0.2,0.5,0,0.7c0,0,0,0,0,0c-0.1,0.1-0.2,0.2-0.4,0.2C142.2,213.6,142.1,213.5,142,213.4z"/>
	<path class="st3" d="M146.4,212.7c0.3,0,0.5,0,0.8-0.1c0.2-0.1,0.5-0.3,0.7-0.5l0.5,0.6c-0.5,0.6-1.2,0.9-1.9,0.9
		c-0.7,0-1.4-0.2-1.9-0.7c-1-1-1-2.7,0-3.7c0.5-0.5,1.2-0.8,1.9-0.7c0.7,0,1.5,0.3,1.9,0.9l-0.5,0.6c-0.2-0.2-0.4-0.4-0.7-0.5
		c-0.2-0.1-0.5-0.1-0.8-0.1c-0.5,0-0.9,0.2-1.3,0.5c-0.3,0.3-0.5,0.8-0.5,1.3c0,0.5,0.2,0.9,0.5,1.3
		C145.4,212.5,145.9,212.7,146.4,212.7z"/>
	<path class="st3" d="M149,213.4c-0.2-0.2-0.2-0.5,0-0.7c0.1-0.1,0.2-0.2,0.4-0.2c0.1,0,0.3,0.1,0.4,0.1c0.2,0.2,0.2,0.5,0,0.7
		c0,0,0,0,0,0c-0.1,0.1-0.2,0.2-0.4,0.2C149.2,213.6,149.1,213.5,149,213.4z"/>
	<path class="st3" d="M322.2,197.8c0.4,0.4,0.6,0.9,0.5,1.4c0,0.5-0.2,1-0.5,1.4c-0.5,0.3-1.1,0.5-1.7,0.4h-0.9v1.5h-0.9v-5.1h1.8
		C321.1,197.3,321.7,197.5,322.2,197.8z M321.6,200c0.2-0.2,0.3-0.5,0.3-0.8c0-0.3-0.1-0.6-0.3-0.8c-0.3-0.2-0.7-0.2-1-0.2h-0.9v2.1
		h1C320.9,200.3,321.3,200.2,321.6,200L321.6,200z"/>
	<path class="st3" d="M325,201.4l-0.5,1.2h-0.9l2.3-5.1h0.9l2.3,5.1h-0.9l-0.5-1.2H325z M327.2,200.6l-0.9-2.1l-0.9,2.1H327.2z"/>
	<path class="st3" d="M333.9,199.1c0.1,0.7-0.4,1.4-1.1,1.6l1.4,1.9H333l-1.2-1.7h-1.1v1.7h-0.9v-5.1h1.9c0.6,0,1.2,0.1,1.7,0.4
		C333.7,198.1,333.9,198.6,333.9,199.1z M332.7,199.8c0.2-0.2,0.3-0.5,0.3-0.7c0-0.3-0.1-0.5-0.3-0.7c-0.3-0.2-0.7-0.2-1-0.2h-1.1
		v1.8h1.1C332.1,200.1,332.4,200,332.7,199.8L332.7,199.8z"/>
	<path class="st3" d="M335.9,201.4l-0.5,1.2h-0.9l2.3-5.1h0.9l2.3,5.1H339l-0.5-1.2H335.9z M338.1,200.6l-0.9-2.1l-0.9,2.1H338.1z"
		/>
	<path class="st3" d="M344.1,197.8c0.4,0.4,0.6,0.9,0.5,1.4c0,0.5-0.2,1-0.5,1.4c-0.5,0.3-1.1,0.5-1.7,0.4h-0.9v1.5h-0.9v-5.1h1.8
		C343,197.3,343.6,197.5,344.1,197.8z M343.5,200c0.2-0.2,0.3-0.5,0.3-0.8c0-0.3-0.1-0.6-0.3-0.8c-0.3-0.2-0.7-0.2-1-0.2h-0.9v2.1h1
		C342.9,200.3,343.2,200.2,343.5,200L343.5,200z"/>
	<path class="st3" d="M345.6,202.5v-5.1h0.9v4.3h2.4v0.8L345.6,202.5z"/>
	<path class="st3" d="M351,201.4c0.5,0.5,1.4,0.5,1.9,0c0,0,0,0,0,0c0.2-0.3,0.4-0.7,0.4-1.1v-2.9h0.9v2.9c0,0.6-0.2,1.3-0.6,1.7
		c-0.9,0.8-2.2,0.8-3.1,0c-0.4-0.5-0.7-1.1-0.6-1.7v-2.9h0.9v2.9C350.6,200.7,350.8,201,351,201.4z"/>
	<path class="st3" d="M317.5,207.5h1.9v5.2h-0.8v-4.4h-1V207.5z"/>
	<path class="st3" d="M320.4,209v-1.5h3.6v0.8l-2.2,4.4h-1l2.1-4.4h-1.8v0.7H320.4z"/>
	<path class="st3" d="M326.9,208.2c-0.4,0-0.8,0.2-1,0.5c-0.2,0.4-0.3,0.8-0.3,1.3c0.2-0.2,0.3-0.3,0.5-0.4c0.2-0.1,0.5-0.2,0.8-0.2
		c0.4,0,0.9,0.2,1.2,0.5c0.3,0.3,0.5,0.8,0.5,1.2c0,0.5-0.2,0.9-0.5,1.2c-0.3,0.3-0.8,0.5-1.3,0.5c-0.7,0-1.4-0.4-1.7-1.1
		c-0.2-0.5-0.3-0.9-0.3-1.4c0-0.4,0-0.9,0.2-1.3c0.1-0.3,0.2-0.6,0.5-0.8c0.4-0.4,0.9-0.6,1.4-0.6c0.6,0,1.1,0.2,1.5,0.5l-0.4,0.6
		c-0.1-0.1-0.3-0.2-0.5-0.3C327.2,208.3,327,208.2,326.9,208.2z M326.7,210.1c-0.3,0-0.5,0.1-0.8,0.2c-0.2,0.2-0.3,0.4-0.3,0.6
		c0,0.3,0.1,0.5,0.3,0.7c0.2,0.2,0.5,0.3,0.7,0.3c0.3,0,0.5-0.1,0.7-0.3c0.2-0.2,0.3-0.4,0.3-0.6
		C327.7,210.6,327.3,210.1,326.7,210.1C326.8,210.1,326.7,210.1,326.7,210.1L326.7,210.1z"/>
	<path class="st3" d="M329.8,212c-0.4-0.6-0.6-1.3-0.5-1.9c0-0.7,0.1-1.4,0.5-1.9c0.8-0.9,2.1-1,2.9-0.2c0.1,0.1,0.1,0.1,0.2,0.2
		c0.4,0.6,0.6,1.3,0.5,1.9c0,0.7-0.1,1.4-0.5,1.9c-0.8,0.9-2.1,1-2.9,0.2C329.9,212.1,329.8,212.1,329.8,212z M330.4,208.7
		c-0.2,0.4-0.3,0.9-0.3,1.4c0,0.5,0.1,1,0.3,1.4c0.2,0.4,0.6,0.6,1,0.5c0.4,0,0.8-0.2,1-0.5c0.2-0.4,0.3-0.9,0.3-1.4
		c0-0.5-0.1-1-0.3-1.4c-0.2-0.3-0.6-0.6-1-0.5C331,208.1,330.6,208.3,330.4,208.7L330.4,208.7z"/>
	<path class="st4" d="M196.6,161.9c-0.4-1.4-1.2-3.3-2.7-3.4h-8.4c-0.3,0.2-0.6,0.5-0.8,0.8c-0.3,0.5-0.5,1-0.7,1.6
		c-0.4,1.3-0.7,2.6-0.8,3.9c-0.2,1.6-0.3,3.1-0.4,4.7v13.6h14.5v-16.3C197.3,165.1,197,163.5,196.6,161.9z"/>
	<path class="st4" d="M197.5,171.2c-0.8-3.2-1.5-6.1-1.5-6.1l-1.6-6.5c0,0,4,1.1,5.6,11.6"/>
	<path class="st5" d="M190.1,139.1c0,0,10.9-1.5,9.6,16.5l-0.1,2.5c0,0-3.5-0.9-3.8,0.4s-0.3,9.6-4.9,9.2L190.1,139.1z"/>
	<path class="st6" d="M112.4,85.8c2.4,7.2,10.2,11.1,17.4,8.6c7.2-2.4,11.1-10.2,8.6-17.4c-2.4-7.2-10.2-11.1-17.4-8.6c0,0,0,0,0,0
		C113.8,70.8,110,78.6,112.4,85.8z"/>
	<path class="st4" d="M182.4,170.6c0.7-3,1.3-5.5,1.3-5.5l1.5-6.5c0,0-3.4,1-4.9,10.6"/>
	<path class="st5" d="M190.4,139.1c0,0-11.6-1.5-10.3,16.5l0.1,2.5c0,0,3.7-0.9,4,0.4s0.3,9.6,5.3,9.2L190.4,139.1z"/>
	<path class="st4" d="M180.2,169.2c-0.1,0.4-0.1,0.8-0.2,1.3c-1.4,10.8-1.2,8.7-1.2,8.7c-0.6,1.1-0.9,2.4-1.1,3.6
		c0,1.3,0,2.7,1.1,2.1s1.7-4.6,1.7-5.3c0-0.4,1.1-5,1.9-9"/>
	<path class="st4" d="M199.9,170.3v0.2c1.5,10.8,1.4,8.7,1.4,8.7c0.6,1.1,1,2.4,1.2,3.6c0,1.3,0,2.7-1.2,2.1s-1.8-4.6-1.8-5.3
		c0-0.4-1-4.5-2-8.3"/>
	<rect x="189.1" y="154.7" class="st4" width="1.9" height="16.2"/>
	<path class="st4" d="M182.8,183.1c0,0-0.3,8.8,0,12.8s0.3,8.3-2.4,8.9s-3.4,1.6-3.4,1.6s5.1,0.1,7.6,0s1.5-2.5,1.5-3.8
		s0.8-11.6,1.7-13.9c0.5-1.4,1.3-2.6,2.4-3.6v-3.6L182.8,183.1z"/>
	<path class="st4" d="M197.4,183.1c0,0,0.3,8.8,0,12.8s-0.3,8.3,2.4,8.9s3.5,1.6,3.5,1.6s-5.1,0.1-7.6,0s-1.5-2.5-1.5-3.8
		s-0.8-11.6-1.7-13.9c-0.5-1.4-1.3-2.6-2.4-3.6v-3.6L197.4,183.1z"/>
	<path class="st4" d="M191.8,149.2c-0.5-0.5-0.5-1.4,0.1-1.9s1.4-0.5,1.9,0.1c0.2,0.2,0.4,0.6,0.4,0.9c0,0.3-0.1,0.6-0.4,0.9"/>
	<path class="st4" d="M185.6,149.2c-0.5-0.5-0.5-1.3,0-1.9c0.3-0.3,0.6-0.4,1-0.4c0.7,0,1.3,0.6,1.4,1.3c0,0,0,0,0,0
		c0,0.3-0.1,0.6-0.4,0.9"/>
	<path class="st4" d="M187.7,149.8c0.1,0.6-0.3,1.2-0.9,1.3c-0.6,0.1-1.2-0.3-1.3-0.9c-0.1-0.6,0.3-1.2,0.9-1.3c0.1,0,0.1,0,0.2,0
		C187.2,148.8,187.6,149.2,187.7,149.8z"/>
	<path class="st4" d="M187,148.2c0,0.2-0.2,0.4-0.4,0.4s-0.4-0.2-0.4-0.4s0.2-0.4,0.4-0.4h0C186.8,147.8,187,148,187,148.2z"/>
	<path class="st4" d="M193.9,149.8c0.1,0.6-0.3,1.2-0.9,1.3s-1.2-0.3-1.3-0.9c-0.1-0.6,0.3-1.2,0.9-1.3c0.1,0,0.1,0,0.2,0
		C193.3,148.8,193.8,149.2,193.9,149.8C193.9,149.8,193.9,149.8,193.9,149.8z"/>
	<path class="st4" d="M193.2,148.2c0,0.2-0.2,0.4-0.4,0.4c-0.2,0-0.4-0.2-0.4-0.4c0-0.2,0.2-0.4,0.4-0.4S193.2,148,193.2,148.2
		L193.2,148.2z"/>
	<path class="st7" d="M188.3,152.6c0,0,1.8,2.1,3.5,0"/>
	<path class="st5" d="M182.8,145.1h14.1c0,0-4.2-4.4-6.9-4.3S183.2,144.5,182.8,145.1z"/>
	<rect x="191" y="165.4" class="st8" width="3.3" height="0.3"/>
	<rect x="191" y="163.7" class="st8" width="3.9" height="0.3"/>
	<rect x="191" y="162" class="st8" width="4.4" height="0.3"/>
	<rect x="191" y="160.4" class="st8" width="4.6" height="0.3"/>
	<rect x="191" y="158.7" class="st8" width="4.8" height="0.3"/>
	<rect x="191" y="157.1" class="st8" width="8.6" height="0.3"/>
	<rect x="191" y="155.4" class="st8" width="8.6" height="0.3"/>
	<rect x="191" y="153.9" class="st8" width="8.8" height="0.3"/>
	<rect x="191" y="152.2" class="st8" width="8.8" height="0.3"/>
	<rect x="191" y="150.5" class="st8" width="8.8" height="0.3"/>
	<rect x="191" y="148.7" class="st8" width="8.6" height="0.3"/>
	<rect x="190.9" y="146.8" class="st8" width="8.2" height="0.3"/>
	<rect x="190.9" y="145" class="st8" width="7.7" height="0.3"/>
	<rect x="185.9" y="165.4" class="st8" width="3.3" height="0.3"/>
	<rect x="185.2" y="163.7" class="st8" width="3.9" height="0.3"/>
	<rect x="184.8" y="162" class="st8" width="4.4" height="0.3"/>
	<rect x="184.5" y="160.4" class="st8" width="4.6" height="0.3"/>
	<rect x="184.3" y="158.7" class="st8" width="4.8" height="0.3"/>
	<rect x="180.1" y="157.1" class="st8" width="9" height="0.3"/>
	<rect x="180.1" y="155.4" class="st8" width="7.4" height="0.3"/>
	<rect x="179.9" y="153.9" class="st8" width="10.9" height="0.3"/>
	<rect x="179.9" y="152.2" class="st8" width="10.9" height="0.3"/>
	<rect x="180.1" y="150.5" class="st8" width="10.7" height="0.3"/>
	<rect x="180.2" y="148.7" class="st8" width="10.6" height="0.3"/>
	<rect x="180.7" y="146.8" class="st8" width="10.2" height="0.3"/>
	<rect x="181.4" y="145" class="st8" width="9.5" height="0.3"/>
	<path class="st4" d="M182.9,145.5c0,0,1.5-3.4,6.8-3.6s6.9,3.9,6.9,3.9s0.6,1.6,0,5.1c-0.3,2-1.5,3.8-3.3,4.9
		c-1.1,0.6-2.4,0.9-3.6,1c-1.5-0.1-5.7-1.9-6.8-5.7S182.9,145.5,182.9,145.5z"/>
	<path class="st4" d="M183.9,144.2c-0.3-0.6-0.8-1.2-1.4-1.5"/>
	<path class="st8" d="M183.7,144.2c-0.3-0.6-0.8-1.1-1.4-1.5l0.1-0.3c0.7,0.4,1.2,0.9,1.5,1.6L183.7,144.2z"/>
	<path class="st4" d="M185.7,143c-0.4-0.8-0.9-1.5-1.7-2"/>
	<path class="st8" d="M185.6,143.1c-0.4-0.8-0.9-1.5-1.6-2l0.2-0.2c0.7,0.5,1.3,1.3,1.7,2.1L185.6,143.1z"/>
	<path class="st8" d="M187.1,142.3c-0.2-0.9-0.7-1.8-1.5-2.3l0.2-0.2c0.9,0.6,1.5,1.5,1.6,2.5L187.1,142.3z"/>
	<path class="st4" d="M195.6,144c0.4-0.7,1.1-1.2,1.8-1.5"/>
	<path class="st8" d="M195.7,144.1l-0.3-0.1c0.4-0.7,1.1-1.3,1.9-1.6l0.1,0.3C196.7,142.9,196.1,143.5,195.7,144.1z"/>
	<path class="st4" d="M194,142.9c0.5-0.8,1.2-1.5,2.1-2"/>
	<path class="st8" d="M194.1,143l-0.2-0.1c0.5-0.9,1.3-1.6,2.2-2.1l0.1,0.3C195.3,141.5,194.6,142.2,194.1,143z"/>
	<path class="st8" d="M192.4,142.3h-0.3c0,0,0.1-1.2,2.1-2.5l0.2,0.2C192.4,141.2,192.4,142.3,192.4,142.3z"/>
	<path class="st9" d="M421.5,111.2L421.5,111.2C421.8,111.1,421.5,111.2,421.5,111.2z"/>
	<path class="st9" d="M451,122.8c0,0-5-5.6-9.8-7.3s-18-4.4-18-4.4c2.4,0.8,4.6,2,6.6,3.6c-2.1-1.4-4.4-2.6-6.7-3.5h-1.4l-4.3,2.4
		c-2.1,1.2-4.2,4.2-5.9,7.6c1.8-3.4,3.8-6.5,5.8-7.5l4.4-2.5c0,0-16.8,1.4-23.4,7.6s-11,11.3-11,11.3s6.1-2.1,19.5,2.2l0,0h0.1
		c22.6-2.4,32.6,0,32.6,0s-4.7-11.1-6.8-14.7l-0.2-0.3l0.1,0.1c2,2.8,7,15,7,15c8.8-3.1,18.9-1.9,18.9-1.9L451,122.8z"/>
	<path class="st3" d="M421.5,111.2V105c0.4-0.3,1-0.3,1.4,0l0.1,6.1L421.5,111.2z"/>
	<path class="st4" d="M430,145c0.1-0.2,0.2-0.3,0.4-0.4c0.8-0.5,1.7-0.9,2.6-1.1c1.6-0.4,2.5,1.1,3,2.2c0.8,1.4,0.9,3.2,0.2,4.7
		c-1.2,2.7-3.6,5.2-1.8,6c0.8,0.5,1.8,0.8,2.8,0.8c-1.1,0.5-2.9,1.4-4.1,0.9c-2.2-0.9-2.9-3.5-2.5-5.4c0.3-1.2,0.9-3.5,0.5-4.8
		c-0.3-0.8-0.5-1.6-0.9-2.3C430,145.3,429.9,145.1,430,145z"/>
	<path class="st10" d="M433,148c0,0-7.7-16.8-12.3-11.9c0,0-4.7,3.1,0.4,16.3S433,148,433,148z"/>
	<path class="st11" d="M419.1,153.6c5.3,15,12.6-5,12.6-5s-8.1-19.1-13-13.5"/>
	<rect x="424.1" y="155" class="st4" width="1.4" height="4.2"/>
	<path class="st4" d="M421,159.3c0,0-2.9,1.1-3.9,11.5s-1,8.4-1,8.4c-0.4,1.1-0.7,2.3-0.9,3.5c0,1.3,0,2.7,0.9,2s1.3-4.5,1.3-5.1
		s2.5-14,2.5-14L421,159.3z"/>
	<path class="st4" d="M428.1,159.3c0,0,3.1,1.1,4.3,11.5s1,8.4,1,8.4c0.5,1.1,0.8,2.3,0.9,3.5c0,1.3,0,2.7-0.9,2s-1.4-4.5-1.4-5.1
		s-2.7-14-2.7-14L428.1,159.3z"/>
	<path class="st4" d="M419.2,185.2c0,0-0.2,8.5,0,12.4s0.2,8.1-1.9,8.6c-1.1,0.2-2,0.7-2.7,1.6c0,0,3.9,0.1,5.9,0s1.2-2.4,1.2-3.7
		s0.6-11.3,1.3-13.5c0.4-1.3,1-2.5,1.8-3.5v-3.5L419.2,185.2z"/>
	<path class="st4" d="M430.4,185.2c0,0,0.2,8.5,0,12.4s-0.2,8.1,1.9,8.6s2.7,1.6,2.7,1.6s-4,0.1-5.9,0s-1.2-2.4-1.2-3.7
		s-0.6-11.3-1.3-13.5c-0.4-1.3-1-2.5-1.9-3.5v-3.5L430.4,185.2z"/>
	<path class="st4" d="M421.4,150.7c-0.2-0.2-0.4-0.5-0.4-0.8c0.1-0.7,0.7-1.3,1.4-1.2c0.6,0.1,1.1,0.6,1.2,1.2
		c0,0.3-0.1,0.6-0.3,0.8"/>
	<path class="st4" d="M423.4,151c0.2,0.6-0.2,1.2-0.8,1.3s-1.2-0.2-1.3-0.8c-0.2-0.6,0.2-1.2,0.8-1.3c0.1,0,0.2,0,0.3,0
		C422.8,150.2,423.3,150.5,423.4,151z"/>
	<path class="st4" d="M422.7,149.7c0,0.2-0.2,0.4-0.4,0.4c0,0,0,0,0,0c-0.2,0-0.4-0.1-0.4-0.4c0,0,0,0,0,0c0-0.2,0.2-0.4,0.4-0.4
		c0,0,0,0,0,0C422.5,149.3,422.7,149.5,422.7,149.7C422.7,149.7,422.7,149.7,422.7,149.7z"/>
	<path class="st4" d="M430.4,174.1v5.6h-11.2v-5.6c1.9-2.5,0.3-6.5,0.3-6.5l1.5-8.3l3.8-0.1l3.3,0.1l1.8,7.9
		C429.9,167.2,428.5,171.9,430.4,174.1z"/>
	<path class="st4" d="M419.2,179.6c0,0-1.7,4.4-1.3,24.9c0.7-0.6,1.8-0.6,2.5,0c1.4,1,2.4,0.5,3.7,0s1.9,0.6,3.3,0.6
		s1.6-1.4,2.5-0.9s1.2,1,1.8,0.9c0,0-0.4-23.5-1.3-25.4"/>
	<path class="st9" d="M188.9,116.2L188.9,116.2C189.2,116.1,188.9,116.2,188.9,116.2z"/>
	<path class="st9" d="M218.3,127.9c0,0-4.9-5.6-9.8-7.3s-18-4.4-18-4.4c2.4,0.8,4.6,2,6.6,3.6c-2.1-1.4-4.4-2.6-6.7-3.5h-1.4
		l-4.3,2.4c-2.1,1.2-4.2,4.2-5.9,7.6c1.8-3.4,3.8-6.5,5.8-7.5l4.4-2.5c0,0-16.8,1.4-23.4,7.6c-6.5,6.2-11,11.3-11,11.3
		s6.1-2.1,19.4,2.2l0,0h0.1c22.6-2.4,32.6,0,32.6,0s-4.7-11.1-6.8-14.7c-0.1-0.1-0.1-0.2-0.2-0.3l0.1,0.1c2,2.8,7,14.9,7,14.9
		c8.8-3.1,18.9-1.9,18.9-1.9L218.3,127.9z"/>
	<path class="st3" d="M188.9,116.2V110c0.4-0.3,1-0.3,1.4,0l0.1,6.1L188.9,116.2z"/>
	<path class="st4" d="M415.9,163.4c-0.1,1.8,1.3,3.3,3.1,3.4c1.8,0.1,3.3-1.3,3.4-3.1c0.1-1.8-1.3-3.3-3.1-3.4c0,0-0.1,0-0.1,0
		C417.4,160.3,416,161.7,415.9,163.4z"/>
	<path class="st4" d="M426.7,163.4c-0.1,1.8,1.3,3.3,3.1,3.4c1.8,0.1,3.3-1.3,3.4-3.1c0.1-1.8-1.3-3.3-3.1-3.4c0,0-0.1,0-0.1,0
		C428.2,160.3,426.7,161.7,426.7,163.4z"/>
	<path class="st12" d="M428.5,145.4c0,0-7.8-15.4-12.5-10.9c0,0-4.7,2.9,0.4,15S428.5,145.4,428.5,145.4z"/>
	<path class="st4" d="M431,148.7c0.1,3.6-2.7,6.7-6.3,6.8c-3.6,0.1-6.7-2.7-6.8-6.3c-0.1-3.6,2.7-6.7,6.3-6.8c0.1,0,0.1,0,0.2,0
		C428,142.3,430.9,145.2,431,148.7C431,148.7,431,148.7,431,148.7z"/>
	<path class="st4" d="M419.3,147c0.9-2,3-3.3,5.2-3.3c2.4-0.1,4.5,1.4,5.3,3.6c0.3,1.5,0.3,3.1,0,4.7c-0.2,1.8-1.1,3.4-2.5,4.5
		c-0.8,0.5-1.8,0.8-2.8,0.9c-2.6-0.6-4.6-2.6-5.2-5.2C418.4,148.6,419.3,147,419.3,147z"/>
	<path class="st4" d="M426.4,143.5c0,0-7.7,6-8.3,6.8l0,0c-0.3,0.4-0.4,1.5-0.1,1.8c-0.3-0.2-0.6,0-0.9-0.4
		c-0.4-0.5-0.1-1.5-0.1-2.1c0-0.8,0.1-1.6,0.2-2.3c0.3-1.5,1.1-2.9,2.2-3.9c0.8-0.6,1.8-0.9,2.8-1
		C428.8,141.9,426.1,143.1,426.4,143.5z"/>
	<path class="st13" d="M520.1,100.2c0,0-2.2-3.2-8.8-2.9c0.3-0.8,0.5-1.6,0.5-2.4c-0.2-3.3-3-5.9-6.3-5.7c0,0,0,0,0,0
		c-0.2,0-0.3,0-0.5,0c0.1-0.5,0.1-1.1,0.1-1.6c-0.1-7.1-7.7-12.7-16.7-12.5c-7.5,0.2-13.6,4.3-15.5,9.7c-2,1-3.7,2.4-5.1,4.1
		c-1-0.2-2-0.3-2.9-0.2c-6.7,0.2-12,4.8-11.9,10.3c0.1,4.6,4,8.3,9.1,9.4h0c1.1,0.2,2.2,0.3,3.2,0.3c0.2,0,0.4,0,0.6,0
		c10.3,0.7,38.4,2.2,47.6,0.2C513.5,108.8,522.5,107.6,520.1,100.2z"/>
	<path class="st14" d="M492.7,107.7c0,0-2.3,9.1-6.4,6.8S490.2,107.9,492.7,107.7z"/>
	<path class="st14" d="M487.4,98.4c0,0-2.4,9-6.5,6.6S484.9,98.5,487.4,98.4z"/>
	<path class="st14" d="M440.9,112.9c0,0-2.3,9.1-6.4,6.8S438.4,113.1,440.9,112.9z"/>
	<path class="st14" d="M455.9,113.2c0,0-2.2,9.1-6.4,6.8S453.4,113.4,455.9,113.2z"/>
	<path class="st14" d="M455.8,98.1c0,0-1.9,9.2-6.2,7S453.3,98.3,455.8,98.1z"/>
	<path class="st14" d="M470,111.3c0,0-1.8,9.2-6.1,7.1S467.5,111.6,470,111.3z"/>
	<polygon class="st15" points="122.8,99.3 115.6,151.1 127.5,148.9 126.1,99.4 	"/>
	<polygon class="st15" points="142.2,81.5 142.7,89.7 189.4,123.5 210.3,107.1 	"/>
	<polygon class="st15" points="132.2,97.6 137.3,94.3 180,129.9 153.6,142.4 	"/>
	<path class="st16" d="M679.6,36.2c3.3,4.3,2.4,10.5-1.9,13.8c-4.3,3.3-10.5,2.4-13.8-1.9c-0.8-1-1.4-2.2-1.7-3.5
		c-0.3-1.2-0.4-2.5-0.2-3.7l0,0c0.2-2.2-0.4-4.4-1.6-6.2c-1.4-2-0.9-2.9-0.9-2.9l2.7-2.1l2.8-2.1c0,0,1-0.2,2.6,1.7
		c1.5,1.6,3.5,2.7,5.6,3.1c0.1,0,0.2,0.1,0.3,0.1C675.9,32.9,678.1,34.2,679.6,36.2z"/>
	<polygon class="st3" points="659.8,31.5 656,26.6 656.8,22.4 661.1,22.6 665,27.5 	"/>
	<path class="st3" d="M651.4,45.9c-0.1,0-0.1-0.1-0.1-0.1c0-0.1,0-0.1,0.1-0.1c0,0,0,0,0,0l7.3-0.8c0.1,0,0.1,0,0.1,0.1c0,0,0,0,0,0
		c0,0.1,0,0.1-0.1,0.1c0,0,0,0,0,0L651.4,45.9L651.4,45.9z"/>
	<path class="st3" d="M678.4,30L678.4,30c-0.1,0-0.1-0.1-0.1-0.2c0,0,0,0,0,0l3.2-7.3c0-0.1,0.1-0.1,0.2-0.1c0,0,0,0,0,0
		c0.1,0,0.1,0.1,0.1,0.2c0,0,0,0,0,0l-3.2,7.3C678.5,30,678.5,30,678.4,30z"/>
	<path class="st3" d="M685,42.2c-0.1,0-0.1,0-0.1-0.1c0-0.1,0.1-0.1,0.1-0.1l7.3-0.8c0.1,0,0.1,0,0.2,0.1c0,0.1,0,0.1-0.1,0.2
		c0,0,0,0-0.1,0L685,42.2z"/>
	<path class="st3" d="M664.7,63.3L664.7,63.3c-0.1,0-0.1-0.1-0.1-0.2l3.9-7.1c0,0,0.1,0,0.2,0c0,0,0,0,0,0c0,0,0,0.1,0,0.2
		L664.7,63.3C664.8,63.3,664.7,63.3,664.7,63.3z"/>
	<path class="st3" d="M654.4,53.3c0,0-0.1,0-0.1-0.1c0,0,0-0.1,0-0.2c0,0,0,0,0,0l6.6-4c0,0,0.1,0,0.2,0c0,0,0,0.1,0,0.2
		c0,0,0,0,0,0L654.4,53.3L654.4,53.3z"/>
	<path class="st3" d="M659.4,58.5C659.4,58.5,659.4,58.5,659.4,58.5c-0.1-0.1-0.1-0.1-0.1-0.2l5.1-4.6c0,0,0.1-0.1,0.2,0
		c0,0,0,0,0,0c0,0,0.1,0.1,0,0.2c0,0,0,0,0,0L659.4,58.5C659.5,58.5,659.5,58.5,659.4,58.5z"/>
	<path class="st3" d="M681.7,32.9C681.7,32.9,681.6,32.9,681.7,32.9c-0.1-0.1-0.1-0.1-0.1-0.2l5.3-4.5c0,0,0.1,0,0.2,0c0,0,0,0,0,0
		c0,0.1,0,0.1,0,0.2L681.7,32.9C681.7,32.9,681.7,32.9,681.7,32.9z"/>
	<path class="st3" d="M684.3,37.2c-0.1,0-0.1,0-0.1-0.1c0-0.1,0-0.1,0-0.1c0,0,0,0,0,0l6.7-2.8c0.1,0,0.1,0,0.2,0.1
		c0,0.1,0,0.1-0.1,0.2c0,0,0,0,0,0L684.3,37.2L684.3,37.2z"/>
	<path class="st3" d="M673.3,64c-0.1,0-0.1,0-0.1-0.1l-0.9-7.5c0-0.1,0-0.1,0.1-0.1c0,0,0,0,0,0c0.1,0,0.1,0,0.1,0.1l0.9,7.4
		C673.4,63.9,673.4,64,673.3,64C673.3,64,673.3,64,673.3,64L673.3,64z"/>
	<path class="st3" d="M692.1,48.9L692.1,48.9l-7-2.2c-0.1,0-0.1-0.1-0.1-0.2c0-0.1,0.1-0.1,0.2-0.1l7,2.1c0.1,0,0.1,0.1,0.1,0.2
		C692.2,48.8,692.2,48.9,692.1,48.9z"/>
	<path class="st3" d="M687.7,55.7L687.7,55.7l-5.5-4.6c-0.1,0-0.1-0.1-0.1-0.2c0-0.1,0.1-0.1,0.2-0.1c0,0,0,0,0,0l5.4,4.6
		C687.8,55.5,687.8,55.6,687.7,55.7C687.7,55.7,687.7,55.7,687.7,55.7z"/>
	<path class="st3" d="M681.7,61.2c0,0-0.1,0-0.1,0l-4.1-6.3c0-0.1,0-0.1,0-0.2c0.1,0,0.1,0,0.2,0l4.1,6.3
		C681.8,61.1,681.8,61.2,681.7,61.2C681.8,61.2,681.8,61.2,681.7,61.2C681.7,61.3,681.7,61.3,681.7,61.2z"/>
	<path class="st3" d="M772.3,121.6c-0.8-0.5-1.4-1.1-1.8-1.9c-0.5-1-0.8-1-1-0.9h-0.2c-0.1,0-0.2,0-0.3,0.1
		c-0.7,0.2-2.2,0.7-3.1-0.5c-0.4-0.5-0.6-1.2-0.5-1.9c0-0.4,0-0.6-0.2-0.7c-0.5,0.1-1,0.1-1.5-0.1c-0.1-0.1-0.2-0.2-0.3-0.4h0.2
		c0,0.1,0.1,0.2,0.2,0.2c0.4,0.1,0.9,0.1,1.4,0h0.1c0.4,0.2,0.4,0.5,0.4,0.9c0,0.6,0.1,1.2,0.5,1.7c0.8,1.1,2.1,0.7,2.8,0.4
		c0.1,0,0.2-0.1,0.3-0.1h0.2c0.4-0.1,0.8-0.1,1.3,1c0.4,0.8,0.9,1.4,1.6,1.8L772.3,121.6z"/>
	<path class="st17" d="M773.9,128.6c3.2-1.6,5.4-4.8,5.7-8.4c0,0,5.5,1.8,5,6.2c0,0-0.4,3.9-4,4.8c0,0-1.8,0.7-4.7-1.3"/>
	<path class="st18" d="M772,121.4c0,0,2.3-3,4.5-2.2s3.3,1.1,3.3,1.1c-0.2,1.8-0.8,3.5-1.8,5c-1,1.4-2.3,2.6-3.9,3.3
		c0,0-4.8-3-2.2-6.9"/>
	<path class="st3" d="M770.6,127.4L770.6,127.4c-1.4-1.2-1.8-3.1-1.1-4.8c0,0,0.1,0,0.1,0c0,0,0,0,0,0c0,0,0,0.1,0,0.1
		C768.9,124.3,769.3,126.2,770.6,127.4C770.6,127.4,770.6,127.4,770.6,127.4C770.5,127.5,770.5,127.5,770.6,127.4
		C770.5,127.4,770.6,127.4,770.6,127.4z"/>
	<path class="st3" d="M769,127.8L769,127.8c-1.3-1.2-1.8-3.1-1.1-4.8c0,0,0.1,0,0.1,0c0,0,0,0.1,0,0.1
		C767.3,124.7,767.7,126.5,769,127.8C769,127.7,769,127.8,769,127.8C769,127.8,769,127.8,769,127.8C769,127.8,769,127.8,769,127.8z"
		/>
	<path class="st19" d="M776.2,124.8c0.2,0.2,0.6,0.1,0.7-0.1c0,0,0,0,0,0l0,0c0.2-0.2,0.1-0.6-0.1-0.7l-2.5-1.7
		c-0.2-0.2-0.6-0.1-0.7,0.1c0,0,0,0,0,0l0,0c-0.2,0.2-0.1,0.6,0.1,0.7c0,0,0,0,0,0L776.2,124.8z"/>
	<path class="st3" d="M767,126.9L767,126.9c-0.8-0.7-1-1.9-0.6-2.8c0,0,0.1,0,0.1,0c0,0,0,0.1,0,0.1c0,0,0,0,0,0
		C766.1,125.1,766.3,126.1,767,126.9C767.1,126.9,767.1,126.9,767,126.9C767.1,126.9,767.1,126.9,767,126.9
		C767,127,767,126.9,767,126.9C767,126.9,767,126.9,767,126.9z"/>
	<path class="st20" d="M695.8,103.1c-0.1-2,1.1-3.9,2.9-4.8l0.1,0.2c-1.8,0.8-2.9,2.6-2.8,4.6L695.8,103.1z"/>
	<path class="st20" d="M693.5,100.3c-0.1-1.2,0.7-2.2,1.8-2.3c0,0,0,0,0,0v0.2c-1,0.1-1.8,1-1.7,2c0,0,0,0.1,0,0.1L693.5,100.3z"/>
	<path class="st20" d="M710.3,104.9l-0.1-0.2c0.9-0.4,1.2-1.5,0.8-2.3c0,0,0-0.1-0.1-0.1l0.2-0.1
		C711.7,103.1,711.3,104.3,710.3,104.9C710.3,104.9,710.3,104.9,710.3,104.9z"/>
	<path class="st20" d="M708.9,100.8l-3.1-9.6l7.7-2.5l-1.8-5.6l-8.4,2.8l0,0c-0.4,0.1-0.6,0.5-0.5,0.9l3.9,12.2
		c-1.4-0.6-3-0.6-4.4-0.1c-3,1-4.8,3.8-4.1,6.2s3.9,3.7,6.9,2.7s4.8-3.8,4.1-6.2C709.2,101.3,709.1,101.1,708.9,100.8z"/>
	<path class="st21" d="M736.5,92h-2.2c-0.3-0.8-0.9-1.5-1.7-1.9h-1.9v-3.2h5.4c0.4,0,0.8-0.4,0.8-0.8c0-0.4-0.4-0.8-0.8-0.8l0,0
		h-5.4c-0.2-0.5-0.8-0.7-1.3-0.5c-0.2,0.1-0.4,0.3-0.5,0.5H724c-0.4,0-0.8,0.4-0.8,0.8c0,0.4,0.4,0.8,0.8,0.8h4.9v3.2h-2
		c-0.7,0.5-1.3,1.2-1.7,1.9h-5.2v5.2h0.5h4.8c0.3,0.7,0.8,1.3,1.5,1.8h6.1c0.7-0.5,1.3-1.1,1.6-1.9h1.8c1.2,0.1,2.2,1.1,2.4,2.3
		l-0.1,3.3h4.5v-6.2C741.5,92.2,736.5,92,736.5,92z"/>
	<path class="st8" d="M741,103.9c0,0,2.8,4.5,0.2,5.3S740,105,741,103.9z"/>
	<path class="st4" d="M736.6,149c0.2,4.4-3.1,8.2-7.5,8.4c-4.4,0.2-8.2-3.1-8.4-7.5s3.1-8.2,7.5-8.4c0.1,0,0.3,0,0.4,0
		C732.9,141.3,736.5,144.7,736.6,149z"/>
	<path class="st4" d="M721.4,151.2c0,0-3.5-7.2,4.3-9.2c2-0.5,4-0.7,6.1-0.6c2.4,0.3,3.5,0.4,4.1,0c0.3-0.3,0.6-0.7,0.7-1.1
		c0.2,0.8,0.2,1.7,0,2.5c-0.1,1.4-0.1,2.8,0,4.2c-0.1,0.9-0.3,1.8-0.7,2.6L721.4,151.2z"/>
	<path class="st4" d="M721.9,147.7c0,0,1.5-3.4,6.9-3.6s7,3.9,7,3.9s0.7,1.7,0,5.1c-0.3,2.1-1.6,3.9-3.4,4.9c-1.1,0.6-2.4,0.9-3.7,1
		c-1.5-0.1-5.8-1.9-6.9-5.8S721.9,147.7,721.9,147.7z"/>
	<rect x="728.2" y="157.1" class="st4" width="1.9" height="4.6"/>
	<path class="st4" d="M735.8,164.4c-0.4-1.4-1.2-3.4-2.7-3.5h-8.6c-0.3,0.2-0.6,0.5-0.8,0.8c-0.3,0.5-0.5,1.1-0.8,1.6
		c-0.4,1.3-0.7,2.6-0.8,3.9c-0.2,1.6-0.3,3.1-0.4,4.7v13.8h14.8v-16.5C736.5,167.7,736.2,166,735.8,164.4z"/>
	<path class="st4" d="M719.1,171.8c-0.1,0.4-0.1,0.9-0.2,1.3c-1.4,10.9-1.3,8.8-1.3,8.8c-0.6,1.2-0.9,2.4-1.1,3.7
		c0,1.3,0,2.8,1.1,2.1s1.7-4.7,1.7-5.4c0-0.4,1.1-5.1,2-9.1"/>
	<path class="st4" d="M721.3,173.2c0.7-3,1.3-5.6,1.3-5.6l1.5-6.6c0,0-3.5,1-5,10.7"/>
	<path class="st4" d="M739.2,172.9v0.2c1.5,10.9,1.4,8.8,1.4,8.8c0.6,1.1,1,2.4,1.2,3.7c0,1.3,0,2.8-1.2,2.1s-1.8-4.7-1.8-5.4
		c0-0.4-1-4.6-2-8.4"/>
	<path class="st4" d="M736.8,173.9c-0.8-3.3-1.6-6.2-1.6-6.2l-1.7-6.6c0,0,4.1,1.1,5.6,11.8"/>
	<path class="st4" d="M721.8,185.9c0,0-0.3,8.9,0,13s0.3,8.5-2.5,9s-3.5,1.7-3.5,1.7s5.2,0.1,7.7,0s1.5-2.6,1.5-3.9
		s0.8-11.8,1.7-14.1c0.5-1.4,1.3-2.7,2.4-3.7v-3.6L721.8,185.9z"/>
	<path class="st4" d="M736.6,185.9c0,0,0.3,8.9,0,13s-0.3,8.5,2.5,9s3.5,1.7,3.5,1.7s-5.2,0.1-7.7,0s-1.5-2.6-1.5-3.9
		s-0.8-11.8-1.7-14.1c-0.5-1.4-1.3-2.7-2.4-3.7v-3.6L736.6,185.9z"/>
	<path class="st4" d="M731,151.5c-0.3-0.2-0.4-0.6-0.4-0.9c0-0.8,0.6-1.4,1.4-1.4c0.8,0,1.4,0.6,1.4,1.4c0,0.3-0.1,0.7-0.4,0.9"/>
	<path class="st4" d="M724.6,151.5c-0.3-0.2-0.4-0.6-0.4-0.9c0-0.8,0.6-1.4,1.4-1.4c0.8,0,1.4,0.6,1.4,1.4c0,0.3-0.1,0.7-0.4,0.9"/>
	<path class="st4" d="M726.8,152.1c0.1,0.6-0.3,1.2-0.9,1.3c-0.6,0.1-1.2-0.3-1.3-0.9c-0.1-0.6,0.3-1.2,0.9-1.3c0.1,0,0.1,0,0.2,0
		C726.2,151.1,726.7,151.5,726.8,152.1C726.7,152.1,726.7,152.1,726.8,152.1z"/>
	<path class="st4" d="M726,150.5c0,0.2-0.2,0.4-0.4,0.4c-0.2,0-0.4-0.2-0.4-0.4c0-0.2,0.2-0.4,0.4-0.4l0,0
		C725.8,150.1,726,150.3,726,150.5z"/>
	<path class="st4" d="M733,152.1c0.1,0.6-0.3,1.2-0.9,1.3c-0.6,0.1-1.2-0.3-1.3-0.9c-0.1-0.6,0.3-1.2,0.9-1.3c0.1,0,0.1,0,0.2,0
		C732.4,151.1,732.9,151.5,733,152.1C733,152.1,733,152.1,733,152.1z"/>
	<path class="st4" d="M732.4,150.5c0,0.2-0.2,0.4-0.4,0.4c-0.2,0-0.4-0.2-0.4-0.4c0-0.2,0.2-0.4,0.4-0.4l0,0
		C732.2,150.1,732.4,150.3,732.4,150.5z"/>
	<path class="st7" d="M727.4,155c0,0,1.8,2.1,3.6,0"/>
	<path class="st3" d="M630.1,197.8c0.4,0.4,0.6,0.9,0.5,1.4c0,0.5-0.2,1-0.5,1.4c-0.5,0.3-1.1,0.5-1.7,0.4h-0.9v1.5h-0.9v-5.1h1.8
		C629,197.3,629.6,197.5,630.1,197.8z M629.5,199.9c0.2-0.2,0.3-0.5,0.3-0.8c0-0.3-0.1-0.6-0.3-0.8c-0.3-0.2-0.7-0.2-1-0.2h-0.9v2.1
		h1C628.9,200.3,629.2,200.2,629.5,199.9L629.5,199.9z"/>
	<path class="st3" d="M632.4,201.3l-0.5,1.2h-0.9l2.3-5.1h0.9l2.2,5.1h-0.9l-0.5-1.2H632.4z M634.6,200.5l-0.9-2.1l-0.9,2.1H634.6z"
		/>
	<path class="st3" d="M641.2,199.1c0.1,0.7-0.4,1.4-1.1,1.6l1.3,1.9h-1.1l-1.2-1.7h-1.1v1.7h-0.9v-5.1h1.9c0.6,0,1.2,0.1,1.7,0.4
		C641,198.1,641.2,198.6,641.2,199.1z M640,199.8c0.2-0.2,0.3-0.5,0.3-0.7c0-0.3-0.1-0.5-0.3-0.7c-0.3-0.2-0.7-0.2-1-0.2h-1.1v1.8
		h1.1C639.3,200,639.7,200,640,199.8L640,199.8z"/>
	<path class="st3" d="M643.1,201.3l-0.5,1.2h-0.9l2.2-5.1h0.9l2.2,5.1h-0.9l-0.5-1.2H643.1z M645.3,200.5l-0.9-2.1l-0.9,2.1H645.3z"
		/>
	<path class="st3" d="M649.8,198.2v4.3h-0.9v-4.3h-1.6v-0.8h4v0.8H649.8z"/>
	<path class="st3" d="M652.3,197.4h0.9v5.1h-0.9V197.4z"/>
	<path class="st3" d="M658.4,197.4h0.9v5.1h-0.9l-2.9-3.7v3.7h-0.9v-5.1h0.9l3,3.8L658.4,197.4z"/>
	<path class="st3" d="M664.2,200h0.9v1.8c-0.5,0.6-1.3,0.8-2.1,0.8c-0.7,0-1.4-0.3-1.9-0.8c-0.5-0.5-0.8-1.2-0.8-1.9
		c0-0.7,0.3-1.4,0.8-1.9c0.5-0.5,1.2-0.8,1.9-0.8c0.7,0,1.3,0.2,1.8,0.6l-0.5,0.7c-0.2-0.2-0.4-0.3-0.6-0.4
		c-0.2-0.1-0.5-0.1-0.7-0.1c-0.5,0-1,0.2-1.3,0.5c-0.7,0.7-0.8,1.8-0.1,2.6c0.3,0.4,0.8,0.6,1.3,0.6c0.4,0,0.9-0.1,1.2-0.3
		L664.2,200z"/>
	<path class="st3" d="M666.2,202.5v-5.1h0.9v4.3h2.3v0.8L666.2,202.5z"/>
	<path class="st3" d="M674,197.4v0.8h-2.7v1.4h2.5v0.8h-2.5v1.4h2.8v0.8h-3.7v-5.1H674z"/>
	<path class="st3" d="M628.9,209.6c0.1-0.2,0.2-0.4,0.2-0.6c0-0.2-0.1-0.4-0.2-0.5c-0.2-0.1-0.4-0.2-0.6-0.2c-0.4,0-0.8,0.3-1,0.6
		l-0.7-0.4c0.2-0.3,0.4-0.6,0.7-0.8c0.3-0.2,0.6-0.3,1-0.3c0.4,0,0.8,0.1,1.1,0.4c0.3,0.3,0.5,0.7,0.5,1.1c0,0.3-0.1,0.5-0.2,0.8
		c-0.2,0.3-0.5,0.6-0.8,0.9l-1.2,1.2h2.3v0.8h-3.5V212l1.5-1.6C628.5,210.2,628.7,209.9,628.9,209.6z"/>
	<path class="st3" d="M631.5,212.1c-0.7-1.2-0.7-2.7,0-3.9c0.7-0.9,2.1-1,2.9-0.2c0.1,0.1,0.2,0.1,0.2,0.2c0.7,1.2,0.7,2.7,0,3.9
		c-0.7,0.9-2.1,1-2.9,0.2C631.6,212.2,631.5,212.2,631.5,212.1z M632.1,208.8c-0.2,0.4-0.3,0.9-0.3,1.4c0,0.5,0.1,1,0.3,1.4
		c0.2,0.3,0.6,0.5,1,0.5c0.4,0,0.8-0.2,0.9-0.5c0.4-0.9,0.4-1.9,0-2.8c-0.2-0.3-0.6-0.5-0.9-0.5
		C632.7,208.2,632.3,208.4,632.1,208.8z"/>
	<path class="st3" d="M635.8,207.6h1.9v5.1h-0.8v-4.4h-1L635.8,207.6z"/>
	<path class="st3" d="M641,208.3c-0.4,0-0.8,0.1-1,0.5c-0.2,0.4-0.3,0.8-0.3,1.2c0.2-0.2,0.3-0.3,0.5-0.4c0.2-0.1,0.5-0.2,0.8-0.2
		c0.4,0,0.9,0.2,1.2,0.5c0.3,0.3,0.5,0.8,0.5,1.2c0,0.5-0.2,0.9-0.5,1.2c-0.3,0.3-0.8,0.5-1.3,0.5c-0.7,0-1.4-0.4-1.7-1.1
		c-0.2-0.5-0.3-0.9-0.3-1.4c0-0.4,0-0.9,0.2-1.3c0.1-0.3,0.2-0.6,0.5-0.8c0.4-0.4,0.9-0.6,1.4-0.6c0.5,0,1.1,0.2,1.5,0.5l-0.4,0.6
		c-0.1-0.1-0.3-0.2-0.5-0.3C641.3,208.4,641.2,208.3,641,208.3z M640.8,210.2c-0.3,0-0.5,0.1-0.7,0.2c-0.2,0.2-0.3,0.4-0.3,0.6
		c0,0.3,0.1,0.5,0.3,0.7c0.2,0.2,0.4,0.3,0.7,0.3c0.3,0,0.5-0.1,0.7-0.2c0.2-0.2,0.3-0.4,0.3-0.6
		C641.8,210.6,641.4,210.2,640.8,210.2C640.9,210.2,640.8,210.2,640.8,210.2L640.8,210.2z"/>
	<path class="st9" d="M727.5,115.7L727.5,115.7C727.7,115.5,727.5,115.7,727.5,115.7z"/>
	<path class="st9" d="M756.9,127.3c0,0-4.9-5.6-9.8-7.3s-18-4.4-18-4.4c2.4,0.8,4.6,2,6.6,3.6c-2.1-1.4-4.4-2.6-6.7-3.5h-1.4
		l-4.3,2.4c-2.1,1.2-4.2,4.2-5.9,7.6c1.8-3.4,3.8-6.5,5.8-7.5l4.4-2.5c0,0-16.8,1.4-23.4,7.6c-6.5,6.2-11,11.3-11,11.3
		s6.1-2,19.5,2.2l0,0h0.1c22.6-2.4,32.6,0,32.6,0s-4.7-11.1-6.8-14.7c-0.1-0.1-0.1-0.2-0.2-0.3l0.1,0.1c2,2.8,7,15,7,15
		c8.8-3.1,18.8-1.9,18.8-1.9L756.9,127.3z"/>
	<path class="st3" d="M727.5,115.7v-6.2c0.4-0.3,1-0.3,1.4,0l0.1,6.1L727.5,115.7z"/>
	<path class="st2" d="M585,175.3h-2.3v-0.1l-2-3.4H574l-3.3,3.4v0.1h-0.2l-5.5,1.4c0,0-0.2,0.2-0.2,1.3v1.6c0,0.7,0.6,1.3,1.3,1.3
		l0,0h1.2c-0.1,1.1,0.8,2.1,1.9,2.2c1.1,0.1,2.1-0.8,2.2-1.9c0-0.1,0-0.2,0-0.3h9.3c0,1.1,0.9,2.1,2.1,2.1c1.1,0,2.1-0.9,2.1-2.1
		h0.1c0.7,0,1.3-0.6,1.3-1.3v-2.9C586.3,175.9,585.7,175.3,585,175.3z"/>
	<path class="st2" d="M615.8,175.3h-2.3v-0.1l-2-3.4h-6.7l-3.3,3.4v0.1h-0.2l-5.5,1.4c0,0-0.2,0.2-0.2,1.3v1.6
		c0,0.7,0.6,1.3,1.3,1.3l0,0h1.2c0,1.1,0.9,2.1,2.1,2.1s2.1-0.9,2.1-2.1c0,0,0,0,0,0h9.3c-0.1,1.1,0.8,2.1,1.9,2.2
		c1.1,0.1,2.1-0.8,2.2-1.9c0-0.1,0-0.2,0-0.3h0.1c0.7,0,1.3-0.6,1.3-1.3c0,0,0,0,0,0v-2.9C617.2,175.9,616.6,175.3,615.8,175.3
		C615.8,175.3,615.8,175.3,615.8,175.3z"/>
	<path class="st2" d="M646.7,175.3h-2.3v-0.1l-2-3.4h-6.7l-3.3,3.4v0.1h-0.2l-5.5,1.4c0,0-0.2,0.2-0.2,1.3v1.6
		c0,0.7,0.6,1.3,1.3,1.3l0,0h1.2c-0.1,1.1,0.8,2.1,1.9,2.2c1.1,0.1,2.1-0.8,2.2-1.9c0-0.1,0-0.2,0-0.3h9.4c-0.1,1.1,0.8,2.1,1.9,2.2
		c1.1,0.1,2.1-0.8,2.2-1.9c0-0.1,0-0.2,0-0.3h0.1c0.7,0,1.3-0.6,1.3-1.3c0,0,0,0,0,0v-2.9C648,175.9,647.4,175.3,646.7,175.3
		C646.7,175.3,646.7,175.3,646.7,175.3z"/>
	<path class="st2" d="M677.5,175.3h-2.3v-0.1l-2-3.4h-6.7l-3.3,3.4v0.1h-0.2l-5.5,1.4c0,0-0.2,0.2-0.2,1.3v1.6
		c0,0.7,0.6,1.3,1.3,1.3c0,0,0,0,0,0h1.2c-0.1,1.1,0.8,2.1,1.9,2.2c1.1,0.1,2.1-0.8,2.2-1.9c0-0.1,0-0.2,0-0.3h9.4
		c-0.1,1.1,0.8,2.1,1.9,2.2c1.1,0.1,2.1-0.8,2.2-1.9c0-0.1,0-0.2,0-0.3h0.1c0.7,0,1.3-0.6,1.3-1.3c0,0,0,0,0,0v-2.9
		C678.9,175.9,678.3,175.3,677.5,175.3C677.5,175.3,677.5,175.3,677.5,175.3z"/>
	<path class="st2" d="M708.4,175.3h-2.3v-0.1l-2-3.4h-6.7l-3.3,3.4v0.1h-0.2l-5.5,1.4c0,0-0.2,0.2-0.2,1.3v1.6
		c0,0.7,0.6,1.3,1.3,1.3l0,0h1.2c-0.1,1.1,0.8,2.1,1.9,2.2c1.1,0.1,2.1-0.8,2.2-1.9c0-0.1,0-0.2,0-0.3h9.3c0,1.1,0.9,2.1,2.1,2.1
		s2.1-0.9,2.1-2.1c0,0,0,0,0,0h0.1c0.7,0,1.3-0.6,1.3-1.3v-2.9C709.7,175.9,709.1,175.3,708.4,175.3z"/>
	<path class="st2" d="M770.1,175.3h-2.3v-0.1l-2-3.4h-6.7l-3.3,3.4v0.1h-0.2l-5.5,1.4c0,0-0.2,0.2-0.2,1.3v1.6
		c0,0.7,0.6,1.3,1.3,1.3l0,0h1.2c-0.1,1.1,0.8,2.1,1.9,2.2c1.1,0.1,2.1-0.8,2.2-1.9c0-0.1,0-0.2,0-0.3h9.4c-0.1,1.1,0.8,2.1,1.9,2.2
		c1.1,0.1,2.1-0.8,2.2-1.9c0-0.1,0-0.2,0-0.3h0.1c0.7,0,1.3-0.6,1.3-1.3c0,0,0,0,0,0v-2.9C771.5,175.9,770.9,175.3,770.1,175.3
		C770.1,175.3,770.1,175.3,770.1,175.3z"/>
	<path class="st2" d="M805.3,174.6h-2.3l0,0l-2-3.5h-6.7l-3.4,3.4l0,0h-0.2l-5.5,1.4c0,0-0.2,0.2-0.2,1.3v1.6c0,0.7,0.6,1.3,1.3,1.3
		h1.2c-0.1,1.1,0.8,2.1,1.9,2.2c1.1,0.1,2.1-0.8,2.2-1.9c0-0.1,0-0.2,0-0.3h9.4c-0.1,1.1,0.8,2.1,1.9,2.2c1.1,0.1,2.1-0.8,2.2-1.9
		c0-0.1,0-0.2,0-0.3h0.1c0.7,0,1.3-0.6,1.3-1.3V176C806.7,175.3,806.1,174.7,805.3,174.6C805.4,174.6,805.3,174.6,805.3,174.6z"/>
	<path class="st2" d="M836.2,174.6h-2.3l0,0l-2-3.5h-6.7l-3.3,3.5l0,0h-0.2l-5.5,1.4c0,0-0.2,0.2-0.2,1.3v1.6c0,0.7,0.6,1.3,1.3,1.3
		h1.2c-0.1,1.1,0.8,2.1,1.9,2.2c1.1,0.1,2.1-0.8,2.2-1.9c0-0.1,0-0.2,0-0.3h9.4c-0.1,1.1,0.8,2.1,1.9,2.2c1.1,0.1,2.1-0.8,2.2-1.9
		c0-0.1,0-0.2,0-0.3h0.1c0.7,0,1.3-0.6,1.3-1.3V176C837.6,175.3,837,174.7,836.2,174.6C836.2,174.6,836.2,174.6,836.2,174.6z"/>
	<path class="st2" d="M867.1,174.6h-2.3l0,0l-2-3.5h-6.7l-3.3,3.5l0,0h-0.2L847,176c0,0-0.2,0.2-0.2,1.3v1.6c0,0.7,0.6,1.3,1.3,1.3
		h1.2c-0.1,1.1,0.8,2.1,1.9,2.2c1.1,0.1,2.1-0.8,2.2-1.9c0-0.1,0-0.2,0-0.3h9.4c-0.1,1.1,0.8,2.1,1.9,2.2c1.1,0.1,2.1-0.8,2.2-1.9
		c0-0.1,0-0.2,0-0.3h0.1c0.7,0,1.3-0.6,1.3-1.3V176C868.4,175.3,867.8,174.7,867.1,174.6z"/>
	<path class="st22" d="M586.6,180v-0.2c0.4,0,0.8-0.1,1.2-0.3l-0.2-0.2c-0.2-0.3-0.3-0.7-0.2-1c0-0.2,0.2-0.3,0.3-0.4
		c0.1-0.1,0.3-0.1,0.4,0c0.3,0.1,0.5,0.4,0.5,0.7c0,0.2,0,0.5-0.2,0.6c-0.1,0.1-0.2,0.2-0.3,0.2h0.1c0.5,0.1,1,0.1,1.5,0
		c-0.1-0.1-0.1-0.1-0.2-0.2c-0.2-0.4-0.2-0.9-0.1-1.4c0.1-0.5,0.6-0.9,1.1-0.9c0.3,0,0.7,0.2,0.8,0.5c0.2,0.4,0.2,0.9-0.1,1.3
		c-0.3,0.4-0.6,0.7-1.1,0.8c0.1,0,0.2,0.1,0.3,0.1c1,0.2,2.6-0.7,3.4-1.2l0.1,0.2c-0.8,0.6-2.5,1.5-3.6,1.3c-0.2,0-0.3-0.1-0.5-0.2
		c-0.6,0.2-1.2,0.2-1.7,0.1c-0.1,0-0.2-0.1-0.3-0.1C587.6,179.9,587.1,180,586.6,180z M590.7,177.2L590.7,177.2
		c-0.4,0.1-0.8,0.4-0.9,0.8c-0.1,0.4-0.1,0.8,0.1,1.2c0.1,0.1,0.1,0.2,0.2,0.3c0.4-0.2,0.8-0.4,1.1-0.8c0.2-0.3,0.3-0.8,0.1-1.1
		C591.2,177.3,590.9,177.2,590.7,177.2L590.7,177.2z M588,178.1c0,0-0.1,0-0.1,0c-0.1,0.1-0.2,0.2-0.2,0.3c-0.1,0.3,0,0.6,0.2,0.9
		c0.1,0.1,0.1,0.2,0.2,0.2c0.1-0.1,0.3-0.2,0.4-0.3c0.1-0.1,0.2-0.3,0.1-0.5c0-0.2-0.2-0.4-0.4-0.6C588.1,178.1,588,178.1,588,178.1
		L588,178.1z"/>
	<path class="st22" d="M617.8,180v-0.2c0.7,0,1.3-0.2,1.8-0.7h-0.1c-0.2,0-0.4-0.2-0.4-0.4c0-0.2,0.1-0.4,0.2-0.5
		c0.2-0.2,0.4-0.2,0.6-0.1c0.2,0.1,0.2,0.3,0.2,0.6c0.3-0.2,0.6-0.4,0.7-0.8c0-0.2-0.1-0.4-0.2-0.5c-0.1-0.1-0.2-0.1-0.3-0.2
		c-0.1,0.1-0.3,0.1-0.5,0.1c-0.1,0-0.2,0-0.3-0.1c0-0.1,0-0.2,0.1-0.2c0.1-0.1,0.2-0.1,0.3-0.1c0.1,0,0.2,0,0.4,0.1
		c0.3-0.2,0.5-0.4,0.5-0.7c0.1-0.5-0.2-1.1-0.7-1.3l0.1-0.2c0.7,0.3,1,1.1,0.7,1.8c-0.1,0.2-0.2,0.4-0.4,0.6c0.1,0,0.2,0.1,0.2,0.1
		c0.2,0.2,0.3,0.4,0.3,0.7c-0.1,0.6-0.9,1-1,1.1l0,0C619.5,179.7,618.7,180.1,617.8,180z M619.7,178.3c-0.1,0-0.2,0.1-0.2,0.1
		c-0.1,0.1-0.1,0.2-0.2,0.3c0,0.1,0.1,0.2,0.2,0.2c0.1,0,0.2,0,0.3-0.1v-0.1C619.9,178.6,619.8,178.4,619.7,178.3
		C619.7,178.3,619.7,178.3,619.7,178.3L619.7,178.3z M619.7,177.1L619.7,177.1C619.7,177.1,619.7,177.1,619.7,177.1L619.7,177.1
		L619.7,177.1L619.7,177.1z"/>
	<path class="st22" d="M650.3,179.8L650.3,179.8c-0.2,0-0.3,0-0.5-0.1c0,0-0.1-0.1-0.1-0.1c-0.4,0.1-0.9,0.2-1.3,0.1v-0.2
		c0.4,0,0.8,0,1.2-0.1c0-0.2,0-0.4,0.1-0.6c0.2-0.4,0.6-0.7,1-0.7c0.2,0,0.4,0.2,0.4,0.4c0,0.2-0.1,0.4-0.3,0.5
		c-0.3,0.2-0.6,0.3-0.9,0.4l0,0c0.1,0.1,0.2,0.1,0.3,0.1c0.4,0,0.8-0.2,1.2-0.5c0.9-0.5,1.5-1.3,1.6-2.3c-0.1-1-0.7-1.9-1.5-2.4
		l0.1-0.2c0.9,0.5,1.5,1.5,1.6,2.6c-0.2,1-0.8,1.9-1.7,2.4C651.2,179.5,650.8,179.7,650.3,179.8z M650.6,178.3
		c-0.3,0-0.6,0.2-0.7,0.6c0,0.1,0,0.3,0,0.4c0.3-0.1,0.6-0.3,0.9-0.4c0.2-0.1,0.2-0.2,0.2-0.3s-0.1-0.2-0.2-0.2L650.6,178.3z"/>
	<path class="st22" d="M679.3,180v-0.2c0.4,0,0.8-0.1,1.2-0.3c-0.1-0.1-0.1-0.1-0.2-0.2c-0.2-0.3-0.3-0.7-0.2-1
		c0-0.2,0.2-0.3,0.3-0.4c0.1-0.1,0.3-0.1,0.5,0c0.3,0.1,0.4,0.4,0.5,0.7c0,0.2,0,0.5-0.2,0.6c-0.1,0.1-0.2,0.2-0.3,0.2h0.1
		c0.5,0.1,1,0.1,1.5,0c-0.1-0.1-0.1-0.1-0.2-0.2c-0.2-0.4-0.3-0.9-0.1-1.4c0.1-0.5,0.6-0.9,1.1-0.9c0.3,0,0.7,0.2,0.8,0.5
		c0.2,0.4,0.2,0.9-0.1,1.3c-0.3,0.4-0.7,0.7-1.1,0.8c0.1,0,0.2,0.1,0.3,0.1c1,0.2,2.6-0.7,3.4-1.2l0.1,0.2c-0.8,0.6-2.5,1.5-3.6,1.3
		c-0.2,0-0.3-0.1-0.5-0.2c-0.6,0.2-1.2,0.2-1.7,0.1c-0.1,0-0.2-0.1-0.3-0.1C680.3,179.9,679.8,180,679.3,180z M683.4,177.2
		L683.4,177.2c-0.4,0.1-0.8,0.4-0.9,0.8c-0.1,0.4-0.1,0.8,0.1,1.2c0.1,0.1,0.1,0.2,0.2,0.3c0.4-0.2,0.8-0.4,1.1-0.8
		c0.2-0.3,0.3-0.8,0.1-1.1C683.9,177.3,683.6,177.2,683.4,177.2L683.4,177.2z M680.7,178.1c0,0-0.1,0-0.1,0
		c-0.1,0.1-0.2,0.2-0.2,0.3c-0.1,0.3,0,0.6,0.2,0.9c0.1,0.1,0.1,0.2,0.2,0.2c0.1-0.1,0.3-0.2,0.4-0.3c0.1-0.1,0.2-0.3,0.1-0.5
		c0-0.2-0.2-0.4-0.4-0.6C680.8,178.1,680.7,178.1,680.7,178.1L680.7,178.1z"/>
	<path class="st22" d="M712.2,180.1L712.2,180.1c-0.2,0-0.3,0-0.5-0.1c0,0-0.1-0.1-0.1-0.1c-0.4,0.1-0.9,0.2-1.3,0.1v-0.2
		c0.4,0,0.8,0,1.2-0.1c0-0.2,0-0.4,0.1-0.6c0.2-0.4,0.6-0.7,1.1-0.7c0.2,0,0.4,0.2,0.4,0.4c0,0.2-0.1,0.4-0.3,0.5
		c-0.3,0.2-0.6,0.3-0.9,0.4l0,0c0.1,0.1,0.2,0.1,0.3,0.1h0.1c0.4,0,0.8-0.2,1.1-0.5c0.8-0.5,1.4-1.3,1.6-2.3c-0.1-1-0.7-1.9-1.5-2.4
		l0.1-0.2c0.9,0.5,1.5,1.5,1.6,2.6c-0.2,1-0.8,1.9-1.7,2.4C713.1,179.9,712.6,180.1,712.2,180.1z M712.5,178.7
		c-0.3,0-0.6,0.3-0.7,0.6c-0.1,0.1-0.1,0.3-0.1,0.4c0.3-0.1,0.6-0.3,0.9-0.4c0.2-0.1,0.2-0.2,0.2-0.3s-0.1-0.2-0.2-0.2L712.5,178.7z
		"/>
	<path class="st22" d="M741,179.4v-0.2c0.7,0,1.3-0.2,1.8-0.7h-0.2c-0.2,0-0.4-0.2-0.4-0.4c0-0.2,0.1-0.3,0.2-0.5
		c0.2-0.2,0.4-0.3,0.6-0.1c0.2,0.1,0.2,0.4,0.2,0.6c0.3-0.2,0.6-0.5,0.7-0.8c0-0.2-0.1-0.4-0.2-0.5c-0.1-0.1-0.2-0.1-0.3-0.2
		c-0.1,0.1-0.3,0.1-0.5,0.1c-0.1,0-0.2,0-0.3-0.1c0-0.1,0-0.2,0.1-0.2c0.1-0.1,0.2-0.1,0.3-0.1c0.1,0,0.2,0,0.4,0.1
		c0.3-0.2,0.5-0.4,0.6-0.7c0.1-0.5-0.2-1.1-0.7-1.3l0.1-0.2c0.6,0.3,0.9,0.9,0.8,1.5c-0.1,0.3-0.3,0.6-0.5,0.8
		c0.1,0,0.2,0.1,0.2,0.1c0.2,0.2,0.3,0.4,0.3,0.7c-0.1,0.6-0.9,1-1,1.1l0,0C742.7,179.2,741.7,179.3,741,179.4z M742.9,177.6
		c-0.1,0-0.2,0.1-0.2,0.1c-0.1,0.1-0.2,0.2-0.2,0.3s0.1,0.2,0.2,0.2c0.1,0,0.2,0,0.3-0.1c0,0,0,0,0-0.1c0.1-0.1,0.1-0.3,0-0.5
		L742.9,177.6z M742.9,176.4C742.9,176.4,742.9,176.4,742.9,176.4C742.8,176.4,742.9,176.4,742.9,176.4L742.9,176.4L742.9,176.4
		L742.9,176.4z"/>
	<path class="st22" d="M772.1,179.6v-0.2c0.4,0,0.8-0.1,1.2-0.3c-0.1-0.1-0.1-0.1-0.2-0.2c-0.2-0.3-0.3-0.7-0.2-1
		c0-0.2,0.2-0.3,0.3-0.4c0.1-0.1,0.3-0.1,0.4,0c0.3,0.1,0.5,0.4,0.5,0.7c0,0.2,0,0.5-0.2,0.6c-0.1,0.1-0.2,0.2-0.3,0.2h0.1
		c0.5,0.1,1,0.1,1.5-0.1c-0.1-0.1-0.1-0.1-0.2-0.2c-0.2-0.4-0.3-0.9-0.1-1.4c0.1-0.5,0.6-0.9,1.1-0.9l0,0c0.3,0,0.6,0.2,0.8,0.5
		c0.2,0.4,0.2,0.9-0.1,1.3c-0.3,0.4-0.7,0.7-1.1,0.8c0.1,0,0.2,0.1,0.3,0.1c1,0.2,2.6-0.7,3.4-1.2l0.1,0.2c-0.8,0.6-2.5,1.5-3.6,1.3
		c-0.2,0-0.3-0.1-0.5-0.2c-0.6,0.2-1.2,0.2-1.7,0.1l-0.3-0.1C773,179.5,772.5,179.6,772.1,179.6z M776.1,176.8L776.1,176.8
		c-0.4,0.1-0.8,0.4-0.9,0.8c-0.1,0.4-0.1,0.8,0.1,1.2c0.1,0.1,0.1,0.2,0.2,0.3c0.4-0.2,0.8-0.4,1.1-0.8c0.2-0.3,0.3-0.7,0.1-1.1
		C776.6,176.9,776.4,176.8,776.1,176.8z M773.4,177.7c0,0-0.1,0-0.1,0c-0.1,0.1-0.2,0.2-0.2,0.3c-0.1,0.3,0,0.6,0.1,0.9
		c0.1,0.1,0.1,0.2,0.2,0.2c0.1-0.1,0.3-0.2,0.4-0.3c0.1-0.1,0.2-0.3,0.2-0.5c0-0.2-0.2-0.4-0.4-0.5
		C773.5,177.7,773.5,177.7,773.4,177.7z"/>
	<path class="st22" d="M807,179.6v-0.2c0.3,0,0.6-0.1,0.9-0.3c-0.1-0.1-0.1-0.2-0.2-0.2c-0.2-0.4-0.2-0.7-0.1-1.1
		c0-0.2,0.1-0.4,0.3-0.5c0.1-0.1,0.2-0.1,0.3,0c0.2,0.2,0.3,0.5,0.3,0.8c0,0.4-0.1,0.7-0.4,1h0.1c0.4,0.1,0.8,0.1,1.1-0.1
		c-0.1-0.1-0.1-0.2-0.2-0.3c-0.2-0.5-0.2-1-0.1-1.5c0.1-0.6,0.5-1,0.8-1.1l0,0c0.2,0,0.4,0.1,0.5,0.3c0.3,0.5,0.3,1.2,0,1.7
		c-0.2,0.4-0.5,0.8-0.8,1c0.1,0.1,0.2,0.1,0.3,0.2c0.7,0.1,1.8-0.8,2.4-1.4l0.1,0.1c-0.2,0.2-1.5,1.7-2.5,1.5
		c-0.2,0-0.3-0.1-0.5-0.2c-0.4,0.2-0.9,0.2-1.3,0.1c-0.1,0-0.1-0.1-0.2-0.1C807.7,179.4,807.3,179.6,807,179.6z M810,176.4
		L810,176.4c-0.3,0-0.5,0.4-0.7,0.9c-0.1,0.5-0.1,0.9,0.1,1.4c0,0.1,0.1,0.2,0.2,0.3c0.3-0.2,0.6-0.5,0.8-0.9c0.2-0.5,0.2-1,0-1.5
		C810.3,176.5,810.1,176.4,810,176.4z M808,177.4L808,177.4c-0.1,0.1-0.2,0.2-0.2,0.4c-0.1,0.3,0,0.7,0.1,1c0,0.1,0.1,0.1,0.1,0.2
		c0.3-0.2,0.4-0.6,0.3-0.9c0-0.2-0.1-0.5-0.3-0.6C808.1,177.4,808,177.4,808,177.4L808,177.4z"/>
	<path class="st22" d="M838,178.9v-0.1c0.6,0,1.1-0.1,1.6-0.3h-0.1c-0.2,0-0.3-0.1-0.4-0.2s0-0.2,0.2-0.3c0.2-0.1,0.4-0.1,0.6,0
		c0.1,0.1,0.1,0.1,0.1,0.2c0.4-0.1,0.7-0.3,0.7-0.4s-0.1-0.2-0.2-0.2c-0.1,0-0.2-0.1-0.3-0.1c-0.1,0-0.3,0.1-0.4,0.1
		c-0.1,0-0.2,0-0.2-0.1c0-0.1,0-0.1,0.1-0.1c0.1,0,0.1,0,0.2,0h0.3c0.2,0,0.4-0.2,0.5-0.4c0-0.1,0-0.2,0-0.2
		c-0.1-0.2-0.4-0.3-0.6-0.4v-0.1c0.3,0.1,0.5,0.2,0.7,0.5c0.1,0.1,0.1,0.2,0,0.4c-0.1,0.2-0.2,0.3-0.4,0.4l0.2,0.1
		c0.2,0.1,0.3,0.3,0.3,0.4s-0.7,0.5-0.9,0.6l0,0C839.4,178.8,838.7,179,838,178.9z M839.7,178.1c-0.1,0-0.2,0-0.3,0.1
		c-0.1,0.1-0.1,0.1-0.1,0.1c0.1,0.1,0.1,0.1,0.2,0.1c0.1,0,0.2,0,0.3,0l0,0c0,0,0-0.1,0-0.2C839.8,178.1,839.8,178.1,839.7,178.1
		L839.7,178.1z"/>
	<path class="st20" d="M574.1,128L574.1,128c3.1-1.2,6.5,0.4,7.7,3.5l6.4,17c1.2,3.1-0.4,6.5-3.5,7.7l0,0c-3.1,1.2-6.5-0.4-7.7-3.5
		l-6.4-17C569.4,132.6,571,129.1,574.1,128z"/>
	<circle class="st23" cx="577.6" cy="137.4" r="4"/>
	<circle class="st24" cx="581.3" cy="147.3" r="4"/>
	<path class="st20" d="M589.9,171.6c-0.7,0-1.3-0.4-1.6-1.1l-5.9-15.6c-0.3-0.9,0.1-1.8,1-2.1c0.9-0.3,1.8,0.1,2.1,1l5.9,15.6
		c0.3,0.9-0.1,1.8-1,2.1c0,0,0,0,0,0C590.2,171.5,590,171.6,589.9,171.6z"/>
	<path class="st20" d="M680,106.1c1-0.4,2.1,0,2.6,1c0,0,0,0,0,0l8.8,19.4c0.4,1,0,2.1-1,2.6c0,0,0,0,0,0l-9.2,4.2
		c-1,0.4-2.1,0-2.6-1c0,0,0,0,0,0l-8.8-19.4c-0.4-1,0-2.1,1-2.6c0,0,0,0,0,0L680,106.1z"/>
	<path class="st4" d="M679.9,109.4c0.7-0.3,1.5,0,1.8,0.7l6.2,13.7c0.3,0.7,0,1.5-0.7,1.8c0,0,0,0,0,0l-6.5,3
		c-0.7,0.3-1.5,0-1.8-0.7l-6.2-13.7c-0.3-0.7,0-1.5,0.7-1.8L679.9,109.4z"/>
	<path class="st4" d="M683.8,129.1c0,0.6,0.6,1.1,1.2,1.1s1.1-0.6,1.1-1.2c0-0.6-0.6-1.1-1.2-1.1c0,0,0,0,0,0
		C684.2,127.9,683.7,128.4,683.8,129.1C683.8,129,683.8,129,683.8,129.1z"/>
	<path class="st3" d="M667,114.2C667,114.2,666.9,114.2,667,114.2c-0.8-1-1-2.2-0.8-3.4c0.3-1,1.1-1.8,2.1-2.2c0,0,0.1,0,0.1,0
		c0,0,0,0.1,0,0.1c-0.9,0.4-1.7,1.1-2,2.1c-0.2,1.1,0,2.3,0.7,3.3c0,0,0,0.1,0,0.1L667,114.2z"/>
	<path class="st3" d="M664.5,113.6C664.4,113.7,664.4,113.7,664.5,113.6c-0.8-1-1-2.2-0.8-3.4c0.3-1,1.1-1.8,2.1-2.2
		c0,0,0.1,0,0.1,0c0,0,0,0.1,0,0.1c0,0,0,0,0,0c-0.9,0.4-1.7,1.1-2,2.1c-0.2,1.1,0,2.3,0.7,3.3c0,0,0,0.1,0,0.1L664.5,113.6z"/>
	<path class="st3" d="M692,130.9c-0.1,0-0.1,0-0.1-0.1c0,0,0-0.1,0.1-0.1c1-0.4,1.7-1.2,2-2.1c0.2-1.1-0.1-2.3-0.8-3.2
		c0,0,0-0.1,0-0.1c0,0,0.1,0,0.1,0c0.7,1,1,2.2,0.8,3.4C693.8,129.6,693.1,130.4,692,130.9L692,130.9z"/>
	<path class="st3" d="M694.5,131.4C694.4,131.4,694.4,131.4,694.5,131.4c-0.1-0.1-0.1-0.2-0.1-0.2c1-0.4,1.7-1.1,2-2.1
		c0.2-1.1-0.1-2.3-0.8-3.2c0,0,0-0.1,0-0.1c0,0,0.1,0,0.1,0c0.7,1,1,2.2,0.8,3.4C696.2,130.1,695.5,131,694.5,131.4L694.5,131.4z"/>
	<path class="st16" d="M684.5,120.3l-2.2-2.2l-0.1-0.2c-0.2-1-1-1.7-2-1.7c-0.1,0-0.2,0-0.4,0l0,0c-0.1-0.3-0.5-0.5-0.8-0.3
		s-0.5,0.5-0.3,0.8l0,0c0,0,0,0.1,0.1,0.1c-0.4,0.4-0.7,0.9-0.7,1.5c0,0.3,0.1,0.6,0.2,0.9l0,0l0.4,0.7c0.2,0.8,0.3,1.6,0.4,2.5
		c0.1,1.5,1.2,1.1,1.2,1.1l1.3-0.6c0.3,0.3,0.8,0.4,1.1,0.1c0.2-0.2,0.3-0.5,0.3-0.7l1.1-0.5C685.2,121,684.5,120.3,684.5,120.3z"/>
	<path class="st20" d="M733.8,58.7l-0.2-0.2c0.8-1,2-1.4,3.2-1l-0.1,0.2C735.6,57.4,734.4,57.8,733.8,58.7z"/>
	<path class="st20" d="M733.8,56.6l-0.2-0.2c0.4-0.6,1.2-0.7,1.8-0.3c0,0,0,0,0,0l-0.1,0.2c-0.4-0.3-1.1-0.3-1.4,0.1
		C733.9,56.5,733.8,56.5,733.8,56.6z"/>
	<path class="st20" d="M739.6,65.1c-0.1,0-0.2,0-0.3,0l0.1-0.2c0.5,0.1,1.1-0.2,1.2-0.7l0.2,0.1C740.6,64.8,740.1,65.1,739.6,65.1z"
		/>
	<path class="st20" d="M740.2,62.7l2.4-5.4l4.3,1.9l1.4-3.2l-4.7-2.1l0,0c-0.2-0.1-0.5,0-0.5,0.2L740,61c-0.4-0.8-1.1-1.4-1.9-1.8
		c-1.7-0.8-3.6-0.2-4.2,1.1s0.3,3.1,2,3.9c1.7,0.8,3.6,0.2,4.2-1.1C740.2,63,740.2,62.8,740.2,62.7z"/>
	<path class="st0" d="M719.7,62.2c-0.5,0.1-0.9,0.4-1.2,0.8l-0.5-1.8l-16.5,5.1l0.9,3c1.1,3.7,5.1,5.8,8.9,4.7c0,0,0,0,0,0l3-0.9
		c2.8-0.8,4.7-3.3,5-6.1c1.2,0.7,2.8,0.3,3.6-0.9s0.3-2.8-0.9-3.6C721.2,62.1,720.4,62,719.7,62.2L719.7,62.2z M720.8,66.1
		c-0.7,0.2-1.5-0.2-1.8-0.9c-0.2-0.7,0.2-1.5,0.9-1.8c0.7-0.2,1.5,0.2,1.8,0.9c0,0,0,0,0,0C722,65,721.6,65.8,720.8,66.1z"/>
	<path class="st21" d="M709.4,62.5c-0.6,0-1.1-0.2-1.6-0.7c-0.5-0.4-0.8-1.1-0.8-1.8c0.1-0.9,0.5-1.7,1.2-2.2l0.1-0.1
		c0.2-0.2,0.4-0.3,0.5-0.6c0.2-0.5-0.3-1.2-0.8-1.5l-0.4-0.2c-0.5-0.2-1-0.6-1.3-1.1c-0.3-0.7-0.2-1.6,0.3-2.2c0.5-0.5,1-1,1.7-1.3
		c0.1-0.1,0.1-0.1,0.2,0c0.1,0.1,0.1,0.2,0,0.2c-0.6,0.3-1.1,0.8-1.6,1.3c-0.4,0.5-0.5,1.2-0.2,1.8c0.3,0.4,0.7,0.8,1.2,1
		c0.1,0.1,0.3,0.2,0.4,0.2c0.7,0.4,1.2,1.2,1,1.9c-0.1,0.3-0.3,0.5-0.6,0.7l-0.1,0.1c-0.6,0.5-1,1.2-1.1,2c0,0.6,0.2,1.1,0.7,1.5
		c0.4,0.4,1,0.6,1.6,0.6c0.1,0,0.1,0.1,0.2,0.1c0,0.1,0,0.2-0.1,0.2c0,0,0,0,0,0L709.4,62.5z"/>
	<path class="st21" d="M712.9,61.9c-0.5,0-0.9-0.2-1.3-0.5c-0.4-0.4-0.6-0.9-0.6-1.4c0.1-0.7,0.4-1.3,1-1.8l0.1-0.1
		c0.2-0.1,0.3-0.3,0.4-0.4c0.2-0.4-0.2-0.9-0.7-1.2l-0.3-0.2c-0.4-0.2-0.8-0.5-1-0.9c-0.3-0.6-0.2-1.3,0.2-1.8
		c0.4-0.4,0.8-0.8,1.3-1.1c0.1-0.1,0.2-0.1,0.2,0c0,0.1,0,0.2,0,0.2c-0.5,0.3-0.9,0.6-1.3,1c-0.3,0.4-0.4,1-0.2,1.4
		c0.2,0.3,0.6,0.6,0.9,0.8l0.3,0.2c0.5,0.3,1,1,0.8,1.5c-0.1,0.2-0.3,0.4-0.5,0.5l-0.1,0.1c-0.5,0.4-0.8,1-0.9,1.6
		c0,0.5,0.2,0.9,0.5,1.2c0.3,0.3,0.8,0.5,1.2,0.4c0.1,0,0.2,0,0.2,0.1c0,0,0,0,0,0c0,0.1,0,0.2-0.1,0.2L712.9,61.9z"/>
	<path class="st21" d="M705.1,64.3c-0.5,0-0.9-0.2-1.3-0.5c-0.4-0.4-0.6-0.9-0.6-1.5c0.1-0.7,0.4-1.3,1-1.8l0.1-0.1
		c0.2-0.1,0.3-0.3,0.4-0.4c0.2-0.4-0.2-0.9-0.7-1.2l-0.3-0.2c-0.4-0.2-0.8-0.5-1-0.9c-0.3-0.6-0.2-1.3,0.2-1.8
		c0.4-0.5,0.8-0.8,1.3-1.1c0.1-0.1,0.2-0.1,0.2,0c0.1,0.1,0.1,0.1,0,0.2c-0.5,0.3-0.9,0.6-1.3,1c-0.3,0.4-0.4,1-0.2,1.4
		c0.2,0.3,0.6,0.6,0.9,0.8l0.3,0.2c0.5,0.3,1,1,0.8,1.5c-0.1,0.2-0.3,0.4-0.5,0.6l-0.1,0.1c-0.5,0.4-0.8,1-0.9,1.6
		c0,0.5,0.2,0.9,0.5,1.2c0.3,0.3,0.8,0.5,1.2,0.4c0.1,0,0.1,0.1,0.2,0.1c0,0.1,0,0.2-0.1,0.2L705.1,64.3z"/>
	<path class="st16" d="M782.2,75.3c-2.1,2.8-6.1,3.4-9,1.3c-2.8-2.1-3.4-6.1-1.3-9c0,0,0,0,0,0c1-1.3,2.5-2.2,4.2-2.5l0,0
		c1.4-0.3,2.7-1,3.6-2.1c1-1.2,1.7-1.1,1.7-1.1l1.8,1.3l1.8,1.4c0,0,0.3,0.6-0.6,1.9c-0.8,1.2-1.1,2.6-1,4.1c0,0.1,0,0.1,0,0.2
		C783.7,72.4,783.2,74,782.2,75.3z"/>
	<polygon class="st3" points="781.7,62 784.1,58.8 786.8,58.5 787.5,61.3 785.1,64.6 	"/>
	<path class="st3" d="M773.1,63.8C773,63.8,773,63.8,773.1,63.8l-1.9-4.5c0,0,0-0.1,0-0.1c0,0,0,0,0,0c0,0,0.1,0,0.1,0c0,0,0,0,0,0
		l1.8,4.4C773.2,63.8,773.2,63.8,773.1,63.8L773.1,63.8z"/>
	<path class="st3" d="M791.1,74.3L791.1,74.3l-5.1-0.8c0,0-0.1,0-0.1-0.1c0,0,0-0.1,0.1-0.1l5.1,0.8c0,0,0.1,0,0.1,0.1c0,0,0,0,0,0
		C791.2,74.2,791.2,74.3,791.1,74.3C791.1,74.3,791.1,74.3,791.1,74.3z"/>
	<path class="st3" d="M781.3,84.2C781.3,84.2,781.3,84.2,781.3,84.2l-1.9-4.4c0,0,0-0.1,0-0.1c0,0,0,0,0,0c0,0,0.1,0,0.1,0
		c0,0,0,0,0,0l1.8,4.4C781.4,84.2,781.4,84.2,781.3,84.2L781.3,84.2z"/>
	<path class="st3" d="M767.9,72L767.9,72l-5.2-1.2c0,0-0.1-0.1-0.1-0.1c0,0,0.1-0.1,0.1-0.1c0,0,0,0,0,0l5.2,1.2
		C767.9,71.9,768,71.9,767.9,72C768,72,767.9,72,767.9,72C767.9,72,767.9,72,767.9,72z"/>
	<path class="st3" d="M770.8,65.9L770.8,65.9l-3.8-3.4c0,0,0-0.1,0-0.1c0,0,0.1,0,0.1,0l3.7,3.4C770.9,65.9,770.9,65.9,770.8,65.9
		C770.9,65.9,770.9,65.9,770.8,65.9z"/>
	<path class="st3" d="M768.5,69L768.5,69l-3.8-2.4c0,0,0-0.1,0-0.1c0,0,0.1,0,0.1,0l3.8,2.4c0,0,0,0.1,0,0.1
		C768.6,69,768.6,69,768.5,69z"/>
	<path class="st3" d="M788.5,78.6L788.5,78.6l-3.8-2.5c0,0,0-0.1,0-0.1c0,0,0,0,0,0c0,0,0.1,0,0.1,0l3.8,2.5c0,0,0.1,0.1,0,0.1
		c0,0,0,0,0,0L788.5,78.6z"/>
	<path class="st3" d="M785.4,82.2C785.4,82.2,785.4,82.2,785.4,82.2l-3-3.7c0,0,0-0.1,0-0.1s0.1,0,0.1,0l2.9,3.7
		C785.5,82,785.5,82.1,785.4,82.2L785.4,82.2z"/>
	<path class="st3" d="M763.7,76.3c0,0-0.1-0.1,0-0.1c0,0,0,0,0,0l4.5-1.9c0,0,0.1,0,0.1,0c0,0,0,0.1,0,0.1c0,0,0,0,0,0L763.7,76.3
		L763.7,76.3z"/>
	<path class="st3" d="M776.6,85.4C776.5,85.4,776.5,85.4,776.6,85.4C776.5,85.3,776.5,85.3,776.6,85.4l0-4.8c0,0,0-0.1,0.1-0.1
		c0,0,0,0,0,0l0,0c0,0,0.1,0,0.1,0.1c0,0,0,0,0,0L776.6,85.4C776.7,85.4,776.6,85.4,776.6,85.4C776.6,85.4,776.6,85.4,776.6,85.4z"
		/>
	<path class="st3" d="M771.5,83.8L771.5,83.8c0,0,0-0.1,0-0.1l1.9-4.2c0,0,0.1,0,0.1,0c0,0,0,0.1,0,0.1c0,0,0,0,0,0l-1.9,4.2
		C771.6,83.9,771.6,83.9,771.5,83.8z"/>
	<path class="st3" d="M767,81.1L767,81.1C766.9,81.1,766.9,81,767,81.1c-0.1-0.1-0.1-0.1,0-0.1l3.2-3.7c0,0,0.1,0,0.1,0c0,0,0,0,0,0
		c0,0,0,0.1,0,0.1L767,81.1C767,81.1,767,81.1,767,81.1z"/>
	<path class="st8" d="M738.3,113.6c-0.9-0.7-1.9-1.1-3-1.2c-0.3-0.1-0.7-0.1-1,0c-1,0.3-0.4,1.3,0.1,1.8c0.4,0.4,0.9,0.7,1.4,0.8
		c0.6,0,1.1,0.2,1.7,0.3c0.8,0.6,1.5,1.4,1.8,2.3C739.9,116.2,739.4,114.6,738.3,113.6z"/>
	<path class="st8" d="M741.2,115.5c0.5-0.6,1.2-1.1,2-1.3c0.2-0.1,0.4-0.1,0.6,0c0.5,0.2,1.4,1.9,0.5,1.8c-1.4-0.1-3.2-0.4-4,1.2
		C740.4,116.6,740.7,116,741.2,115.5z"/>
	<path class="st8" d="M742.1,113.4c0.2,0,0.5,0.1,0.5,0.3c0,0.2,0,0.3-0.1,0.4c-0.2,0.3-1.7,1-2,0.7
		C740.1,114.4,741.8,113.4,742.1,113.4z"/>
	<path class="st8" d="M738.9,112.5c0-0.2,0.1-0.3,0.3-0.4c0.1,0,0.3,0,0.3,0.1c0.2,0.2,0.7,1.4,0.5,1.6
		C739.6,114.2,738.9,112.8,738.9,112.5z"/>
	<circle class="st8" cx="741.2" cy="111.9" r="0.4"/>
	<path class="st25" d="M746.9,70.2l6.5,2.1c1.3,0.4,2.1,1.9,1.6,3.2l-2.1,6.5c-0.4,1.3-1.9,2.1-3.2,1.6l-6.5-2.1
		c-1.3-0.4-2.1-1.9-1.6-3.2l2.1-6.5C744.1,70.4,745.5,69.7,746.9,70.2z"/>
	<path class="st4" d="M750.2,76l-0.2,0.5l1.6,0.5l-0.3,1l-1.6-0.5l-1.7,5l-1.3-0.4l1.6-5l-0.8-0.2l0.3-1l0.8,0.2l0.2-0.5
		c0.2-0.6,0.6-1,1.1-1.3c0.5-0.3,1.1-0.3,1.6-0.1c0.6,0.2,1,0.6,1.3,1.1L752,76c-0.1-0.3-0.4-0.5-0.7-0.7c-0.2-0.1-0.5-0.1-0.7,0
		C750.4,75.5,750.3,75.7,750.2,76z"/>
	<path class="st26" d="M651.6,91.4c-3.5,3.6-9.2,3.7-12.7,0.2s-3.7-9.2-0.2-12.7s9.2-3.7,12.7-0.2c1.9,1.9,2.9,4.5,2.7,7.2l-9.2,1.3
		L651.6,91.4z"/>
	<polygon class="st27" points="650.2,89.1 656.9,85.9 660,89.7 667.3,82.8 673.7,86.1 677.1,82.5 682.3,91 686.7,98.4 676.7,98.3 
		669.9,98.6 662.8,94 656.3,93.6 654.7,91.1 	"/>
	<path class="st26" d="M782.9,101c2.3,2.8,6.5,3.2,9.3,0.9c2.8-2.3,3.2-6.5,0.9-9.3c-2.3-2.8-6.5-3.2-9.3-0.9
		c-1.5,1.3-2.4,3.1-2.4,5.1l6.7,1.5L782.9,101z"/>
	<polygon class="st27" points="784.1,99.4 779.3,96.7 776.8,99.3 771.8,93.7 766.9,95.8 764.7,92.9 760.2,98.9 756.6,104.1 
		764,104.6 769,105.2 774.5,102.3 779.3,102.4 780.7,100.6 	"/>
	<path class="st0" d="M711.5,16.4h44.5c3.2,0,5.7,2.6,5.7,5.7v16.8c0,3.2-2.6,5.7-5.7,5.7h-44.5c-3.2,0-5.7-2.6-5.7-5.7V22.1
		C705.8,19,708.4,16.4,711.5,16.4z"/>
	<path class="st28" d="M717.8,31.8h-1.8v-4.2h1.6c0.2,0,0.5,0,0.7,0.1c0.2,0,0.3,0.1,0.5,0.3c0.2,0.2,0.3,0.5,0.3,0.7
		c0,0.3-0.1,0.6-0.3,0.7l-0.2,0.1l-0.2,0.1c0.2,0,0.5,0.2,0.6,0.4c0.2,0.2,0.2,0.4,0.2,0.7c0,0.3-0.1,0.6-0.3,0.8
		C718.6,31.7,718.2,31.9,717.8,31.8z M716.6,29.4h0.9c0.5,0,0.8-0.2,0.8-0.5c0-0.2-0.1-0.3-0.2-0.4c-0.2-0.1-0.4-0.1-0.6-0.1h-0.9
		L716.6,29.4z M716.6,31.2h1.1c0.2,0,0.4,0,0.6-0.1c0.1-0.1,0.2-0.3,0.2-0.5c0-0.4-0.3-0.6-0.9-0.6h-1L716.6,31.2z"/>
	<path class="st28" d="M723.1,27.6v0.7h-2.2v1.1h2V30h-2v1.1h2.3v0.7h-3v-4.1H723.1z"/>
	<path class="st28" d="M727.6,31.8h-1.8v-4.2h1.6c0.3,0,0.5,0,0.7,0.1c0.2,0.1,0.3,0.1,0.5,0.3c0.2,0.2,0.3,0.5,0.3,0.7
		c0,0.3-0.1,0.6-0.3,0.7c0,0-0.1,0.1-0.2,0.1c0,0-0.1,0.1-0.1,0.1c0.2,0.1,0.5,0.2,0.6,0.4c0.2,0.2,0.2,0.4,0.2,0.7
		c0,0.3-0.1,0.6-0.3,0.8C728.5,31.7,728,31.9,727.6,31.8z M726.5,29.4h0.9c0.5,0,0.8-0.2,0.8-0.5c0-0.2-0.1-0.3-0.2-0.4
		c-0.2-0.1-0.4-0.1-0.6-0.1h-0.9V29.4z M726.5,31.2h1.1c0.2,0,0.4,0,0.6-0.1c0.1-0.1,0.2-0.3,0.2-0.5c0-0.4-0.3-0.6-0.9-0.6h-1
		L726.5,31.2z"/>
	<path class="st28" d="M732.9,27.6v0.7h-2.2v1.1h2V30h-2v1.1h2.3v0.7h-3v-4.1H732.9z"/>
	<path class="st28" d="M735.5,28.3v3.5h-0.7v-3.5h-1.3v-0.6h3.3v0.6H735.5z"/>
	<path class="st28" d="M739.1,28.3v3.5h-0.7v-3.5h-1.3v-0.6h3.2v0.6H739.1z"/>
	<path class="st28" d="M744.1,27.6v0.7h-2.2v1.1h2V30h-2v1.1h2.3v0.7h-3v-4.1H744.1z"/>
	<path class="st28" d="M748.4,29c0.1,0.6-0.3,1.2-0.9,1.3l1.1,1.5h-0.9l-1-1.4h-0.9v1.4h-0.7v-4.2h1.6c0.5,0,1,0.1,1.4,0.4
		C748.3,28.3,748.4,28.6,748.4,29z M747.5,29.6c0.2-0.2,0.2-0.4,0.2-0.6c0-0.2-0.1-0.4-0.2-0.6c-0.2-0.1-0.5-0.2-0.8-0.1h-0.9v1.5
		h0.9C746.9,29.8,747.2,29.7,747.5,29.6z"/>
	<path class="st28" d="M749.8,31.9c-0.1,0-0.2,0-0.3-0.1c-0.1-0.1-0.1-0.2-0.1-0.3c0-0.1,0-0.2,0.1-0.3c0.1-0.1,0.2-0.1,0.3-0.1
		c0.1,0,0.2,0,0.3,0.1c0.1,0.1,0.1,0.2,0.1,0.3c0,0.1-0.1,0.2-0.1,0.3C750,31.8,749.9,31.9,749.8,31.9z M749.3,27.5h0.8v0.8
		l-0.2,2.2h-0.5l-0.2-2.2L749.3,27.5z"/>
	<circle class="st16" cx="712.5" cy="20" r="1.6"/>
	<circle class="st16" cx="717.7" cy="20" r="1.6"/>
	<circle class="st16" cx="722.9" cy="20" r="1.6"/>
	<circle class="st16" cx="728.2" cy="20" r="1.6"/>
	<circle class="st16" cx="733.4" cy="20" r="1.6"/>
	<circle class="st16" cx="738.6" cy="20" r="1.6"/>
	<circle class="st16" cx="743.8" cy="20" r="1.6"/>
	<circle class="st16" cx="749" cy="20" r="1.6"/>
	<circle class="st16" cx="754.2" cy="20" r="1.6"/>
	<circle class="st16" cx="712.8" cy="40.8" r="1.6"/>
	<circle class="st16" cx="718" cy="40.8" r="1.6"/>
	<circle class="st16" cx="723.2" cy="40.8" r="1.6"/>
	<circle class="st16" cx="728.5" cy="40.8" r="1.6"/>
	<circle class="st16" cx="733.7" cy="40.8" r="1.6"/>
	<circle class="st16" cx="738.9" cy="40.8" r="1.6"/>
	<circle class="st16" cx="744.1" cy="40.8" r="1.6"/>
	<circle class="st16" cx="749.3" cy="40.8" r="1.6"/>
	<circle class="st16" cx="754.5" cy="40.8" r="1.6"/>
	<circle class="st16" cx="758.6" cy="38.4" r="1.6"/>
	<circle class="st16" cx="758.6" cy="33.2" r="1.6"/>
	<circle class="st16" cx="758.6" cy="28" r="1.6"/>
	<circle class="st16" cx="758.6" cy="22.8" r="1.6"/>
	<circle class="st16" cx="708.8" cy="38.3" r="1.6"/>
	<circle class="st16" cx="708.8" cy="33.1" r="1.6"/>
	<circle class="st16" cx="708.8" cy="27.9" r="1.6"/>
	<circle class="st16" cx="708.8" cy="22.6" r="1.6"/>
</g>
</svg>
