<svg id="Laag_1" data-name="Laag 1" xmlns="http://www.w3.org/2000/svg" viewBox="0 0 969.08 873.07"><defs><style>.cls-1{fill:#1d1d1b;}.cls-2{fill:#3e3d4d;}.cls-3{fill:#fd9cbd;}.cls-4{fill:#44404e;}</style></defs><title>Artboard 6</title><path class="cls-1" d="M153.25,67.63V63h15V83.28q0,5.39-2.73,8.07a9.6,9.6,0,0,1-7,2.69,12.46,12.46,0,0,1-9.17-3.79l2.95-4.1q3,2.86,5.86,2.86a4.85,4.85,0,0,0,3.47-1.36,5.43,5.43,0,0,0,1.43-4.1V67.63Z"/><path class="cls-1" d="M199.86,84.21H181.47a5.35,5.35,0,0,0,2.34,4.12,9.07,9.07,0,0,0,11.64-1.21l2.82,3.08a13.11,13.11,0,0,1-9.88,3.93,11.77,11.77,0,0,1-8.4-3.29A11.55,11.55,0,0,1,176.53,82a11.41,11.41,0,0,1,3.53-8.8A11.81,11.81,0,0,1,188.37,70a12.08,12.08,0,0,1,8.14,2.88,10,10,0,0,1,3.35,8Zm-18.39-3.88h13.45a5.65,5.65,0,0,0-1.85-4.54,6.78,6.78,0,0,0-4.57-1.59,7.81,7.81,0,0,0-4.87,1.65A5.35,5.35,0,0,0,181.47,80.33Z"/><path class="cls-1" d="M226.71,93.78h-4.94V61.06h4.94V80.28l9.52-10h6.35l-8.9,9.3,9.56,14.16h-6l-7-10.28-3.57,3.62Z"/><path class="cls-1" d="M261.89,75a6.55,6.55,0,0,0-5.51,2.38,10.17,10.17,0,0,0-1.85,6.39V93.78h-4.94V70.32h4.94V75a10.16,10.16,0,0,1,3.24-3.62A7.81,7.81,0,0,1,262.11,70l.05,5Z"/><path class="cls-1" d="M269.61,65.64a3.08,3.08,0,1,1,2.2.93A3,3,0,0,1,269.61,65.64Zm4.63,28.14H269.3V70.32h4.94Z"/><path class="cls-1" d="M283.59,94.88V70.32h4.93V95.06a7.87,7.87,0,0,1-2.22,5.88,7.4,7.4,0,0,1-5.38,2.18,8.47,8.47,0,0,1-5.76-2.33l2.3-3.71a4.39,4.39,0,0,0,3,1.46,2.83,2.83,0,0,0,2.31-1A4.15,4.15,0,0,0,283.59,94.88Zm.22-29.24a3.13,3.13,0,0,1,2.2-5.33,3.13,3.13,0,0,1,0,6.26A3,3,0,0,1,283.81,65.64Z"/><path class="cls-1" d="M319.56,70.32V90.78q0,6.21-3.37,9.32a12.25,12.25,0,0,1-8.66,3.11A15.22,15.22,0,0,1,298,99.9l2.34-3.74a11.45,11.45,0,0,0,6.94,2.6A8.14,8.14,0,0,0,312.8,97c1.36-1.21,2.05-3.13,2.05-5.78v-3a8.42,8.42,0,0,1-3.16,3.3,8.67,8.67,0,0,1-4.6,1.24,10,10,0,0,1-7.68-3.26,12.51,12.51,0,0,1,0-16.23A9.91,9.91,0,0,1,307.06,70a9.06,9.06,0,0,1,7.57,3.83V70.32ZM301.27,81.14a7.45,7.45,0,0,0,1.78,5,6,6,0,0,0,4.81,2.09,6.36,6.36,0,0,0,4.89-2,7.15,7.15,0,0,0,1.88-5,7.37,7.37,0,0,0-1.9-5.11,6.28,6.28,0,0,0-4.89-2.1,5.9,5.9,0,0,0-4.79,2.16A7.71,7.71,0,0,0,301.27,81.14Z"/><path class="cls-1" d="M335,74.29v11.9a3.86,3.86,0,0,0,.88,2.67,3.14,3.14,0,0,0,2.47,1,4.19,4.19,0,0,0,3-1.54l2,3.48a8.44,8.44,0,0,1-5.76,2.34A7.44,7.44,0,0,1,332.28,92a7.89,7.89,0,0,1-2.22-5.89V74.29h-3v-4h3V63H335v7.36h6.17v4Z"/><path class="cls-1" d="M370.05,93.78l-9.44-23.46h5.12L372.87,88,380,70.32h5.12l-9.44,23.46Z"/><path class="cls-1" d="M410,93.78h-4.49V90.64a9.65,9.65,0,0,1-7.81,3.49,9,9,0,0,1-6.06-2.07,7,7,0,0,1-2.4-5.54,5.84,5.84,0,0,1,2.55-5.18,12.34,12.34,0,0,1,6.93-1.72h6.39v-.88c0-3.11-1.74-4.67-5.2-4.67a12.16,12.16,0,0,0-6.79,2.38l-2.21-3.09a15.21,15.21,0,0,1,9.7-3.39,10.5,10.5,0,0,1,6.77,2.09c1.75,1.4,2.62,3.59,2.62,6.59ZM405,85.05v-2h-5.55q-5.34,0-5.34,3.35A3,3,0,0,0,395.45,89a6.48,6.48,0,0,0,3.68.9,6.68,6.68,0,0,0,4.12-1.32A4.23,4.23,0,0,0,405,85.05Z"/><path class="cls-1" d="M424,81.08v12.7H419V70.32H424V74.6A8.89,8.89,0,0,1,431.78,70a8.7,8.7,0,0,1,6.41,2.42c1.64,1.62,2.45,4,2.45,7V93.78H435.7V80.9q0-6.48-5.38-6.48a6.47,6.47,0,0,0-4.45,1.7A6.32,6.32,0,0,0,424,81.08Z"/><path class="cls-1" d="M469,81.08v12.7H464V70.32H469V74.6a7.81,7.81,0,0,1,3.19-3.4A9.12,9.12,0,0,1,476.75,70q5.56,0,7.54,4.58A10.52,10.52,0,0,1,493,70a8.7,8.7,0,0,1,6.41,2.42q2.44,2.43,2.45,7V93.78H496.9V80.9q0-6.48-5.38-6.48A6.53,6.53,0,0,0,487.14,76a6.1,6.1,0,0,0-2,4.69V93.78h-4.94V80.9A8.14,8.14,0,0,0,479,76a4.4,4.4,0,0,0-3.74-1.56,6.49,6.49,0,0,0-4.46,1.7A6.31,6.31,0,0,0,469,81.08Z"/><path class="cls-1" d="M511.23,65.64a3.09,3.09,0,0,1,0-4.4,3.13,3.13,0,1,1,0,4.4Zm4.63,28.14h-4.94V70.32h4.94Z"/><path class="cls-1" d="M525.21,94.88V70.32h4.94V95.06a7.88,7.88,0,0,1-2.23,5.88,7.38,7.38,0,0,1-5.38,2.18,8.43,8.43,0,0,1-5.75-2.33l2.29-3.71a4.4,4.4,0,0,0,3,1.46,2.82,2.82,0,0,0,2.31-1A4.15,4.15,0,0,0,525.21,94.88Zm.22-29.24a3.08,3.08,0,1,1,2.2.93A3,3,0,0,1,525.43,65.64Z"/><path class="cls-1" d="M575.61,84.21H557.22a5.35,5.35,0,0,0,2.34,4.12,9.07,9.07,0,0,0,11.64-1.21L574,90.2a13.11,13.11,0,0,1-9.88,3.93,11.77,11.77,0,0,1-8.4-3.29A11.55,11.55,0,0,1,552.28,82a11.41,11.41,0,0,1,3.53-8.8A11.81,11.81,0,0,1,564.12,70a12,12,0,0,1,8.13,2.88,10,10,0,0,1,3.36,8Zm-18.39-3.88h13.45a5.63,5.63,0,0,0-1.86-4.54,6.74,6.74,0,0,0-4.56-1.59,7.81,7.81,0,0,0-4.87,1.65A5.35,5.35,0,0,0,557.22,80.33Z"/><path class="cls-1" d="M605.06,84.21H586.67A5.35,5.35,0,0,0,589,88.33a9.07,9.07,0,0,0,11.64-1.21l2.82,3.08a13.11,13.11,0,0,1-9.88,3.93,11.73,11.73,0,0,1-8.39-3.29A11.56,11.56,0,0,1,581.73,82a11.41,11.41,0,0,1,3.53-8.8A11.81,11.81,0,0,1,593.57,70a12.08,12.08,0,0,1,8.14,2.88,10,10,0,0,1,3.35,8Zm-18.39-3.88h13.45a5.65,5.65,0,0,0-1.85-4.54,6.78,6.78,0,0,0-4.56-1.59,7.84,7.84,0,0,0-4.88,1.65A5.35,5.35,0,0,0,586.67,80.33Z"/><path class="cls-1" d="M617.63,81.08v12.7h-4.94V70.32h4.94V74.6a9.2,9.2,0,0,1,14.21-2.21c1.64,1.62,2.45,4,2.45,7V93.78h-4.94V80.9q0-6.48-5.38-6.48a6.47,6.47,0,0,0-4.45,1.7A6.31,6.31,0,0,0,617.63,81.08Z"/><path class="cls-1" d="M662.6,81.08v12.7h-4.94V70.32h4.94V74.6a7.78,7.78,0,0,1,3.2-3.4A9.06,9.06,0,0,1,670.4,70q5.57,0,7.54,4.58A10.52,10.52,0,0,1,686.63,70,8.7,8.7,0,0,1,693,72.39c1.64,1.62,2.45,4,2.45,7V93.78h-4.94V80.9q0-6.48-5.38-6.48A6.53,6.53,0,0,0,680.79,76a6.1,6.1,0,0,0-2,4.69V93.78h-4.93V80.9A8.21,8.21,0,0,0,672.7,76,4.43,4.43,0,0,0,669,74.42a6.49,6.49,0,0,0-4.46,1.7A6.31,6.31,0,0,0,662.6,81.08Z"/><path class="cls-1" d="M723.58,93.78h-4.5V90.64a9.63,9.63,0,0,1-7.8,3.49,9,9,0,0,1-6.07-2.07,7,7,0,0,1-2.4-5.54,5.83,5.83,0,0,1,2.56-5.18,12.28,12.28,0,0,1,6.92-1.72h6.39v-.88q0-4.67-5.2-4.67a12.19,12.19,0,0,0-6.79,2.38l-2.2-3.09a15.19,15.19,0,0,1,9.7-3.39A10.46,10.46,0,0,1,721,72.06c1.75,1.4,2.63,3.59,2.63,6.59Zm-4.94-8.73v-2h-5.56q-5.33,0-5.33,3.35A3,3,0,0,0,709.07,89a6.48,6.48,0,0,0,3.68.9,6.71,6.71,0,0,0,4.13-1.32A4.25,4.25,0,0,0,718.64,85.05Z"/><path class="cls-1" d="M733,65.64a3.08,3.08,0,1,1,2.2.93A3,3,0,0,1,733,65.64Zm4.63,28.14h-4.94V70.32h4.94Z"/><path class="cls-1" d="M751.89,93.78H747V61.06h4.94Z"/><path class="cls-1" d="M767.32,74.29v11.9a3.86,3.86,0,0,0,.88,2.67,3.14,3.14,0,0,0,2.47,1,4.19,4.19,0,0,0,3-1.54l2,3.48A8.42,8.42,0,0,1,770,94.13,7.44,7.44,0,0,1,764.6,92a7.89,7.89,0,0,1-2.22-5.89V74.29h-3v-4h3V63h4.94v7.36h6.17v4Z"/><path class="cls-1" d="M781.87,94.88V70.32h4.94V95.06a7.88,7.88,0,0,1-2.23,5.88,7.4,7.4,0,0,1-5.38,2.18,8.43,8.43,0,0,1-5.75-2.33l2.29-3.71a4.4,4.4,0,0,0,3,1.46,2.82,2.82,0,0,0,2.31-1A4.15,4.15,0,0,0,781.87,94.88Zm.22-29.24a3.13,3.13,0,0,1,2.2-5.33,3.13,3.13,0,1,1-2.2,5.33Z"/><path class="cls-1" d="M818,84.21H799.59a5.35,5.35,0,0,0,2.34,4.12,9.07,9.07,0,0,0,11.64-1.21l2.82,3.08a13.11,13.11,0,0,1-9.88,3.93,11.77,11.77,0,0,1-8.4-3.29A11.59,11.59,0,0,1,794.65,82a11.41,11.41,0,0,1,3.53-8.8A11.81,11.81,0,0,1,806.49,70a12.08,12.08,0,0,1,8.14,2.88,10,10,0,0,1,3.35,8Zm-18.39-3.88H813a5.65,5.65,0,0,0-1.85-4.54,6.78,6.78,0,0,0-4.57-1.59,7.83,7.83,0,0,0-4.87,1.65A5.35,5.35,0,0,0,799.59,80.33Z"/><path class="cls-1" d="M169.63,122.29v11.9a3.86,3.86,0,0,0,.88,2.67,3.14,3.14,0,0,0,2.47,1,4.19,4.19,0,0,0,3-1.54l2,3.48a8.4,8.4,0,0,1-5.75,2.34,7.4,7.4,0,0,1-5.38-2.18,7.86,7.86,0,0,1-2.23-5.89V122.29h-2.95v-4h2.95V111h4.94v7.36h6.17v4Z"/><path class="cls-1" d="M206,132.21H187.62a5.35,5.35,0,0,0,2.34,4.12,9.07,9.07,0,0,0,11.64-1.21l2.82,3.08a13.11,13.11,0,0,1-9.88,3.93,11.77,11.77,0,0,1-8.4-3.29,11.55,11.55,0,0,1-3.46-8.81,11.41,11.41,0,0,1,3.53-8.8,11.81,11.81,0,0,1,8.31-3.26,12,12,0,0,1,8.13,2.88,10,10,0,0,1,3.36,8Zm-18.39-3.88h13.45a5.65,5.65,0,0,0-1.85-4.54,6.78,6.78,0,0,0-4.57-1.59,7.81,7.81,0,0,0-4.87,1.65A5.35,5.35,0,0,0,187.62,128.33Z"/><path class="cls-1" d="M225.93,123a6.55,6.55,0,0,0-5.51,2.38,10.17,10.17,0,0,0-1.85,6.39v10.06h-4.94V118.32h4.94V123a10.35,10.35,0,0,1,3.24-3.62,7.84,7.84,0,0,1,4.35-1.45l0,5Z"/><path class="cls-1" d="M249.74,131v-12.7h4.94v23.46h-4.94V137.5a9.2,9.2,0,0,1-14.22,2.2q-2.45-2.41-2.44-7V118.32H238v12.87c0,4.32,1.79,6.49,5.37,6.49a6.49,6.49,0,0,0,4.46-1.7A6.33,6.33,0,0,0,249.74,131Z"/><path class="cls-1" d="M285.72,118.32v20.46q0,6.21-3.37,9.32a12.25,12.25,0,0,1-8.66,3.11,15.22,15.22,0,0,1-9.57-3.31l2.33-3.74a11.5,11.5,0,0,0,6.95,2.6A8.14,8.14,0,0,0,279,145c1.36-1.21,2.05-3.13,2.05-5.78v-3a8.42,8.42,0,0,1-3.16,3.3,8.67,8.67,0,0,1-4.6,1.24,10,10,0,0,1-7.68-3.26,12.48,12.48,0,0,1,0-16.23,9.91,9.91,0,0,1,7.65-3.26,9.05,9.05,0,0,1,7.56,3.83v-3.48Zm-18.29,10.82a7.45,7.45,0,0,0,1.78,5,6,6,0,0,0,4.81,2.09,6.36,6.36,0,0,0,4.89-2,7.14,7.14,0,0,0,1.87-5.05,7.36,7.36,0,0,0-1.89-5.11,6.31,6.31,0,0,0-4.9-2.1,5.89,5.89,0,0,0-4.78,2.16A7.71,7.71,0,0,0,267.43,129.14Z"/><path class="cls-1" d="M314.29,129.08v12.7h-4.93V118.32h4.93v4.28a7.83,7.83,0,0,1,3.2-3.4A9.1,9.1,0,0,1,322.1,118q5.55,0,7.54,4.58a10.51,10.51,0,0,1,8.68-4.58,8.7,8.7,0,0,1,6.42,2.42q2.44,2.43,2.45,7v14.38h-4.94V128.9q0-6.48-5.38-6.48a6.54,6.54,0,0,0-4.39,1.61,6.09,6.09,0,0,0-2,4.69v13.06h-4.94V128.9a8.21,8.21,0,0,0-1.19-4.92,4.41,4.41,0,0,0-3.75-1.56,6.47,6.47,0,0,0-4.45,1.7A6.32,6.32,0,0,0,314.29,129.08Z"/><path class="cls-1" d="M378.1,132.21H359.71a5.35,5.35,0,0,0,2.34,4.12,9.07,9.07,0,0,0,11.64-1.21l2.82,3.08a13.11,13.11,0,0,1-9.88,3.93,11.77,11.77,0,0,1-8.4-3.29,11.55,11.55,0,0,1-3.46-8.81,11.41,11.41,0,0,1,3.53-8.8,11.81,11.81,0,0,1,8.31-3.26,12,12,0,0,1,8.13,2.88,10,10,0,0,1,3.36,8Zm-18.39-3.88h13.45a5.63,5.63,0,0,0-1.86-4.54,6.74,6.74,0,0,0-4.56-1.59,7.81,7.81,0,0,0-4.87,1.65A5.35,5.35,0,0,0,359.71,128.33Z"/><path class="cls-1" d="M391.63,122.29v11.9a3.86,3.86,0,0,0,.88,2.67,3.14,3.14,0,0,0,2.47,1,4.19,4.19,0,0,0,3-1.54l2,3.48a8.4,8.4,0,0,1-5.75,2.34,7.42,7.42,0,0,1-5.38-2.18,7.86,7.86,0,0,1-2.23-5.89V122.29h-2.95v-4h2.95V111h4.94v7.36h6.17v4Z"/><path class="cls-1" d="M422.27,138.78A12,12,0,0,1,419,130a11.54,11.54,0,0,1,3.39-8.73,11.26,11.26,0,0,1,8.09-3.26,8.93,8.93,0,0,1,7.57,4V109.06H443v32.72H438v-3.53a9.16,9.16,0,0,1-8,3.88A10.6,10.6,0,0,1,422.27,138.78Zm1.64-8.62a7.34,7.34,0,0,0,2.16,5.49,7,7,0,0,0,5.07,2.11,6.58,6.58,0,0,0,4.94-2.13,7.67,7.67,0,0,0,2-5.49,8,8,0,0,0-2-5.6,6.48,6.48,0,0,0-5-2.25,6.72,6.72,0,0,0-5.07,2.25A7.88,7.88,0,0,0,423.91,130.16Z"/><path class="cls-1" d="M471.31,141.78h-4.5v-3.14a9.63,9.63,0,0,1-7.8,3.49,9,9,0,0,1-6.07-2.07,7,7,0,0,1-2.4-5.54,5.83,5.83,0,0,1,2.56-5.18,12.28,12.28,0,0,1,6.92-1.72h6.39v-.88q0-4.67-5.2-4.67a12.16,12.16,0,0,0-6.79,2.38l-2.2-3.09a15.19,15.19,0,0,1,9.7-3.39,10.48,10.48,0,0,1,6.76,2.09c1.75,1.4,2.63,3.59,2.63,6.59Zm-4.94-8.73v-2h-5.56q-5.32,0-5.33,3.35A3,3,0,0,0,456.8,137a6.48,6.48,0,0,0,3.68.9,6.68,6.68,0,0,0,4.12-1.32A4.23,4.23,0,0,0,466.37,133.05Z"/><path class="cls-1" d="M499.39,141.78h-4.5v-3.14a9.63,9.63,0,0,1-7.8,3.49,9,9,0,0,1-6.06-2.07,7,7,0,0,1-2.41-5.54,5.85,5.85,0,0,1,2.56-5.18,12.3,12.3,0,0,1,6.92-1.72h6.4v-.88c0-3.11-1.74-4.67-5.2-4.67a12.21,12.21,0,0,0-6.8,2.38l-2.2-3.09A15.21,15.21,0,0,1,490,118a10.5,10.5,0,0,1,6.77,2.09c1.75,1.4,2.62,3.59,2.62,6.59Zm-4.94-8.73v-2H488.9q-5.34,0-5.34,3.35a3,3,0,0,0,1.33,2.63,6.46,6.46,0,0,0,3.68.9,6.7,6.7,0,0,0,4.12-1.32A4.23,4.23,0,0,0,494.45,133.05Z"/><path class="cls-1" d="M520.78,123a6.54,6.54,0,0,0-5.51,2.38,10.12,10.12,0,0,0-1.86,6.39v10.06h-4.93V118.32h4.93V123a10.28,10.28,0,0,1,3.25-3.62A7.78,7.78,0,0,1,521,118l0,5Z"/><path class="cls-1" d="M528.49,113.64a3.08,3.08,0,1,1,2.21.93A3,3,0,0,1,528.49,113.64Zm4.63,28.14h-4.94V118.32h4.94Z"/><path class="cls-1" d="M547.41,129.08v12.7h-4.94V118.32h4.94v4.28a9.21,9.21,0,0,1,14.22-2.21q2.45,2.43,2.44,7v14.38h-4.93V128.9c0-4.32-1.8-6.48-5.38-6.48a6.49,6.49,0,0,0-4.46,1.7A6.31,6.31,0,0,0,547.41,129.08Z"/><path class="cls-1" d="M609.27,132.21H590.88a5.35,5.35,0,0,0,2.34,4.12,9.07,9.07,0,0,0,11.64-1.21l2.82,3.08a13.11,13.11,0,0,1-9.88,3.93,11.77,11.77,0,0,1-8.4-3.29,11.59,11.59,0,0,1-3.46-8.81,11.41,11.41,0,0,1,3.53-8.8,11.81,11.81,0,0,1,8.31-3.26,12.08,12.08,0,0,1,8.14,2.88,10,10,0,0,1,3.35,8Zm-18.39-3.88h13.45a5.65,5.65,0,0,0-1.85-4.54,6.78,6.78,0,0,0-4.57-1.59,7.83,7.83,0,0,0-4.87,1.65A5.35,5.35,0,0,0,590.88,128.33Z"/><path class="cls-1" d="M638.72,132.21H620.34a5.31,5.31,0,0,0,2.33,4.12,9.07,9.07,0,0,0,11.64-1.21l2.83,3.08a13.13,13.13,0,0,1-9.88,3.93,11.77,11.77,0,0,1-8.4-3.29A11.55,11.55,0,0,1,615.4,130a11.37,11.37,0,0,1,3.53-8.8,11.81,11.81,0,0,1,8.31-3.26,12,12,0,0,1,8.13,2.88,10,10,0,0,1,3.35,8Zm-18.38-3.88h13.44a5.62,5.62,0,0,0-1.85-4.54,6.74,6.74,0,0,0-4.56-1.59,7.81,7.81,0,0,0-4.87,1.65A5.35,5.35,0,0,0,620.34,128.33Z"/><path class="cls-1" d="M651.29,129.08v12.7h-4.94V118.32h4.94v4.28a9.21,9.21,0,0,1,14.22-2.21q2.44,2.43,2.45,7v14.38H663V128.9c0-4.32-1.8-6.48-5.38-6.48a6.49,6.49,0,0,0-4.46,1.7A6.31,6.31,0,0,0,651.29,129.08Z"/><path class="cls-1" d="M703.63,123a6.56,6.56,0,0,0-5.52,2.38,10.17,10.17,0,0,0-1.85,6.39v10.06h-4.94V118.32h4.94V123a10.35,10.35,0,0,1,3.24-3.62,7.84,7.84,0,0,1,4.35-1.45l0,5Z"/><path class="cls-1" d="M727.43,131v-12.7h4.94v23.46h-4.94V137.5a9.2,9.2,0,0,1-14.22,2.2q-2.44-2.41-2.44-7V118.32h4.94v12.87c0,4.32,1.79,6.49,5.37,6.49a6.49,6.49,0,0,0,4.46-1.7A6.33,6.33,0,0,0,727.43,131Z"/><path class="cls-1" d="M752.7,141.78h-5.64l-8.12-23.46h5.12L749.88,136l5.82-17.72h5.11L766.63,136l5.82-17.72h5.12l-8.11,23.46h-5.65l-5.55-16Z"/><path class="cls-1" d="M806,132.21H787.58a5.31,5.31,0,0,0,2.33,4.12,9.07,9.07,0,0,0,11.64-1.21l2.82,3.08a13.09,13.09,0,0,1-9.87,3.93,11.77,11.77,0,0,1-8.4-3.29,11.55,11.55,0,0,1-3.46-8.81,11.4,11.4,0,0,1,3.52-8.8,11.85,11.85,0,0,1,8.32-3.26,12,12,0,0,1,8.13,2.88,10,10,0,0,1,3.35,8Zm-18.38-3.88H801a5.62,5.62,0,0,0-1.85-4.54,6.74,6.74,0,0,0-4.56-1.59,7.81,7.81,0,0,0-4.87,1.65A5.35,5.35,0,0,0,787.58,128.33Z"/><path class="cls-1" d="M238.94,182.77a6.6,6.6,0,0,1-2.42,5.35,9.43,9.43,0,0,1-6.22,2,16.51,16.51,0,0,1-5.31-.93,15.74,15.74,0,0,1-4.88-2.6l2.38-3.83a13.36,13.36,0,0,0,7.94,3.08,4.18,4.18,0,0,0,2.65-.77,2.42,2.42,0,0,0,1-2q0-1.77-4.68-3.18a4.27,4.27,0,0,0-.53-.17q-7.32-2-7.32-6.62a6.28,6.28,0,0,1,2.54-5.22,10.46,10.46,0,0,1,6.59-2,13.67,13.67,0,0,1,7.67,2.38L236.47,172a11,11,0,0,0-6.21-1.9,5.62,5.62,0,0,0-2.87.64,2.08,2.08,0,0,0-1.1,1.92,1.75,1.75,0,0,0,1.14,1.67,10.41,10.41,0,0,0,2.23.75c1,.24,1.8.47,2.53.71s1.45.5,2.14.79a14.22,14.22,0,0,1,2.23,1.24A5.51,5.51,0,0,1,238.94,182.77Z"/><path class="cls-1" d="M257.15,190.13a11.84,11.84,0,0,1-8.42-3.33,12.37,12.37,0,0,1,.15-17.46,12.82,12.82,0,0,1,9-3.37,12.18,12.18,0,0,1,8.95,3.66l-2.91,3.57a9.34,9.34,0,0,0-6.13-2.65,7.73,7.73,0,0,0-5.36,2,6.82,6.82,0,0,0-2.27,5.29,7.68,7.68,0,0,0,7.78,7.74,8.6,8.6,0,0,0,6.2-3l2.91,3.18A13.51,13.51,0,0,1,257.15,190.13Z"/><path class="cls-1" d="M279.28,177.08v12.7h-4.93V157.1h4.93v13.5a7.83,7.83,0,0,1,3.2-3.4,9.1,9.1,0,0,1,4.61-1.23,8.7,8.7,0,0,1,6.41,2.42c1.64,1.62,2.45,4,2.45,7v14.38H291V176.9q0-6.48-5.38-6.48a6.47,6.47,0,0,0-4.45,1.7A6.32,6.32,0,0,0,279.28,177.08Z"/><path class="cls-1" d="M326.86,180.21H308.47a5.35,5.35,0,0,0,2.34,4.12,9.07,9.07,0,0,0,11.64-1.21l2.82,3.08a13.11,13.11,0,0,1-9.87,3.93,11.73,11.73,0,0,1-8.4-3.29,11.55,11.55,0,0,1-3.46-8.81,11.4,11.4,0,0,1,3.52-8.8,11.81,11.81,0,0,1,8.31-3.26,12.08,12.08,0,0,1,8.14,2.88,10,10,0,0,1,3.35,8Zm-18.39-3.88h13.45a5.65,5.65,0,0,0-1.85-4.54,6.76,6.76,0,0,0-4.56-1.59,7.84,7.84,0,0,0-4.88,1.65A5.35,5.35,0,0,0,308.47,176.33Z"/><path class="cls-1" d="M340.4,170.29v11.9a3.86,3.86,0,0,0,.88,2.67,3.14,3.14,0,0,0,2.47,1,4.19,4.19,0,0,0,3-1.54l2,3.48a8.42,8.42,0,0,1-5.76,2.34,7.44,7.44,0,0,1-5.38-2.18,7.89,7.89,0,0,1-2.22-5.89V170.29h-3v-4h3V159h4.94v7.36h6.17v4Z"/><path class="cls-1" d="M371.66,182.77a6.57,6.57,0,0,1-2.43,5.35,9.4,9.4,0,0,1-6.21,2,16.62,16.62,0,0,1-5.32-.93,15.8,15.8,0,0,1-4.87-2.6l2.38-3.83a13.34,13.34,0,0,0,7.94,3.08,4.15,4.15,0,0,0,2.64-.77,2.39,2.39,0,0,0,1-2c0-1.18-1.55-2.24-4.67-3.18a4.89,4.89,0,0,0-.53-.17q-7.32-2-7.32-6.62a6.28,6.28,0,0,1,2.54-5.22,10.44,10.44,0,0,1,6.59-2,13.69,13.69,0,0,1,7.67,2.38L369.19,172a11,11,0,0,0-6.22-1.9,5.61,5.61,0,0,0-2.86.64,2.09,2.09,0,0,0-1.11,1.92,1.76,1.76,0,0,0,1.15,1.67,10.41,10.41,0,0,0,2.23.75c.95.24,1.8.47,2.53.71s1.45.5,2.14.79a14.68,14.68,0,0,1,2.23,1.24A5.53,5.53,0,0,1,371.66,182.77Z"/><path class="cls-1" d="M415.57,180.21H397.19a5.31,5.31,0,0,0,2.33,4.12,9.09,9.09,0,0,0,11.65-1.21L414,186.2a13.11,13.11,0,0,1-9.88,3.93,11.77,11.77,0,0,1-8.4-3.29,11.55,11.55,0,0,1-3.46-8.81,11.41,11.41,0,0,1,3.53-8.8,11.81,11.81,0,0,1,8.31-3.26,12,12,0,0,1,8.13,2.88,9.94,9.94,0,0,1,3.35,8Zm-18.38-3.88h13.45a5.63,5.63,0,0,0-1.86-4.54,6.74,6.74,0,0,0-4.56-1.59,7.81,7.81,0,0,0-4.87,1.65A5.35,5.35,0,0,0,397.19,176.33Z"/><path class="cls-1" d="M428.14,177.08v12.7H423.2V166.32h4.94v4.28a9.21,9.21,0,0,1,14.22-2.21q2.44,2.43,2.45,7v14.38h-4.94V176.9c0-4.32-1.8-6.48-5.38-6.48a6.49,6.49,0,0,0-4.46,1.7A6.31,6.31,0,0,0,428.14,177.08Z"/><path class="cls-1" d="M490,180.21H471.61a5.35,5.35,0,0,0,2.34,4.12,9.07,9.07,0,0,0,11.64-1.21l2.82,3.08a13.11,13.11,0,0,1-9.87,3.93,11.73,11.73,0,0,1-8.4-3.29,11.55,11.55,0,0,1-3.46-8.81,11.4,11.4,0,0,1,3.52-8.8,11.81,11.81,0,0,1,8.31-3.26,12.08,12.08,0,0,1,8.14,2.88,10,10,0,0,1,3.35,8Zm-18.39-3.88h13.45a5.65,5.65,0,0,0-1.85-4.54,6.78,6.78,0,0,0-4.56-1.59,7.84,7.84,0,0,0-4.88,1.65A5.35,5.35,0,0,0,471.61,176.33Z"/><path class="cls-1" d="M519.46,180.21H501.07a5.35,5.35,0,0,0,2.34,4.12,9.07,9.07,0,0,0,11.64-1.21l2.82,3.08a13.11,13.11,0,0,1-9.88,3.93,11.77,11.77,0,0,1-8.4-3.29,11.55,11.55,0,0,1-3.46-8.81,11.41,11.41,0,0,1,3.53-8.8A11.81,11.81,0,0,1,508,166a12,12,0,0,1,8.13,2.88,10,10,0,0,1,3.36,8Zm-18.39-3.88h13.45a5.63,5.63,0,0,0-1.86-4.54,6.74,6.74,0,0,0-4.56-1.59,7.81,7.81,0,0,0-4.87,1.65A5.35,5.35,0,0,0,501.07,176.33Z"/><path class="cls-1" d="M532,177.08v12.7h-4.94V166.32H532v4.28a9.21,9.21,0,0,1,14.22-2.21q2.44,2.43,2.45,7v14.38h-4.94V176.9q0-6.48-5.38-6.48a6.45,6.45,0,0,0-4.45,1.7A6.28,6.28,0,0,0,532,177.08Z"/><path class="cls-1" d="M591.68,186.62a12.84,12.84,0,0,1-17.64,0,12.18,12.18,0,0,1,0-17.15,12.86,12.86,0,0,1,17.64,0,12.2,12.2,0,0,1,0,17.15Zm-14.14-3a7.67,7.67,0,0,0,10.63,0,8.37,8.37,0,0,0,0-11.07,7.7,7.7,0,0,0-10.63,0,8.37,8.37,0,0,0,0,11.07Z"/><path class="cls-1" d="M608.74,164.38v1.94h6.17v4h-6.17v19.49H603.8V170.29h-2.95v-4h2.95v-1.81a7.86,7.86,0,0,1,2.23-5.88,7.39,7.39,0,0,1,5.38-2.19,8.4,8.4,0,0,1,5.75,2.34l-2,3.48a4.22,4.22,0,0,0-3-1.54,3.14,3.14,0,0,0-2.47,1A3.86,3.86,0,0,0,608.74,164.38Z"/><path class="cls-1" d="M628,164.38v1.94h6.18v4H628v19.49H623V170.29h-2.95v-4H623v-1.81a7.86,7.86,0,0,1,2.23-5.88,7.4,7.4,0,0,1,5.38-2.19,8.44,8.44,0,0,1,5.76,2.34l-2,3.48a4.21,4.21,0,0,0-3.05-1.54,3.15,3.15,0,0,0-2.47,1A3.91,3.91,0,0,0,628,164.38Z"/><path class="cls-1" d="M662.93,180.21H644.54a5.35,5.35,0,0,0,2.34,4.12,9.07,9.07,0,0,0,11.64-1.21l2.82,3.08a13.11,13.11,0,0,1-9.88,3.93,11.77,11.77,0,0,1-8.4-3.29A11.59,11.59,0,0,1,639.6,178a11.41,11.41,0,0,1,3.53-8.8,11.81,11.81,0,0,1,8.31-3.26,12.08,12.08,0,0,1,8.14,2.88,10,10,0,0,1,3.35,8Zm-18.39-3.88H658a5.65,5.65,0,0,0-1.85-4.54,6.78,6.78,0,0,0-4.57-1.59,7.83,7.83,0,0,0-4.87,1.65A5.35,5.35,0,0,0,644.54,176.33Z"/><path class="cls-1" d="M682.86,171a6.57,6.57,0,0,0-5.52,2.38,10.17,10.17,0,0,0-1.85,6.39v10.06h-4.94V166.32h4.94V171a10.35,10.35,0,0,1,3.24-3.62,7.84,7.84,0,0,1,4.35-1.45l0,5Z"/><path class="cls-1" d="M696.35,170.29v11.9a3.86,3.86,0,0,0,.88,2.67,3.14,3.14,0,0,0,2.47,1,4.19,4.19,0,0,0,3-1.54l2,3.48a8.4,8.4,0,0,1-5.75,2.34,7.4,7.4,0,0,1-5.38-2.18,7.86,7.86,0,0,1-2.23-5.89V170.29h-2.95v-4h2.95V159h4.94v7.36h6.17v4Z"/><path class="cls-1" d="M732.73,180.21H714.34a5.35,5.35,0,0,0,2.34,4.12,9.07,9.07,0,0,0,11.64-1.21l2.82,3.08a13.11,13.11,0,0,1-9.88,3.93,11.77,11.77,0,0,1-8.4-3.29A11.55,11.55,0,0,1,709.4,178a11.41,11.41,0,0,1,3.53-8.8,11.81,11.81,0,0,1,8.31-3.26,12,12,0,0,1,8.13,2.88,10,10,0,0,1,3.36,8Zm-18.39-3.88h13.45a5.63,5.63,0,0,0-1.86-4.54,6.74,6.74,0,0,0-4.56-1.59,7.81,7.81,0,0,0-4.87,1.65A5.35,5.35,0,0,0,714.34,176.33Z"/><path class="cls-1" d="M740.64,189.16a3.25,3.25,0,0,1-.95-2.34,3.24,3.24,0,0,1,3.26-3.26,3.23,3.23,0,0,1,2.34.95,3.09,3.09,0,0,1,1,2.31,3.31,3.31,0,0,1-3.31,3.31A3.09,3.09,0,0,1,740.64,189.16Z"/><path class="cls-2" d="M634.44,559.89H313.34V339.56h321.1ZM335.6,537.63H612.19V361.82H335.6Z"/><polygon class="cls-3" points="336.07 361.96 474.06 499.95 612.04 361.96 336.07 361.96"/><path class="cls-4" d="M427.2,726.65V704.92h84.64v19l-35,39.11q19.86.61,31,12.52A40.09,40.09,0,0,1,519.08,804q0,22.14-15,34.76t-38.59,12.63q-23.6,0-46.15-15.11l10.35-19.66q17.79,12.42,37.25,12.42,12.62,0,20.79-5.9t8.18-17a20.81,20.81,0,0,0-9.11-17.69q-9.1-6.62-25.25-6.62A53.08,53.08,0,0,0,446,784.17V765.55l33.53-38.9Z"/></svg>