<svg xmlns="http://www.w3.org/2000/svg" viewBox="0 0 400 400"><defs><style>.cls-1{fill:#3e3d4d;}.cls-2{fill:#fd9cbd;}</style></defs><title>Artboard 3</title><g id="bellen"><path class="cls-1" d="M239.78,303.49H171.53a28.7,28.7,0,0,1-28.66-28.66V112.57a28.69,28.69,0,0,1,28.66-28.65h68.25a28.68,28.68,0,0,1,28.66,28.65V274.83A28.69,28.69,0,0,1,239.78,303.49ZM171.53,95.92a16.67,16.67,0,0,0-16.66,16.65V274.83a16.68,16.68,0,0,0,16.66,16.66h68.25a16.68,16.68,0,0,0,16.66-16.66V112.57a16.67,16.67,0,0,0-16.66-16.65Z"/><circle class="cls-2" cx="205.66" cy="267.24" r="14.25"/></g></svg>