<svg xmlns="http://www.w3.org/2000/svg" viewBox="0 0 400 400"><defs><style>.cls-1{fill:#3e3d4d;}.cls-2{fill:#fd9cbd;}</style></defs><title>Artboard 4</title><g id="coffee"><path class="cls-1" d="M184.66,301.7a83.09,83.09,0,0,1-83-83v-6h166v6A83.1,83.1,0,0,1,184.66,301.7Zm-70.75-77a71,71,0,0,0,141.49,0Z"/><polygon class="cls-2" points="164.33 202.98 206.76 160.55 164.33 118.12 164.33 202.98"/><polygon class="cls-2" points="146.96 80.8 119.62 108.14 146.96 135.49 146.96 80.8"/><path class="cls-1" d="M277.77,269.23a23,23,0,1,1,23-23A23,23,0,0,1,277.77,269.23Zm0-36.22A13.25,13.25,0,1,0,291,246.26,13.27,13.27,0,0,0,277.77,233Z"/></g></svg>