<svg xmlns="http://www.w3.org/2000/svg" viewBox="0 0 400 400"><defs><style>.cls-1{fill:#3e3d4d;}.cls-2{fill:#fd9cbd;}</style></defs><title>Artboard 7</title><g id="kruisje"><path class="cls-1" d="M200,108.49A91.51,91.51,0,1,0,291.51,200,91.61,91.61,0,0,0,200,108.49ZM276.51,200A76.51,76.51,0,1,1,200,123.49,76.59,76.59,0,0,1,276.51,200Z"/><path class="cls-2" d="M239.44,156.24a9,9,0,0,0-12.7.82L200,187.5l-26.74-30.44a9,9,0,0,0-13.52,11.88L188,201.14l-26.28,29.92a9,9,0,1,0,13.52,11.88L200,214.78l24.74,28.16a9,9,0,1,0,13.52-11.88L212,201.14l28.28-32.2A9,9,0,0,0,239.44,156.24Z"/></g></svg>