<svg xmlns="http://www.w3.org/2000/svg" viewBox="0 0 400 400"><defs><style>.cls-1{fill:#fff;}.cls-2{fill:#3e3d4d;}</style></defs><title>Artboard 8</title><g id="telefoonnummer"><rect class="cls-1" x="34.6" y="156.29" width="330.79" height="87.43"/><path class="cls-2" d="M374.4,252.71H25.6V147.29H374.4Zm-339.8-9H365.4V156.29H34.6Z"/><path class="cls-2" d="M76.07,210q-2.71-3.75-2.71-10.05t2.71-10c1.8-2.5,4.52-3.76,8.16-3.76s6.36,1.26,8.16,3.76,2.71,5.86,2.71,10-.9,7.55-2.71,10.05-4.52,3.76-8.16,3.76S77.87,212.53,76.07,210Zm3.22-17.26a17.24,17.24,0,0,0,0,14.42,5.31,5.31,0,0,0,4.94,2.75,5.22,5.22,0,0,0,4.9-2.73,17.64,17.64,0,0,0,0-14.46,5.23,5.23,0,0,0-4.9-2.72A5.3,5.3,0,0,0,79.29,192.77Z"/><path class="cls-2" d="M110.85,190.37a5.93,5.93,0,0,0-5.22,2.4,11.37,11.37,0,0,0-1.72,6.49,9.6,9.6,0,0,1,2.75-2,8.44,8.44,0,0,1,4-.93,8.23,8.23,0,0,1,6,2.38,8.5,8.5,0,0,1,2.42,6.33,8.21,8.21,0,0,1-2.61,6.35,9.32,9.32,0,0,1-6.58,2.41q-6.4,0-8.85-5.72a19.14,19.14,0,0,1-1.37-7.4,22.72,22.72,0,0,1,.88-6.87,11,11,0,0,1,2.4-4.35,9.69,9.69,0,0,1,7.3-3.12,12.54,12.54,0,0,1,7.84,2.7l-2.25,3.32a8.72,8.72,0,0,0-2.35-1.37A6.83,6.83,0,0,0,110.85,190.37Zm-.82,9.92a5.84,5.84,0,0,0-3.85,1.27,4.11,4.11,0,0,0-1.54,3.32,4.76,4.76,0,0,0,1.48,3.51,5.1,5.1,0,0,0,3.74,1.47,5.43,5.43,0,0,0,3.74-1.32,4.26,4.26,0,0,0,1.48-3.35,4.79,4.79,0,0,0-5-4.9Z"/><path class="cls-2" d="M132.55,186.82h9.69v26.66H138V190.83h-5.42Z"/><path class="cls-2" d="M148.91,190.83v-4h15.6v3.51l-6.44,7.21a7.84,7.84,0,0,1,5.72,2.31,7.4,7.4,0,0,1,2.06,5.24,7.91,7.91,0,0,1-2.77,6.41,10.66,10.66,0,0,1-7.11,2.33,15.08,15.08,0,0,1-8.5-2.79l1.9-3.62a11.89,11.89,0,0,0,6.87,2.29,6.4,6.4,0,0,0,3.83-1.09,3.65,3.65,0,0,0,1.51-3.13,3.83,3.83,0,0,0-1.68-3.26,7.81,7.81,0,0,0-4.65-1.22,9.65,9.65,0,0,0-2.86.42V198l6.17-7.17Z"/><path class="cls-2" d="M188.62,209.74a5.93,5.93,0,0,0,5.22-2.4,11.34,11.34,0,0,0,1.72-6.48,9.59,9.59,0,0,1-2.75,2,8.48,8.48,0,0,1-4,.93,8.2,8.2,0,0,1-6-2.38,8.47,8.47,0,0,1-2.43-6.33,8.23,8.23,0,0,1,2.62-6.35,9.34,9.34,0,0,1,6.58-2.4q6.4,0,8.85,5.72a19.06,19.06,0,0,1,1.37,7.4,22.7,22.7,0,0,1-.88,6.86,11.15,11.15,0,0,1-2.4,4.35,9.7,9.7,0,0,1-7.3,3.13,12.55,12.55,0,0,1-7.84-2.71l2.25-3.32a8.25,8.25,0,0,0,2.34,1.37A6.88,6.88,0,0,0,188.62,209.74Zm.82-9.91a5.86,5.86,0,0,0,3.85-1.28,4.1,4.1,0,0,0,1.54-3.32,4.73,4.73,0,0,0-1.49-3.51,5.07,5.07,0,0,0-3.71-1.47,5.24,5.24,0,0,0-3.68,1.32A4.35,4.35,0,0,0,184.5,195a4.88,4.88,0,0,0,1.31,3.47A4.73,4.73,0,0,0,189.44,199.83Z"/><path class="cls-2" d="M207,210q-2.72-3.75-2.71-10.05t2.71-10c1.8-2.5,4.52-3.76,8.16-3.76s6.35,1.26,8.16,3.76,2.71,5.86,2.71,10-.91,7.55-2.71,10.05-4.53,3.76-8.16,3.76S208.84,212.53,207,210Zm3.22-17.26a17.24,17.24,0,0,0,0,14.42,5.3,5.3,0,0,0,4.94,2.75,5.23,5.23,0,0,0,4.9-2.73,17.74,17.74,0,0,0,0-14.46,5.8,5.8,0,0,0-9.84,0Z"/><path class="cls-2" d="M240.52,194.49v-7.67h18.76v4L248,213.48h-5l11-22.58H244.6v3.59Z"/><path class="cls-2" d="M272.45,202.69v-4.88h4.27v4.88h3.2v4.08h-3.2v6.71h-4.27v-6.71H261v-4l9.8-16h4.92l-9.64,15.87Z"/><path class="cls-2" d="M293,186.82h9.69v26.66h-4.27V190.83H293Z"/><path class="cls-2" d="M324.92,186.78v4.09H313.67v6.56a7.74,7.74,0,0,1,3.82-.92,9.76,9.76,0,0,1,6.44,2.25,7.5,7.5,0,0,1,2.71,6.1,8.22,8.22,0,0,1-2.82,6.39,10,10,0,0,1-6.94,2.54,11,11,0,0,1-8.59-3.59l2.41-3.28a8.38,8.38,0,0,0,.82.73,10.66,10.66,0,0,0,2.11,1.12,8.63,8.63,0,0,0,3.51.71,5.7,5.7,0,0,0,3.47-1.15,3.85,3.85,0,0,0,1.57-3.33,4,4,0,0,0-1.66-3.4,7,7,0,0,0-4.2-1.2,9.83,9.83,0,0,0-4.82,1.26l-1.91-2.06V186.78Z"/></g></svg>