<svg xmlns="http://www.w3.org/2000/svg" viewBox="0 0 400 400"><defs><style>.cls-1{fill:#3e3d4d;}.cls-2{fill:#fd9cbd;}</style></defs><title>Artboard 5</title><g id="appen"><path class="cls-1" d="M128,323.55l2.65-55a86.78,86.78,0,1,1,54.71,32.73Zm71.5-184.41a76.36,76.36,0,0,0-59.4,124.34l1.26,1.56-2.06,42.81,45-17.49,1.46.27a78,78,0,0,0,13.75,1.23,76.36,76.36,0,0,0,0-152.72Z"/><path class="cls-2" d="M208.52,225.08l-11.59-22.8A18.88,18.88,0,1,0,169.76,195c.11.2.23.39.34.58l0,0,28.27,55.63h0s0,0,0,0a18.89,18.89,0,1,0,10.16-26.22Z"/></g></svg>