<svg id="shopping" xmlns="http://www.w3.org/2000/svg" viewBox="0 0 400 400"><defs><style>.cls-1{fill:#3e3d4d;}.cls-2{fill:#fd9cbd;}</style></defs><title>Artboard 1</title><path class="cls-1" d="M251.25,242.5H120.5v-105H309.71Zm-118.75-12H244.2l45.09-81H132.5Z"/><path class="cls-1" d="M150.67,299.33A24.33,24.33,0,1,1,175,275,24.36,24.36,0,0,1,150.67,299.33Zm0-36.66A12.33,12.33,0,1,0,163,275,12.35,12.35,0,0,0,150.67,262.67Z"/><path class="cls-1" d="M220.67,299.33A24.33,24.33,0,1,1,245,275,24.36,24.36,0,0,1,220.67,299.33Zm0-36.66A12.33,12.33,0,1,0,233,275,12.35,12.35,0,0,0,220.67,262.67Z"/><polygon class="cls-2" points="120.33 137.67 120.33 242.33 225 242.33 120.33 137.67"/><polygon class="cls-2" points="133.33 151 133.33 100.33 82.67 100.33 133.33 151"/></svg>