<svg id="Layer_1" data-name="Layer 1" xmlns="http://www.w3.org/2000/svg" viewBox="0 0 750 300"><defs><style>.cls-1{fill:#f49bbd;}.cls-2{fill:#3e3d4e;}</style></defs><title>Artboard 1</title><path class="cls-1" d="M717,34.91v230H34v-230H717m11-11H23v252H728v-252Z"/><path class="cls-2" d="M136.7,148.46v26.86H126.25V125.7H136.7v9a16.49,16.49,0,0,1,6.76-7.18A19.14,19.14,0,0,1,153.2,125q11.76,0,16,9.7,7.36-9.7,18.37-9.7,8.4,0,13.57,5.13t5.18,14.83v30.4H195.82V148.09q0-13.71-11.37-13.71a13.78,13.78,0,0,0-9.28,3.4q-4,3.41-4.15,9.93v27.61H160.57V148.09q0-7.09-2.52-10.4t-7.92-3.31a13.67,13.67,0,0,0-9.42,3.59Q136.69,141.56,136.7,148.46Z"/><path class="cls-2" d="M267,155.08H228.09A11.29,11.29,0,0,0,233,163.8a17.29,17.29,0,0,0,10.44,3.31q9.33,0,14.18-5.87l6,6.53q-8,8.29-20.9,8.3A24.86,24.86,0,0,1,225,169.12q-7.32-6.94-7.32-18.65t7.46-18.61a25,25,0,0,1,17.58-6.9,25.5,25.5,0,0,1,17.21,6.11q7.08,6.1,7.08,16.83Zm-38.89-8.2h28.45q0-6.25-3.92-9.61a14.31,14.31,0,0,0-9.65-3.36,16.54,16.54,0,0,0-10.31,3.5A11.31,11.31,0,0,0,228.09,146.88Z"/><path class="cls-2" d="M324.62,155.08H285.73a11.28,11.28,0,0,0,4.94,8.72,17.35,17.35,0,0,0,10.45,3.31q9.31,0,14.17-5.87l6,6.53q-8,8.29-20.89,8.3a24.89,24.89,0,0,1-17.77-6.95q-7.32-6.94-7.32-18.65t7.46-18.61a25.06,25.06,0,0,1,17.58-6.9,25.46,25.46,0,0,1,17.21,6.11q7.1,6.1,7.09,16.83Zm-38.89-8.2h28.44q0-6.25-3.91-9.61a14.32,14.32,0,0,0-9.66-3.36,16.52,16.52,0,0,0-10.3,3.5A11.29,11.29,0,0,0,285.73,146.88Z"/><path class="cls-2" d="M346.54,175.32H336.09v-69.2h10.45v40.66l20.14-21.08h13.43l-18.84,19.68,20.24,29.94H368.82l-14.73-21.73-7.55,7.65Z"/><path class="cls-2" d="M390.93,115.82a6.52,6.52,0,1,1,4.66,2A6.36,6.36,0,0,1,390.93,115.82Zm9.79,59.5H390.27V125.7h10.45Z"/><path class="cls-2" d="M428.7,134.1v25.18a8.2,8.2,0,0,0,1.86,5.64,6.64,6.64,0,0,0,5.23,2.1c2.23,0,4.38-1.09,6.43-3.26l4.29,7.36a17.8,17.8,0,0,1-12.17,4.95A15.65,15.65,0,0,1,423,171.45q-4.71-4.62-4.71-12.45V134.1H412v-8.4h6.25V110.13H428.7V125.7h13.05v8.4Z"/><path class="cls-2" d="M455.42,174a6.78,6.78,0,0,1-2-4.94,6.86,6.86,0,0,1,6.9-6.9,6.82,6.82,0,0,1,4.95,2,6.6,6.6,0,0,1,2.05,4.89,7,7,0,0,1-7,7A6.57,6.57,0,0,1,455.42,174Z"/><path class="cls-2" d="M522.43,168.65a27.16,27.16,0,0,1-37.31,0,25.78,25.78,0,0,1,0-36.28,27.19,27.19,0,0,1,37.31,0,25.78,25.78,0,0,1,0,36.28Zm-29.89-6.43a16.22,16.22,0,0,0,22.47,0,17.68,17.68,0,0,0,0-23.41,16.22,16.22,0,0,0-22.47,0,17.68,17.68,0,0,0,0,23.41Z"/><path class="cls-2" d="M567.75,135.5q-7.74,0-11.66,5t-3.91,13.53v21.26H541.73V125.7h10.45v10A21.5,21.5,0,0,1,559,128a16.49,16.49,0,0,1,9.19-3.08l.09,10.54Z"/><path class="cls-2" d="M624.64,125.7V169q0,13.16-7.13,19.72t-18.33,6.58a32.24,32.24,0,0,1-20.24-7l4.94-7.92q7.27,5.49,14.69,5.5T610.32,182q4.35-3.83,4.34-12.21v-6.34a17.78,17.78,0,0,1-6.67,7,18.52,18.52,0,0,1-9.74,2.61,21.07,21.07,0,0,1-16.23-6.9q-6.35-6.9-6.34-17.16T582,131.86A21,21,0,0,1,598.2,125a19.19,19.19,0,0,1,16,8.11V125.7Zm-38.7,22.9a15.75,15.75,0,0,0,3.77,10.54,12.69,12.69,0,0,0,10.17,4.43,13.43,13.43,0,0,0,10.35-4.29,15.15,15.15,0,0,0,4-10.68,15.57,15.57,0,0,0-4-10.82,13.36,13.36,0,0,0-10.36-4.43,12.48,12.48,0,0,0-10.12,4.57A16.31,16.31,0,0,0,585.94,148.6Z"/></svg>