<svg id="Layer_1" data-name="Layer 1" xmlns="http://www.w3.org/2000/svg" viewBox="0 0 700 1000"><defs><style>.cls-1{fill:#f2e9ec;}.cls-2{fill:#231f20;}</style></defs><title>Artboard 1</title><path class="cls-1" d="M289.31,816.34c-43.7-30.18-83.5-64.11-122.8-99.85-23.58-21.43-45.44-46.34-55.22-76.67-11.82-36.69-1.9-82.55,35.73-99.4,56.65-25.36,119.11,27.05,113.21,86.15,5.39-54.06,52.89-117.5,113.18-103.64C548.1,563.13,249.91,789.13,289.31,816.34Z"/><path class="cls-2" d="M282.05,875h0L185.2,793.11c-16.71-14.14-34-28.75-46.33-46.45C119.62,719,114,685.29,123.35,654.11c10-33.1,37.14-58.14,69.23-63.8,20.5-3.65,44.51,3.15,59.71,16.86,6.84,6.17,11.4,13.33,13.41,20.82,3.2-13.5,11.32-26.4,23.58-37.14,19.33-17,45.75-25.67,70.73-23.32,25.66,2.43,43.58,10.85,53.27,25,10,14.58,11.27,35.17,3.87,61.19h0c-12.93,45.47-47.1,90.83-53.82,99.46-1.65,2.12-5.26,6.28-10.26,12-21.77,25.07-72.77,83.8-71.26,103.54a5.79,5.79,0,0,0,1.92,4.24ZM204,591.92a62.83,62.83,0,0,0-10.93.93c-31.13,5.49-57.5,29.83-67.19,62-9.16,30.42-3.64,63.35,15.16,90.34,12.13,17.42,29.29,31.92,45.88,45.95l92.39,78.12a2.64,2.64,0,0,1,0-.28c-1.59-20.81,48-78,71.89-105.43,5-5.72,8.56-9.85,10.17-11.92,6.67-8.57,40.57-53.57,53.37-98.59h0c7.18-25.24,6-45.11-3.52-59-9.24-13.51-26.52-21.56-51.38-23.91-24.34-2.33-50,6.19-68.8,22.69-14.57,12.78-23.09,28.65-24.12,44.85,0,.49,0,1-.07,1.47l-2.57-.14c0-.48,0-1,.07-1.44.26-10.13-4.58-20.19-13.72-28.45C238.55,598.25,220.84,591.92,204,591.92Z"/></svg>