<svg id="Layer_1" data-name="Layer 1" xmlns="http://www.w3.org/2000/svg" viewBox="0 0 700 1000"><defs><style>.cls-1{fill:#e8ebec;}.cls-2{fill:#f2e9ec;}.cls-3{fill:#231f20;}.cls-4{fill:#a5bab2;}</style></defs><title>Artboard 2</title><g id="balloon"><path class="cls-1" d="M337.38,159.92c-30.74,21.35-53.3,91.77-53.3,175.41,0,112.15,27.61,196.57,48.83,245h48c21.22-48.38,48.83-132.8,48.83-244.95,0-83.64-22.57-154.06-53.31-175.41-6.44-.47-12.94-.75-19.53-.75S343.82,159.45,337.38,159.92Z"/><path class="cls-1" d="M300.51,165.26c-92.18,20.24-160.23,88.8-160.23,170.07,0,61.21,26.63,153.28,153.22,245h11.37c-46-48.39-105.77-132.86-105.77-244.95C199.1,257.7,241.22,191.46,300.51,165.26Z"/><path class="cls-1" d="M514.73,335.33c0,112.09-59.78,196.56-105.76,245h11.36c126.59-91.67,153.22-183.74,153.22-244.95,0-81.27-68-149.83-160.23-170.07C472.61,191.46,514.73,257.7,514.73,335.33Z"/><path class="cls-2" d="M409.44,742.8c0,7.64-5.92,13.83-13.23,13.83H318.82c-7.3,0-13.22-6.19-13.22-13.83V696.09H409.44Z"/><path class="cls-1" d="M427,595.31l-1.58,1.13h-1.94v21.7a8.25,8.25,0,0,1-8.25,8.25H298.57a8.25,8.25,0,0,1-8.25-8.25v-21.7h-1.95l-1.58-1.13C152.24,498.5,124,400.14,124,334.67,124,229,228.49,143,356.92,143s232.91,86,232.91,191.67C589.83,400.14,561.59,498.5,427,595.31Z"/><path class="cls-3" d="M316.73,704.45a5.09,5.09,0,0,1-1.78-.33,4.4,4.4,0,0,1,2.68-8.35l.52.13c-.73-24.41-7-47.34-13.21-66.79l.87-.27c6.25,19.66,12.62,42.87,13.27,67.61a4.51,4.51,0,0,1,1.7,3.27,4.35,4.35,0,0,1-1.6,3.94A4,4,0,0,1,316.73,704.45Zm-.11-7.9a3.66,3.66,0,0,0-2.45,1.06,3.47,3.47,0,1,0,5.71,2.19,3.87,3.87,0,0,0-.77-2c0,1.29,0,2.58,0,3.87v.6l-.58-.16a3.51,3.51,0,0,1-2.37-2.74A3.73,3.73,0,0,1,316.62,696.55Zm1.54-.29-.35.29a2.63,2.63,0,0,0-.73,2.58,2.79,2.79,0,0,0,1.14,1.79c0-1.33,0-2.65,0-4l-.07,0,.07-.12Z"/><path class="cls-3" d="M400.41,704.07a3.89,3.89,0,0,1-2.41-.81,4.53,4.53,0,0,1-1.55-4,4.66,4.66,0,0,1,1.66-3.3c.66-25.28,7.05-49.51,12.69-68.12l.87.26c-5.58,18.42-11.89,42.34-12.63,67.3l.48-.14a4.16,4.16,0,0,1,3.89,1.1,4.63,4.63,0,0,1,1.52,4.18,4.44,4.44,0,0,1-2.88,3.25A4.54,4.54,0,0,1,400.41,704.07Zm-2.33-6.81a4.1,4.1,0,0,0-.73,2,3.71,3.71,0,0,0,1.22,3.24,3.22,3.22,0,0,0,3.16.36,3.54,3.54,0,0,0,2.31-2.57A3.7,3.7,0,0,0,402.8,697a3.48,3.48,0,0,0-2.28-1,3.9,3.9,0,0,1,.42,2.88,3.56,3.56,0,0,1-2.3,2.73l-.58.17v-.61C398.05,699.88,398.06,698.57,398.08,697.26Zm.93-.84c0,1.35-.05,2.7-.05,4.05a2.88,2.88,0,0,0,1.09-1.76,2.75,2.75,0,0,0-.71-2.7l-.31-.28,0,.54.06.12Z"/><path class="cls-3" d="M359.7,706.25a4.65,4.65,0,0,1-.82-.08v.08l-.55-.13a5.77,5.77,0,0,1-3.23-8.64,5.06,5.06,0,0,1,2.91-1.89c.16-22.24.87-44.66,2.12-66.8l.91.05c-1.25,22.07-2,44.43-2.12,66.59a6.72,6.72,0,0,1,.9,0,5.44,5.44,0,0,1,.42,10.79A3.27,3.27,0,0,1,359.7,706.25Zm-.82-1a3.5,3.5,0,0,0,1.24.06,4.5,4.5,0,0,0,3.4-2.62,4.22,4.22,0,0,0-3.75-6.37,5.93,5.93,0,0,0-.85,0Q358.88,700.81,358.88,705.25Zm-.9-3.18a1.35,1.35,0,0,0-.5.39,1.61,1.61,0,0,0-.26,1.6,2,2,0,0,0,.76.83Zm0-5.54a4.14,4.14,0,0,0-2.17,1.49,4.55,4.55,0,0,0-.42,4.27,5.38,5.38,0,0,0,.8,1.43,2.61,2.61,0,0,1,.56-1.82,2.06,2.06,0,0,1,1.21-.77C358,699.6,358,698.06,358,696.53Z"/><path class="cls-4" d="M338.69,159.79c-31,21.56-53.81,92.65-53.81,177.08,0,113.21,27.87,198.43,49.3,247.27h48.47c21.42-48.84,49.29-134.06,49.29-247.27,0-84.43-22.78-155.52-53.8-177.08-6.5-.47-13.07-.76-19.72-.76S345.19,159.32,338.69,159.79Z"/><path class="cls-4" d="M301.47,165.19c-93.05,20.43-161.74,89.64-161.74,171.68,0,61.79,26.88,154.73,154.66,247.27h11.48C259.46,535.29,199.1,450,199.1,336.87,199.1,258.51,241.62,191.64,301.47,165.19Z"/><path class="cls-4" d="M517.73,336.87C517.73,450,457.37,535.29,411,584.14h11.47C550.22,491.6,577.1,398.66,577.1,336.87c0-82-68.69-151.25-161.75-171.68C475.21,191.63,517.73,258.5,517.73,336.87Z"/></g></svg>