<svg id="Layer_1" data-name="Layer 1" xmlns="http://www.w3.org/2000/svg" viewBox="0 0 700 1000"><defs><style>.cls-1{fill:none;stroke:#231f20;stroke-miterlimit:10;stroke-width:1.64px;}</style></defs><title>Artboard 3</title><path class="cls-1" d="M183.2,395.42C140.87,400.51,99.12,374,79.23,339c-14.6-25.69-19-58.18-3.15-83.06s55.53-36.59,80.52-19c-14.81-26.82-8.92-61,10.77-84.79s51.33-37.7,83.62-41.33c26.69-3,55.55,1,76.54,16.71s31.33,44.62,19,66.6c28.84-3.67,59.13-7.2,86.42,2.39s49.67,37,41.3,62.74c36.85-9,80.79-16.19,109.4,7.28,27.9,22.89,23.83,69.09-5.4,90.17-21.83,15.75-51.4,18-79.14,19.46q-155.88,8-312.17,4.93c-27.25-.53-62.48-7.51-66-32.46"/></svg>