<svg id="Layer_1" data-name="Layer 1" xmlns="http://www.w3.org/2000/svg" viewBox="0 0 700 1000"><defs><style>.cls-1{fill:none;stroke:#231f20;stroke-miterlimit:10;stroke-width:1.51px;}</style></defs><title>Artboard 4</title><path class="cls-1" d="M508.88,908.93c-72,2-144,.7-216,1.05-12.37.06-25.31,0-36.31-5.68-19.67-10.16-24.35-35.11-19-54.93,5.26-19.37,21-32.37,38.75-40.68,0,0,26.7-11.1,56.76-10.62l1.05-8.81c7.39-37.22,26.76-70.66,63.28-85.58,26.46-10.8,57.37-8.22,82.21,5.65,12.6,7,23.85,17,31.52,29.25,0,0,13.16,20.33,17.62,40.4,0,0,84.74,1.11,78,69.13C606.8,848.11,606.09,906.2,508.88,908.93Z"/></svg>