<svg id="Layer_1" data-name="Layer 1" xmlns="http://www.w3.org/2000/svg" viewBox="0 0 700 1000"><defs><style>.cls-1{fill:#657f66;}.cls-2{fill:#f4d6ae;}</style></defs><title>Artboard 1</title><path class="cls-1" d="M417.93,135c10.36-4.42,19.16-11.78,27.4-19.45,10.82-10.07,21.53-22,23-36.74,1-10-2.5-19.86-5.93-29.31C460.7,44.88,459,40.15,456,36.19c-4.37-5.83-11-9.46-17.41-12.92-6.94-3.74-14.12-7.55-22-8.27-10.75-1-21.37,4.12-29.26,11.48S373.9,43.31,368.7,52.77a582.94,582.94,0,0,0-28,58.47c4-12,4.28-24.89,6-37.43S352,48.27,361.09,39.43c-18.83,16.82-37.79,33.79-52.88,54-12.74,17.11-22.48,36.26-34.79,53.69-10,14.19-21.69,27.17-31.38,41.59a185.44,185.44,0,0,0-26.26,59.72c-1.35,5.62-2.48,11.39-5.32,16.42a26.9,26.9,0,0,1-1.63,2.53,116.39,116.39,0,0,1-3.17,23.92c7.44-1,14.55-5.25,21.56-7.64,10.69-3.63,22.3-3.82,33.5-3.83,2.84,0,5.75,0,8.41-1a22.42,22.42,0,0,0,6.5-4.42l58.6-50.91a103,103,0,0,1-64.37,6.53c21.28-7.51,42.77-15.07,65.16-17.89,3.79-.48,7.71-.85,11.1-2.61a29.66,29.66,0,0,0,6.22-4.79l58.79-54.3a339.58,339.58,0,0,0-50.73-.76C378.14,140.78,399.66,142.82,417.93,135Z"/><path class="cls-2" d="M187.37,315c3.8-7.28,9.23-13.55,14.37-19.95,16.14-20.11,29.79-42.08,44.76-63.07,15.51-21.73,32.44-42.4,49.36-63.05,7.71-9.42,15.44-18.84,23.82-27.66,7.43-7.83,15.35-15.16,23.28-22.48,18.2-16.84,37.27-34.18,61-41.35a545.2,545.2,0,0,0-71.16,61c-27.34,27.86-51.61,58.58-74.82,90-12.2,16.49-24.13,33.19-35.12,50.5-8.27,13-16,26.39-24.86,39-1.95,2.77-9.26,16-13.48,15C179.57,331.74,185.8,318,187.37,315Z"/><path class="cls-1" d="M298.38,826.68c-10.76,13.91-17.15,30.67-22.55,47.41-7.07,22-12.57,46.45-3.35,67.62,6.28,14.4,18.55,25.18,30.43,35.46,5.85,5.05,11.81,10.18,18.87,13.32,10.41,4.63,22.22,4.53,33.61,4.35,12.3-.19,25-.46,36.24-5.46,15.41-6.85,26-21.9,31.15-38s5.55-33.22,5.43-50.08a913.54,913.54,0,0,0-6.31-101.11c3.68,19.43,13.12,37.2,20.31,55.63s12.17,38.91,6.55,57.87c12.86-37.28,25.79-74.88,30.93-114,4.34-33,3-66.6,6.53-99.74,2.85-27,8.88-53.59,11.1-80.64a289.56,289.56,0,0,0-9.7-101.47c-2.43-8.69-5.3-17.43-5.27-26.45a45.46,45.46,0,0,1,.3-4.69,183.38,183.38,0,0,1-13.91-35c-9.39,7-15.83,18.25-23.58,26.86-11.8,13.1-27.5,22.2-42.76,30.76-3.86,2.17-7.87,4.34-10.72,7.73-2.65,3.16-4.1,7.12-5.49,11L345.06,642.15a161,161,0,0,1,82.81-58c-23.3,26.46-46.84,53.14-75.23,74.06-4.8,3.54-9.86,7-13.15,12-2.25,3.42-3.55,7.38-4.82,11.27q-19.4,59.44-38.8,118.87a531.31,531.31,0,0,0,69.76-37.62C348.26,788.5,317.36,802.13,298.38,826.68Z"/><path class="cls-2" d="M475.69,405.57c.37,12.82-2.26,25.52-4.39,38.17-6.69,39.73-8.55,80.09-13,120.13-4.58,41.46-11.93,82.55-19.26,123.61-3.35,18.71-6.69,37.45-11.4,55.87-4.17,16.33-9.39,32.38-14.61,48.4-12,36.83-24.79,75-51.69,102.9A852.7,852.7,0,0,0,411.9,757.17C428,698.33,437.64,638,445.38,577.45c4.07-31.78,7.61-63.65,9.4-95.65,1.35-24.05,1.7-48.17,4.17-72.15.54-5.27.41-28.9,6.94-30.75C473.53,376.73,475.54,400.27,475.69,405.57Z"/></svg>