<svg id="Layer_1" data-name="Layer 1" xmlns="http://www.w3.org/2000/svg" viewBox="0 0 700 1000"><defs><style>.cls-1{fill:#393c3f;}</style></defs><title>Artboard 2</title><path class="cls-1" d="M454.61,699.22a8,8,0,0,0,4.82,1.65c1.77.09,3.56-.06,5.36-.07a10.84,10.84,0,0,1,5.38,1,6.1,6.1,0,0,1,3.17,4.44c.54,3.75-1.19,7.37-3.47,10.12s-4.78,5.46-5.77,8.84l-.2-.4a4,4,0,0,1,2.21,2.5,14.75,14.75,0,0,1,.71,3.15c.16,1,.37,2,.56,3.08s.52,2,.88,3a39.52,39.52,0,0,0,6.06,10.9,70.25,70.25,0,0,0,8.64,9.12c3.11,2.81,6.39,5.44,9.71,8l-.25-.09a5,5,0,0,1,3.45,2,9.42,9.42,0,0,1,1.64,3.55,11.44,11.44,0,0,1,.28,3.87,7.43,7.43,0,0,1-1.37,3.7,10,10,0,0,1-6.7,3.75,14.31,14.31,0,0,1-7.6-1,28,28,0,0,1-6.5-3.93c-2-1.55-3.86-3.18-5.78-4.77l-11.43-9.59,1-1.06a36.34,36.34,0,0,1,5.73,9,53.08,53.08,0,0,1,3.32,10.1A131.66,131.66,0,0,1,471,801.07l-.22-.59c5.08,6.2,9,13.15,13.61,19.39,1.17,1.56,2.37,3.08,3.65,4.54a11.35,11.35,0,0,1,2.82,5.91,7.49,7.49,0,0,1-.33,3.52,5.92,5.92,0,0,1-2.32,2.94,7.13,7.13,0,0,1-3.49,1,11.94,11.94,0,0,1-1.7-.1c-.55-.08-1.07-.23-1.61-.35a22.65,22.65,0,0,1-5.71-2.61,52.52,52.52,0,0,1-5-3.53c-3.16-2.49-6-5.13-9.17-7.4l-18.94-14.18,2.44-2.22L456.78,826a55.64,55.64,0,0,1,2.83,4.91,29.62,29.62,0,0,1,2.18,5.46,13.33,13.33,0,0,1,.48,3.2,6.27,6.27,0,0,1-1.08,3.77,5.76,5.76,0,0,1-3.51,2.12,9.63,9.63,0,0,1-3.51,0,15.17,15.17,0,0,1-5.72-2.71,33.64,33.64,0,0,1-4.36-3.93c-1.32-1.38-2.53-2.86-3.69-4.27l-3.5-4.24-14-17,4-1.72c1.61,11.68,2.48,23.41,3.33,35.08s1.69,23.29,3.24,34.78l.5,3.69-3.62-.91a18.8,18.8,0,0,1-10.46-7.11l4.52-2.12a7.76,7.76,0,0,1-.07,3.84,9,9,0,0,1-1.57,3.22,8.39,8.39,0,0,1-2.82,2.41,7.14,7.14,0,0,1-3.91.77,8.19,8.19,0,0,1-3.56-1.16,9.68,9.68,0,0,1-2.62-2.38,10.87,10.87,0,0,1-2.23-6.35l5.15.26-.69,5.87-.27,2.28h-11.9l.64-3.14a10.7,10.7,0,0,0-1.51-7.89l4.79-1.61.73,11,.14,2.13-2.06.56a7.7,7.7,0,0,1-4.87-.37l3.14-3.87a46.17,46.17,0,0,1,7.92,25.59l-2-2.52a10.49,10.49,0,0,1,2.73,1,10.05,10.05,0,0,1,2.34,1.78,14.34,14.34,0,0,1,2.82,4.5,74.75,74.75,0,0,1,2.54,8.69,21.17,21.17,0,0,0,3,7.09,10.42,10.42,0,0,0,5.83,3.67,21.16,21.16,0,0,0,7.73.39,31.67,31.67,0,0,0,4-.73c1.34-.35,2.7-.75,4.07-1.17,2.75-.84,5.56-1.79,8.55-2.48a30.06,30.06,0,0,1,9.43-.83l1.14.1.61.89a14.15,14.15,0,0,1,2.34,5.43,16,16,0,0,1-.08,5.74,25.39,25.39,0,0,1-4.44,9.71,36.53,36.53,0,0,1-3.31,4,39.81,39.81,0,0,1-3.81,3.47,82,82,0,0,1-8.11,5.87,83.45,83.45,0,0,1-37.6,12.53c-1.65.18-3.32.17-5,.26s-3.31,0-5-.08a27.83,27.83,0,0,1-5.19-.73,14.93,14.93,0,0,1-5.1-2.26,11,11,0,0,1-3.67-4.52,18.37,18.37,0,0,1-1.36-5.24c-.44-3.37-.48-6.48-1.62-9a23.37,23.37,0,0,0-5.36-7.19c-2.25-2.24-4.74-4.35-7-7a21.06,21.06,0,0,1-4.62-9.45,13.05,13.05,0,0,1,.08-5.56,9.44,9.44,0,0,1,3-4.95l-.16,2.33a99.86,99.86,0,0,1-15.89-25.42l2.86-.55-1.36,31.68-.1-.54a43.63,43.63,0,0,1-2.39,36.73l-2-1.1a2.56,2.56,0,0,1,1.35-1.06,5.15,5.15,0,0,1,1.18-.26,12.21,12.21,0,0,1,2.09,0,32.64,32.64,0,0,1,3.88.51c2.53.46,5,1.08,7.45,1.74s4.87,1.38,7.32,2.23,4.77,1.74,7.11,2.83a31.54,31.54,0,0,1,3.44,1.83,16.44,16.44,0,0,1,3.19,2.45,7.37,7.37,0,0,1,2.13,3.75,8.42,8.42,0,0,1-.46,4.21,14.57,14.57,0,0,1-4.36,6.69,16.13,16.13,0,0,1-7.22,3.33,38.21,38.21,0,0,1-7.7.65l-7.57.15-15.12.29-7.57.14c-2.51.05-5.05.12-7.6.05a46.43,46.43,0,0,1-7.67-.8,22.46,22.46,0,0,1-7.34-2.71,15.87,15.87,0,0,1-5.58-5.61,27.8,27.8,0,0,1-2.77-7.28c-1.18-5-2.23-9.85-3.35-14.78l-3.3-14.76-1.66-7.4a10,10,0,0,1-.14-4.13,9.68,9.68,0,0,1,2-3.65c3.34-3.64,3-8.86,3.53-13.87L303,900.15l1.15-15.08a21.22,21.22,0,0,0-.61-7.14c-.63-2.23-2-4.14-4.12-4.44l1.21-1.18a20.08,20.08,0,0,1-1.48,10.9l-.59,1.34-1.09-1a13.86,13.86,0,0,1-4.61-8.8l2.17.08-2.55,13.77-.29,1.54-1.39-.74a12.6,12.6,0,0,1-6.6-11.39l.56,1.07-.17-.09a.54.54,0,0,0,.38-.08c.14-.1.11-.12.09-.06a1.94,1.94,0,0,0-.11.34,15.49,15.49,0,0,0-.24,2.14c-.05.79-.1,1.6-.22,2.45a7.54,7.54,0,0,1-.3,1.35,3.64,3.64,0,0,1-.88,1.49,4.52,4.52,0,0,1-2.91,1.32,6.25,6.25,0,0,1-2.91-.44,5.42,5.42,0,0,1-2.41-1.85,7.83,7.83,0,0,1-1.2-2.53,15.34,15.34,0,0,1-.37-5.13c.12-1.63.27-3.16.41-4.74l.86-9.43c1.2-12.56,2.57-25.12,4.46-37.63a355.88,355.88,0,0,1,7.5-37.22c.77-3.08,1.69-6.11,2.56-9.17s1.87-6.06,2.9-9.06c2-6,4.24-11.91,6.23-17.84a141.81,141.81,0,0,0,4.94-18,129.83,129.83,0,0,0,2.27-18.46,252.14,252.14,0,0,0-1.28-37.43c-1.45-12.44-1.68-25.35-7-36.09a29.57,29.57,0,0,0-4.91-7.2l-.74-.79-.8-.71a18.26,18.26,0,0,0-1.65-1.38c-1.16-.87-2.42-1.68-3.74-2.48a72.26,72.26,0,0,1-8.2-5.31,23.66,23.66,0,0,1-3.73-3.69,29.38,29.38,0,0,1-2.85-4.3l.83.9a81.76,81.76,0,0,1-21.47-20.12,82.74,82.74,0,0,1-13.09-26.39,87.33,87.33,0,0,1-2.8-14.5,99,99,0,0,1-.57-14.72,72.82,72.82,0,0,1,2-14.75,40.09,40.09,0,0,1,6.21-14l-.47,2.28-6.78-29.1-.92-4,4.06.55a24.23,24.23,0,0,1,11.29,4.63l-4.1,3.83A83.12,83.12,0,0,1,232.08,436l.77-6,4.28,4.34,3.92,4-4.88,3.18a102.91,102.91,0,0,1-7.23-44.65l.23-3.79,3.66,1.05,7.29,2.1-3.92,3a61.4,61.4,0,0,1,11.87-38.11l3.51-4.75,1.91,5.59a186.09,186.09,0,0,1,8.66,38.06l-5.95-.81a13.65,13.65,0,0,1,.78-1.39,6.93,6.93,0,0,1,1.24-1.24,5.49,5.49,0,0,1,1.57-.82,8.46,8.46,0,0,1,.82-.24q.39-.06.78-.09a8.63,8.63,0,0,1,5,1.28,11,11,0,0,1,3.42,3.17,6.79,6.79,0,0,1,.63,1.05,6.27,6.27,0,0,1,.51,1.18l.21.62.13.67.1.67,0,.54a26,26,0,0,1-1.05,7.5,17.12,17.12,0,0,0-.75,5.58l-6.18-.05a7.57,7.57,0,0,1,.35-1.36,4.13,4.13,0,0,1,1.24-1.67,3.54,3.54,0,0,1,1-.61,4.79,4.79,0,0,1,1.08-.28,6.76,6.76,0,0,1,.9,0,3.37,3.37,0,0,1,.72.12,5.13,5.13,0,0,1,1.12.4,6.78,6.78,0,0,1,.86.47,8.52,8.52,0,0,1,1.33,1.07,9.7,9.7,0,0,1,1.94,2.63,7.92,7.92,0,0,1,.62,1.74c.07.32.13.7.16,1l0,.58a68.13,68.13,0,0,1,0,9.26,70.06,70.06,0,0,1-3.62,18.12l-2.34-4a6.5,6.5,0,0,1,2.37,1,7.27,7.27,0,0,1,1.67,1.65,10.49,10.49,0,0,1,1.55,3.38,19.39,19.39,0,0,1,.56,3l.31,2.61,1.24,10.44L279,488.06l-4.13-2.44a149.11,149.11,0,0,1,49.83-10.55,146.2,146.2,0,0,1,25.52,1.22c2.11.31,4.22.59,6.31,1l3.15.59,3.13.69a98.5,98.5,0,0,1,12.36,3.71c8.06,3,15.9,7.42,22.13,13.8a44.61,44.61,0,0,1,4.3,5.1c.67.89,1.21,1.86,1.82,2.8l.88,1.41.75,1.49a46.46,46.46,0,0,1,4.35,12.47,64,64,0,0,1,1.29,13,94.36,94.36,0,0,1-.82,12.83,211.63,211.63,0,0,1-5,24.87l-2.31-2.92a11.2,11.2,0,0,1,5,1.2,13.64,13.64,0,0,1,3.88,2.93,16.43,16.43,0,0,1,4.12,8.32,28.46,28.46,0,0,1,.09,8.78c-.34,2.82-.94,5.51-1.4,8.12a146,146,0,0,1-3.4,16.11c-1.61,5.33-4,10.78-8.39,14.9a20.41,20.41,0,0,1-7.73,4.34,39.24,39.24,0,0,1-8.38,1.44c-5.52.43-10.87.31-15.82,1.66a15.78,15.78,0,0,0-6.52,3.21,6.39,6.39,0,0,0-1.77,2.69,5.86,5.86,0,0,0-.14,3.19,8.65,8.65,0,0,0,1.49,3.09,14.67,14.67,0,0,0,2.57,2.67l6.17,5.32a126.87,126.87,0,0,1,11.74,11.46,56,56,0,0,1,9.12,13.8,51.74,51.74,0,0,1,4.32,16c.19,1.4.29,2.64.55,3.93a29.65,29.65,0,0,0,1.06,3.76,38.48,38.48,0,0,0,3.53,7.06c1.42,2.25,3,4.42,4.63,6.57a39.84,39.84,0,0,0,5.28,5.91,13.69,13.69,0,0,0,6.76,3.4,11.81,11.81,0,0,0,1.88.14c.32,0,.64,0,.95-.06a4.25,4.25,0,0,0,.88-.12.9.9,0,0,0,.45-.24.68.68,0,0,0,.09-.45,7.11,7.11,0,0,0-.52-1.71c-1-2.4-2.41-4.77-3.67-7.16a76,76,0,0,1-3.54-7.39,26.55,26.55,0,0,1-1.25-4,10.6,10.6,0,0,1-.15-4.28,5.84,5.84,0,0,1,.85-2.09,5.59,5.59,0,0,1,1.64-1.54,9.9,9.9,0,0,1,4.09-1.3h.06c1.07,0,2.11.07,3.17.19a12.41,12.41,0,0,1,3.18.71l-.77.53c-.16-3.14-.36-6.31-.79-9.41l-.15-1,.9.51,2.5,1.4-.74.45-.24-10V680l0-.08c.54-1.57,1.05-3.17,1.49-4.78a29.63,29.63,0,0,0,1-4.84l.06-.58.52.23,1.95.84-.55.25,3.92-12,.28-.86.42.79a42.37,42.37,0,0,1,2.14,4.77,17.47,17.47,0,0,1,1.21,5.13,50.13,50.13,0,0,1-.25,5.22c-.16,1.72-.36,3.44-.59,5.16v-.1a27.3,27.3,0,0,1,.34,4.88,9.35,9.35,0,0,1-.48,2.44c-.22.78-.46,1.55-.7,2.32q-1.49,4.6-3.1,9.17l-.4-.42a31.8,31.8,0,0,1,9.75-1.3,22,22,0,0,1,4.89.77A15.64,15.64,0,0,1,454.61,699.22Zm-.37.45a15.12,15.12,0,0,0-4.28-2.06,21.57,21.57,0,0,0-4.74-.73,31.1,31.1,0,0,0-9.53,1.3l-.61.19.21-.6c1-3,2.08-6.09,3-9.15.24-.77.48-1.54.7-2.31a9.3,9.3,0,0,0,.45-2.28,29.21,29.21,0,0,0-.35-4.75v-.1c.22-1.7.41-3.42.56-5.13a49.12,49.12,0,0,0,.24-5.12,17.1,17.1,0,0,0-1.18-4.9,39.88,39.88,0,0,0-2.12-4.66l.71-.07-3.88,12-.13.42-.42-.18L431,670.7l.58-.34a32,32,0,0,1-1,5c-.44,1.63-.94,3.24-1.48,4.84l0-.15.32,10,0,.87-.77-.42-2.51-1.38.75-.52c.47,3.17.69,6.33.88,9.51l0,.86-.82-.33a11.24,11.24,0,0,0-2.87-.6c-1-.1-2-.15-3-.16h.06a8.93,8.93,0,0,0-3.58,1.15,4.55,4.55,0,0,0-1.29,1.22,4.8,4.8,0,0,0-.65,1.66,9.47,9.47,0,0,0,.18,3.77,24.6,24.6,0,0,0,1.22,3.76,67.9,67.9,0,0,0,3.56,7.21c1.28,2.39,2.68,4.68,3.82,7.25a7.62,7.62,0,0,1,.66,2.16,2.16,2.16,0,0,1-.37,1.48,2.35,2.35,0,0,1-1.25.81,5.58,5.58,0,0,1-1.14.18c-.35,0-.71.07-1.07.09a13.06,13.06,0,0,1-2.16-.14,15.26,15.26,0,0,1-7.62-3.68,41.34,41.34,0,0,1-5.62-6.09c-1.67-2.15-3.31-4.34-4.81-6.65a38.85,38.85,0,0,1-3.82-7.39,31.11,31.11,0,0,1-1.2-4c-.3-1.37-.44-2.83-.63-4.11a49.46,49.46,0,0,0-4.34-15.2,53.74,53.74,0,0,0-8.91-13.09,124.46,124.46,0,0,0-11.65-11c-2.05-1.75-4.13-3.48-6.21-5.21a14.16,14.16,0,0,1-5.14-7.28,9,9,0,0,1,.14-4.84,9.5,9.5,0,0,1,2.55-4.06,18.86,18.86,0,0,1,7.82-4.09c5.54-1.57,11.16-1.5,16.4-2a35.67,35.67,0,0,0,7.58-1.41,16.39,16.39,0,0,0,6.27-3.63,22.05,22.05,0,0,0,4.35-6,40.13,40.13,0,0,0,2.74-7.22,143.78,143.78,0,0,0,3.05-15.72c.45-2.73,1-5.33,1.25-7.9a24,24,0,0,0-.16-7.4,12,12,0,0,0-3-6,7.64,7.64,0,0,0-5.45-2.59l-3,0,.7-3a206.73,206.73,0,0,0,4.59-24.34,90.64,90.64,0,0,0,.64-12.18,57.75,57.75,0,0,0-1.32-11.93,42,42,0,0,0-3.95-11.09l-.67-1.31-.79-1.24c-.54-.81-1-1.67-1.61-2.45a41.15,41.15,0,0,0-3.8-4.45c-5.53-5.58-12.66-9.55-20.21-12.34a94,94,0,0,0-11.66-3.41l-3-.64-3-.54c-2-.39-4-.64-6.07-.94A139.44,139.44,0,0,0,325,481a143.07,143.07,0,0,0-47.8,10.26l-3.66,1.47-.47-3.91-2.55-20.86-1.27-10.43-.32-2.61a12.77,12.77,0,0,0-.39-2.12,4.54,4.54,0,0,0-.6-1.39c-.21-.26-.18-.18-.22-.21l-2.82-2.61.48-1.42a64.78,64.78,0,0,0,3.26-16.53,62.56,62.56,0,0,0,0-8.44l0-.52c0-.09,0-.07,0-.11a1.89,1.89,0,0,0-.14-.34,3.43,3.43,0,0,0-.67-.91,2.92,2.92,0,0,0-.39-.32s-.12-.08-.11-.06,0,0,.09,0,0,0,.17,0a.82.82,0,0,0,.35,0,1.81,1.81,0,0,0,.55-.13,3.64,3.64,0,0,0,.55-.33,2,2,0,0,0,.59-.78c.07-.16.09-.19.08-.29l-6.18,0a22.63,22.63,0,0,1,.89-7.67,20.46,20.46,0,0,0,.89-5.72v-.3a.83.83,0,0,1,0-.15c0-.05,0-.1,0-.15l-.06-.17a1.42,1.42,0,0,0-.16-.36,1.38,1.38,0,0,0-.23-.38,4.86,4.86,0,0,0-1.46-1.35,2.76,2.76,0,0,0-1.37-.45s0,0-.05,0l0,0s.07,0,.08-.06.08,0,.06-.07a.06.06,0,0,1,0,.08l-5.66,1.6L256,400.8a179.21,179.21,0,0,0-8.36-36.8l5.42.84a55.56,55.56,0,0,0-10.72,34.24l.12,4.22-4-1.18L231.14,400l3.89-2.74a96.9,96.9,0,0,0,6.65,42.06l5.51,13.81L236.81,442.5l-3.91-4,5-1.69a77.24,77.24,0,0,0,11.79,51.81l9,13.79-13.1-9.95a18.43,18.43,0,0,0-8.62-3.57l3.14-3.44,6.66,29.12.28,1.24-.76,1a35,35,0,0,0-5.34,12,66.9,66.9,0,0,0-1.86,13.61,93.91,93.91,0,0,0,.49,13.92A81.84,81.84,0,0,0,242.2,570a78.22,78.22,0,0,0,32.17,43.77l.54.35.3.55a25.47,25.47,0,0,0,2.34,3.59,19.2,19.2,0,0,0,2.95,3,70.6,70.6,0,0,0,7.64,5,48.68,48.68,0,0,1,4.12,2.77,23.7,23.7,0,0,1,2,1.66c.31.29.64.57.95.87l.88.94a34.45,34.45,0,0,1,5.65,8.39,62.84,62.84,0,0,1,5.23,18.86c.45,3.21.72,6.35,1.05,9.48l.9,9.44c1.11,12.6,1.84,25.33,1,38.09a135.94,135.94,0,0,1-2.54,19,145.1,145.1,0,0,1-5.25,18.4c-2.08,6-4.34,11.89-6.42,17.8-1.05,2.95-2,5.94-2.95,8.91s-1.83,6-2.61,9a345.87,345.87,0,0,0-7.79,36.81c-2,12.41-3.47,24.9-4.77,37.43l-.95,9.4c-.23,3.12-.88,6.35-.21,8.93a5.65,5.65,0,0,0,.8,1.72,2.76,2.76,0,0,0,1.29,1,3,3,0,0,0,3-.26,1.31,1.31,0,0,0,.32-.52,5.92,5.92,0,0,0,.21-.95c.1-.7.16-1.46.22-2.25a16.9,16.9,0,0,1,.32-2.55,4.28,4.28,0,0,1,.27-.78,2.22,2.22,0,0,1,.81-1,1.92,1.92,0,0,1,1.51-.23,3.1,3.1,0,0,1,.91.4l.59.35,0,.72a10.26,10.26,0,0,0,5.27,9.26l-1.69.8,2.68-13.73,1.42-7.32.75,7.4a11.57,11.57,0,0,0,3.83,7.44l-1.69.37a18,18,0,0,0,1.38-9.75l-.2-1.39,1.41.22a6.4,6.4,0,0,1,3.82,2.2,10,10,0,0,1,1.9,3.72,22.6,22.6,0,0,1,.65,7.86L305,900.3l-1.22,15.08c-.23,2.52-.32,5-.73,7.61a16.39,16.39,0,0,1-1.07,3.85,14.36,14.36,0,0,1-2.12,3.38,7.88,7.88,0,0,0-1.63,2.94,8.1,8.1,0,0,0,.14,3.37L300,943.9l3.28,14.77c1.11,4.9,2.17,9.87,3.31,14.73a26,26,0,0,0,2.58,6.82,14,14,0,0,0,5,5,21,21,0,0,0,6.78,2.47,44.05,44.05,0,0,0,7.37.75c2.49.07,5,0,7.52-.06l7.56-.16,15.13-.33,7.56-.16a36.8,36.8,0,0,0,7.34-.63,14,14,0,0,0,6.37-2.94,12.61,12.61,0,0,0,3.74-5.85,6.58,6.58,0,0,0,.37-3.23,5.55,5.55,0,0,0-1.61-2.69,14.73,14.73,0,0,0-2.81-2.13,31.15,31.15,0,0,0-3.25-1.69c-2.24-1-4.59-1.86-7-2.71s-4.76-1.49-7.16-2.13-4.85-1.22-7.29-1.65a30.47,30.47,0,0,0-3.61-.46,10.6,10.6,0,0,0-1.7,0,3,3,0,0,0-.65.14c-.19.06-.18.14-.15,0l-2-1.1a41.05,41.05,0,0,0,1.93-34.64l-.11-.26v-.29l1-31.69.21-6.5,2.65,6A97.22,97.22,0,0,0,368,917.75l1.11,1.25-1.27,1.08c-2,1.7-2.49,4.56-1.91,7.37a17.65,17.65,0,0,0,3.94,7.82c2,2.27,4.48,4.37,6.86,6.68a26.59,26.59,0,0,1,6.24,8.3,19.55,19.55,0,0,1,1.4,5.16c.25,1.69.38,3.32.6,4.84.4,3.09,1.35,5.63,3.51,7.08s5.17,2,8.22,2.17c1.54.07,3.15,0,4.72,0s3.16-.11,4.73-.3A79.09,79.09,0,0,0,441.69,957a77.19,77.19,0,0,0,7.59-5.63,33.34,33.34,0,0,0,3.36-3.11,34,34,0,0,0,2.85-3.52,21.36,21.36,0,0,0,3.59-7.88,11.36,11.36,0,0,0,0-3.94,9.51,9.51,0,0,0-1.5-3.44l1.75,1c-5.14-.44-10.49,1.43-16.07,3.21-1.4.44-2.83.87-4.3,1.26a40,40,0,0,1-4.62.88,26,26,0,0,1-9.6-.48,15.55,15.55,0,0,1-8.64-5.47,25.51,25.51,0,0,1-3.86-8.85,74.75,74.75,0,0,0-2.34-8.06,9.1,9.1,0,0,0-1.75-2.87,4.82,4.82,0,0,0-2.46-1.35l-2-.47v-2a40.94,40.94,0,0,0-7.05-22.69l-4.8-7.09,7.93,3.23a2.53,2.53,0,0,0,1.56.16l-1.92,2.69-.75-11-.67-10,5.46,8.36a15.79,15.79,0,0,1,2.25,11.8l-2.55-3.13,6.4,0L407,880.84l.71-5.86,5.14.25a5.88,5.88,0,0,0,1.16,3.33,3.62,3.62,0,0,0,2.53,1.56,2,2,0,0,0,1.13-.22,3.43,3.43,0,0,0,1.1-.95,3.57,3.57,0,0,0,.77-2.73l-3.73-13.52L424,874.1a13.68,13.68,0,0,0,7.59,5.22l-3.12,2.77c-1.53-11.7-2.33-23.44-3.07-35.11s-1.5-23.3-3-34.82l-1-8,5,6.25,13.79,17.15,3.44,4.3c1.15,1.44,2.25,2.81,3.44,4.1a30.61,30.61,0,0,0,3.75,3.49,11.39,11.39,0,0,0,4.09,2.07,5.64,5.64,0,0,0,2,0,1.83,1.83,0,0,0,1.14-.57,2.44,2.44,0,0,0,.36-1.44,9.83,9.83,0,0,0-.32-2.24,26.73,26.73,0,0,0-1.84-4.77,51.22,51.22,0,0,0-2.59-4.65l-11.42-18.81-4.67-7.71,7.12,5.49,18.74,14.44c3.21,2.4,6.13,5.15,9.13,7.58s6.15,4.74,9.61,5.77a6.13,6.13,0,0,0,4.68-.13,3.34,3.34,0,0,0,1.28-1.6,5,5,0,0,0,.23-2.32A8.85,8.85,0,0,0,486.2,826c-1.31-1.53-2.53-3.12-3.71-4.74-4.67-6.48-8.43-13.43-13.3-19.5l-.21-.27v-.33a129.38,129.38,0,0,0-2.2-20.67,50.67,50.67,0,0,0-3.08-9.82,34.88,34.88,0,0,0-5.36-8.69l1.05-1.06,11.3,9.75c3.79,3.2,7.4,6.73,11.88,8.62a13.18,13.18,0,0,0,7,1,9,9,0,0,0,6-3.28c1.38-1.83,1.49-4.46,1-6.74a8.37,8.37,0,0,0-1.44-3.18,4,4,0,0,0-2.77-1.69h-.14l-.11-.08c-3.3-2.63-6.58-5.3-9.7-8.16a73.08,73.08,0,0,1-8.66-9.27,40,40,0,0,1-6.14-11.12c-.37-1-.6-2-.9-3.06s-.41-2.1-.56-3.14a14.65,14.65,0,0,0-.67-3,3.39,3.39,0,0,0-1.82-2.12l-.29-.11.09-.29a16.06,16.06,0,0,1,2.54-4.85c1.08-1.46,2.27-2.81,3.36-4.21a16.27,16.27,0,0,0,2.71-4.51,10.09,10.09,0,0,0,.66-5.11,5.46,5.46,0,0,0-2.85-4,10.43,10.43,0,0,0-5.07-1c-1.78,0-3.58.16-5.4.06A8.59,8.59,0,0,1,454.24,699.67Z"/><path class="cls-1" d="M480.59,763.89c-10.73-8.84-22.27-19.1-24.15-33.25-.29-2.19-.63-4.85-2.58-5.68,1.1-4,4.3-6.87,6.55-10.29s3.35-8.56.45-11.39c-4-3.92-11.59.37-15.74-3.42-6.85-5.27-17.6-1.53-17.6-1.53s3.64-10.88,3.9-12.79a26.39,26.39,0,0,0-.26-5.44,97.68,97.68,0,0,0,.78-9.79,11.86,11.86,0,0,0-.41-2.83,110,110,0,0,0-9.89,16.25c-.19.86-.36,1.71-.51,2.54.07,2.36.15,4.44.15,4.44l-.82-.47c-.36,2.35-.62,4.71-.81,7.09,0,.78.07,1.27.07,1.27l-.17-.05c-.2,2.9-.31,5.81-.36,8.72a31.44,31.44,0,0,0,4.54,8.6c3.24,4.42-.35,10.28-4.78,11.75a7.07,7.07,0,0,1-4.68,0c-6.4.24-10.78-5.24-14.39-10.2-4.32-5.94-8.08-11.9-8.77-19.33A49.81,49.81,0,0,0,382,673c-14.91-5.46-32.63-18.92-24.3-35.18,4.58-8.93,15.11-13.74,24.61-15.12,7.38-1.08,13.44-1,18.77-3.58,2.73-6.9,3.68-15.06,4.87-21.93-1.41-7.57-3.26-15.08-4.25-22.7a8.29,8.29,0,0,0-4.93-1.7c4.84-20.81,9.21-44.52-1.29-62.51l-.93-.87c-13.27-11.69-34.24-16-51.36-17.14-19.61-1.28-39.18,1.87-58.6,4.14a7.37,7.37,0,0,1-3.39-.31c-4,0-8-2.53-8-7.69l0-7.51c-8.56-14.68-8.7-32-9-48.73-.27-16.49-1.43-31.57-15.39-40.36a52.58,52.58,0,0,0-4.57,8.85,56.21,56.21,0,0,0-.12,5.66l-1.45-.44c-1,7.66-1.62,15.39-2,23.12.21,3.36.44,6.72.62,10.08.75,2.55,1.58,5.08,2.53,7.56l-2.32-2.48c.09,3.38.08,6.77-.12,10.16,1.29,9.84,3,19.66,4.4,29.43a77.28,77.28,0,0,0,5.92,11.52,20.11,20.11,0,0,0-4.91-2.8,221.2,221.2,0,0,1,.84,22.53c.35,1.57.7,3.15,1,4.72,1.84,8.32-3,22.5-2.83,31.67.38,20.51,7.7,35.92,19.13,50.21,10,8.48,20.72,15.92,27.72,27.59,9.25,15.42,16.68,33.4,18.76,51.35,2.37,20.5-1.09,41.14-7.14,61.1-6.75,31.6-18.43,61.9-22.15,94.22a234.89,234.89,0,0,0-1.62,28.42c0-4.85,22.36,3.37,24.35,9a16.53,16.53,0,0,1,2.15,5.31c6.43,31.09-9.4,60.34,2.67,91.89,4.3,11.25,11.31,13,22.2,12.78,11.52-.24,23.3,0,34.78-.72,5.23-.35,11.06-2.9,12.3-8,1.57-6.43-5-11.86-11.09-14.43a62.9,62.9,0,0,0-22.17-4.89c5.33-9.82,4.37-21.71,3.27-32.82-1-10.38-.52-20.85-.52-29.94l.09-2.5c.25.6.52,1.19.79,1.78,3.44-2.46,8.74-2.58,11.75,2,10.16,15.6,11.58,34.64,19.56,51.16,4.29,8.86,11,16.78,21.42,17.47,5.65.37,11.27-.36,16.9-1A74.07,74.07,0,0,0,442,947.58a6.69,6.69,0,0,1,2.19-7.55,10.33,10.33,0,0,0,1.47-1.68c-2.35-.35-6.05-3.26-8.47-4.08A106.49,106.49,0,0,0,418,929.74a8.5,8.5,0,0,1-7.62-7.64,21.52,21.52,0,0,1-1.54-3.75l-.09-.1c-9.92-11.14-11.94-27.23-18.18-40.36-9-18.87,32-3.94,30.71-20.32-1.21-15.92-1.87-31.75-3.92-47.81l16.88,21.72c2.8,3.6,7.93,9.81,13,9.32,7.4-.73,1-12.43-.76-15.37L435.07,806.2l18.53,14.71c4.92,3.91,10.85,10.45,16.91,12.37,7.81,2.47,9.61-5.13,5.24-10.39-6.23-7.51-10.1-15.9-16.08-23.63-.72-13.65-1.83-28.38-10.37-38.73L462.18,772c3.21,2.86,6.55,5.79,10.59,7s9,.33,11.4-3.3S484.8,764.23,480.59,763.89Z"/></svg>