<?xml version="1.0" encoding="utf-8"?>
<!-- Generator: Adobe Illustrator 22.1.0, SVG Export Plug-In . SVG Version: 6.00 Build 0)  -->
<svg version="1.1" id="Laag_1" xmlns="http://www.w3.org/2000/svg" xmlns:xlink="http://www.w3.org/1999/xlink" x="0px" y="0px"
	 viewBox="0 0 1204.2 1180.2" style="enable-background:new 0 0 1204.2 1180.2;" xml:space="preserve">
<style type="text/css">
	.st0{fill:#3E3E4D;}
	.st1{fill:#C8CAD5;}
	.st2{fill:#FD9CBD;}
</style>
<title>Tekengebied 1</title>
<g>
	<g id="Laag_1_1_">
		<path class="st0" d="M157.2,128.4h-13l-27.6-68.7h13l21.1,51.3l21.1-51.3h13L157.2,128.4z"/>
		<path class="st0" d="M250.9,118.9c-6.9,6.8-15.5,10.2-25.7,10.2c-10.2,0-18.8-3.4-25.7-10.2c-6.9-6.8-10.4-15.2-10.4-25.3
			c0-10.1,3.5-18.6,10.4-25.3c6.9-6.8,15.5-10.2,25.7-10.2s18.8,3.4,25.7,10.2c7,6.8,10.4,15.2,10.4,25.4
			C261.3,103.7,257.8,112.2,250.9,118.9z M242.4,75.9c-9.3-9.5-24.6-9.7-34.1-0.4c-0.1,0.1-0.3,0.3-0.4,0.4
			c-9.4,9.9-9.4,25.4,0,35.3c9.3,9.5,24.5,9.7,34.1,0.4c0.1-0.1,0.3-0.3,0.4-0.4C251.8,101.3,251.8,85.8,242.4,75.9L242.4,75.9z"/>
		<path class="st0" d="M333.4,118.9c-6.9,6.8-15.5,10.2-25.7,10.2c-10.2,0-18.8-3.4-25.7-10.2c-6.9-6.8-10.4-15.2-10.4-25.3
			c0-10.1,3.5-18.6,10.4-25.3c6.9-6.8,15.5-10.2,25.7-10.2c10.2,0,18.8,3.4,25.7,10.2c6.9,6.8,10.4,15.2,10.4,25.4
			C343.8,103.7,340.4,112.2,333.4,118.9z M324.9,75.9c-9.3-9.5-24.6-9.7-34.1-0.4c-0.1,0.1-0.3,0.3-0.4,0.4
			c-9.4,9.9-9.4,25.4,0,35.3c9.3,9.5,24.5,9.7,34.1,0.4c0.1-0.1,0.3-0.3,0.4-0.4C334.3,101.3,334.3,85.8,324.9,75.9L324.9,75.9z"/>
		<path class="st0" d="M413.3,82c0,11.3-4.9,18.5-14.8,21.4l18,25h-14.8l-16.4-23.1h-15.2v23.1h-11.6V59.7H384
			c10.5,0,18,1.8,22.5,5.3S413.3,74.2,413.3,82z M397.9,91.8c2.3-2,3.5-5.3,3.5-9.8s-1.2-7.6-3.6-9.2c-2.4-1.7-6.8-2.5-13-2.5h-14.7
			v24.6h14.4C391,94.8,395.5,93.8,397.9,91.8z"/>
		<path class="st0" d="M460,128.4H430V59.7h26.7c4.1-0.1,8.1,0.5,12,1.7c2.9,0.8,5.5,2.4,7.5,4.5c3,3.3,4.7,7.5,4.7,12
			c0,5.4-1.7,9.4-5.1,12c-0.8,0.6-1.7,1.2-2.6,1.7c-0.5,0.2-1.3,0.6-2.5,1.1c3.9,0.7,7.5,2.8,10.2,5.8c2.6,3,3.9,6.9,3.8,10.9
			c0,4.7-1.7,9.2-4.9,12.7C476,126.3,469.4,128.4,460,128.4z M441.6,88.2h14.7c8.4,0,12.6-2.8,12.6-8.5c0-3.3-1-5.6-3-7.1
			s-5.2-2.2-9.4-2.2h-14.9V88.2z M441.6,117.7h18.2c4.3,0,7.5-0.7,9.8-2c2.3-1.3,3.4-3.9,3.4-7.6c0-6.1-4.9-9.1-14.6-9.1h-16.7
			V117.7z"/>
		<path class="st0" d="M547.6,59.7v10.9h-36.6v18.2h32.9v10.3h-32.9v18.4h37.8v10.9h-49.4V59.7H547.6z"/>
		<path class="st0" d="M611.8,59.7v10.9h-36.6v18.2h32.9v10.3h-32.9v18.4H613v10.9h-49.4V59.7H611.8z"/>
		<path class="st0" d="M627.8,128.4V59.7h11.6v57.7h31.3v11H627.8z"/>
		<path class="st0" d="M735.4,68.7c6.6,6,9.9,14.3,9.9,25c0,10.7-3.2,19.1-9.6,25.3c-6.4,6.2-16.2,9.3-29.5,9.3h-22.8V59.7H707
			C719.3,59.7,728.8,62.7,735.4,68.7z M733.6,94c0-15.7-9-23.6-27-23.6H695v47.1h12.9c8.3,0,14.7-2,19.1-6
			C731.4,107.6,733.6,101.7,733.6,94L733.6,94z"/>
		<path class="st0" d="M833.5,65.7c4.8,4,7.2,10.2,7.2,18.5c0,8.3-2.4,14.4-7.3,18.3c-4.9,3.9-12.4,5.8-22.4,5.8h-12.2v20.1h-11.6
			V59.7h23.6C821.2,59.7,828.8,61.7,833.5,65.7z M825.3,94.1c2.3-2.5,3.5-6.1,3.5-10.8c0-4.7-1.5-8.1-4.4-10.1
			c-2.9-2-7.6-2.9-13.8-2.9h-11.8v27.5h13.5C818.6,97.7,823,96.5,825.3,94.1L825.3,94.1z"/>
		<path class="st0" d="M909.2,82c0,11.3-4.9,18.5-14.8,21.4l18,25h-14.7l-16.4-23.1H866v23.1h-11.6V59.7H880c10.5,0,18,1.8,22.5,5.3
			S909.2,74.2,909.2,82z M893.8,91.8c2.4-2,3.5-5.3,3.5-9.8s-1.2-7.6-3.6-9.2c-2.4-1.7-6.8-2.5-13-2.5h-14.7v24.6h14.4
			C886.9,94.8,891.4,93.8,893.8,91.8L893.8,91.8z"/>
		<path class="st0" d="M925.9,59.7h11.6v68.7h-11.6V59.7z"/>
		<path class="st0" d="M958.8,70.1V59.7h33.4V105c0,8-2,14-6.1,18c-4.1,4-9.3,6-15.6,6c-7.7,0.1-15.1-2.9-20.4-8.5l6.6-9.1
			c4.4,4.3,8.8,6.4,13.1,6.4c2.9,0.1,5.6-1,7.7-3c2.1-2,3.2-5,3.2-9.1V70.1H958.8z"/>
		<path class="st0" d="M1031.4,68.8c-2.9-0.1-5.8,0.6-8.3,2.1c-2.1,1.3-3.4,3.7-3.2,6.2c-0.1,2.6,1.1,5,3.2,6.4
			c2.2,1.5,6.8,3.1,13.8,4.8c7,1.7,12.3,4.1,15.9,7.2c3.6,3.1,5.4,7.6,5.4,13.6c0.2,5.7-2.4,11.1-6.8,14.6
			c-4.5,3.7-10.4,5.6-17.8,5.6c-10.6,0.1-20.8-3.9-28.6-11.1l7.3-8.7c6.9,6,14.1,9,21.6,9c3.7,0,6.7-0.8,8.9-2.4
			c2.1-1.4,3.3-3.8,3.3-6.4c0.1-2.5-1.1-4.8-3.1-6.2c-2.1-1.5-5.6-2.8-10.7-4c-3.9-0.9-7.7-2-11.5-3.3c-2.5-1-4.9-2.3-7-4
			c-4.1-3.1-6.1-7.8-6.1-14.1s2.3-11.2,6.9-14.6c4.6-3.4,10.3-5.2,17.1-5.1c4.4,0,8.9,0.7,13.1,2.2c4.1,1.3,7.9,3.4,11.2,6.1
			l-6.2,8.7c-2.4-2-5.2-3.6-8.3-4.5C1038.4,69.4,1034.9,68.8,1031.4,68.8z"/>
		<path class="st0" d="M175.4,230.6c3.1,3.7,7.4,5.5,12.8,5.5c5.4,0,9.6-1.8,12.8-5.5c3.2-3.7,4.7-8.6,4.7-14.9v-38h11.6v38.5
			c0,9.9-2.7,17.5-8.1,22.8c-5.4,5.3-12.4,8-20.9,8c-8.5,0-15.5-2.7-20.9-8c-5.4-5.3-8.2-12.9-8.2-22.8v-38.5h11.6v38
			C170.7,221.9,172.3,226.9,175.4,230.6z"/>
		<path class="st0" d="M286.9,177.6h11.6v68.6h-12.6L247,196.1v50.1h-11.6v-68.6H247l39.9,51.3L286.9,177.6z"/>
		<path class="st0" d="M317.6,177.6h11.6v68.6h-11.6V177.6z"/>
		<path class="st0" d="M396.4,177.6v10.9h-36.6v18.2h32.9V217h-32.9v18.4h37.8v10.9h-49.4v-68.6H396.4z"/>
		<path class="st0" d="M412.4,177.6H424v33.5l31.4-33.5h14.8l-27.6,30.1l28,38.6h-13.8l-22.8-30l-10,10.8v19.2h-11.6V177.6z"/>
		<path class="st0" d="M566,236.8c-6.9,6.8-15.5,10.2-25.8,10.2s-18.8-3.4-25.7-10.2c-6.9-6.8-10.4-15.2-10.4-25.4
			s3.5-18.6,10.4-25.3c7-6.8,15.5-10.2,25.7-10.2s18.8,3.4,25.7,10.2c7,6.8,10.4,15.2,10.4,25.3C576.4,221.6,572.9,230,566,236.8z
			 M557.5,193.8c-9.3-9.5-24.5-9.7-34.1-0.4c-0.1,0.1-0.3,0.3-0.4,0.4c-9.4,9.9-9.4,25.4,0,35.3c9.3,9.5,24.5,9.7,34.1,0.4
			c0.1-0.1,0.3-0.3,0.4-0.4C566.9,219.2,566.9,203.7,557.5,193.8z"/>
		<path class="st0" d="M642.5,177.6h11.6v68.6h-12.6l-38.9-50.1v50.1H591v-68.6h11.6l39.9,51.3V177.6z"/>
		<path class="st0" d="M699.1,188.2v58h-11.6v-58h-20.8v-10.6h53.2v10.6H699.1z"/>
		<path class="st0" d="M753.9,227l15.3-49.4h10.4L795,227l17.3-49.4h12.5l-24,68.7h-11.4l-14.5-47h-0.8l-14.4,47h-11.5l-24-68.7
			h12.5L753.9,227z"/>
		<path class="st0" d="M883.7,177.6v10.9H847v18.2H880V217H847v18.4h37.8v10.9h-49.4v-68.6H883.7z"/>
		<path class="st0" d="M954.5,199.9c0,11.3-4.9,18.5-14.8,21.4l18,25h-14.7l-16.4-23.1h-15.2v23h-11.6v-68.6h25.5
			c10.5,0,18,1.8,22.5,5.3S954.5,192.1,954.5,199.9z M939.1,209.6c2.4-2,3.5-5.3,3.5-9.8c0-4.5-1.2-7.6-3.6-9.2
			c-2.4-1.7-6.8-2.5-13-2.5h-14.7v24.6h14.4C932.3,212.7,936.7,211.7,939.1,209.6z"/>
		<path class="st0" d="M1017.6,183.6c4.8,4,7.2,10.2,7.2,18.5c0,8.3-2.4,14.4-7.3,18.3c-4.9,3.9-12.4,5.8-22.4,5.8h-12.2v20.1h-11.6
			v-68.6h23.6C1005.2,177.6,1012.8,179.6,1017.6,183.6z M1009.4,211.9c2.3-2.5,3.5-6.1,3.5-10.8c0-4.7-1.5-8.1-4.4-10.1
			c-3-2-7.6-3-13.8-3h-11.8v27.5h13.4C1002.7,215.6,1007.1,214.4,1009.4,211.9L1009.4,211.9z"/>
		<path class="st1" d="M108.7,348.4c2.9,2.6,4.3,6.2,4.3,10.9c0,4.7-1.4,8.3-4.2,11c-2.8,2.7-7.1,4.1-12.8,4.1H86v-29.9h10.3
			C101.7,344.5,105.8,345.8,108.7,348.4z M107.9,359.4c0-6.9-3.9-10.3-11.8-10.3h-5.1v20.5h5.6c3.6,0,6.4-0.9,8.3-2.6
			S107.9,362.8,107.9,359.4L107.9,359.4z"/>
		<path class="st1" d="M141.3,365.1h-17.9c0.1,1.6,0.9,3.1,2.3,4c3.6,2.4,8.3,1.9,11.3-1.2l2.7,3c-2.5,2.6-6,3.9-9.6,3.8
			c-3,0.1-6-1.1-8.2-3.2c-2.3-2.2-3.5-5.4-3.4-8.6c-0.2-3.2,1.1-6.3,3.4-8.5c2.2-2.1,5.1-3.2,8.1-3.2c2.9-0.1,5.7,0.9,7.9,2.8
			c2.2,2,3.4,4.8,3.2,7.7V365.1z M123.5,361.4h13c0.1-1.7-0.6-3.3-1.8-4.4c-1.2-1-2.8-1.6-4.4-1.5c-1.7,0-3.4,0.6-4.7,1.6
			C124.2,358,123.4,359.7,123.5,361.4z"/>
		<path class="st1" d="M173.1,351.3c2.9,0,5.8,1.1,7.8,3.2c2.2,2.2,3.4,5.3,3.3,8.4c0.1,3.2-1,6.3-3.2,8.6c-3.7,4.1-10,4.4-14.1,0.7
			c-0.4-0.4-0.8-0.8-1.1-1.2v11.7h-4.8v-31.1h4.8v4C167.6,352.8,170,351.3,173.1,351.3z M165.6,363.1c-0.1,2,0.6,3.9,2,5.3
			c1.2,1.3,3,2.1,4.8,2.1c1.8,0,3.6-0.7,4.9-2c1.4-1.4,2.2-3.3,2.1-5.3c0.1-2-0.6-4-2-5.4c-1.3-1.4-3.1-2.2-4.9-2.2
			c-1.8,0-3.6,0.8-4.8,2.2C166.3,359.2,165.6,361.1,165.6,363.1z"/>
		<path class="st1" d="M202.9,356.2c-2.1-0.1-4,0.7-5.4,2.3c-1.3,1.8-1.9,4-1.8,6.2v9.8h-4.8v-22.8h4.8v4.6c0.8-1.4,1.8-2.6,3.1-3.5
			c1.2-0.9,2.7-1.4,4.2-1.4v4.8L202.9,356.2z"/>
		<path class="st1" d="M209.5,347.1c-0.6-0.6-0.9-1.3-0.9-2.1c0-1.7,1.4-3.1,3-3.1s3.1,1.4,3.1,3c0,1.7-1.4,3.1-3,3.1
			C210.9,348,210.1,347.7,209.5,347.1z M214,374.4h-4.8v-22.8h4.8L214,374.4z"/>
		<path class="st1" d="M222.2,375.5v-23.9h4.8v24c0.1,2.1-0.7,4.2-2.2,5.7c-1.4,1.4-3.3,2.2-5.2,2.1c-2.1,0-4.1-0.8-5.6-2.3l2.2-3.6
			c0.8,0.8,1.8,1.3,2.9,1.4c0.9,0.1,1.7-0.3,2.2-0.9C222,377.3,222.3,376.4,222.2,375.5z M222.4,347.1c-0.6-0.6-0.9-1.3-0.9-2.1
			c0-1.7,1.4-3,3-3s3,1.4,3,3l0,0c0,0.8-0.3,1.6-0.9,2.1C225.6,348.3,223.7,348.3,222.4,347.1C222.5,347.1,222.5,347.1,222.4,347.1
			L222.4,347.1z"/>
		<path class="st1" d="M234.5,355.9v-4.1h17.8v4.3l-12.8,14.2H253v4.2h-19.4v-4.7l12.5-13.9L234.5,355.9z"/>
		<path class="st1" d="M280.9,365.1H263c0.1,1.6,0.9,3.1,2.3,4c3.6,2.4,8.3,1.9,11.3-1.2l2.7,3c-2.5,2.6-6,4-9.6,3.8
			c-3,0.1-6-1.1-8.1-3.2c-2.3-2.2-3.5-5.4-3.4-8.6c-0.2-3.2,1.1-6.3,3.4-8.5c2.2-2.1,5.1-3.2,8.1-3.2c2.9-0.1,5.7,0.9,7.9,2.8
			c2.2,1.9,3.4,4.8,3.3,7.7V365.1z M263,361.4h13.1c0.1-1.7-0.6-3.3-1.8-4.4c-1.2-1-2.8-1.6-4.4-1.5c-1.7,0-3.4,0.6-4.7,1.6
			C263.8,358,263,359.7,263,361.4z"/>
		<path class="st1" d="M292.2,362.1v12.3h-4.8v-22.8h4.8v4.2c1.5-2.8,4.4-4.5,7.6-4.5c2.3-0.1,4.6,0.8,6.2,2.4
			c1.6,1.6,2.4,3.8,2.4,6.8v14h-4.8V362c0-4.2-1.7-6.3-5.2-6.3c-1.6,0-3.1,0.6-4.3,1.7C292.8,358.6,292.1,360.3,292.2,362.1z"/>
		<path class="st1" d="M334.2,374.4h-4.8v-31.8h4.8v18.7l9.2-9.7h6.2l-8.6,9l9.2,13.8h-5.8l-6.8-10l-3.4,3.5V374.4z"/>
		<path class="st1" d="M371.5,364v-12.3h4.8v22.8h-4.8v-4.2c-2.5,4.3-8,5.7-12.3,3.2c-0.5-0.3-1-0.7-1.5-1.1
			c-1.6-1.6-2.4-3.8-2.4-6.8v-14h4.8v12.5c0,4.2,1.7,6.3,5.2,6.3c1.6,0,3.1-0.6,4.3-1.7C370.9,367.5,371.6,365.8,371.5,364z"/>
		<path class="st1" d="M389.3,362.1v12.3h-4.8v-22.8h4.8v4.2c0.7-1.4,1.8-2.5,3.2-3.3c3.4-2,7.7-1.5,10.6,1.2
			c1.6,1.6,2.4,3.8,2.4,6.8v14h-4.8V362c0-4.2-1.7-6.3-5.2-6.3c-1.6,0-3.1,0.6-4.3,1.7C389.9,358.6,389.2,360.3,389.3,362.1z"/>
		<path class="st1" d="M418.2,362.1v12.3h-4.8v-22.8h4.8v4.2c2.5-4.3,7.9-5.8,12.2-3.3c0.6,0.3,1.1,0.7,1.6,1.2
			c1.6,1.6,2.4,3.8,2.4,6.8v14h-4.8V362c0-4.2-1.7-6.3-5.2-6.3c-1.6,0-3.1,0.6-4.3,1.7C418.8,358.6,418.1,360.3,418.2,362.1z"/>
		<path class="st1" d="M463.6,365.1h-17.8c0.1,1.6,0.9,3.1,2.3,4c3.6,2.4,8.3,1.9,11.3-1.2l2.7,3c-2.5,2.6-6,3.9-9.6,3.8
			c-3,0.1-6-1.1-8.2-3.2c-2.3-2.2-3.5-5.4-3.4-8.6c-0.2-3.2,1.1-6.3,3.4-8.5c2.2-2.1,5.1-3.2,8.1-3.2c2.9-0.1,5.7,0.9,7.9,2.8
			c2.2,2,3.4,4.8,3.2,7.7L463.6,365.1z M445.7,361.4h13c0.1-1.7-0.6-3.3-1.8-4.4c-1.2-1-2.8-1.6-4.4-1.5c-1.7,0-3.4,0.6-4.7,1.6
			C446.4,358.1,445.7,359.7,445.7,361.4z"/>
		<path class="st1" d="M474.9,362.1v12.3h-4.8v-22.8h4.8v4.2c2.4-4.3,7.9-5.8,12.2-3.3c0.6,0.3,1.1,0.7,1.6,1.2
			c1.6,1.6,2.4,3.8,2.4,6.8v14h-4.8V362c0-4.2-1.7-6.3-5.2-6.3c-1.6,0-3.1,0.6-4.3,1.7C475.5,358.6,474.8,360.3,474.9,362.1z"/>
		<path class="st1" d="M530.6,374.4h-4.3v-3c-1.9,2.2-4.7,3.5-7.6,3.4c-2.1,0.1-4.2-0.6-5.9-2c-1.6-1.3-2.4-3.3-2.3-5.4
			c-0.1-2,0.8-3.9,2.5-5c2-1.2,4.4-1.8,6.7-1.7h6.2v-0.9c0-3-1.7-4.5-5-4.5c-2.4,0.1-4.7,0.9-6.6,2.3l-2.1-3c2.7-2.2,6-3.3,9.4-3.3
			c2.4-0.1,4.7,0.6,6.6,2c1.7,1.4,2.5,3.5,2.5,6.4L530.6,374.4z M525.8,366V364h-5.4c-3.5,0-5.2,1.1-5.2,3.2c0,1,0.4,2,1.3,2.5
			c1.1,0.6,2.3,0.9,3.6,0.9c1.4,0,2.8-0.4,4-1.3C525.2,368.6,525.8,367.3,525.8,366z"/>
		<path class="st1" d="M544.2,349.8v1.9h6v3.9h-6v18.9h-4.8v-18.9h-2.9v-3.9h2.9v-1.8c-0.1-2.1,0.7-4.2,2.2-5.7
			c1.4-1.4,3.3-2.2,5.2-2.1c2.1,0,4.1,0.8,5.6,2.3l-2,3.4c-0.7-0.9-1.8-1.4-3-1.5c-0.9,0-1.8,0.3-2.4,1
			C544.5,347.9,544.2,348.9,544.2,349.8z"/>
		<path class="st1" d="M566.8,374.4h-5.5l-7.9-22.8h5l5.7,17.2l5.7-17.2h5l5.7,17.2l5.7-17.2h5l-7.9,22.8h-5.5l-5.5-15.6
			L566.8,374.4z"/>
		<path class="st1" d="M596.8,347.1c-0.6-0.6-0.9-1.3-0.9-2.1c0-1.7,1.4-3,3-3c1.7,0,3,1.4,3,3c0,1.7-1.3,3-2.9,3.1
			C598.2,348.1,597.4,347.7,596.8,347.1z M601.3,374.4h-4.8v-22.8h4.8V374.4z"/>
		<path class="st1" d="M609.5,375.5v-23.9h4.8v24c0.1,2.1-0.7,4.2-2.2,5.7c-1.4,1.4-3.3,2.2-5.2,2.1c-2.1,0-4.1-0.8-5.6-2.3l2.2-3.6
			c0.8,0.8,1.8,1.3,2.9,1.4c0.9,0.1,1.7-0.3,2.2-0.9C609.3,377.3,609.6,376.4,609.5,375.5z M609.7,347.1c-0.6-0.6-0.9-1.3-0.9-2.1
			c0-1.7,1.4-3,3-3c1.7,0,3,1.4,3,3c0,0.8-0.3,1.6-0.9,2.1C612.8,348.3,610.9,348.3,609.7,347.1
			C609.8,347.1,609.7,347.1,609.7,347.1L609.7,347.1z"/>
		<path class="st1" d="M627.3,374.4h-4.8v-31.8h4.8v18.7l9.2-9.7h6.2l-8.7,9l9.3,13.7h-5.8l-6.8-10l-3.5,3.5L627.3,374.4z"/>
		<path class="st1" d="M669.9,365.1H652c0.1,1.6,0.9,3.1,2.3,4c1.4,1,3.1,1.5,4.8,1.5c2.5,0.2,4.9-0.8,6.5-2.7l2.7,3
			c-2.5,2.6-6,4-9.6,3.8c-3,0.1-6-1.1-8.2-3.2c-2.3-2.2-3.5-5.4-3.4-8.6c-0.2-3.2,1.1-6.3,3.4-8.5c2.2-2.1,5.1-3.2,8.1-3.2
			c2.9-0.1,5.7,0.9,7.9,2.8c2.2,1.9,3.4,4.8,3.2,7.7V365.1z M652,361.4h13.1c0.1-1.7-0.6-3.3-1.8-4.4c-1.2-1-2.8-1.6-4.4-1.5
			c-1.7,0-3.4,0.6-4.7,1.6C652.8,358,652,359.7,652,361.4L652,361.4z"/>
		<path class="st1" d="M681.2,362.1v12.3h-4.8v-22.8h4.8v4.2c2.5-4.3,7.9-5.8,12.2-3.3c0.6,0.3,1.1,0.7,1.6,1.2
			c1.6,1.6,2.4,3.8,2.4,6.8v14h-4.8V362c0-4.2-1.7-6.3-5.2-6.3c-1.6,0-3.1,0.6-4.3,1.7C681.8,358.6,681.1,360.3,681.2,362.1z"/>
		<path class="st1" d="M723.2,362.1v12.3h-4.8v-22.8h4.8v4.2c2.5-4.3,7.9-5.8,12.2-3.3c0.6,0.3,1.1,0.7,1.6,1.2
			c1.6,1.6,2.4,3.8,2.4,6.8v14h-4.8V362c0-4.2-1.7-6.3-5.2-6.3c-1.6,0-3.1,0.6-4.3,1.7C723.8,358.6,723.1,360.3,723.2,362.1z"/>
		<path class="st1" d="M765.8,374.4h-4.4v-3c-1.9,2.2-4.7,3.5-7.6,3.4c-2.1,0.1-4.2-0.6-5.9-2c-1.6-1.3-2.4-3.3-2.3-5.4
			c-0.1-2,0.8-3.9,2.5-5c2-1.2,4.4-1.8,6.7-1.7h6.2v-0.9c0-3-1.7-4.5-5.1-4.5c-2.4,0.1-4.7,0.9-6.6,2.3l-2.1-3
			c2.7-2.2,6-3.3,9.4-3.3c2.4-0.1,4.7,0.6,6.6,2c1.7,1.4,2.5,3.5,2.5,6.4L765.8,374.4z M761,366V364h-5.4c-3.5,0-5.2,1.1-5.2,3.2
			c0,1,0.4,2,1.3,2.5c1.1,0.6,2.3,0.9,3.6,0.9c1.4,0,2.8-0.4,4-1.3C760.4,368.6,761,367.3,761,366z"/>
		<path class="st1" d="M792.2,374.4h-4.4v-3c-1.9,2.2-4.7,3.5-7.6,3.4c-2.1,0.1-4.2-0.6-5.9-2c-1.6-1.3-2.4-3.3-2.3-5.4
			c-0.1-2,0.8-3.9,2.5-5c2-1.2,4.4-1.8,6.7-1.7h6.2v-0.9c0-3-1.7-4.5-5-4.5c-2.4,0.1-4.7,0.9-6.6,2.3l-2.1-3c2.7-2.2,6-3.3,9.4-3.3
			c2.4-0.1,4.7,0.6,6.6,2c1.7,1.4,2.5,3.5,2.5,6.4L792.2,374.4z M787.4,366V364H782c-3.5,0-5.2,1.1-5.2,3.2c0,1,0.4,2,1.3,2.5
			c1.1,0.6,2.3,0.9,3.6,0.9c1.4,0,2.8-0.4,4-1.3C786.8,368.6,787.5,367.3,787.4,366L787.4,366z"/>
		<path class="st1" d="M812.1,356.2c-2.1-0.1-4.1,0.7-5.4,2.3c-1.3,1.8-1.9,4-1.8,6.2v9.8h-4.8v-22.8h4.8v4.6
			c0.8-1.4,1.8-2.6,3.1-3.5c1.2-0.9,2.7-1.4,4.2-1.4v4.8L812.1,356.2z"/>
		<path class="st1" d="M841.6,374.8c-3,0.1-6-1.1-8.2-3.2c-4.6-4.7-4.6-12.3,0.2-17c2.4-2.2,5.5-3.4,8.7-3.3
			c3.3-0.1,6.4,1.2,8.7,3.5l-2.8,3.5c-1.6-1.6-3.8-2.5-6-2.6c-1.9,0-3.8,0.7-5.2,2c-1.5,1.3-2.3,3.2-2.2,5.1c0,4.1,3.3,7.5,7.4,7.5
			c0,0,0.1,0,0.1,0c2.3-0.1,4.5-1.2,6-2.9l2.8,3.1C848.6,373.2,845.2,374.8,841.6,374.8z"/>
		<path class="st1" d="M876,371.4c-4.8,4.5-12.3,4.5-17.1,0c-4.6-4.6-4.6-12,0-16.7c4.8-4.5,12.3-4.5,17.1,0
			C880.6,359.3,880.6,366.8,876,371.4z M862.3,368.4c2.9,2.8,7.4,2.8,10.3,0c2.7-3.1,2.7-7.7,0-10.8c-2.9-2.8-7.4-2.8-10.3,0
			C859.6,360.7,859.6,365.3,862.3,368.4z"/>
		<path class="st1" d="M890.9,362.1v12.3h-4.8v-22.8h4.8v4.2c0.7-1.4,1.8-2.5,3.1-3.3c1.4-0.8,2.9-1.2,4.5-1.2c3.6,0,6,1.5,7.3,4.5
			c1.9-2.8,5.1-4.5,8.4-4.5c2.3-0.1,4.6,0.8,6.2,2.4c1.6,1.6,2.4,3.8,2.4,6.8v14h-4.8V362c0-4.2-1.7-6.3-5.2-6.3
			c-1.6,0-3.1,0.5-4.3,1.6c-1.3,1.2-2,2.8-1.9,4.6v12.7h-4.8V362c0.1-1.7-0.3-3.3-1.2-4.8c-0.9-1.1-2.3-1.6-3.6-1.5
			c-1.6,0-3.1,0.6-4.3,1.7C891.5,358.6,890.8,360.3,890.9,362.1z"/>
		<path class="st1" d="M943,351.3c2.9,0,5.8,1.1,7.8,3.2c2.2,2.2,3.4,5.3,3.2,8.4c0.1,3.2-1,6.3-3.2,8.6c-3.7,4.1-10,4.4-14.1,0.7
			c-0.4-0.4-0.8-0.8-1.1-1.2v11.7h-4.8v-31.1h4.8v4C937.1,353,940,351.3,943,351.3z M935.5,363.1c-0.1,2,0.7,3.9,2,5.3
			c1.2,1.3,3,2.1,4.8,2.1c1.8,0,3.6-0.7,4.9-2c1.4-1.4,2.2-3.3,2.1-5.3c0.1-2-0.7-4-2.1-5.4c-1.3-1.4-3-2.2-4.9-2.2
			c-1.9,0-3.6,0.8-4.8,2.2C936.2,359.2,935.5,361.1,935.5,363.1z"/>
		<path class="st1" d="M965.7,374.4h-4.8v-31.8h4.8V374.4z"/>
		<path class="st1" d="M995.1,365.1h-17.9c0.1,1.6,0.9,3.1,2.3,4c3.6,2.4,8.3,1.9,11.3-1.2l2.7,3c-2.5,2.6-6,3.9-9.6,3.8
			c-3,0.1-6-1.1-8.2-3.2c-2.3-2.2-3.5-5.4-3.4-8.6c-0.2-3.2,1.1-6.3,3.4-8.5c2.2-2.1,5.1-3.2,8.1-3.2c2.9-0.1,5.7,0.9,7.9,2.8
			c2.2,1.9,3.4,4.8,3.3,7.7L995.1,365.1z M977.2,361.4h13.1c0.1-1.7-0.6-3.3-1.8-4.4c-1.2-1-2.8-1.6-4.4-1.5c-1.7,0-3.4,0.6-4.7,1.6
			C978,358,977.2,359.7,977.2,361.4z"/>
		<path class="st1" d="M1004.8,351.7l4.9,7.5l5-7.5h5.7l-8,11.1l8.3,11.7h-5.9l-5.4-7.6l-5.3,7.6h-5.6l8.1-11.6l-7.7-11.2
			L1004.8,351.7z"/>
		<path class="st1" d="M1026.7,347.1c-0.6-0.6-0.9-1.3-0.9-2.1c0-1.7,1.4-3.1,3-3.1c1.7,0,3.1,1.4,3.1,3c0,1.7-1.4,3.1-3,3.1
			C1028,348,1027.2,347.7,1026.7,347.1z M1031.2,374.4h-4.8v-22.8h4.8V374.4z"/>
		<path class="st1" d="M1045.3,355.5v11.6c0,0.9,0.3,1.9,0.8,2.6c0.6,0.7,1.5,1,2.4,1c1.2,0,2.3-0.6,3-1.5l2,3.4
			c-1.5,1.4-3.5,2.3-5.6,2.3c-2,0-3.8-0.7-5.2-2.1c-1.5-1.5-2.3-3.6-2.2-5.7v-11.5h-2.9v-3.9h2.9v-7.1h4.8v7.1h6v3.9H1045.3z"/>
		<path class="st1" d="M1079.8,365.1h-17.9c0.1,1.6,0.9,3.1,2.3,4c3.6,2.4,8.3,1.9,11.3-1.2l2.7,3c-2.5,2.6-6,4-9.6,3.8
			c-3,0.1-6-1.1-8.2-3.2c-2.3-2.2-3.5-5.4-3.4-8.6c-0.2-3.2,1.1-6.3,3.4-8.5c2.2-2.1,5.1-3.2,8.1-3.2c2.9-0.1,5.7,0.9,7.9,2.8
			c2.2,1.9,3.4,4.8,3.3,7.7L1079.8,365.1z M1061.9,361.4h13.1c0.1-1.7-0.6-3.3-1.8-4.4c-1.2-1-2.8-1.6-4.4-1.5
			c-1.7,0-3.4,0.6-4.7,1.6C1062.6,358,1061.8,359.7,1061.9,361.4z"/>
		<path class="st1" d="M1086.6,347.1c-0.6-0.6-0.9-1.3-0.9-2.1c0-1.7,1.4-3,3-3c1.7,0,3,1.4,3,3l0,0c0,0.8-0.3,1.6-0.9,2.1
			C1089.7,348.3,1087.8,348.3,1086.6,347.1C1086.6,347.1,1086.6,347.1,1086.6,347.1L1086.6,347.1z M1091.1,374.4h-4.8v-22.8h4.8
			V374.4z"/>
		<path class="st1" d="M1105.2,355.5v11.6c0,0.9,0.3,1.9,0.8,2.6c0.6,0.7,1.5,1,2.4,1c1.2,0,2.3-0.6,3-1.5l2,3.4
			c-1.5,1.4-3.5,2.3-5.6,2.3c-2,0-3.8-0.7-5.2-2.1c-1.5-1.5-2.3-3.6-2.2-5.7v-11.5h-2.9v-3.9h2.9v-7.1h4.8v7.1h6v3.9H1105.2z"/>
		<path class="st1" d="M1118.8,373.8c-0.6-0.6-0.9-1.4-0.9-2.3c0-0.8,0.3-1.7,0.9-2.2c0.6-0.6,1.4-0.9,2.2-0.9
			c0.8,0,1.7,0.3,2.3,0.9c0.6,0.6,1,1.4,0.9,2.2c0,1.8-1.4,3.2-3.2,3.2C1120.2,374.8,1119.4,374.4,1118.8,373.8z"/>
		<path class="st0" d="M136.6,985.6c-6.3,5.9-16.1,5.9-22.4,0c-6.1-6.1-6.1-16,0-22.1c6.3-5.9,16.1-5.9,22.4,0
			C142.7,969.6,142.7,979.4,136.6,985.6z M132.9,966.8c-4-4.1-10.7-4.2-14.8-0.2c-0.1,0.1-0.1,0.1-0.2,0.2c-4.1,4.3-4.1,11.1,0,15.4
			c4,4.1,10.7,4.2,14.8,0.2c0.1-0.1,0.1-0.1,0.2-0.2C137,977.9,137,971.1,132.9,966.8z"/>
		<path class="st0" d="M152.7,977.4v12.3h-4.8v-22.8h4.8v4.2c2.5-4.3,7.9-5.8,12.2-3.3c0.6,0.3,1.1,0.7,1.6,1.2
			c1.6,1.6,2.4,3.8,2.4,6.8v14h-4.8v-12.5c0-4.2-1.8-6.3-5.2-6.3c-1.6,0-3.1,0.6-4.3,1.7C153.3,973.8,152.6,975.6,152.7,977.4z"/>
		<path class="st0" d="M197.9,966.9v19.9c0,4-1.1,7-3.3,9.1c-2.3,2-5.3,3.1-8.4,3c-3.4,0-6.6-1.1-9.3-3.2l2.3-3.6
			c1.9,1.6,4.3,2.5,6.7,2.5c2,0.1,3.9-0.5,5.4-1.8c1.3-1.2,2-3,2-5.6v-2.9c-0.7,1.3-1.8,2.5-3.1,3.2c-1.4,0.8-2.9,1.2-4.5,1.2
			c-2.8,0.1-5.5-1.1-7.5-3.2c-3.9-4.5-3.9-11.2,0-15.8c1.9-2.1,4.6-3.2,7.4-3.2c2.9-0.1,5.7,1.3,7.3,3.7v-3.4L197.9,966.9z
			 M180.2,977.4c0,1.8,0.6,3.5,1.7,4.8c1.2,1.3,2.9,2.1,4.7,2c1.8,0.1,3.5-0.7,4.8-2c1.2-1.3,1.9-3.1,1.8-4.9c0.1-1.8-0.6-3.6-1.8-5
			c-1.2-1.3-2.9-2.1-4.8-2c-1.8-0.1-3.5,0.7-4.6,2.1C180.7,973.8,180.1,975.6,180.2,977.4L180.2,977.4z"/>
		<path class="st0" d="M227.3,980.4h-17.9c0.1,1.6,0.9,3.1,2.3,4c3.5,2.4,8.3,1.9,11.3-1.2l2.7,3c-2.5,2.6-6,4-9.6,3.8
			c-3,0.1-6-1.1-8.1-3.2c-2.3-2.2-3.5-5.4-3.4-8.6c-0.1-3.2,1.1-6.3,3.4-8.5c2.2-2.1,5.1-3.2,8.1-3.2c2.9-0.1,5.7,0.9,7.9,2.8
			c2.2,1.9,3.4,4.8,3.2,7.7L227.3,980.4z M209.5,976.6h13.1c0.1-1.7-0.6-3.3-1.8-4.4c-1.2-1-2.8-1.6-4.4-1.5c-1.7,0-3.4,0.6-4.7,1.6
			C210.2,973.3,209.4,974.9,209.5,976.6z"/>
		<path class="st0" d="M239.7,989.7l-9.2-22.8h5l6.9,17.2l6.9-17.2h5l-9.2,22.8H239.7z"/>
		<path class="st0" d="M278.1,986.6c-4.8,4.5-12.3,4.5-17.1,0c-4.6-4.6-4.6-12,0-16.7c4.8-4.5,12.3-4.5,17.1,0
			C282.7,974.6,282.7,982,278.1,986.6z M264.4,983.6c2.9,2.8,7.4,2.8,10.3,0c2.7-3.1,2.7-7.7,0-10.8c-2.9-2.8-7.4-2.8-10.3,0
			C261.7,976,261.7,980.6,264.4,983.6z"/>
		<path class="st0" d="M304.2,979.2v-12.3h4.8v22.8h-4.8v-4.2c-0.7,1.4-1.8,2.5-3.2,3.3c-3.4,2-7.7,1.5-10.6-1.2
			c-1.6-1.6-2.4-3.8-2.4-6.8v-14h4.8v12.5c0,4.2,1.7,6.3,5.2,6.3c1.6,0,3.1-0.6,4.3-1.7C303.6,982.8,304.3,981,304.2,979.2z"/>
		<path class="st0" d="M327.8,989.7h-5.5l-7.9-22.8h5l5.6,17.2l5.6-17.2h5l5.6,17.2l5.6-17.2h5l-7.9,22.8h-5.5l-5.5-15.6
			L327.8,989.7z"/>
		<path class="st0" d="M378.7,980.4h-17.9c0.1,1.6,0.9,3.1,2.3,4c3.6,2.4,8.3,1.9,11.3-1.2l2.7,3c-2.5,2.6-6,3.9-9.6,3.8
			c-3,0.1-6-1.1-8.2-3.2c-2.3-2.2-3.5-5.4-3.4-8.6c-0.2-3.2,1.1-6.3,3.4-8.5c2.2-2.1,5.1-3.2,8.1-3.2c2.9-0.1,5.7,0.9,7.9,2.8
			c2.2,1.9,3.4,4.8,3.3,7.7V980.4z M360.8,976.6h13.1c0.1-1.7-0.6-3.3-1.8-4.4c-1.2-1-2.8-1.6-4.4-1.5c-1.7,0-3.4,0.6-4.7,1.6
			C361.6,973.3,360.8,974.9,360.8,976.6L360.8,976.6z"/>
		<path class="st0" d="M390,977.4v12.3h-4.8v-22.8h4.8v4.2c1.5-2.8,4.4-4.5,7.6-4.5c2.3-0.1,4.6,0.8,6.2,2.4
			c1.6,1.5,2.4,3.8,2.4,6.8v14h-4.8v-12.5c0-4.2-1.7-6.3-5.2-6.3c-1.6,0-3.1,0.6-4.3,1.7C390.6,973.8,389.9,975.6,390,977.4z"/>
		<path class="st0" d="M426.8,979.2v-4.5H441v4.5H426.8z"/>
		<path class="st0" d="M476.2,989.7h-5.7l-12-29.9h5.7l9.2,22.3l9.2-22.3h5.6L476.2,989.7z"/>
		<path class="st0" d="M493.4,962.4c-0.6-0.6-0.9-1.3-0.9-2.1c0-1.7,1.4-3,3-3c1.7,0,3,1.4,3,3c0,1.7-1.3,3-2.9,3.1
			C494.8,963.3,494,963,493.4,962.4z M497.9,989.7h-4.8v-22.8h4.8V989.7z"/>
		<path class="st0" d="M527.3,980.4h-17.9c0.1,1.6,0.9,3.1,2.3,4c3.5,2.4,8.3,1.9,11.3-1.2l2.7,3c-2.5,2.6-6,3.9-9.6,3.8
			c-3,0.1-6-1.1-8.2-3.2c-2.3-2.2-3.5-5.4-3.4-8.6c-0.2-3.2,1.1-6.3,3.4-8.5c2.2-2.1,5.1-3.2,8.1-3.2c2.9-0.1,5.7,0.9,7.9,2.8
			c2.2,1.9,3.4,4.8,3.2,7.7L527.3,980.4z M509.5,976.6h13.1c0.1-1.7-0.6-3.3-1.8-4.4c-1.2-1-2.8-1.6-4.4-1.5c-1.7,0-3.4,0.6-4.7,1.6
			C510.2,973.3,509.4,974.9,509.5,976.6z"/>
		<path class="st0" d="M545.8,971.4c-2.1-0.1-4,0.7-5.3,2.3c-1.3,1.8-1.9,4-1.8,6.2v9.8h-4.8v-22.8h4.8v4.6c0.7-1.4,1.8-2.6,3.1-3.5
			c1.2-0.9,2.7-1.4,4.2-1.4v4.8L545.8,971.4z"/>
		<path class="st0" d="M557,989.7h-4.8v-31.8h4.8v18.7l9.2-9.7h6.2l-8.7,9l9.3,13.7h-5.8l-6.8-10l-3.5,3.5L557,989.7z"/>
		<path class="st0" d="M596.4,989.7H592v-3c-1.9,2.2-4.7,3.5-7.6,3.4c-2.1,0.1-4.2-0.6-5.9-2c-1.6-1.3-2.4-3.3-2.3-5.4
			c-0.1-2,0.8-3.9,2.5-5c2-1.2,4.4-1.8,6.7-1.7h6.2v-0.9c0-3-1.7-4.5-5-4.5c-2.4,0.1-4.7,0.9-6.6,2.3l-2.2-3c2.7-2.2,6-3.3,9.4-3.3
			c2.4-0.1,4.7,0.6,6.6,2c1.7,1.3,2.5,3.5,2.5,6.4L596.4,989.7z M591.6,981.2v-1.9h-5.4c-3.5,0-5.2,1.1-5.2,3.2
			c-0.1,1,0.4,2,1.3,2.6c1.1,0.6,2.3,1,3.6,0.9c1.4,0,2.8-0.4,4-1.3C591,983.9,591.7,982.6,591.6,981.2L591.6,981.2z"/>
		<path class="st0" d="M609.2,977.4v12.3h-4.8v-22.8h4.8v4.2c1.5-2.8,4.4-4.5,7.6-4.5c2.3-0.1,4.6,0.8,6.2,2.4
			c1.6,1.6,2.4,3.8,2.4,6.8v14h-4.8v-12.5c0-4.2-1.7-6.3-5.2-6.3c-1.6,0-3.1,0.6-4.3,1.7C609.7,973.8,609.1,975.6,609.2,977.4z"/>
		<path class="st0" d="M638.9,970.8v11.6c-0.1,0.9,0.3,1.9,0.8,2.6c0.6,0.7,1.5,1,2.4,1c1.2,0,2.3-0.6,3-1.5l2,3.4
			c-1.5,1.4-3.5,2.3-5.6,2.3c-2,0-3.8-0.7-5.2-2.1c-1.5-1.5-2.3-3.6-2.2-5.7v-11.4h-3V967h2.9v-7.1h4.8v7.1h6v3.9L638.9,970.8z"/>
		<path class="st0" d="M670.9,989.7h-5v-29.9h7.9l9,18.8l9-18.8h7.8v29.9h-5v-23.4l-10.5,20.8h-2.8l-10.4-20.8L670.9,989.7z"/>
		<path class="st0" d="M721.2,979.2v-4.5h14.2v4.5H721.2z"/>
		<path class="st0" d="M779.6,963.7c2.9,2.6,4.3,6.2,4.3,10.9c0,4.7-1.4,8.3-4.2,11.1c-2.8,2.7-7.1,4.1-12.8,4.1H757v-29.9h10.3
			C772.6,959.8,776.7,961.1,779.6,963.7z M778.8,974.7c0-6.9-3.9-10.3-11.8-10.3h-5v20.5h5.6c3.6,0,6.4-0.9,8.3-2.6
			S778.8,978.1,778.8,974.7L778.8,974.7z"/>
		<path class="st0" d="M812.2,980.4h-17.8c0.1,1.6,0.9,3.1,2.3,4c3.5,2.4,8.3,1.9,11.3-1.2l2.7,3c-2.5,2.6-6,4-9.6,3.8
			c-3,0.1-6-1.1-8.2-3.2c-2.3-2.2-3.5-5.4-3.4-8.6c-0.1-3.2,1.1-6.3,3.4-8.5c2.2-2.1,5.1-3.2,8.1-3.2c2.9-0.1,5.7,0.9,7.9,2.8
			c2.2,1.9,3.4,4.8,3.2,7.7V980.4z M794.4,976.6h13.1c0.1-1.7-0.6-3.3-1.8-4.4c-1.2-1-2.8-1.6-4.4-1.5c-1.7,0-3.4,0.6-4.7,1.6
			C795.1,973.3,794.3,974.9,794.4,976.6z"/>
		<path class="st0" d="M819.5,989.7v-29.9h5v25.1h13.8v4.8H819.5z"/>
		<path class="st0" d="M859.9,979.2v-12.3h4.8v22.8h-4.8v-4.2c-2.5,4.3-7.9,5.8-12.2,3.3c-0.6-0.3-1.1-0.7-1.6-1.2
			c-1.6-1.6-2.4-3.8-2.4-6.8v-14h4.8v12.5c0,4.2,1.7,6.3,5.2,6.3c1.6,0,3.1-0.6,4.3-1.7C859.4,982.8,860.1,981,859.9,979.2z"/>
		<path class="st0" d="M876.6,966.9l4.9,7.5l5-7.5h5.7l-8,11.1l8.3,11.6h-5.9l-5.4-7.6l-5.3,7.6h-5.6l8.1-11.6l-7.7-11.2H876.6z"/>
		<path class="st0" d="M919.3,980.4h-17.9c0.1,1.6,0.9,3.1,2.3,4c3.5,2.4,8.3,1.9,11.3-1.2l2.7,3c-2.5,2.6-6,4-9.6,3.8
			c-3,0.1-6-1.1-8.2-3.2c-2.3-2.2-3.5-5.4-3.4-8.6c-0.2-3.2,1.1-6.3,3.4-8.5c2.2-2.1,5.1-3.2,8.1-3.2c2.9-0.1,5.7,0.9,7.9,2.8
			c2.2,1.9,3.4,4.8,3.3,7.7L919.3,980.4z M901.5,976.6h13.1c0.1-1.7-0.6-3.3-1.8-4.4c-1.2-1-2.8-1.6-4.4-1.5c-1.7,0-3.4,0.6-4.7,1.6
			C902.2,973.3,901.4,974.9,901.5,976.6z"/>
		<path class="st0" d="M943.7,989.7h-4.8v-31.8h4.8V989.7z"/>
		<path class="st0" d="M952.2,962.4c-0.6-0.6-0.9-1.3-0.9-2.1c0-1.7,1.4-3,3-3c1.7,0,3,1.4,3,3c0,1.7-1.3,3-2.9,3.1
			C953.6,963.3,952.8,963,952.2,962.4L952.2,962.4z M956.7,989.7h-4.8v-22.8h4.8V989.7z"/>
		<path class="st0" d="M969.7,977.4v12.3h-4.8v-22.8h4.8v4.2c2.5-4.3,7.9-5.8,12.2-3.3c0.6,0.3,1.1,0.7,1.6,1.2
			c1.6,1.6,2.4,3.8,2.4,6.8v14h-4.8v-12.5c0-4.2-1.7-6.3-5.2-6.3c-1.6,0-3.1,0.6-4.3,1.7C970.3,973.8,969.6,975.6,969.7,977.4z"/>
		<path class="st0" d="M998.7,977.4v12.3h-4.8v-22.8h4.8v4.2c1.5-2.8,4.4-4.5,7.6-4.5c2.3-0.1,4.6,0.8,6.2,2.4
			c1.6,1.6,2.4,3.8,2.4,6.8v14h-4.8v-12.5c0-4.2-1.7-6.3-5.2-6.3c-1.6,0-3.1,0.6-4.3,1.7C999.2,973.8,998.6,975.6,998.7,977.4z"/>
		<path class="st0" d="M1044,980.4h-17.9c0.1,1.6,0.9,3.1,2.3,4c3.5,2.4,8.3,1.9,11.3-1.2l2.7,3c-2.5,2.6-6,4-9.6,3.8
			c-3,0.1-6-1.1-8.2-3.2c-2.3-2.2-3.5-5.4-3.4-8.6c-0.2-3.2,1.1-6.3,3.4-8.5c2.2-2.1,5.1-3.2,8.1-3.2c2.9-0.1,5.7,0.9,7.9,2.8
			c2.2,1.9,3.4,4.8,3.3,7.7L1044,980.4z M1026.1,976.6h13.1c0.1-1.7-0.6-3.3-1.8-4.4c-1.2-1-2.8-1.6-4.4-1.5c-1.7,0-3.4,0.6-4.7,1.6
			C1026.9,973.3,1026.1,974.9,1026.1,976.6z"/>
		<path class="st0" d="M1055.3,977.4v12.3h-4.8v-22.8h4.8v4.2c2.5-4.3,7.9-5.8,12.2-3.3c0.6,0.3,1.1,0.7,1.6,1.2
			c1.6,1.6,2.4,3.8,2.4,6.8v14h-4.8v-12.5c0-4.2-1.7-6.3-5.2-6.3c-1.6,0-3.1,0.6-4.3,1.7C1055.9,973.8,1055.2,975.6,1055.3,977.4z"
			/>
		<path class="st0" d="M99.4,1045.3c0.1,2-0.8,3.9-2.4,5.2c-1.7,1.4-3.8,2.1-6,2c-1.8,0-3.5-0.3-5.2-0.9c-1.7-0.6-3.3-1.4-4.7-2.5
			l2.3-3.7c2.2,1.8,4.9,2.9,7.7,3c0.9,0.1,1.8-0.2,2.6-0.8c0.6-0.4,1-1.2,0.9-1.9c0-1.1-1.5-2.2-4.5-3.1l-0.5-0.2
			c-4.7-1.3-7.1-3.4-7.1-6.4c-0.1-2,0.9-3.9,2.5-5.1c1.9-1.3,4.1-2,6.4-1.9c2.7,0,5.3,0.8,7.5,2.3l-1.8,3.6c-1.8-1.2-3.9-1.8-6-1.8
			c-1,0-1.9,0.2-2.8,0.6c-0.7,0.4-1.1,1.1-1.1,1.9c0,0.7,0.4,1.4,1.1,1.6c0.7,0.3,1.4,0.6,2.2,0.7c0.9,0.2,1.8,0.4,2.5,0.7
			c0.7,0.2,1.4,0.5,2.1,0.8c0.8,0.3,1.5,0.7,2.2,1.2C98.7,1041.7,99.5,1043.5,99.4,1045.3z"/>
		<path class="st0" d="M112,1033.2v11.6c0,0.9,0.3,1.9,0.9,2.6c0.6,0.7,1.5,1,2.4,1c1.2-0.1,2.2-0.6,3-1.5l2,3.4
			c-1.5,1.4-3.5,2.3-5.6,2.3c-2,0-3.8-0.7-5.2-2.1c-1.5-1.5-2.3-3.6-2.2-5.7v-11.5h-2.9v-3.9h2.8v-7.1h4.8v7.2h6v3.8H112z"/>
		<path class="st0" d="M137.2,1033.9c-2.1-0.1-4,0.7-5.4,2.3c-1.3,1.8-1.9,4-1.8,6.2v9.8h-4.8v-22.8h4.8v4.6
			c0.8-1.4,1.8-2.6,3.1-3.5c1.2-0.9,2.7-1.4,4.2-1.4v4.8L137.2,1033.9z"/>
		<path class="st0" d="M159.5,1041.7v-12.3h4.8v22.8h-4.8v-4.2c-1.5,2.8-4.4,4.5-7.6,4.5c-2.3,0.1-4.6-0.8-6.2-2.4
			c-1.6-1.6-2.4-3.8-2.4-6.8v-14h4.8v12.5c0,4.2,1.7,6.3,5.2,6.3c1.6,0,3.1-0.6,4.3-1.7C159,1045.2,159.6,1043.5,159.5,1041.7z"/>
		<path class="st0" d="M182.6,1052.5c-3,0-6-1.1-8.2-3.2c-4.7-4.7-4.6-12.3,0.1-17c0,0,0,0,0,0c2.4-2.2,5.5-3.4,8.7-3.3
			c3.3-0.1,6.4,1.2,8.7,3.6l-2.8,3.5c-1.6-1.6-3.7-2.5-6-2.6c-1.9,0-3.8,0.7-5.2,2c-1.5,1.3-2.3,3.2-2.2,5.1c0,4.1,3.3,7.5,7.4,7.5
			c0.1,0,0.1,0,0.2,0c2.3-0.1,4.5-1.1,6-2.9l2.8,3.1C189.8,1050.9,186.3,1052.5,182.6,1052.5z"/>
		<path class="st0" d="M204.4,1033.2v11.6c-0.1,0.9,0.3,1.9,0.9,2.6c0.6,0.7,1.5,1,2.4,1c1.2,0,2.3-0.6,3-1.5l2,3.4
			c-1.5,1.4-3.5,2.3-5.6,2.3c-2,0-3.8-0.7-5.2-2.1c-1.5-1.5-2.3-3.6-2.2-5.7v-11.5h-2.9v-3.9h2.9v-7.1h4.8v7.2h6v3.8H204.4z"/>
		<path class="st0" d="M233.6,1041.7v-12.3h4.8v22.8h-4.8v-4.2c-1.5,2.8-4.4,4.5-7.6,4.5c-2.3,0.1-4.6-0.8-6.2-2.4
			c-1.6-1.6-2.4-3.8-2.4-6.8v-14h4.8v12.5c0,4.2,1.7,6.3,5.2,6.3c1.6,0,3.1-0.6,4.3-1.7C233.1,1045.2,233.7,1043.5,233.6,1041.7z"/>
		<path class="st0" d="M262.5,1041.7v-12.3h4.8v22.8h-4.8v-4.2c-2.5,4.3-7.9,5.8-12.2,3.3c-0.6-0.3-1.1-0.7-1.6-1.2
			c-1.6-1.6-2.4-3.8-2.4-6.8v-14h4.8v12.5c0,4.2,1.7,6.3,5.2,6.3c1.6,0,3.1-0.6,4.3-1.7C262,1045.2,262.7,1043.5,262.5,1041.7z"/>
		<path class="st0" d="M287.5,1033.9c-2.1-0.1-4,0.7-5.4,2.3c-1.3,1.8-1.9,4-1.8,6.2v9.8h-4.8v-22.8h4.8v4.6
			c0.8-1.4,1.8-2.6,3.1-3.5c1.2-0.9,2.7-1.4,4.2-1.4v4.8L287.5,1033.9z"/>
		<path class="st0" d="M317.5,1052.1H312l-7.9-22.8h5l5.6,17.2l5.7-17.2h5l5.6,17.2l5.7-17.2h5l-7.9,22.8h-5.5l-5.4-15.6
			L317.5,1052.1z"/>
		<path class="st0" d="M347.5,1024.8c-1.2-1.2-1.1-3.1,0-4.2s3.1-1.1,4.2,0s1.1,3.1,0,4.2c-0.6,0.5-1.3,0.9-2.1,0.9
			C348.8,1025.7,348,1025.4,347.5,1024.8z M352,1052.1h-4.8v-22.8h4.8V1052.1z"/>
		<path class="st0" d="M366.1,1033.2v11.6c-0.1,0.9,0.3,1.9,0.9,2.6c0.6,0.7,1.5,1,2.4,1c1.2,0,2.3-0.6,3-1.5l2,3.4
			c-1.5,1.4-3.5,2.3-5.6,2.3c-2,0-3.8-0.7-5.2-2.1c-1.5-1.5-2.3-3.6-2.2-5.7v-11.5h-2.9v-3.9h2.9v-7.1h4.8v7.2h6v3.8H366.1z"/>
		<path class="st0" d="M397.2,1039.8v12.3h-4.8v-22.8h4.8v4.2c0.7-1.4,1.8-2.5,3.1-3.3c1.4-0.8,2.9-1.2,4.5-1.2c3.6,0,6,1.5,7.3,4.4
			c1.9-2.8,5.1-4.4,8.4-4.4c2.3-0.1,4.6,0.8,6.2,2.4c1.6,1.6,2.4,3.8,2.4,6.8v14h-4.8v-12.5c0-4.2-1.7-6.3-5.2-6.3
			c-1.6,0-3.1,0.5-4.3,1.6c-1.3,1.2-2,2.8-1.9,4.6v12.7h-4.8v-12.5c0.1-1.7-0.3-3.3-1.2-4.8c-0.9-1.1-2.3-1.6-3.6-1.5
			c-1.6,0-3.1,0.6-4.3,1.7C397.8,1036.3,397.1,1038,397.2,1039.8z"/>
		<path class="st0" d="M455.5,1052.1h-4.4v-3c-1.9,2.3-4.7,3.5-7.6,3.4c-2.1,0.1-4.2-0.6-5.9-2c-1.6-1.3-2.4-3.3-2.3-5.4
			c-0.1-2,0.8-3.9,2.5-5c2-1.2,4.4-1.8,6.7-1.7h6.2v-0.9c0-3-1.7-4.5-5-4.5c-2.4,0.1-4.7,0.9-6.6,2.3l-2.1-3c2.7-2.2,6-3.3,9.4-3.3
			c2.4-0.1,4.7,0.6,6.6,2c1.7,1.3,2.5,3.5,2.5,6.4L455.5,1052.1z M450.7,1043.7v-1.9h-5.4c-3.5,0-5.2,1.1-5.2,3.2
			c-0.1,1,0.4,2,1.3,2.6c1.1,0.6,2.3,1,3.6,0.9c1.4,0,2.8-0.4,4-1.3C450.2,1046.3,450.8,1045,450.7,1043.7z"/>
		<path class="st0" d="M469.2,1033.2v11.6c-0.1,0.9,0.3,1.9,0.8,2.6c0.6,0.7,1.5,1,2.4,1c1.2,0,2.3-0.6,3-1.5l2,3.4
			c-1.5,1.4-3.5,2.3-5.6,2.3c-2,0-3.8-0.7-5.2-2.1c-1.5-1.5-2.3-3.6-2.2-5.7v-11.5h-2.9v-3.9h2.9v-7.1h4.8v7.2h6v3.8H469.2z"/>
		<path class="st0" d="M495.2,1026.7v-4.5h17.5v3.9l-7.2,8.1c2.4-0.1,4.7,0.9,6.4,2.6c1.5,1.6,2.3,3.7,2.3,5.9
			c0.1,2.8-1,5.4-3.1,7.2c-2.3,1.8-5.1,2.7-8,2.6c-3.4-0.1-6.8-1.1-9.5-3.1l2.1-4.1c2.2,1.6,4.9,2.5,7.7,2.6c1.5,0.1,3-0.4,4.3-1.2
			c1.1-0.8,1.8-2.1,1.7-3.5c0-1.5-0.7-2.8-1.9-3.7c-1.6-1-3.4-1.5-5.2-1.4c-1.1,0-2.2,0.2-3.2,0.5v-3.8l6.9-8L495.2,1026.7z"/>
		<path class="st0" d="M523.6,1048.2c-2-2.8-3-6.6-3-11.3s1-8.5,3-11.3c2-2.8,5.1-4.2,9.2-4.2s7.2,1.4,9.2,4.2c2,2.8,3,6.6,3,11.3
			s-1,8.5-3,11.3c-2,2.8-5.1,4.2-9.2,4.2S525.6,1051.1,523.6,1048.2z M527.2,1028.9c-2.4,5.1-2.4,11.1,0,16.2c1.1,2,3.3,3.2,5.5,3.1
			c2.3,0.1,4.4-1.1,5.5-3.1c2.3-5.2,2.3-11.1,0-16.2c-1.1-2-3.2-3.2-5.5-3.1C530.5,1025.7,528.3,1026.9,527.2,1028.9L527.2,1028.9z"
			/>
		<path class="st0" d="M554.3,1048.2c-2-2.8-3-6.6-3-11.3s1-8.5,3-11.3c2-2.8,5.1-4.2,9.2-4.2s7.2,1.4,9.2,4.2c2,2.8,3,6.6,3,11.3
			s-1,8.5-3,11.3c-2,2.8-5.1,4.2-9.2,4.2S556.3,1051.1,554.3,1048.2z M557.9,1028.9c-2.4,5.1-2.4,11.1,0,16.2c1.1,2,3.3,3.2,5.5,3.1
			c2.3,0.1,4.4-1.1,5.5-3.1c2.3-5.2,2.3-11.1,0-16.2c-1.1-2-3.2-3.2-5.5-3.1C561.2,1025.7,559,1026.9,557.9,1028.9L557.9,1028.9z"/>
		<path class="st0" d="M617,1029.4v19.9c0,4-1.1,7-3.3,9.1c-2.3,2.1-5.3,3.1-8.4,3c-3.4,0-6.6-1.1-9.3-3.2l2.3-3.6
			c1.9,1.6,4.3,2.5,6.7,2.5c2,0.1,3.9-0.5,5.4-1.8c1.3-1.2,2-3,2-5.6v-2.9c-0.7,1.3-1.8,2.5-3.1,3.2c-1.3,0.8-2.9,1.2-4.5,1.2
			c-2.8,0.1-5.5-1.1-7.5-3.2c-3.9-4.5-3.9-11.2,0-15.8c1.9-2.1,4.6-3.2,7.4-3.2c2.9-0.1,5.7,1.3,7.3,3.7v-3.4L617,1029.4z
			 M599.2,1039.9c0,1.8,0.6,3.5,1.7,4.8c1.2,1.3,2.9,2.1,4.7,2c1.8,0.1,3.5-0.7,4.8-2c1.2-1.3,1.9-3.1,1.8-4.9
			c0.1-1.8-0.6-3.6-1.8-5c-1.2-1.3-2.9-2.1-4.8-2c-1.8-0.1-3.5,0.7-4.7,2.1C599.8,1036.3,599.2,1038.1,599.2,1039.9z"/>
		<path class="st0" d="M637.2,1033.9c-2.1-0.1-4,0.7-5.3,2.3c-1.3,1.8-1.9,4-1.8,6.2v9.8h-4.9v-22.8h4.8v4.6
			c0.8-1.4,1.8-2.6,3.2-3.5c1.2-0.9,2.7-1.4,4.2-1.4v4.8L637.2,1033.9z"/>
		<path class="st0" d="M661.8,1052.1h-4.4v-3c-1.9,2.3-4.7,3.5-7.6,3.4c-2.1,0.1-4.2-0.6-5.9-2c-1.6-1.3-2.4-3.3-2.3-5.4
			c-0.1-2,0.8-3.9,2.5-5c2-1.2,4.4-1.8,6.7-1.7h6.2v-0.9c0-3-1.7-4.5-5-4.5c-2.4,0.1-4.7,0.9-6.6,2.3l-2.1-3c2.7-2.2,6-3.3,9.4-3.3
			c2.4-0.1,4.7,0.6,6.6,2c1.7,1.3,2.5,3.5,2.5,6.4L661.8,1052.1z M657,1043.7v-1.9h-5.4c-3.5,0-5.2,1.1-5.2,3.2
			c-0.1,1,0.4,2,1.3,2.6c1.1,0.6,2.3,1,3.6,0.9c1.4,0,2.8-0.4,4-1.3C656.4,1046.3,657,1045,657,1043.7z"/>
		<path class="st0" d="M674.5,1039.8v12.3h-4.8v-22.8h4.8v4.2c0.7-1.4,1.8-2.5,3.1-3.3c1.4-0.8,2.9-1.2,4.5-1.2c3.6,0,6,1.5,7.3,4.4
			c1.9-2.8,5.1-4.4,8.4-4.4c2.3-0.1,4.6,0.8,6.2,2.4c1.6,1.6,2.4,3.8,2.4,6.8v14h-4.8v-12.5c0-4.2-1.7-6.3-5.2-6.3
			c-1.6,0-3.1,0.5-4.3,1.6c-1.3,1.2-2,2.8-1.9,4.6v12.7h-4.8v-12.5c0.1-1.7-0.3-3.3-1.2-4.8c-0.9-1.1-2.3-1.6-3.6-1.5
			c-1.6,0-3.1,0.6-4.3,1.7C675.1,1036.3,674.4,1038,674.5,1039.8z"/>
		<path class="st0" d="M730.7,1045.3c0.1,2-0.8,3.9-2.3,5.2c-1.7,1.4-3.8,2.1-6,2c-1.8,0-3.5-0.3-5.2-0.9c-1.7-0.6-3.3-1.4-4.7-2.5
			l2.3-3.7c2.2,1.8,4.9,2.9,7.7,3c0.9,0.1,1.8-0.2,2.6-0.8c0.6-0.4,0.9-1.2,0.9-1.9c0-1.1-1.5-2.2-4.5-3.1l-0.5-0.2
			c-4.7-1.3-7.1-3.4-7.1-6.4c-0.1-2,0.9-3.9,2.5-5.1c1.9-1.3,4.1-2,6.4-1.9c2.7,0,5.3,0.8,7.5,2.3l-1.8,3.6c-1.8-1.2-3.9-1.8-6-1.8
			c-1,0-1.9,0.2-2.8,0.6c-0.7,0.4-1.1,1.1-1.1,1.9c0,0.7,0.4,1.4,1.1,1.6c0.7,0.3,1.4,0.6,2.2,0.7c0.9,0.2,1.8,0.4,2.5,0.7
			s1.4,0.5,2.1,0.8c0.8,0.3,1.5,0.7,2.2,1.2C730,1041.7,730.8,1043.5,730.7,1045.3z"/>
		<path class="st0" d="M750,1041.6v-4.5h14.2v4.5H750z"/>
		<path class="st0" d="M808.4,1026.1c2.9,2.6,4.3,6.2,4.3,10.9s-1.4,8.3-4.2,11c-2.8,2.7-7.1,4.1-12.8,4.1h-9.9v-29.8h10.3
			C801.4,1022.2,805.5,1023.5,808.4,1026.1z M807.7,1037.1c0-6.9-3.9-10.3-11.8-10.3h-5v20.5h5.6c3.6,0,6.4-0.9,8.3-2.6
			C806.7,1043,807.7,1040.5,807.7,1037.1L807.7,1037.1z"/>
		<path class="st0" d="M835.8,1041.7v-12.3h4.8v22.8h-4.8v-4.2c-2.5,4.3-7.9,5.8-12.2,3.3c-0.6-0.3-1.1-0.7-1.6-1.2
			c-1.6-1.6-2.4-3.8-2.4-6.8v-14h4.8v12.5c0,4.2,1.7,6.3,5.2,6.3c1.6,0,3.1-0.6,4.3-1.7C835.2,1045.2,835.9,1043.5,835.8,1041.7z"/>
		<path class="st0" d="M861,1029c2.9,0,5.8,1.1,7.8,3.2c2.2,2.2,3.4,5.3,3.2,8.4c0.1,3.2-1,6.3-3.2,8.6c-3.7,4.1-10,4.4-14.1,0.8
			c-0.4-0.4-0.8-0.8-1.1-1.2v3.4h-4.8v-31.8h4.8v13C855.5,1030.5,858,1029,861,1029z M853.5,1040.8c-0.1,2,0.7,3.9,2,5.3
			c1.2,1.3,2.9,2.1,4.7,2.1c1.8,0,3.6-0.7,4.9-2c1.4-1.4,2.2-3.3,2.1-5.3c0.1-2-0.6-4-2-5.4c-1.3-1.4-3-2.2-4.9-2.2
			c-1.9,0-3.6,0.8-4.8,2.2C854.2,1036.9,853.5,1038.8,853.5,1040.8z"/>
		<path class="st0" d="M891.1,1029c2.9,0,5.8,1.1,7.8,3.2c2.2,2.2,3.4,5.3,3.3,8.4c0.1,3.2-1,6.3-3.2,8.6c-3.7,4.1-10,4.4-14.1,0.7
			c-0.4-0.4-0.8-0.8-1.1-1.2v3.4h-4.8v-31.8h4.8v13C885.5,1030.5,888,1029,891.1,1029z M883.6,1040.8c-0.1,2,0.7,3.9,2,5.3
			c1.2,1.3,3,2.1,4.8,2.1c1.8,0,3.6-0.7,4.9-2c1.4-1.4,2.2-3.3,2.1-5.3c0.1-2-0.6-4-2-5.4c-1.3-1.4-3.1-2.2-4.9-2.2
			c-1.9,0-3.6,0.8-4.8,2.2C884.3,1036.9,883.5,1038.8,883.6,1040.8z"/>
		<path class="st0" d="M930.1,1042.8h-17.9c0.1,1.6,0.9,3.1,2.3,4c3.5,2.4,8.3,1.9,11.3-1.2l2.7,3c-2.5,2.6-6,4-9.6,3.8
			c-3,0.1-6-1.1-8.2-3.2c-2.3-2.2-3.5-5.4-3.4-8.6c-0.2-3.2,1.1-6.3,3.4-8.5c2.2-2.1,5.1-3.2,8.1-3.2c2.9-0.1,5.7,0.9,7.9,2.8
			c2.2,1.9,3.4,4.8,3.3,7.7L930.1,1042.8z M912.3,1039.1h13.1c0.1-1.7-0.6-3.3-1.8-4.4c-1.2-1-2.8-1.6-4.4-1.5
			c-1.7,0-3.4,0.6-4.7,1.6C913,1035.7,912.2,1037.4,912.3,1039.1L912.3,1039.1z"/>
		<path class="st0" d="M941.5,1052.1h-4.8v-31.8h4.8V1052.1z"/>
		<path class="st0" d="M948.9,1033.6v-4.1h17.8v4.3L954,1048h13.5v4.2h-19.3v-4.7l12.5-13.9L948.9,1033.6z"/>
		<path class="st0" d="M974.4,1024.8c-1.2-1.2-1.1-3.1,0-4.2s3.1-1.1,4.2,0s1.1,3.1,0,4.2c-0.6,0.6-1.3,0.9-2.1,0.9
			C975.8,1025.7,975,1025.4,974.4,1024.8z M978.9,1052.1h-4.8v-22.8h4.8V1052.1z"/>
		<path class="st0" d="M987.1,1053.2v-23.8h4.8v24c0.1,2.1-0.7,4.2-2.2,5.7c-1.4,1.4-3.3,2.2-5.2,2.1c-2.1,0-4.1-0.8-5.6-2.3
			l2.2-3.6c0.7,0.8,1.8,1.4,2.9,1.4c0.9,0,1.7-0.3,2.2-1C986.9,1055,987.2,1054.2,987.1,1053.2z M987.4,1024.9
			c-1.2-1.2-1.1-3.1,0-4.2s3.1-1.1,4.2,0s1.1,3.1,0,4.2c-0.6,0.6-1.3,0.9-2.1,0.9C988.7,1025.8,987.9,1025.4,987.4,1024.9
			L987.4,1024.9z"/>
		<path class="st0" d="M1001.9,1049.2c-2.2-2.3-3.3-5.4-3.2-8.6c-0.1-3.2,1.1-6.2,3.3-8.5c2.1-2.1,4.9-3.2,7.9-3.2
			c2.9,0,5.7,1.4,7.3,3.9v-12.5h4.8v31.8h-4.8v-3.4c-1.8,2.5-4.7,3.9-7.8,3.8C1006.6,1052.5,1003.9,1051.3,1001.9,1049.2z
			 M1003.5,1040.9c-0.1,2,0.7,3.9,2.1,5.3c1.3,1.3,3.1,2.1,4.9,2.1c1.8,0,3.6-0.7,4.8-2.1c1.3-1.4,2.1-3.4,2-5.3
			c0.1-2-0.7-3.9-2-5.4c-1.2-1.4-3-2.2-4.8-2.2c-1.9,0-3.7,0.8-4.9,2.2C1004.2,1036.9,1003.4,1038.8,1003.5,1040.9L1003.5,1040.9z"
			/>
		<path class="st0" d="M1030.5,1024.8c-1.2-1.1-1.3-3-0.1-4.2c0.6-0.6,1.4-1,2.3-0.9c1.7,0.1,3,1.4,2.9,3.1c-0.1,1.7-1.4,3-3.1,2.9
			C1031.7,1025.6,1031,1025.3,1030.5,1024.8z M1035,1052.1h-4.8v-22.8h4.8L1035,1052.1z"/>
		<path class="st0" d="M1064.3,1029.4v19.9c0,4-1.1,7-3.3,9.1c-2.3,2.1-5.3,3.1-8.4,3c-3.4,0-6.7-1.1-9.3-3.2l2.3-3.6
			c1.9,1.6,4.3,2.5,6.7,2.5c2,0.1,3.9-0.5,5.4-1.8c1.3-1.2,2-3,2-5.6v-2.9c-0.7,1.3-1.8,2.5-3.1,3.2c-1.3,0.8-2.9,1.2-4.5,1.2
			c-2.8,0.1-5.5-1.1-7.4-3.2c-3.9-4.5-3.9-11.2,0-15.8c1.9-2.1,4.6-3.2,7.4-3.2c2.9-0.1,5.7,1.3,7.3,3.7v-3.4L1064.3,1029.4z
			 M1046.5,1039.9c0,1.8,0.6,3.5,1.7,4.8c1.2,1.3,2.9,2.1,4.7,2c1.8,0.1,3.5-0.7,4.8-2c1.2-1.3,1.9-3.1,1.8-4.9
			c0.1-1.8-0.6-3.6-1.8-5c-1.2-1.3-2.9-2.1-4.8-2c-1.8-0.1-3.5,0.7-4.7,2.1C1047.1,1036.3,1046.5,1038.1,1046.5,1039.9z"/>
		<path class="st0" d="M1085.1,1041.6v-4.5h14.2v4.5H1085.1z"/>
		<path class="st0" d="M185.7,1084.6v4.8h-16v7.9h14.3v4.5h-14.3v8h16.5v4.8h-21.5v-29.9H185.7z"/>
		<path class="st0" d="M198.1,1102.2v12.3h-4.8v-22.8h4.8v4.2c1.5-2.8,4.4-4.5,7.6-4.5c2.3-0.1,4.6,0.8,6.2,2.4
			c1.6,1.6,2.4,3.8,2.4,6.8v14h-4.8v-12.5c0-4.2-1.7-6.3-5.2-6.3c-1.6,0-3.1,0.6-4.3,1.6C198.7,1098.7,198,1100.5,198.1,1102.2z"/>
		<path class="st0" d="M228,1114.6l-9.2-22.8h5l6.9,17.2l6.9-17.2h5l-9.2,22.8H228z"/>
		<path class="st0" d="M269,1105.2h-17.8c0.1,1.6,0.9,3.1,2.3,4c3.6,2.4,8.3,1.9,11.3-1.2l2.7,3c-2.5,2.6-6,4-9.6,3.8
			c-3,0.1-6-1.1-8.2-3.2c-2.3-2.2-3.5-5.4-3.4-8.6c-0.2-3.2,1.1-6.3,3.4-8.5c2.2-2.1,5.1-3.2,8.1-3.2c2.9-0.1,5.7,0.9,7.9,2.8
			c2.2,1.9,3.4,4.8,3.2,7.7L269,1105.2z M251.1,1101.5h13.1c0.1-1.7-0.6-3.3-1.8-4.4c-1.2-1-2.8-1.6-4.4-1.5c-1.7,0-3.4,0.6-4.7,1.6
			C251.8,1098.2,251,1099.8,251.1,1101.5L251.1,1101.5z"/>
		<path class="st0" d="M280.3,1114.6h-4.8v-31.8h4.8V1114.6z"/>
		<path class="st0" d="M307.6,1111.5c-4.8,4.5-12.3,4.5-17.1,0c-4.6-4.6-4.6-12,0-16.7c4.8-4.5,12.3-4.5,17.1,0
			C312.2,1099.5,312.2,1106.9,307.6,1111.5z M293.9,1108.5c2.9,2.8,7.4,2.8,10.3,0c2.7-3.1,2.7-7.7,0-10.8c-2.9-2.8-7.4-2.8-10.3,0
			C291.1,1100.8,291.1,1105.4,293.9,1108.5z"/>
		<path class="st0" d="M329.9,1091.5c2.9,0,5.8,1.1,7.8,3.2c2.2,2.2,3.4,5.3,3.2,8.4c0.1,3.2-1,6.3-3.2,8.6
			c-3.7,4.1-10,4.4-14.1,0.8c-0.4-0.4-0.8-0.8-1.1-1.2v11.7h-4.8v-31.1h4.8v4C324.4,1092.9,326.9,1091.5,329.9,1091.5z
			 M322.4,1103.2c-0.1,2,0.7,3.9,2,5.3c1.2,1.3,3,2.1,4.8,2.1c1.9,0,3.6-0.7,4.9-2.1c1.4-1.4,2.2-3.4,2.1-5.3c0.1-2-0.7-4-2-5.4
			c-1.3-1.4-3-2.2-4.9-2.2c-1.9,0-3.6,0.8-4.8,2.2C323.1,1099.3,322.4,1101.2,322.4,1103.2z"/>
		<path class="st0" d="M365.6,1114.6h-4.8v-31.8h4.8v18.7l9.2-9.7h6.2l-8.7,9l9.3,13.7h-5.8l-6.8-10l-3.5,3.5L365.6,1114.6z"/>
		<path class="st0" d="M391.8,1114.6H387v-31.8h4.8V1114.6z"/>
		<path class="st0" d="M421.2,1105.2h-17.8c0.1,1.6,0.9,3.1,2.3,4c3.6,2.4,8.3,1.9,11.3-1.2l2.7,3c-2.5,2.6-6,3.9-9.6,3.8
			c-3,0.1-6-1.1-8.2-3.2c-2.3-2.2-3.5-5.4-3.4-8.6c-0.2-3.2,1.1-6.3,3.4-8.5c2.2-2.1,5.1-3.2,8.1-3.2c2.9-0.1,5.7,0.9,7.9,2.8
			c2.2,1.9,3.4,4.8,3.2,7.7L421.2,1105.2z M403.3,1101.5h13c0.1-1.7-0.6-3.3-1.8-4.4c-1.2-1-2.8-1.6-4.4-1.5c-1.7,0-3.4,0.6-4.7,1.6
			C404,1098.2,403.2,1099.8,403.3,1101.5L403.3,1101.5z"/>
		<path class="st0" d="M443.6,1104.1v-12.3h4.8v22.8h-4.8v-4.2c-1.5,2.8-4.4,4.5-7.6,4.5c-2.3,0.1-4.6-0.7-6.2-2.3
			c-1.6-1.6-2.4-3.8-2.4-6.8v-14h4.8v12.5c0,4.2,1.7,6.3,5.2,6.3c1.6,0,3.1-0.6,4.3-1.7C443.1,1107.7,443.8,1105.9,443.6,1104.1z"/>
		<path class="st0" d="M468.6,1096.3c-2.1-0.1-4,0.7-5.3,2.3c-1.3,1.8-1.9,4-1.8,6.2v9.8h-4.8v-22.8h4.8v4.6
			c0.8-1.4,1.8-2.6,3.2-3.5c1.2-0.9,2.7-1.4,4.2-1.4v4.8L468.6,1096.3z"/>
		<path class="st0" d="M492.8,1102.2v12.3H488v-22.8h4.8v4.2c2.4-4.3,7.9-5.8,12.2-3.3c0.6,0.3,1.1,0.7,1.6,1.2
			c1.6,1.6,2.4,3.8,2.4,6.8v14h-4.8v-12.5c0-4.2-1.8-6.3-5.2-6.3c-1.6,0-3.1,0.6-4.3,1.6C493.3,1098.7,492.6,1100.5,492.8,1102.2z"
			/>
		<path class="st0" d="M535.4,1114.6H531v-3c-1.9,2.2-4.7,3.5-7.6,3.4c-2.1,0.1-4.2-0.6-5.9-2c-1.6-1.3-2.4-3.3-2.3-5.4
			c-0.1-2,0.8-3.9,2.5-5c2-1.2,4.4-1.8,6.7-1.7h6.2v-0.9c0-3-1.7-4.5-5.1-4.5c-2.4,0.1-4.7,0.9-6.6,2.3l-2.1-3
			c2.7-2.2,6-3.3,9.4-3.3c2.4-0.1,4.7,0.6,6.6,2c1.7,1.3,2.5,3.5,2.5,6.4L535.4,1114.6z M530.6,1106.1v-1.9h-5.4
			c-3.5,0-5.2,1.1-5.2,3.2c0,1,0.4,2,1.3,2.6c1.1,0.6,2.3,0.9,3.6,0.9c1.4,0,2.8-0.4,4-1.3C530,1108.8,530.6,1107.5,530.6,1106.1z"
			/>
		<path class="st0" d="M561.8,1114.6h-4.4v-3c-1.9,2.2-4.7,3.5-7.6,3.4c-2.1,0.1-4.2-0.6-5.9-2c-1.6-1.3-2.4-3.3-2.3-5.4
			c-0.1-2,0.8-3.9,2.5-5c2-1.2,4.4-1.8,6.7-1.7h6.2v-0.9c0-3-1.7-4.5-5-4.5c-2.4,0.1-4.7,0.9-6.6,2.3l-2.1-3c2.7-2.2,6-3.3,9.4-3.3
			c2.4-0.1,4.7,0.6,6.6,2c1.7,1.3,2.5,3.5,2.5,6.4L561.8,1114.6z M557,1106.1v-1.9h-5.4c-3.5,0-5.2,1.1-5.2,3.2c0,1,0.4,2,1.3,2.6
			c1.1,0.6,2.3,0.9,3.6,0.9c1.4,0,2.8-0.4,4-1.3C556.4,1108.8,557,1107.5,557,1106.1z"/>
		<path class="st0" d="M581.7,1096.3c-2.1-0.1-4,0.7-5.3,2.3c-1.3,1.8-1.9,4-1.8,6.2v9.8h-4.8v-22.8h4.8v4.6
			c0.8-1.4,1.8-2.6,3.2-3.5c1.2-0.9,2.7-1.4,4.2-1.4v4.8L581.7,1096.3z"/>
		<path class="st0" d="M605.8,1114.6H601v-31.8h4.8v18.7l9.2-9.7h6.2l-8.7,9l9.3,13.7h-5.8l-6.8-10l-3.5,3.5L605.8,1114.6z"/>
		<path class="st0" d="M648.4,1105.2h-17.9c0.1,1.6,0.9,3.1,2.3,4c3.6,2.4,8.3,1.9,11.3-1.2l2.7,3c-2.5,2.6-6,3.9-9.6,3.8
			c-3,0.1-6-1.1-8.2-3.2c-2.3-2.2-3.5-5.4-3.4-8.6c-0.2-3.2,1.1-6.3,3.4-8.5c2.2-2.1,5.1-3.2,8.1-3.2c2.9-0.1,5.7,0.9,7.9,2.8
			c2.2,1.9,3.4,4.8,3.2,7.7V1105.2z M630.5,1101.5h13c0.1-1.7-0.6-3.3-1.8-4.4c-1.2-1-2.8-1.6-4.4-1.5c-1.7,0-3.4,0.6-4.7,1.6
			C631.3,1098.2,630.5,1099.8,630.5,1101.5L630.5,1101.5z"/>
		<path class="st0" d="M670.9,1104.1v-12.3h4.8v22.8h-4.8v-4.2c-1.5,2.8-4.4,4.5-7.6,4.5c-2.3,0.1-4.6-0.7-6.2-2.3
			c-1.6-1.6-2.4-3.8-2.4-6.8v-14h4.8v12.5c0,4.2,1.7,6.3,5.2,6.3c1.6,0,3.1-0.6,4.3-1.7C670.3,1107.7,671,1105.9,670.9,1104.1z"/>
		<path class="st0" d="M683.2,1096v-4.1H701v4.4l-12.8,14.2h13.5v4.2h-19.3v-4.7l12.5-13.9L683.2,1096z"/>
		<path class="st0" d="M729.5,1105.2h-17.9c0.1,1.6,0.9,3.1,2.3,4c3.6,2.4,8.3,1.9,11.3-1.2l2.7,3c-2.5,2.6-6,4-9.6,3.8
			c-3,0.1-6-1.1-8.2-3.2c-2.3-2.2-3.5-5.4-3.4-8.6c-0.2-3.2,1.1-6.3,3.4-8.5c2.2-2.1,5.1-3.2,8.1-3.2c2.9-0.1,5.7,0.9,7.9,2.8
			c2.2,1.9,3.4,4.8,3.3,7.7L729.5,1105.2z M711.7,1101.5h13.1c0.1-1.7-0.6-3.3-1.8-4.4c-1.2-1-2.8-1.6-4.4-1.5
			c-1.7,0-3.4,0.6-4.7,1.6C712.4,1098.2,711.6,1099.8,711.7,1101.5L711.7,1101.5z"/>
		<path class="st0" d="M748.7,1104v-4.5h14.2v4.5H748.7z"/>
		<path class="st0" d="M801.1,1084.6v4.6h-12.6v7.4c1.3-0.7,2.8-1,4.3-1c2.6-0.1,5.2,0.8,7.2,2.5c2,1.7,3.1,4.2,3,6.8
			c0.1,2.7-1.1,5.4-3.2,7.2c-2.1,1.9-4.9,2.9-7.8,2.8c-3.6,0.2-7.2-1.3-9.6-4l2.7-3.7c0.2,0.2,0.5,0.5,0.9,0.8
			c0.7,0.5,1.5,0.9,2.4,1.3c1.2,0.5,2.6,0.8,3.9,0.8c1.4,0,2.8-0.4,3.9-1.3c1.2-0.9,1.8-2.3,1.8-3.7c0.1-1.5-0.6-2.9-1.9-3.8
			c-1.4-0.9-3-1.4-4.7-1.3c-1.9,0-3.8,0.5-5.4,1.4l-2.1-2.3v-14.4L801.1,1084.6z"/>
		<path class="st0" d="M811.9,1110.7c-2-2.8-3-6.6-3-11.3s1-8.5,3-11.3c2-2.8,5.1-4.2,9.2-4.2s7.2,1.4,9.2,4.2c2,2.8,3,6.6,3,11.3
			s-1,8.5-3,11.3c-2,2.8-5.1,4.2-9.2,4.2S813.9,1113.5,811.9,1110.7z M815.6,1091.3c-2.4,5.1-2.4,11.1,0,16.2c1.1,2,3.3,3.2,5.5,3.1
			c2.3,0.1,4.4-1.1,5.5-3.1c2.3-5.2,2.3-11.1,0-16.2c-1.1-2-3.2-3.2-5.5-3.1C818.8,1088.1,816.7,1089.3,815.6,1091.3z"/>
		<path class="st0" d="M858.4,1114.6h-4.8v-31.8h4.8v18.7l9.2-9.7h6.2l-8.7,9l9.3,13.7h-5.8l-6.8-10l-3.5,3.5L858.4,1114.6z"/>
		<path class="st0" d="M897.8,1114.6h-4.4v-3c-1.9,2.2-4.7,3.5-7.6,3.4c-2.1,0.1-4.2-0.6-5.9-2c-1.6-1.3-2.4-3.3-2.3-5.4
			c-0.1-2,0.8-3.9,2.5-5c2-1.2,4.4-1.8,6.7-1.7h6.2v-0.9c0-3-1.7-4.5-5-4.5c-2.4,0.1-4.7,0.9-6.6,2.3l-2.1-3c2.7-2.2,6-3.3,9.4-3.3
			c2.4-0.1,4.7,0.6,6.6,2c1.7,1.3,2.6,3.5,2.6,6.4L897.8,1114.6z M893,1106.1v-1.9h-5.4c-3.5,0-5.2,1.1-5.2,3.2c0,1,0.4,2,1.3,2.6
			c1.1,0.6,2.3,0.9,3.6,0.9c1.4,0,2.8-0.4,4-1.3C892.4,1108.8,893.1,1107.5,893,1106.1L893,1106.1z"/>
		<path class="st0" d="M924.2,1114.6h-4.4v-3c-1.9,2.2-4.7,3.5-7.6,3.4c-2.1,0.1-4.2-0.6-5.9-2c-1.6-1.3-2.4-3.3-2.3-5.4
			c-0.1-2,0.8-3.9,2.5-5c2-1.2,4.4-1.8,6.7-1.7h6.2v-0.9c0-3-1.7-4.5-5.1-4.5c-2.4,0.1-4.7,0.9-6.6,2.3l-2.1-3
			c2.7-2.2,6-3.3,9.4-3.3c2.4-0.1,4.7,0.6,6.6,2c1.7,1.3,2.6,3.5,2.6,6.4V1114.6z M919.4,1106.1v-1.9H914c-3.5,0-5.2,1.1-5.2,3.2
			c0,1,0.4,2,1.3,2.6c1.1,0.6,2.3,0.9,3.6,0.9c1.4,0,2.8-0.4,4-1.3C918.8,1108.8,919.5,1107.5,919.4,1106.1L919.4,1106.1z"/>
		<path class="st0" d="M944.2,1096.3c-2.1-0.1-4,0.7-5.3,2.3c-1.3,1.8-1.9,4-1.8,6.2v9.8h-4.8v-22.8h4.8v4.6
			c0.8-1.4,1.8-2.6,3.1-3.5c1.2-0.9,2.7-1.4,4.2-1.4v4.8L944.2,1096.3z"/>
		<path class="st0" d="M956.4,1095.7v11.6c0,0.9,0.3,1.9,0.9,2.6c0.6,0.7,1.5,1,2.4,1c1.2-0.1,2.2-0.6,2.9-1.5l2,3.4
			c-1.5,1.4-3.5,2.2-5.6,2.3c-2,0-3.8-0.7-5.2-2.1c-1.5-1.5-2.3-3.6-2.2-5.7v-11.4h-2.9v-3.9h2.9v-7.2h4.8v7.2h6v3.9L956.4,1095.7z"
			/>
		<path class="st0" d="M990.9,1105.2H973c0.1,1.6,0.9,3.1,2.3,4c3.6,2.4,8.3,1.9,11.3-1.2l2.7,3c-2.5,2.6-6,4-9.6,3.8
			c-3,0.1-6-1.1-8.2-3.2c-2.3-2.2-3.5-5.4-3.4-8.6c-0.2-3.2,1.1-6.3,3.4-8.5c2.2-2.1,5.1-3.2,8.1-3.2c2.9-0.1,5.7,0.9,7.9,2.8
			c2.2,1.9,3.4,4.8,3.2,7.7L990.9,1105.2z M973,1101.5h13.1c0.1-1.7-0.6-3.3-1.8-4.4c-1.2-1-2.8-1.6-4.4-1.5c-1.7,0-3.4,0.6-4.7,1.6
			C973.7,1098.2,972.9,1099.8,973,1101.5L973,1101.5z"/>
		<path class="st0" d="M1002.2,1102.2v12.3h-4.8v-22.8h4.8v4.2c2.5-4.3,7.9-5.8,12.2-3.3c0.6,0.3,1.1,0.7,1.6,1.2
			c1.6,1.6,2.4,3.8,2.4,6.8v14h-4.8v-12.5c0-4.2-1.7-6.3-5.2-6.3c-1.6,0-3.1,0.6-4.3,1.6C1002.8,1098.7,1002.1,1100.5,1002.2,1102.2
			z"/>
		<path class="st2" d="M327.1,599.1v-12.8h15.4c3-10.1,9-19.1,17.4-25.5c8.1-6.3,18.1-9.7,28.4-9.6c15.7,0,28.2,5.7,37.4,17.1
			l-10.5,13.3c-4.3-4.7-8.5-7.9-12.4-9.8c-4.6-2-9.5-3-14.5-2.8c-5.5-0.1-10.9,1.5-15.5,4.5c-4.7,3.1-8.3,7.6-10.3,12.8h35.3V599
			h-38.5c-0.1,1.2-0.1,3-0.1,5.4c0,2.3,0.1,4.6,0.4,6.9h38.2v12.8h-34.1c5.3,10.3,13.4,15.4,24.2,15.4c4.8,0.1,9.5-0.9,13.7-3
			c4.5-2.6,8.6-5.8,12.1-9.6l10.5,12.8c-9.2,11.4-21.3,17.1-36.4,17.1c-9.9,0.1-19.5-3-27.4-8.8c-8-6-14-14.3-17.1-23.8h-16.2v-12.8
			h13.4c-0.3-2.4-0.4-4.7-0.5-7.1c0-2.4,0-4.1,0.1-5.2H327.1z"/>
		<path class="st2" d="M436.6,553.6h37.7v103.8h-16.6v-88.1h-21.1V553.6z"/>
		<path class="st2" d="M500.2,569.2v-15.6h60.7v13.6l-25,28.1c9.5,0.3,16.9,3.3,22.3,9c5.3,5.5,8.1,12.8,8,20.4
			c0,10.6-3.6,18.9-10.8,24.9s-16.4,9.1-27.7,9c-11.3,0-22.3-3.6-33.1-10.8l7.4-14.1c8.5,5.9,17.4,8.9,26.7,8.9c6,0,11-1.4,14.9-4.2
			c3.9-2.8,5.9-6.9,5.9-12.2c0.1-5.1-2.3-9.8-6.5-12.7c-4.4-3.2-10.4-4.7-18.1-4.8c-3.8,0-7.5,0.5-11.1,1.6v-13.3l24.1-27.9H500.2z"
			/>
		<path class="st2" d="M627.2,567.4c-9.2,0-16,3.1-20.3,9.3c-4.4,6.2-6.6,14.6-6.7,25.2c3.1-3.2,6.7-5.9,10.7-7.8
			c4.8-2.4,10.1-3.7,15.4-3.6c9.3,0,17.1,3.1,23.4,9.3c6.2,6.2,9.4,14.4,9.4,24.6c0,10.2-3.4,18.5-10.2,24.7
			c-6.8,6.2-15.3,9.4-25.6,9.3c-16.6,0-28.1-7.4-34.4-22.3c-3.7-9.1-5.5-18.9-5.3-28.8c0-10.7,1.1-19.6,3.4-26.7
			c2.3-7.1,5.4-12.8,9.4-16.9c7.3-7.9,17.6-12.4,28.4-12.2c11.1-0.1,21.8,3.7,30.5,10.5l-8.8,12.9c-2.7-2.3-5.8-4.1-9.1-5.3
			C634.2,568.4,630.7,567.6,627.2,567.4z M624,606c-6,0-11,1.7-15,5c-3.9,3.1-6.1,7.9-6,12.9c-0.1,5.2,2,10.1,5.8,13.7
			c3.9,3.8,9.1,5.8,14.5,5.7c5.8,0,10.7-1.7,14.5-5.1c3.8-3.3,5.9-8.1,5.8-13.1c0.1-5-1.8-9.9-5.3-13.5C634.7,607.9,630,606,624,606
			z"/>
		<path class="st2" d="M676.4,647.7c-0.1-6.1,4.8-11.1,10.9-11.1c0,0,0.1,0,0.1,0c2.9,0,5.7,1.1,7.8,3.2c2.2,2,3.4,4.7,3.3,7.6
			c0,3-1.3,6.6-4,10.8l-8.9,14.7h-8.6l5.5-15.4C678.5,655.7,676.4,652.4,676.4,647.7z"/>
		<path class="st2" d="M780.5,553.5v15.9h-43.8v25.5c4.6-2.4,9.7-3.6,14.8-3.6c9.1-0.2,18.1,2.9,25.1,8.8c7,5.8,10.5,13.8,10.5,23.7
			c0.2,9.5-3.8,18.6-11,24.9c-7.3,6.6-16.3,9.9-27,9.9c-14,0-25.1-4.7-33.4-14l9.3-12.8c0.8,0.8,1.9,1.7,3.2,2.8s4.1,2.5,8.2,4.4
			c4.3,1.9,9,2.8,13.7,2.8c4.9,0,9.6-1.5,13.5-4.5c4-3,6.1-7.3,6.1-13c0-5.7-2.1-10.1-6.5-13.2c-4.3-3.1-9.7-4.7-16.3-4.7
			c-6.6,0-13,1.7-18.8,4.9l-7.4-8v-49.9H780.5z"/>
		<path class="st2" d="M813.6,644c-7-9.7-10.5-22.8-10.5-39.1s3.5-29.4,10.5-39.1c7-9.7,17.6-14.6,31.8-14.6
			c14.2,0,24.7,4.9,31.8,14.6c7,9.7,10.5,22.8,10.5,39.1c0,16.3-3.5,29.4-10.5,39.1c-7,9.7-17.6,14.6-31.8,14.6
			C831.2,658.6,820.6,653.7,813.6,644z M826.1,576.8c-4.1,7.1-6.2,16.5-6.2,28.1c0,11.6,2.1,20.9,6.2,28
			c4.1,7.1,10.5,10.7,19.2,10.7c8.7,0,15.1-3.5,19.1-10.6c4-7.1,6-16.4,6-28.1s-2-21.1-6-28.1c-4-7.1-10.4-10.6-19.1-10.6
			C836.6,566.1,830.2,569.6,826.1,576.8L826.1,576.8z"/>
		<path class="st0" d="M533.2,733h-17.9c0.1,1.6,0.9,3.1,2.3,4c3.6,2.4,8.3,1.9,11.3-1.2l2.7,3c-2.5,2.6-6,4-9.6,3.8
			c-3,0.1-6-1.1-8.2-3.2c-2.3-2.3-3.5-5.4-3.4-8.6c-0.2-3.2,1.1-6.3,3.4-8.5c2.2-2.1,5.1-3.2,8.1-3.2c2.9-0.1,5.7,0.9,7.9,2.8
			c2.2,2,3.4,4.8,3.3,7.7L533.2,733z M515.3,729.2h13.1c0.1-1.7-0.6-3.3-1.8-4.4c-1.2-1-2.8-1.6-4.4-1.5c-1.7,0-3.4,0.6-4.7,1.6
			C516,725.9,515.3,727.5,515.3,729.2z"/>
		<path class="st0" d="M541.6,719.5l4.9,7.5l5.1-7.5h5.7l-8,11.2l8.3,11.7h-5.9l-5.5-7.6l-5.3,7.6h-5.6l8.1-11.6l-7.7-11.2H541.6z"
			/>
		<path class="st0" d="M572.1,742.7c-3.1,0-6-1.1-8.2-3.2c-4.7-4.7-4.6-12.3,0.1-17c0,0,0,0,0,0c2.4-2.2,5.5-3.4,8.7-3.3
			c3.3-0.1,6.4,1.2,8.7,3.6l-2.8,3.5c-1.6-1.6-3.8-2.5-6-2.6c-1.9,0-3.8,0.7-5.2,2c-1.5,1.3-2.3,3.2-2.2,5.1c0,4.1,3.3,7.5,7.4,7.5
			c0.1,0,0.1,0,0.2,0c2.3-0.1,4.5-1.2,6-2.9l2.8,3.1C579.1,741.1,575.7,742.7,572.1,742.7z"/>
		<path class="st0" d="M591.4,742.3h-4.8v-31.8h4.8V742.3z"/>
		<path class="st0" d="M598.7,741.7c-0.6-0.6-0.9-1.4-0.9-2.3c0-1.7,1.4-3.2,3.1-3.2c0,0,0,0,0.1,0c0.9,0,1.7,0.3,2.3,1
			c0.6,0.6,1,1.4,1,2.2c0,1.8-1.4,3.2-3.2,3.2C600.1,742.7,599.3,742.4,598.7,741.7z"/>
		<path class="st0" d="M624.2,742.3h-13.1v-30h11.7c1.8,0,3.6,0.2,5.3,0.7c1.3,0.4,2.4,1.1,3.3,2c1.3,1.4,2.1,3.3,2.1,5.2
			c0.2,2-0.7,4-2.2,5.2c-0.4,0.3-0.7,0.5-1.1,0.8c-0.2,0.1-0.5,0.3-1.1,0.5c1.7,0.3,3.3,1.2,4.4,2.5c1.1,1.3,1.7,3,1.7,4.7
			c0,2.1-0.7,4-2.1,5.5C631.2,741.4,628.3,742.3,624.2,742.3z M616.2,724.8h6.4c3.7,0,5.5-1.2,5.5-3.7c0.1-1.2-0.4-2.4-1.3-3.1
			c-1.2-0.7-2.7-1-4.1-0.9h-6.5V724.8z M616.2,737.6h7.9c1.5,0.1,2.9-0.2,4.3-0.9c1-0.6,1.5-1.7,1.5-3.3c0-2.7-2.1-4-6.4-4h-7.3
			V737.6z"/>
		<path class="st0" d="M652,717v25.4h-5.1V717h-9.1v-4.6h23.2v4.6H652z"/>
		<path class="st0" d="M675.9,733.9l6.7-21.6h4.5l6.7,21.6l7.5-21.6h5.5l-10.5,30h-5l-6.3-20.5h-0.3l-6.3,20.5h-5l-10.5-30h5.5
			L675.9,733.9z"/>
		<path class="st0" d="M439.4,794.1c-2.6,0.1-5.1-0.8-7.2-2.3c-2-1.5-3.1-3.9-3-6.4c0-3.2,2.3-6.1,7-8.6c-0.9-1-1.8-2.1-2.5-3.3
			c-0.5-1-0.7-2.1-0.7-3.3c-0.1-2.1,0.8-4.1,2.5-5.3c1.7-1.2,3.9-1.9,6-1.8c2.1-0.1,4.1,0.6,5.8,1.8c1.6,1.1,2.5,3,2.4,4.9
			c0,2.8-2.3,5.5-6.9,8c2.3,2.8,4.1,4.9,5.6,6.4c0.9-1.4,1.6-3,2.1-4.6l3.5,2.5c-0.7,1.8-1.5,3.6-2.5,5.2c1.1,1.2,2.6,2.6,4.4,4.2
			l-3.2,3l-4-3.9C446.2,793,442.8,794.2,439.4,794.1z M435.6,788.8c1.3,0.9,2.8,1.3,4.3,1.2c2.1-0.1,4.2-1,5.7-2.5
			c-2.9-3-5.2-5.6-6.9-7.6c-3.2,1.7-4.8,3.7-4.8,5.8C434,786.9,434.6,788,435.6,788.8L435.6,788.8z M441.6,766.9
			c-0.9,0-1.8,0.3-2.6,0.9c-0.7,0.5-1.1,1.3-1.1,2.1c0,0.8,0.2,1.5,0.6,2.2c0.6,0.9,1.3,1.8,2,2.7c3.2-1.6,4.8-3.1,4.8-4.5
			c0.1-1-0.4-1.9-1.1-2.5C443.4,767.2,442.5,766.9,441.6,766.9L441.6,766.9z"/>
		<path class="st0" d="M478.2,793.8l-9.2-22.8h5l7,17.2l7-17.2h5l-9.2,22.8H478.2z"/>
		<path class="st0" d="M517.9,784.5H500c0.1,1.6,0.9,3.1,2.3,4c3.6,2.4,8.3,1.9,11.3-1.2l2.7,3c-2.5,2.6-6,4-9.6,3.8
			c-3,0.1-6-1.1-8.2-3.2c-2.3-2.3-3.5-5.4-3.4-8.6c-0.1-3.2,1.1-6.3,3.4-8.6c2.2-2.1,5.1-3.2,8.1-3.2c2.9-0.1,5.7,0.9,7.9,2.8
			c2.2,1.9,3.4,4.8,3.3,7.7L517.9,784.5z M500,780.7h13.1c0.1-1.7-0.6-3.3-1.8-4.4c-1.2-1-2.8-1.6-4.4-1.5c-1.7,0-3.4,0.5-4.7,1.6
			C500.8,777.4,500,779,500,780.7z"/>
		<path class="st0" d="M535.2,775.5c-2.1-0.1-4.1,0.7-5.4,2.3c-1.3,1.8-1.9,4-1.8,6.2v9.8h-4.8V771h4.8v4.6c0.8-1.4,1.8-2.6,3.2-3.5
			c1.2-0.9,2.7-1.4,4.2-1.4v4.8H535.2z"/>
		<path class="st0" d="M539.5,775.2v-4.1h17.8v4.3l-12.8,14.2H558v4.2h-19.4v-4.7l12.5-14L539.5,775.2z"/>
		<path class="st0" d="M584.7,784.5h-17.9c0.1,1.6,0.9,3.1,2.3,4c3.6,2.4,8.3,1.9,11.3-1.2l2.8,3c-2.5,2.6-6,4-9.6,3.8
			c-3,0.1-6-1.1-8.2-3.2c-2.3-2.2-3.5-5.4-3.4-8.6c-0.2-3.2,1.1-6.3,3.4-8.6c2.2-2.1,5.1-3.2,8.1-3.2c2.9-0.1,5.7,0.9,7.9,2.8
			c2.2,1.9,3.4,4.8,3.3,7.7L584.7,784.5z M566.8,780.7h13.1c0.1-1.7-0.6-3.3-1.8-4.4c-1.2-1-2.8-1.6-4.5-1.5c-1.7,0-3.4,0.5-4.7,1.6
			C567.5,777.4,566.7,779,566.8,780.7z"/>
		<path class="st0" d="M594.7,781.4v12.3h-4.8V771h4.8v4.2c2.5-4.3,8-5.8,12.3-3.3c0.6,0.3,1.1,0.7,1.5,1.1c1.6,1.6,2.4,3.8,2.4,6.8
			v14h-4.8v-12.6c0-4.2-1.7-6.3-5.2-6.3c-1.6,0-3.2,0.6-4.3,1.7C595.3,777.8,594.6,779.6,594.7,781.4z"/>
		<path class="st0" d="M619.4,790.9c-2.2-2.3-3.4-5.4-3.2-8.6c-0.1-3.2,1-6.3,3.3-8.5c2.1-2.1,4.9-3.2,7.9-3.2
			c3-0.1,5.7,1.4,7.4,3.9V762h4.8v31.8h-4.8v-3.4c-1.8,2.5-4.7,3.9-7.8,3.8C624.1,794.2,621.4,793,619.4,790.9z M621,782.5
			c-0.1,2,0.7,3.9,2.1,5.3c1.3,1.3,3.1,2.1,4.9,2.1c1.8,0,3.6-0.7,4.8-2.1c1.3-1.4,2.1-3.4,2-5.3c0.1-2-0.7-4-2-5.5
			c-1.2-1.4-3-2.2-4.8-2.2c-1.9,0-3.7,0.8-4.9,2.2C621.7,778.5,620.9,780.5,621,782.5z"/>
		<path class="st0" d="M651.3,793.8h-4.8V762h4.8v18.7l9.3-9.7h6.2l-8.7,9l9.3,13.8h-5.8l-6.8-10l-3.5,3.5V793.8z"/>
		<path class="st0" d="M689.4,790.7c-4.8,4.6-12.3,4.6-17.2,0c-4.6-4.6-4.6-12.1,0-16.7c4.8-4.5,12.3-4.5,17.2,0
			C694,778.7,694,786.1,689.4,790.7z M675.7,787.7c2.9,2.8,7.4,2.8,10.3,0c2.7-3.1,2.7-7.7,0-10.8c-2.9-2.8-7.4-2.8-10.3,0
			C673,780,673,784.7,675.7,787.7z"/>
		<path class="st0" d="M714.6,787c0.1,2-0.8,3.9-2.4,5.2c-1.7,1.4-3.9,2.1-6,2c-1.8,0-3.5-0.3-5.2-0.9c-1.7-0.6-3.3-1.4-4.7-2.5
			l2.3-3.7c2.2,1.8,4.9,2.9,7.7,3c0.9,0.1,1.8-0.2,2.6-0.8c0.6-0.4,1-1.2,1-1.9c0-1.1-1.5-2.2-4.5-3.1l-0.5-0.2
			c-4.7-1.3-7.1-3.4-7.1-6.4c-0.1-2,0.9-3.9,2.5-5.1c1.9-1.3,4.1-2,6.4-1.9c2.7,0,5.3,0.8,7.5,2.3l-1.8,3.6c-1.8-1.2-3.9-1.8-6-1.8
			c-1,0-1.9,0.2-2.8,0.6c-0.7,0.4-1.1,1.1-1.1,1.9c0,0.7,0.4,1.4,1.1,1.6c0.7,0.3,1.4,0.6,2.2,0.7c0.9,0.2,1.8,0.5,2.5,0.7
			s1.4,0.5,2.1,0.8c0.8,0.3,1.5,0.7,2.2,1.2C713.8,783.3,714.7,785.1,714.6,787z"/>
		<path class="st0" d="M725.9,774.8v11.6c-0.1,0.9,0.3,1.9,0.8,2.6c0.6,0.7,1.5,1,2.4,1c1.2,0,2.3-0.6,3-1.5l2,3.4
			c-1.5,1.4-3.5,2.3-5.6,2.3c-2,0-3.9-0.7-5.2-2.1c-1.5-1.5-2.3-3.6-2.2-5.7v-11.5h-3V771h2.9v-7.2h4.8v7.2h6v3.9H725.9z"/>
		<path class="st0" d="M759.2,784.5h-17.9c0.1,1.6,0.9,3.1,2.3,4c3.6,2.4,8.3,1.9,11.3-1.2l2.8,3c-2.5,2.6-6,4-9.6,3.8
			c-3,0.1-6-1.1-8.2-3.2c-2.3-2.2-3.5-5.4-3.4-8.6c-0.2-3.2,1.1-6.3,3.4-8.6c2.2-2.1,5.1-3.2,8.1-3.2c2.9-0.1,5.7,0.9,7.9,2.8
			c2.2,1.9,3.4,4.8,3.3,7.7L759.2,784.5z M741.2,780.7h13.1c0.1-1.7-0.6-3.3-1.8-4.4c-1.2-1-2.8-1.6-4.4-1.5c-1.7,0-3.4,0.5-4.7,1.6
			C742,777.4,741.2,779,741.2,780.7z"/>
		<path class="st0" d="M769.2,781.4v12.3h-4.8V771h4.8v4.2c2.5-4.3,8-5.8,12.3-3.3c0.6,0.3,1.1,0.7,1.5,1.1c1.6,1.6,2.4,3.8,2.4,6.8
			v14h-4.8v-12.6c0-4.2-1.7-6.3-5.2-6.3c-1.6,0-3.1,0.6-4.3,1.7C769.8,777.8,769.1,779.6,769.2,781.4z"/>
	</g>
</g>
</svg>
